<svg width="512" height="512" viewBox="0 0 512 512" fill="none" xmlns="http://www.w3.org/2000/svg">
<rect width="512" height="512" fill="#B3E5FC"/>
<path d="M356 243.5H156C149.125 243.5 143.5 249.125 143.5 256C143.5 262.875 149.125 268.5 156 268.5H356C362.875 268.5 368.5 262.875 368.5 256C368.5 249.125 362.875 243.5 356 243.5ZM156 331H281C287.875 331 293.5 325.375 293.5 318.5C293.5 311.625 287.875 306 281 306H156C149.125 306 143.5 311.625 143.5 318.5C143.5 325.375 149.125 331 156 331ZM356 181H156C149.125 181 143.5 186.625 143.5 193.5V193.625C143.5 200.5 149.125 206.125 156 206.125H356C362.875 206.125 368.5 200.5 368.5 193.625V193.5C368.5 186.625 362.875 181 356 181Z" fill="#0277BD"/>
</svg>
