<?xml version="1.0" encoding="utf-8"?>
<!-- Generator: Adobe Illustrator 17.0.0, SVG Export Plug-In . SVG Version: 6.00 Build 0)  -->
<!DOCTYPE svg PUBLIC "-//W3C//DTD SVG 1.1//EN" "http://www.w3.org/Graphics/SVG/1.1/DTD/svg11.dtd">
<svg version="1.1" id="Layer_1" xmlns="http://www.w3.org/2000/svg" xmlns:xlink="http://www.w3.org/1999/xlink" x="0px" y="0px"
	 width="841.89px" height="595.28px" viewBox="0 0 841.89 595.28" enable-background="new 0 0 841.89 595.28" xml:space="preserve">
<title>site crawl_new_screenshot</title>
<g id="Layer_1_1_">
	<path fill="#FFFFFF" d="M784.572,0H57.318c-21.116,0-38.35,17.079-38.35,38.35v518.735c0,21.116,17.234,38.35,38.35,38.35h727.099
		c21.116,0,38.35-17.079,38.35-38.35V38.195C822.922,17.079,805.688,0,784.572,0L784.572,0z"/>
	<rect x="54.523" y="71.887" fill="#1076A6" width="733.154" height="34.313"/>
	
		<rect x="54.057" y="38.35" fill="none" stroke="#E5E5E5" stroke-width="1.37" stroke-miterlimit="10" width="733.93" height="513.146"/>
	<g>
		<path fill="#72797B" d="M100.637,131.508h-0.932l-0.155-2.174c-0.466-0.466-0.932-0.776-1.397-1.087
			c-0.621-0.311-1.397-0.466-2.018-0.466c-1.397,0-2.795,0.621-3.726,1.708c-0.932,1.242-1.397,2.95-1.397,4.503v0.155
			c-0.155,1.553,0.466,3.261,1.397,4.503c0.932,1.087,2.174,1.708,3.726,1.708c0.776,0,1.553-0.155,2.174-0.466
			c0.621-0.311,1.087-0.621,1.553-1.087l0.155-2.174h0.932v2.484c-0.466,0.621-1.087,1.242-1.863,1.553
			c-0.932,0.466-1.863,0.621-2.795,0.621c-1.708,0-3.261-0.621-4.347-2.018c-1.242-1.397-1.863-3.261-1.863-5.124v-0.155
			c-0.155-1.863,0.466-3.726,1.708-5.124c1.087-1.397,2.795-2.018,4.503-2.018c0.932,0,2.018,0.155,2.795,0.621
			c0.776,0.311,1.397,0.932,1.863,1.553L100.637,131.508L100.637,131.508L100.637,131.508z"/>
		<path fill="#72797B" d="M105.45,130.732l0.155,1.708v0.155c0.311-0.621,0.776-1.087,1.242-1.553
			c0.466-0.311,1.087-0.466,1.863-0.466h0.311c0.155,0,0.155,0,0.311,0.155l-0.155,1.087l-0.776-0.155
			c-0.621,0-1.242,0.155-1.863,0.621c-0.466,0.466-0.776,1.087-1.087,1.708v6.211l1.553,0.155v0.776h-4.192v-0.776l1.553-0.155
			v-8.539l-1.553-0.155v-0.776H105.45L105.45,130.732z"/>
		<path fill="#72797B" d="M118.026,141.29c-0.155-0.311-0.155-0.621-0.155-0.932v-0.776c-0.466,0.621-0.932,1.087-1.553,1.397
			c-0.621,0.311-1.397,0.466-2.174,0.466c-0.932,0-1.708-0.311-2.484-0.776c-0.621-0.621-0.932-1.397-0.776-2.174
			c0-0.932,0.466-1.863,1.242-2.329c1.087-0.621,2.174-0.932,3.416-0.776h2.329v-1.397c0-0.621-0.155-1.397-0.776-1.708
			c-0.621-0.466-1.242-0.621-2.018-0.621c-0.466,0-1.087,0-1.553,0.155c-0.466,0.155-0.776,0.466-1.242,0.621l-0.155,1.087h-0.932
			v-2.018c0.621-0.466,1.087-0.776,1.708-0.932c0.776-0.155,1.397-0.311,2.174-0.311c0.932,0,2.018,0.311,2.795,0.776
			c0.776,0.621,1.087,1.553,1.087,2.484v5.745c0,0.155,0,0.466,0.155,0.621l1.087,0.155v0.776h-2.174V141.29L118.026,141.29z
			 M114.3,140.358c0.776,0,1.553-0.155,2.174-0.621c0.621-0.311,1.087-0.776,1.397-1.397v-2.174h-2.329
			c-0.932,0-1.708,0.155-2.484,0.621c-0.621,0.311-0.932,0.932-0.932,1.708c0,0.466,0.155,1.087,0.621,1.397
			C113.213,140.358,113.679,140.513,114.3,140.358L114.3,140.358z"/>
		<path fill="#72797B" d="M125.013,131.663l-1.397,0.155l1.708,6.211l0.466,1.863h0.155l0.466-1.863l2.174-7.142h0.932l2.174,7.142
			l0.621,1.708l0,0l0.466-1.863l1.708-6.211l-1.397-0.155v-0.776h3.571v0.776l-1.087,0.155l-2.795,9.626h-0.932l-2.329-7.142
			l-0.466-1.708h-0.155l-0.466,1.708l-2.174,7.142h-0.932l-2.795-9.471l-1.087-0.155v-0.776h3.571V131.663L125.013,131.663z"/>
		<path fill="#72797B" d="M138.055,127.006v-0.776h2.795v14.129l1.553,0.155v0.776h-4.347v-0.776l1.553-0.155v-13.197
			L138.055,127.006z"/>
		<path fill="#72797B" d="M154.358,127.161c1.553,0,3.105,0.621,4.347,1.708c1.087,1.242,1.708,2.795,1.708,4.347v1.863
			c0,1.708-0.466,3.261-1.708,4.347c-1.087,1.087-2.639,1.708-4.347,1.708h-5.589v-0.776l1.553-0.155v-12.111l-1.553-0.155v-0.776
			H154.358L154.358,127.161z M151.408,128.092v12.111h2.95c1.242,0,2.484-0.466,3.416-1.397s1.397-2.329,1.397-3.726v-1.863
			c0-1.397-0.466-2.639-1.397-3.726c-0.932-0.932-2.174-1.397-3.416-1.397H151.408z"/>
		<path fill="#72797B" d="M162.587,140.358l1.553-0.155v-8.539l-1.553-0.155v-0.776h2.795v9.471l1.553,0.155v0.932h-4.347V140.358z
			 M165.381,127.782h-1.242v-1.708h1.087L165.381,127.782z"/>
		<path fill="#72797B" d="M176.095,141.29c-0.155-0.311-0.155-0.621-0.155-0.932v-0.776c-0.466,0.621-0.932,1.087-1.553,1.397
			c-0.621,0.311-1.397,0.466-2.174,0.466c-0.932,0-1.708-0.311-2.484-0.776c-0.621-0.621-0.932-1.397-0.776-2.174
			c0-0.932,0.466-1.863,1.242-2.329c1.087-0.621,2.174-0.932,3.416-0.776h2.329v-1.397c0-0.621-0.155-1.397-0.776-1.708
			c-0.621-0.466-1.242-0.621-2.018-0.621c-0.466,0-1.087,0-1.553,0.155c-0.466,0.155-0.776,0.466-1.242,0.621l-0.155,1.087h-0.932
			v-2.018c0.621-0.466,1.087-0.776,1.708-0.932c0.776-0.155,1.397-0.311,2.174-0.311c0.932,0,2.018,0.311,2.795,0.776
			c0.776,0.621,1.087,1.553,1.087,2.484v5.745c0,0.155,0,0.466,0.155,0.621l1.087,0.155v0.776h-2.174V141.29L176.095,141.29z
			 M172.213,140.358c0.776,0,1.553-0.155,2.174-0.621c0.621-0.311,1.087-0.776,1.397-1.397v-2.174h-2.329
			c-0.932,0-1.708,0.155-2.484,0.621c-0.621,0.311-0.932,0.932-0.932,1.708c0,0.466,0.155,1.087,0.621,1.397
			C171.126,140.358,171.592,140.513,172.213,140.358L172.213,140.358z"/>
		<path fill="#72797B" d="M179.821,136.166c-0.155-1.397,0.311-2.795,1.087-4.037c0.621-0.932,1.708-1.553,2.95-1.397
			c0.621,0,1.397,0.155,2.018,0.466c0.621,0.311,1.087,0.776,1.397,1.397l0.155-1.708h0.932v10.403c0,1.242-0.311,2.329-1.087,3.261
			c-0.776,0.776-2.018,1.242-3.105,1.087c-0.466,0-1.087-0.155-1.553-0.155c-0.466-0.155-0.932-0.311-1.397-0.466l0.311-0.932
			c0.466,0.155,0.932,0.311,1.397,0.466c0.466,0.155,0.932,0.155,1.397,0.155c0.776,0,1.708-0.311,2.329-0.776
			c0.466-0.621,0.776-1.553,0.776-2.484v-1.397c-0.311,0.466-0.776,0.932-1.397,1.242c-0.621,0.311-1.242,0.466-1.863,0.466
			c-1.087,0-2.174-0.466-2.95-1.397c-0.776-1.087-1.087-2.484-1.087-3.726v-0.466H179.821L179.821,136.166z M181.063,136.321
			c-0.155,1.087,0.155,2.174,0.776,3.105c0.466,0.776,1.397,1.242,2.329,1.087c0.621,0,1.242-0.155,1.863-0.466
			c0.466-0.311,0.932-0.932,1.087-1.397v-4.968c-0.155-0.621-0.621-1.087-1.087-1.397c-0.466-0.466-1.242-0.621-1.863-0.621
			c-0.932,0-1.863,0.466-2.329,1.242c-0.621,0.932-0.776,2.174-0.776,3.261V136.321z"/>
		<path fill="#72797B" d="M190.845,140.358l1.553-0.155v-8.539l-1.553-0.155v-0.776h2.639l0.155,1.863
			c0.311-0.621,0.776-1.087,1.397-1.397c0.621-0.311,1.242-0.466,2.018-0.466c0.932-0.155,2.018,0.311,2.639,1.087
			c0.621,0.932,1.087,2.018,0.932,3.261v5.279l1.553,0.155v0.776h-4.347v-0.776l1.397-0.155v-5.434
			c0.155-0.932-0.155-1.708-0.621-2.484c-0.466-0.466-1.242-0.776-1.863-0.776c-0.776,0-1.397,0.155-2.018,0.621
			c-0.466,0.466-0.932,1.087-1.087,1.708v6.366l1.553,0.155v0.776h-4.347L190.845,140.358L190.845,140.358z"/>
		<path fill="#72797B" d="M203.576,135.7c0-1.397,0.311-2.795,1.242-3.726c1.708-1.863,4.658-2.018,6.521-0.311
			c0.155,0.155,0.155,0.155,0.311,0.311c0.932,1.087,1.242,2.329,1.242,3.726v0.311c0,1.397-0.311,2.795-1.242,3.726
			c-1.708,1.863-4.658,2.018-6.521,0.311c-0.155-0.155-0.155-0.155-0.311-0.311c-0.932-1.087-1.242-2.329-1.242-3.726V135.7z
			 M204.818,136.166c0,1.087,0.311,2.174,0.932,3.105c0.621,0.776,1.553,1.242,2.639,1.242c0.932,0,1.863-0.466,2.484-1.242
			c0.621-0.932,0.932-2.018,0.932-3.105v-0.311c0-1.087-0.311-2.174-0.932-3.105c-0.621-0.776-1.553-1.242-2.484-1.242
			c-0.932,0-2.018,0.466-2.484,1.242c-0.621,0.932-0.932,2.018-0.932,3.105L204.818,136.166L204.818,136.166z"/>
		<path fill="#72797B" d="M222.518,133.992h-0.932l-0.155-1.397c-0.311-0.311-0.776-0.621-1.087-0.776
			c-0.466-0.155-1.087-0.311-1.553-0.155c-0.621,0-1.397,0.155-1.863,0.466c-0.311,0.311-0.621,0.776-0.621,1.242
			c0,0.466,0.155,0.932,0.466,1.242c0.621,0.466,1.397,0.776,2.174,0.776c1.087,0.155,2.018,0.621,2.795,1.087
			c1.087,0.932,1.242,2.484,0.311,3.726c-0.155,0.155-0.311,0.311-0.466,0.466c-0.776,0.621-1.863,0.932-2.795,0.776
			c-0.776,0-1.397-0.155-2.018-0.311c-0.621-0.155-1.242-0.466-1.708-0.932v-2.018h0.932l0.155,1.553
			c0.311,0.311,0.776,0.466,1.087,0.621c0.466,0.155,0.932,0.155,1.397,0.155c0.776,0,1.397-0.155,2.018-0.466
			c0.466-0.311,0.776-0.776,0.776-1.397c0-0.466-0.155-0.932-0.621-1.242c-0.621-0.466-1.397-0.776-2.174-0.932
			c-0.932-0.155-2.018-0.621-2.795-1.087c-0.621-0.466-0.932-1.087-0.932-1.863s0.311-1.553,1.087-2.018
			c0.776-0.621,1.708-0.932,2.639-0.776c0.776,0,1.397,0.155,2.174,0.311c0.621,0.155,1.087,0.466,1.553,0.932L222.518,133.992z"/>
		<path fill="#72797B" d="M227.487,127.937v2.795h2.329v0.932h-2.329v6.832c0,0.466,0.155,1.087,0.466,1.397
			c0.311,0.311,0.621,0.466,1.087,0.466h0.466c0.155,0,0.466,0,0.621-0.155l0.155,0.776c-0.311,0.155-0.466,0.155-0.776,0.155
			c-0.311,0-0.466,0.155-0.776,0.155c-0.621,0-1.242-0.155-1.708-0.776c-0.466-0.621-0.621-1.397-0.621-2.174v-6.832h-1.708v-0.932
			h1.708v-2.639L227.487,127.937L227.487,127.937z"/>
		<path fill="#72797B" d="M231.834,140.358l1.553-0.155v-8.539l-1.553-0.155v-0.776h2.795v9.471l1.553,0.155v0.932h-4.347V140.358z
			 M234.629,127.782h-1.087v-1.708h1.087V127.782z"/>
		<path fill="#72797B" d="M242.547,140.358c0.776,0,1.397-0.155,2.018-0.621c0.621-0.466,0.932-1.087,0.776-1.863h1.087v0.155
			c0,0.932-0.311,1.863-1.087,2.484c-0.776,0.621-1.863,0.932-2.795,0.932c-1.242,0-2.484-0.466-3.416-1.397
			c-0.776-1.087-1.242-2.484-1.087-3.726v-0.466c0-1.397,0.311-2.639,1.087-3.726c0.776-0.932,2.018-1.553,3.416-1.397
			c0.776,0,1.553,0.155,2.174,0.466c0.621,0.311,1.242,0.776,1.708,1.242v2.329h-0.932l-0.155-1.863
			c-0.311-0.311-0.776-0.621-1.087-0.776c-0.466-0.155-1.087-0.311-1.553-0.311c-0.932,0-2.018,0.466-2.484,1.242
			c-0.621,0.932-0.932,2.018-0.776,3.105v0.466c0,1.087,0.311,2.174,0.776,3.105C240.684,140.048,241.616,140.513,242.547,140.358z"
			/>
		<path fill="#72797B" d="M256.366,133.992h-0.932l-0.155-1.397c-0.311-0.311-0.776-0.621-1.087-0.776
			c-0.466-0.155-1.087-0.311-1.553-0.155c-0.621,0-1.397,0.155-1.863,0.466c-0.311,0.311-0.621,0.776-0.621,1.242
			c0,0.466,0.155,0.932,0.466,1.242c0.621,0.466,1.397,0.776,2.174,0.776c1.087,0.155,2.018,0.621,2.795,1.087
			c1.087,0.932,1.242,2.484,0.311,3.726c-0.155,0.155-0.311,0.311-0.466,0.466c-0.776,0.621-1.863,0.932-2.795,0.776
			c-0.776,0-1.397-0.155-2.174-0.311c-0.621-0.155-1.242-0.466-1.708-0.932v-2.018h0.932l0.155,1.397
			c0.311,0.311,0.776,0.466,1.087,0.621c0.466,0.155,0.932,0.155,1.397,0.155c0.776,0,1.397-0.155,2.018-0.466
			c0.466-0.311,0.776-0.776,0.776-1.397c0-0.466-0.155-0.932-0.621-1.242c-0.621-0.466-1.397-0.776-2.174-0.932
			c-0.932-0.155-2.018-0.621-2.795-1.087c-0.621-0.466-0.932-1.087-0.932-1.863s0.311-1.553,1.087-2.018
			c0.776-0.621,1.708-0.932,2.795-0.776c0.776,0,1.397,0.155,2.174,0.311c0.621,0.155,1.087,0.466,1.553,0.932L256.366,133.992z"/>
	</g>
	<path fill="#5BC8EE" d="M704.146,139.427v0.776h-2.329v1.397h1.863v0.776h-1.863v1.397h2.329v0.776h-3.416v-5.279L704.146,139.427z
		"/>
	<path fill="#5BC8EE" d="M705.853,142.842l-1.242-1.708h0.932c0,0,0.155,0,0.155,0.155l0,0l0.776,1.242v-0.155
		c0,0,0-0.155,0.155-0.155l0,0l0.621-0.932l0.155-0.155h0.932l-1.242,1.708l1.242,2.018h-1.087l-0.155-0.155l-0.776-1.242
		c0,0.155,0,0.155-0.155,0.155l-0.776,1.087l-0.155,0.155l-0.155,0.155h-0.776L705.853,142.842z"/>
	<path fill="#5BC8EE" d="M708.803,145.948v-4.968h0.621l0.155,0.155l0.155,0.311c0.155-0.155,0.311-0.311,0.466-0.466
		c0.155-0.155,0.466-0.155,0.776-0.155c0.155,0,0.311,0,0.466,0.155c0.155,0.155,0.311,0.155,0.466,0.466
		c0.155,0.155,0.155,0.466,0.311,0.621c0.155,0.311,0.155,0.621,0.155,0.776c0,0.311,0,0.466-0.155,0.776l-0.311,0.621
		c-0.155,0.155-0.311,0.311-0.466,0.466c-0.155,0.155-0.466,0.155-0.621,0.155s-0.311,0-0.466-0.155
		c-0.155-0.155-0.311-0.155-0.466-0.311v1.553h-0.932l0,0H708.803z M710.667,141.6c-0.155,0-0.311,0-0.466,0.155
		c-0.155,0.155-0.311,0.311-0.466,0.311v1.708l0.311,0.311c0.155,0,0.155,0.155,0.466,0.155c0.155,0,0.311,0,0.466-0.155
		c0.155,0,0.155-0.155,0.311-0.155c0.155-0.155,0.155-0.155,0.155-0.466s0.155-0.311,0.155-0.466c0-0.155,0-0.311-0.155-0.466
		c0-0.155-0.155-0.311-0.155-0.466s-0.155-0.155-0.155-0.155L710.667,141.6L710.667,141.6z"/>
	<path fill="#5BC8EE" d="M714.548,140.979c0.311,0,0.466,0,0.776,0.155c0.466,0.155,0.776,0.621,1.087,1.087
		c0.155,0.311,0.155,0.621,0.155,0.776c0,0.311,0,0.621-0.155,0.776c-0.155,0.466-0.621,0.776-1.087,1.087
		c-0.311,0.155-0.466,0.155-0.776,0.155s-0.466,0-0.776-0.155c-0.466-0.155-0.776-0.621-1.087-1.087
		c-0.155-0.311-0.155-0.621-0.155-0.776c0-0.311,0-0.621,0.155-0.776s0.311-0.466,0.466-0.621c0.155-0.155,0.311-0.311,0.621-0.466
		C714.082,140.979,714.238,140.979,714.548,140.979z M714.548,144.084c0.311,0,0.621-0.155,0.776-0.311
		c0.311-0.621,0.311-1.242,0-1.863c-0.155-0.155-0.466-0.311-0.776-0.311s-0.621,0.155-0.776,0.311
		c-0.311,0.621-0.311,1.242,0,1.863C714.082,144.084,714.238,144.084,714.548,144.084z"/>
	<path fill="#5BC8EE" d="M717.188,144.861v-3.726h0.776l0.155,0.155l0.155,0.466c0.155-0.155,0.311-0.466,0.466-0.466
		c0.155-0.155,0.466-0.155,0.621-0.155s0.311,0,0.466,0.155l-0.155,0.621v0.155h-0.466c-0.155,0-0.311,0-0.466,0.155
		c-0.155,0.155-0.311,0.311-0.311,0.466v2.329h-1.087v-0.155H717.188z"/>
	<path fill="#5BC8EE" d="M721.38,144.861c-0.621,0-1.087-0.466-1.087-1.087V141.6h-0.466v-0.311l0.621-0.155l0.155-1.087
		c0,0,0-0.155,0.155-0.155l0,0h0.466v1.087h0.932v0.621h-0.932v2.018c0,0.155,0,0.155,0.155,0.311
		c0.155,0.155,0.155,0.155,0.155,0.155h0.466l0.155,0.155l0.311,0.466c-0.155,0.155-0.311,0.155-0.466,0.155
		S721.69,144.706,721.38,144.861z"/>
	<g>
		<path fill="#707A7C" d="M109.487,178.242h-1.397v-8.384h1.553L109.487,178.242L109.487,178.242z"/>
		<path fill="#707A7C" d="M114.921,173.429C114.921,173.585,114.766,173.585,114.921,173.429L114.921,173.429l-0.311,0.155
			c-0.155,0-0.155,0-0.155-0.155c-0.155-0.155-0.155-0.155-0.311-0.155c-0.155,0-0.155-0.155-0.311-0.155
			c-0.155,0-0.311-0.155-0.466-0.155c-0.155,0-0.466,0-0.621,0.155s-0.155,0.311-0.155,0.466s0,0.155,0.155,0.311
			c0.155,0.155,0.155,0.155,0.311,0.155s0.311,0.155,0.466,0.155s0.311,0.155,0.466,0.155s0.311,0.155,0.466,0.155
			s0.311,0.155,0.466,0.311c0.155,0.155,0.155,0.311,0.311,0.466c0.155,0.155,0.155,0.466,0.155,0.621c0,0.311,0,0.621-0.155,0.776
			c-0.155,0.155-0.311,0.466-0.466,0.621c-0.155,0.155-0.466,0.311-0.776,0.466s-0.621,0.155-1.087,0.155
			c-0.155,0-0.466,0-0.621-0.155c-0.155,0-0.311,0-0.466-0.155s-0.311-0.155-0.466-0.155c-0.155,0-0.311-0.155-0.466-0.311
			l0.311-0.466c0,0,0-0.155,0.155-0.155l0,0h0.155c0.155,0,0.155,0,0.155,0.155s0.155,0.155,0.311,0.155
			c0.155,0,0.155,0.155,0.311,0.155c0.155,0,0.311,0.155,0.466,0.155c0.155,0,0.311,0,0.466-0.155
			c0.155-0.155,0.155-0.155,0.311-0.155l0.155,0.155c0-0.155,0.155-0.155,0.155-0.311s0-0.155-0.155-0.311
			c-0.155-0.155-0.155-0.155-0.311-0.155s-0.311-0.155-0.466-0.155c-0.155,0-0.311-0.155-0.466-0.155s-0.311-0.155-0.466-0.155
			s-0.311-0.155-0.466-0.311s-0.155-0.311-0.311-0.466c-0.155-0.155-0.155-0.466-0.155-0.621c0-0.311,0-0.466,0.155-0.776
			c0-0.155,0.155-0.466,0.466-0.466c0.155-0.155,0.466-0.311,0.776-0.466c0.311-0.155,0.621-0.155,0.932-0.155
			c0.466,0,0.776,0.155,1.087,0.155c0.311,0.155,0.621,0.311,0.776,0.466L114.921,173.429z"/>
		<path fill="#707A7C" d="M119.889,173.429C119.889,173.585,119.734,173.585,119.889,173.429L119.889,173.429l-0.311,0.155
			c-0.155,0-0.155,0-0.155-0.155c-0.155-0.155-0.155-0.155-0.311-0.155s-0.155-0.155-0.311-0.155c-0.155,0-0.311-0.155-0.466-0.155
			s-0.466,0-0.621,0.155c-0.155,0.155-0.155,0.311-0.155,0.466s0,0.155,0.155,0.311c0.155,0.155,0.155,0.155,0.311,0.155
			s0.311,0.155,0.466,0.155s0.311,0.155,0.466,0.155s0.311,0.155,0.466,0.155c0.155,0,0.311,0.155,0.466,0.311
			c0.155,0.155,0.155,0.311,0.311,0.466c0.155,0.155,0.155,0.466,0.155,0.621c0,0.311,0,0.621-0.155,0.776
			c-0.155,0.155-0.311,0.466-0.466,0.621c-0.155,0.155-0.466,0.311-0.776,0.466c-0.311,0.155-0.621,0.155-1.087,0.155
			c-0.155,0-0.466,0-0.621-0.155c-0.155,0-0.311,0-0.466-0.155c-0.155-0.155-0.311-0.155-0.466-0.155
			c-0.155,0-0.311-0.155-0.466-0.311l0.311-0.466c0,0,0-0.155,0.155-0.155l0,0h0.155c0.155,0,0.155,0,0.155,0.155
			s0.155,0.155,0.311,0.155S117.094,177,117.25,177c0.155,0,0.311,0.155,0.466,0.155c0.155,0,0.311,0,0.466-0.155
			c0.155-0.155,0.155-0.155,0.311-0.155l0.155-0.155c0-0.155,0.155-0.155,0.155-0.311s0-0.155-0.155-0.311
			c-0.155-0.155-0.155-0.155-0.311-0.155c-0.155,0-0.311-0.155-0.466-0.155c-0.155,0-0.311-0.155-0.466-0.155
			c-0.155,0-0.311-0.155-0.466-0.155c-0.155,0-0.311-0.155-0.466-0.311c-0.155-0.155-0.155-0.311-0.311-0.466
			c-0.155-0.155-0.155-0.466-0.155-0.621c0-0.311,0-0.466,0.155-0.776c0-0.155,0.155-0.466,0.466-0.466
			c0.155-0.155,0.466-0.311,0.776-0.466c0.311-0.155,0.621-0.155,0.932-0.155c0.466,0,0.776,0.155,1.087,0.155
			c0.311,0.155,0.621,0.311,0.776,0.466L119.889,173.429z"/>
		<path fill="#707A7C" d="M122.684,172.342v3.726c0,0.311,0,0.621,0.155,0.776c0.155,0.155,0.466,0.311,0.776,0.311
			s0.466-0.155,0.776-0.155c0.155-0.155,0.466-0.311,0.621-0.466v-4.192h1.397v5.9h-0.776c-0.155,0-0.311-0.155-0.311-0.155
			l-0.155-0.466c-0.155,0.155-0.311,0.311-0.466,0.311c-0.155,0.155-0.311,0.155-0.466,0.155c-0.155,0.155-0.311,0.155-0.466,0.155
			c-0.155,0.155-0.311,0.155-0.466,0.155c-0.311,0-0.621,0-0.776-0.155s-0.466-0.311-0.621-0.466s-0.311-0.466-0.466-0.776
			c-0.155-0.311-0.155-0.621-0.155-0.932v-3.726H122.684L122.684,172.342L122.684,172.342z"/>
		<path fill="#707A7C" d="M130.292,172.187c0.311,0,0.776,0,1.087,0.155c0.621,0.155,1.087,0.776,1.397,1.397
			c0.155,0.311,0.155,0.776,0.155,1.087v0.466l-0.155,0.155h-3.882c0,0.466,0.155,0.932,0.466,1.397
			c0.311,0.311,0.776,0.466,1.087,0.466c0.155,0,0.466,0,0.621-0.155c0.155-0.155,0.311-0.155,0.466-0.155s0.155-0.155,0.311-0.155
			c0.155-0.155,0.155-0.155,0.311-0.155h0.155l0.155,0.155l0.466,0.466c-0.155,0.155-0.311,0.311-0.466,0.466l-0.621,0.311
			c-0.155,0.155-0.466,0.155-0.621,0.155c-0.155,0-0.466,0-0.621,0c-0.466,0-0.776,0-1.087-0.155
			c-0.311-0.155-0.621-0.311-0.932-0.621c-0.311-0.311-0.466-0.621-0.621-0.932c-0.155-0.466-0.155-0.932-0.155-1.397
			c0-0.466,0.155-0.776,0.155-1.087c0.155-0.311,0.311-0.621,0.466-0.932c0.155-0.311,0.621-0.466,0.932-0.621
			C129.671,172.342,129.981,172.187,130.292,172.187z M130.447,173.274c-0.311,0-0.621,0.155-0.932,0.311
			c-0.311,0.311-0.466,0.621-0.466,1.087h2.795c0-0.155,0-0.311-0.155-0.466c0-0.155,0-0.311-0.155-0.466
			c-0.155-0.155-0.311-0.311-0.466-0.311S130.602,173.274,130.447,173.274L130.447,173.274z"/>
		<path fill="#707A7C" d="M137.589,173.429C137.589,173.585,137.434,173.585,137.589,173.429L137.589,173.429l-0.311,0.155
			c-0.155,0-0.155,0-0.155-0.155c-0.155-0.155-0.155-0.155-0.311-0.155s-0.155-0.155-0.311-0.155c-0.155,0-0.311-0.155-0.466-0.155
			c-0.155,0-0.466,0-0.621,0.155s-0.155,0.311-0.155,0.466s0,0.155,0.155,0.311s0.155,0.155,0.311,0.155s0.311,0.155,0.466,0.155
			c0.155,0,0.311,0.155,0.466,0.155s0.311,0.155,0.466,0.155c0.155,0,0.311,0.155,0.466,0.311c0.155,0.155,0.155,0.311,0.311,0.466
			c0.155,0.155,0.155,0.466,0.155,0.621c0,0.311,0,0.621-0.155,0.776c-0.155,0.155-0.311,0.466-0.466,0.621
			s-0.466,0.311-0.776,0.466c-0.311,0.155-0.621,0.155-1.087,0.155c-0.155,0-0.466,0-0.621-0.155c-0.155,0-0.311,0-0.466-0.155
			c-0.155-0.155-0.311-0.155-0.466-0.155c-0.155,0-0.311-0.155-0.466-0.311l0.311-0.155c0,0,0-0.155,0.155-0.155l0,0h0.155
			c0.155,0,0.155,0,0.155,0.155c0,0.155,0.155,0.155,0.311,0.155c0.155,0,0.155,0.155,0.311,0.155s0.311,0.155,0.466,0.155
			c0.155,0,0.311,0,0.466-0.155s0.155-0.155,0.311-0.155l0.155-0.155c0-0.155,0.155-0.155,0.155-0.311s0-0.155-0.155-0.311
			s-0.155-0.155-0.311-0.155s-0.311-0.155-0.466-0.155c-0.155,0-0.311-0.155-0.466-0.155s-0.311-0.155-0.466-0.155
			c-0.155,0-0.311-0.155-0.466-0.311c-0.155-0.155-0.155-0.311-0.311-0.466c-0.155-0.155-0.155-0.466-0.155-0.621
			c0-0.311,0-0.466,0.155-0.776c0-0.155,0.155-0.466,0.466-0.466c0.155-0.155,0.466-0.311,0.776-0.466
			c0.311-0.155,0.621-0.155,0.932-0.155c0.466,0,0.776,0.155,1.087,0.155c0.311,0.155,0.621,0.311,0.776,0.466L137.589,173.429z"/>
		<path fill="#707A7C" d="M149.389,174.05c0,0.621-0.155,1.087-0.311,1.708c-0.155,0.466-0.466,0.932-0.776,1.397
			c-0.466,0.311-0.932,0.621-1.397,0.932c-0.466,0.155-1.087,0.311-1.708,0.311c-1.242,0-2.329-0.466-3.105-1.242
			c-0.311-0.466-0.621-0.932-0.776-1.397c-0.466-1.087-0.466-2.329,0-3.416c0.155-0.466,0.466-0.932,0.776-1.397
			c0.466-0.311,0.932-0.621,1.397-0.776c1.087-0.466,2.329-0.466,3.416,0c0.466,0.155,0.932,0.466,1.397,0.932
			c0.311,0.466,0.621,0.932,0.776,1.397C149.234,172.963,149.389,173.585,149.389,174.05z M147.837,174.05
			c0-0.466-0.155-0.776-0.155-1.242c-0.155-0.311-0.311-0.621-0.466-0.932c-0.311-0.155-0.466-0.466-0.776-0.621
			c-0.311-0.155-0.621-0.155-1.087-0.155s-0.776,0.155-1.087,0.155c-0.311,0.155-0.621,0.311-0.776,0.621
			c-0.311,0.311-0.466,0.621-0.466,0.932c-0.155,0.466-0.155,0.776-0.155,1.242s0,0.776,0.155,1.242
			c0.155,0.311,0.311,0.621,0.466,0.932c0.311,0.155,0.466,0.466,0.776,0.621c0.311,0.155,0.776,0.155,1.087,0.155
			c0.311,0,0.776,0,1.087-0.155c0.311-0.155,0.621-0.311,0.776-0.621c0.311-0.311,0.466-0.621,0.466-0.932
			C147.837,174.982,147.837,174.516,147.837,174.05L147.837,174.05z"/>
		<path fill="#707A7C" d="M153.426,178.242h-1.242l-2.329-5.9h1.087c0.155,0,0.155,0,0.155,0.155c0,0.155,0.155,0.155,0.155,0.155
			l1.087,3.105c0.155,0.155,0.155,0.311,0.155,0.466s0.155,0.311,0.155,0.466c0-0.155,0.155-0.311,0.155-0.466
			s0.155-0.311,0.155-0.466l1.087-3.105c0-0.155,0.155-0.155,0.155-0.155l0.155-0.155h1.087L153.426,178.242z"/>
		<path fill="#707A7C" d="M158.86,172.187c0.311,0,0.776,0,1.087,0.155c0.621,0.155,1.087,0.776,1.397,1.397
			c0.155,0.311,0.155,0.776,0.155,1.087v0.466l-0.155,0.155h-3.882c0,0.466,0.155,0.932,0.466,1.397
			c0.311,0.311,0.776,0.466,1.087,0.466c0.155,0,0.466,0,0.621-0.155c0.155-0.155,0.311-0.155,0.466-0.155s0.155-0.155,0.311-0.155
			c0.155-0.155,0.155-0.155,0.311-0.155h0.155l0.155,0.155l0.466,0.466c-0.155,0.155-0.311,0.311-0.466,0.466l-0.621,0.311
			c-0.155,0.155-0.466,0.155-0.621,0.155s-0.466,0-0.621,0c-0.466,0-0.776,0-1.087-0.155c-0.311-0.155-0.621-0.311-0.932-0.621
			c-0.311-0.311-0.466-0.621-0.621-0.932c-0.155-0.466-0.155-0.932-0.155-1.397c0-0.466,0.155-0.776,0.155-1.087
			c0.155-0.311,0.311-0.621,0.466-0.932c0.155-0.311,0.621-0.466,0.932-0.621C158.239,172.342,158.55,172.187,158.86,172.187z
			 M159.016,173.274c-0.311,0-0.621,0.155-0.932,0.311c-0.311,0.311-0.466,0.621-0.466,1.087h2.795c0-0.155,0-0.311-0.155-0.466
			c0-0.155,0-0.311-0.155-0.466c-0.155-0.155-0.311-0.311-0.466-0.311C159.326,173.429,159.171,173.274,159.016,173.274
			L159.016,173.274z"/>
		<path fill="#707A7C" d="M162.587,178.242v-5.9h0.776c0.155,0,0.155,0,0.311,0.155c0.155,0.155,0.155,0.155,0.155,0.311
			l0.155,0.776c0.155-0.311,0.466-0.621,0.776-0.776c0.311-0.155,0.621-0.311,0.932-0.311c0.311,0,0.466,0,0.776,0.155l-0.155,1.087
			c0,0.155,0,0.155-0.155,0.155h-0.776c-0.311,0-0.466,0-0.776,0.155c-0.311,0.155-0.466,0.466-0.466,0.776v3.726L162.587,178.242
			L162.587,178.242z"/>
		<path fill="#707A7C" d="M170.35,178.242h-1.242l-2.329-5.9h1.242c0.155,0,0.155,0,0.155,0.155c0,0.155,0.155,0.155,0.155,0.155
			l1.087,3.105c0.155,0.155,0.155,0.311,0.155,0.466s0.155,0.311,0.155,0.466c0-0.155,0.155-0.311,0.155-0.466
			s0.155-0.311,0.155-0.466l1.087-3.105c0-0.155,0.155-0.155,0.155-0.155l0.155-0.155h1.242L170.35,178.242z"/>
		<path fill="#707A7C" d="M175.318,170.635c0,0.155,0,0.155-0.155,0.311c0,0.155-0.155,0.155-0.155,0.311
			c0,0.155-0.155,0.155-0.311,0.155c-0.155,0.155-0.466,0.155-0.621,0c-0.155-0.155-0.155-0.155-0.311-0.155
			s-0.155-0.155-0.155-0.311s-0.155-0.155-0.155-0.311c0-0.155,0-0.155,0.155-0.311c0-0.155,0.155-0.155,0.155-0.311
			s0.155-0.155,0.311-0.155c0.155-0.155,0.466-0.155,0.621,0c0.155,0.155,0.155,0.155,0.311,0.155s0.155,0.155,0.155,0.311
			S175.318,170.479,175.318,170.635z M175.008,172.342v5.9h-1.553v-5.9H175.008z"/>
		<path fill="#707A7C" d="M179.2,172.187c0.311,0,0.776,0,1.087,0.155c0.621,0.155,1.087,0.776,1.397,1.397
			c0.155,0.311,0.155,0.776,0.155,1.087v0.466l-0.155,0.155h-3.882c0,0.466,0.155,0.932,0.466,1.397
			c0.311,0.311,0.776,0.466,1.087,0.466c0.155,0,0.466,0,0.621-0.155c0.155-0.155,0.311-0.155,0.466-0.155s0.155-0.155,0.311-0.155
			c0.155-0.155,0.155-0.155,0.311-0.155h0.155l0.155,0.155l0.466,0.466c-0.155,0.155-0.311,0.311-0.466,0.466l-0.621,0.311
			c-0.155,0.155-0.466,0.155-0.621,0.155s-0.466,0-0.621,0c-0.466,0-0.776,0-1.087-0.155c-0.311-0.155-0.621-0.311-0.932-0.621
			c-0.311-0.311-0.466-0.621-0.621-0.932c-0.155-0.466-0.155-0.932-0.155-1.397c0-0.466,0.155-0.776,0.155-1.087
			c0.155-0.311,0.311-0.621,0.466-0.932c0.155-0.311,0.621-0.466,0.932-0.621C178.424,172.342,178.734,172.187,179.2,172.187z
			 M179.2,173.274c-0.311,0-0.621,0.155-0.932,0.311c-0.311,0.311-0.466,0.621-0.466,1.087h2.795c0-0.155,0-0.311-0.155-0.466
			c0-0.155,0-0.311-0.155-0.466c-0.155-0.155-0.311-0.311-0.466-0.311C179.51,173.429,179.355,173.274,179.2,173.274z"/>
		<path fill="#707A7C" d="M181.995,172.342h1.087c0.155,0,0.155,0,0.311,0.155c0.155,0.155,0.155,0.155,0.155,0.155l0.776,3.105
			c0,0.155,0.155,0.311,0.155,0.466s0.155,0.311,0.155,0.466c0-0.155,0.155-0.311,0.155-0.466s0.155-0.311,0.155-0.466l0.932-3.105
			c0-0.155,0.155-0.155,0.155-0.155l0.155-0.155h0.621c0.155,0,0.155,0,0.155,0.155c0,0.155,0.155,0.155,0.155,0.155l0.932,3.261
			c0,0.155,0.155,0.311,0.155,0.466s0.155,0.311,0.155,0.466c0-0.155,0.155-0.311,0.155-0.466s0.155-0.311,0.155-0.466l0.776-3.105
			c0-0.155,0.155-0.155,0.155-0.155s0.155,0,0.155-0.155h0.932l-1.863,5.9h-1.087c-0.155,0-0.155-0.155-0.311-0.155l-1.087-3.416
			c0-0.155-0.155-0.155-0.155-0.311s-0.155-0.155-0.155-0.311c0,0.155,0,0.155-0.155,0.311c0,0.155-0.155,0.155-0.155,0.311
			l-1.087,3.416c-0.155,0.155-0.155,0.155-0.311,0.155h-1.087L181.995,172.342z"/>
	</g>
	<g>
		<path fill="#424A4F" d="M115.542,191.285c0.466,0,1.087,0,1.553,0.155s0.932,0.466,1.242,0.776
			c0.311,0.311,0.621,0.776,0.776,1.087c0.155,0.466,0.311,0.932,0.311,1.397c0,0.466,0,0.932-0.155,1.397
			c-0.155,0.466-0.311,0.776-0.466,1.087c-0.155,0.466-0.466,0.776-0.776,1.087c-0.311,0.311-0.621,0.776-0.932,1.087l-2.95,2.95
			c0.311-0.155,0.466-0.155,0.776-0.155c0.311,0,0.466-0.155,0.776-0.155h3.261c0.466,0,0.776,0.311,0.776,0.621l0,0v1.397h-8.85
			v-0.621c0-0.155,0-0.311,0.155-0.466c0-0.155,0.155-0.311,0.311-0.466l3.882-3.882c0.311-0.311,0.621-0.621,0.776-0.932
			c0.311-0.311,0.466-0.621,0.621-0.932c0.155-0.311,0.311-0.621,0.466-0.932c0.155-0.311,0.155-0.621,0.155-0.932
			c0-0.311,0-0.621-0.155-0.776c-0.155-0.155-0.311-0.466-0.466-0.621c-0.155-0.155-0.311-0.311-0.621-0.311
			c-0.311-0.155-0.466-0.155-0.776-0.155c-0.466,0-0.932,0.155-1.242,0.466c-0.311,0.311-0.621,0.621-0.776,1.087
			c-0.155,0.155-0.155,0.311-0.311,0.466c-0.155,0.155-0.311,0.155-0.466,0.155h-0.311l-1.087-0.155
			c0-0.621,0.155-1.087,0.466-1.553c0.155-0.466,0.621-0.776,0.932-1.087c0.466-0.311,0.932-0.621,1.397-0.776
			C114.3,191.285,114.921,191.285,115.542,191.285z"/>
		<path fill="#424A4F" d="M122.684,202.464h2.639v-8.384l-1.863,1.553c-0.155,0.155-0.155,0.155-0.155,0.155h-0.155
			c-0.155,0-0.155,0-0.311-0.155c-0.155-0.155-0.155-0.155-0.155-0.155l-0.776-0.932l3.882-3.416h1.708v11.334h2.329v1.708h-6.987
			L122.684,202.464z"/>
		<path fill="#424A4F" d="M134.018,191.129v7.608h0.466c0.155,0,0.311,0,0.311-0.155s0.155-0.155,0.311-0.155l2.329-2.795
			l0.311-0.311c0.155-0.155,0.155-0.155,0.466-0.155h1.863l-2.795,3.416l-0.311,0.155l-0.311,0.311l0.311,0.311
			c0.155,0.155,0.311,0.311,0.311,0.466l3.105,4.347h-2.018c-0.155,0-0.311,0-0.466-0.155l-0.311-0.311l-2.329-3.416l-0.311-0.311
			c-0.155,0-0.155-0.155-0.466-0.155h-0.466v4.192h-2.174v-13.197h2.174L134.018,191.129L134.018,191.129z"/>
	</g>
	<path fill="#5BC8EE" d="M744.359,135.7c0-0.776-0.621-1.397-1.397-1.397h-9.626c-0.776,0-1.397,0.621-1.397,1.397v13.818
		c0,0.776,0.621,1.397,1.397,1.397h5.589c0.466,0,1.087-0.155,1.397-0.466l0,0l3.571-3.571l0,0c0.311-0.466,0.466-0.932,0.466-1.397
		L744.359,135.7L744.359,135.7L744.359,135.7z M740.167,148.277v-1.708h1.708L740.167,148.277z M742.806,145.792L742.806,145.792
		c-0.155,0.155-0.311,0.155-0.466,0.155h-2.795v2.795c0,0.155-0.155,0.311-0.155,0.466l0,0c-0.155,0.155-0.311,0.155-0.466,0.155
		h-5.745v-13.818h9.626v9.626C742.961,145.482,742.806,145.637,742.806,145.792L742.806,145.792z"/>
	<polygon fill="#5BC8EE" points="738.769,143.153 738.769,139.116 737.372,139.116 737.372,143.153 735.975,143.153 
		738.148,146.103 740.167,143.153 	"/>
	
		<line fill="none" stroke="#DADADA" stroke-width="1.35" stroke-linecap="round" stroke-miterlimit="10" x1="105.45" y1="326.674" x2="98.618" y2="326.674"/>
	
		<line fill="none" stroke="#DADADA" stroke-width="1.35" stroke-linecap="round" stroke-miterlimit="10" x1="105.45" y1="376.359" x2="98.618" y2="376.359"/>
	
		<line fill="none" stroke="#DADADA" stroke-width="1.35" stroke-linecap="round" stroke-miterlimit="10" x1="105.45" y1="421.851" x2="98.618" y2="421.851"/>
	
		<line fill="none" stroke="#DADADA" stroke-width="1.35" stroke-linecap="round" stroke-miterlimit="10" x1="105.294" y1="496.377" x2="98.463" y2="496.377"/>
	
		<line fill="none" stroke="#DADADA" stroke-width="1.35" stroke-linecap="round" stroke-miterlimit="10" x1="168.176" y1="497.154" x2="161.345" y2="497.154"/>
	
		<line fill="none" stroke="#DADADA" stroke-width="1.35" stroke-linecap="round" stroke-miterlimit="10" x1="232.145" y1="497.775" x2="225.158" y2="497.775"/>
	
		<line fill="none" stroke="#DADADA" stroke-width="1.35" stroke-linecap="round" stroke-miterlimit="10" x1="298.287" y1="498.706" x2="291.455" y2="498.706"/>
	
		<line fill="none" stroke="#DADADA" stroke-width="1.35" stroke-linecap="round" stroke-miterlimit="10" x1="362.876" y1="499.327" x2="355.89" y2="499.327"/>
	
		<line fill="none" stroke="#DADADA" stroke-width="1.35" stroke-linecap="round" stroke-miterlimit="10" x1="428.242" y1="500.104" x2="421.411" y2="500.104"/>
	
		<line fill="none" stroke="#DADADA" stroke-width="1.35" stroke-linecap="round" stroke-miterlimit="10" x1="490.658" y1="500.725" x2="483.827" y2="500.725"/>
	
		<line fill="none" stroke="#DADADA" stroke-width="1.35" stroke-linecap="round" stroke-miterlimit="10" x1="750.725" y1="503.83" x2="743.738" y2="503.83"/>
	<polyline fill="none" stroke="#DBE3E3" stroke-width="0.67" stroke-miterlimit="10" points="91.631,532.554 91.631,161.008 
		760.506,161.008 760.506,532.554 	"/>
	<rect x="229.039" y="160.542" fill="#DBE3E3" width="531.933" height="55.119"/>
	<g>
		<path fill="#707A7C" d="M260.403,178.242h-1.553v-3.726h-3.882v3.726h-1.553v-8.384h1.553v3.571h3.882v-3.571h1.553V178.242z"/>
		<path fill="#707A7C" d="M263.818,170.635c0,0.155,0,0.155-0.155,0.311c0,0.155-0.155,0.155-0.155,0.311
			c0,0.155-0.155,0.155-0.311,0.155c-0.155,0.155-0.466,0.155-0.621,0c-0.155-0.155-0.155-0.155-0.311-0.155
			c-0.155-0.155-0.155-0.155-0.155-0.311s-0.155-0.155-0.155-0.311c0-0.155,0-0.155,0.155-0.311c0-0.155,0.155-0.155,0.155-0.311
			s0.155-0.155,0.311-0.155c0.155-0.155,0.466-0.155,0.621,0c0.155,0.155,0.155,0.155,0.311,0.155
			c0.155,0.155,0.155,0.155,0.155,0.311S263.818,170.479,263.818,170.635z M263.508,172.342v5.9h-1.553v-5.9H263.508z"/>
		<path fill="#707A7C" d="M267.079,172.187c0.311,0,0.466,0,0.776,0.155c0.155,0,0.466,0.155,0.621,0.155h1.708v0.466
			c0,0.155,0,0.155-0.155,0.155l-0.155,0.155l-0.466,0.155c0,0.155,0.155,0.155,0.155,0.311v0.311c0,0.311-0.155,0.621-0.155,0.776
			c-0.155,0.155-0.311,0.466-0.466,0.621c-0.155,0.155-0.466,0.311-0.776,0.466c-0.311,0.155-0.621,0.155-0.932,0.155
			c-0.155,0-0.466,0-0.621-0.155c-0.155,0.155-0.311,0.155-0.311,0.466s0.155,0.155,0.155,0.311c0,0.155,0.155,0.155,0.466,0.155
			h1.397c0.155,0,0.466,0.155,0.776,0.155c0.155,0,0.466,0,0.621,0.155s0.311,0.155,0.466,0.466
			c0.155,0.155,0.155,0.466,0.155,0.776c0,0.311-0.155,0.466-0.155,0.776c-0.155,0.155-0.311,0.466-0.466,0.621
			c-0.311,0.155-0.621,0.311-0.932,0.466c-0.466,0.155-0.776,0.155-1.242,0.155c-0.311,0-0.776,0-1.087-0.155
			s-0.621-0.155-0.776-0.311c-0.155-0.155-0.466-0.311-0.466-0.466c-0.155-0.155-0.155-0.466-0.155-0.621
			c0-0.311,0-0.466,0.155-0.776c0.155-0.155,0.466-0.311,0.776-0.466c-0.155-0.155-0.311-0.155-0.311-0.311
			c-0.155-0.155-0.155-0.311-0.155-0.466v-0.311c0-0.155,0.155-0.155,0.155-0.311s0.155-0.155,0.155-0.311
			c0-0.155,0.155-0.155,0.311-0.155c-0.311-0.155-0.466-0.466-0.776-0.621c-0.155-0.311-0.311-0.621-0.155-0.932
			c0-0.311,0.155-0.621,0.155-0.776c0.155-0.311,0.311-0.466,0.466-0.621c0.155-0.155,0.466-0.311,0.776-0.466
			C266.303,172.187,266.768,172.342,267.079,172.187z M268.632,178.398c0-0.155,0-0.155-0.155-0.311
			c-0.155-0.155-0.155-0.155-0.311-0.155c-0.155-0.155-0.155-0.155-0.466-0.155h-1.087c-0.155,0-0.311,0-0.466-0.155
			c-0.155,0-0.311,0.155-0.466,0.311c-0.155,0.155-0.155,0.155-0.155,0.466c0,0.155,0,0.155,0.155,0.311s0.155,0.155,0.155,0.155
			s0.155,0.155,0.466,0.155c0.155,0,0.466,0.155,0.621,0.155c0.311,0,0.466,0,0.776-0.155c0.155,0,0.311-0.155,0.466-0.155
			c0.155-0.155,0.155-0.155,0.311-0.155L268.632,178.398z M267.079,175.137c0.155,0,0.311,0,0.466-0.155
			c0.155-0.155,0.155-0.155,0.311-0.155c0.155-0.155,0.155-0.155,0.155-0.311s0.155-0.155,0.155-0.466s-0.155-0.621-0.311-0.776
			c-0.155-0.155-0.466-0.155-0.776-0.155s-0.621,0-0.776,0.155s-0.155,0.466-0.155,0.776c0,0.155,0,0.311,0.155,0.466
			c0,0.155,0.155,0.155,0.155,0.311c0,0.155,0.155,0.155,0.311,0.155C266.613,175.137,267.079,175.137,267.079,175.137
			L267.079,175.137z"/>
		<path fill="#707A7C" d="M271.116,178.242v-8.539h1.397v3.261c0.155-0.155,0.466-0.466,0.776-0.466
			c0.311-0.155,0.621-0.155,0.932-0.155c0.311,0,0.621,0,0.776,0.155c0.155,0.155,0.466,0.311,0.621,0.466
			c0.155,0.155,0.311,0.466,0.466,0.776c0.155,0.311,0.155,0.621,0.155,0.932v3.726h-1.397v-3.726c0-0.311,0-0.621-0.155-0.776
			s-0.466-0.311-0.776-0.311c-0.311,0-0.466,0.155-0.776,0.155c-0.155,0.155-0.466,0.311-0.621,0.466v4.347L271.116,178.242z"/>
		<path fill="#707A7C" d="M281.518,175.292v2.95h-1.553v-8.384h2.795c0.466,0,0.932,0,1.397,0.155
			c0.311,0.155,0.776,0.311,1.087,0.466c0.311,0.311,0.466,0.466,0.621,0.776c0.155,0.311,0.155,0.621,0.155,1.087
			c0,0.466-0.155,0.776-0.155,1.087c-0.155,0.311-0.311,0.621-0.621,0.776c-0.311,0.311-0.621,0.466-1.087,0.466
			c-0.466,0.155-0.932,0.155-1.397,0.155L281.518,175.292L281.518,175.292z M281.518,174.05h1.087c0.311,0,0.466,0,0.776-0.155
			c0.466-0.155,0.776-0.466,0.776-0.776c0.155-0.466,0.155-0.776,0-1.242c0-0.155-0.155-0.311-0.311-0.466
			c-0.155-0.155-0.311-0.155-0.466-0.311s-0.466-0.155-0.776-0.155h-1.087V174.05z"/>
		<path fill="#707A7C" d="M286.953,178.242v-5.9h0.776c0.155,0,0.155,0,0.311,0.155c0.155,0.155,0.155,0.155,0.155,0.311
			l0.155,0.776c0.155-0.311,0.466-0.621,0.776-0.776s0.621-0.311,0.932-0.311c0.311,0,0.466,0,0.776,0.155l-0.155,1.087
			c0,0.155,0,0.155-0.155,0.155h-0.776c-0.311,0-0.466,0-0.776,0.155s-0.466,0.466-0.466,0.776v3.726L286.953,178.242
			L286.953,178.242z"/>
		<path fill="#707A7C" d="M293.474,170.635c0,0.155,0,0.155-0.155,0.311c0,0.155-0.155,0.155-0.155,0.311
			c0,0.155-0.155,0.155-0.311,0.155c-0.155,0.155-0.466,0.155-0.621,0c-0.155-0.155-0.155-0.155-0.311-0.155
			c-0.155-0.155-0.155-0.155-0.155-0.311s-0.155-0.155-0.155-0.311c0-0.155,0-0.155,0.155-0.311c0-0.155,0.155-0.155,0.155-0.311
			s0.155-0.155,0.311-0.155c0.155-0.155,0.466-0.155,0.621,0c0.155,0.155,0.155,0.155,0.311,0.155
			c0.155,0.155,0.155,0.155,0.155,0.311C293.474,170.479,293.474,170.479,293.474,170.635z M293.318,172.342v5.9h-1.397v-5.9
			H293.318z"/>
		<path fill="#707A7C" d="M297.355,172.187c0.466,0,0.776,0,1.087,0.155s0.621,0.311,0.932,0.621
			c0.155,0.311,0.466,0.621,0.621,0.932c0.155,0.466,0.155,0.776,0.155,1.242c0,0.466,0,0.776-0.155,1.242
			c-0.155,0.311-0.311,0.776-0.621,0.932c-0.311,0.311-0.621,0.466-0.932,0.621c-0.311,0.155-0.776,0.311-1.087,0.155
			c-0.466,0-0.776,0-1.087-0.155c-0.311-0.155-0.621-0.311-0.932-0.621l-0.621-0.932c-0.155-0.466-0.311-0.776-0.155-1.242
			c0-0.466,0.155-0.776,0.155-1.242c0.155-0.311,0.311-0.776,0.621-0.932c0.311-0.311,0.621-0.466,0.932-0.621
			C296.579,172.187,297.045,172.187,297.355,172.187z M297.355,177.311c0.466,0,0.776-0.155,1.087-0.466
			c0.466-0.932,0.466-2.018,0-2.95c-0.311-0.311-0.621-0.466-1.087-0.466s-0.932,0.155-1.087,0.466c-0.466,0.932-0.466,2.018,0,2.95
			C296.424,177.156,296.89,177.311,297.355,177.311z"/>
		<path fill="#707A7C" d="M301.392,178.242v-5.9h0.776c0.155,0,0.155,0,0.311,0.155c0.155,0.155,0.155,0.155,0.155,0.311
			l0.155,0.776c0.155-0.311,0.466-0.621,0.776-0.776s0.621-0.311,0.932-0.311c0.311,0,0.466,0,0.776,0.155l-0.155,1.087
			c0,0.155,0,0.155-0.155,0.155h-0.776c-0.311,0-0.466,0-0.776,0.155s-0.466,0.466-0.466,0.776v3.726L301.392,178.242
			L301.392,178.242z"/>
		<path fill="#707A7C" d="M307.758,170.635c0,0.155,0,0.155-0.155,0.311c0,0.155-0.155,0.155-0.155,0.311
			c0,0.155-0.155,0.155-0.311,0.155c-0.155,0.155-0.466,0.155-0.621,0c-0.155-0.155-0.155-0.155-0.311-0.155
			c-0.155-0.155-0.155-0.155-0.155-0.311s-0.155-0.155-0.155-0.311c0-0.155,0-0.155,0.155-0.311c0-0.155,0.155-0.155,0.155-0.311
			s0.155-0.155,0.311-0.155c0.155-0.155,0.466-0.155,0.621,0c0.155,0.155,0.155,0.155,0.311,0.155
			c0.155,0.155,0.155,0.155,0.155,0.311C307.758,170.479,307.913,170.479,307.758,170.635z M307.603,172.342v5.9h-1.397v-5.9
			H307.603z"/>
		<path fill="#707A7C" d="M311.174,178.398c-0.466,0-0.932-0.155-1.087-0.466c-0.311-0.311-0.466-0.776-0.466-1.087v-3.416H309
			c-0.155,0-0.155,0-0.155-0.155s-0.155-0.155-0.155-0.155v-0.466l0.932-0.155l0.311-1.553c0-0.155,0-0.155,0.155-0.155
			s0.155-0.155,0.155-0.155h0.776v1.863h1.553v1.087h-1.553v3.261c0,0.155,0,0.311,0.155,0.466s0.155,0.155,0.466,0.155h0.155
			c0.155,0,0.155,0,0.155-0.155c0,0,0.155,0,0.155-0.155l0,0h0.155c0,0,0.155,0,0.155,0.155l0,0l0.466,0.776
			c-0.155,0.155-0.466,0.311-0.776,0.466C311.64,178.242,311.484,178.398,311.174,178.398z"/>
		<path fill="#707A7C" d="M315.832,179.795c0,0.155-0.155,0.155-0.155,0.155c-0.155,0-0.155,0.155-0.311,0.155h-1.087l1.087-2.484
			l-2.329-5.434h1.242c0.155,0,0.155,0,0.311,0.155c0.155,0.155,0.155,0.155,0.155,0.155l1.242,3.105
			c0,0.155,0.155,0.155,0.155,0.311s0.155,0.155,0.155,0.311s0.155-0.155,0.155-0.311s0.155-0.155,0.155-0.311l1.087-3.105
			c0-0.155,0.155-0.155,0.155-0.155l0.155-0.155h1.087L315.832,179.795z"/>
	</g>
	<g>
		<path fill="#424A4F" d="M258.384,196.253c0.466,0,0.932,0,1.397,0.155s0.932,0.466,1.242,0.776
			c0.311,0.311,0.621,0.776,0.776,1.087c0.466,1.087,0.466,2.329,0,3.416c-0.155,0.466-0.466,0.932-0.932,1.397
			c-0.466,0.466-0.932,0.776-1.397,0.932c-0.621,0.155-1.242,0.311-1.863,0.311c-0.621,0-1.242-0.155-1.863-0.311
			c-0.466-0.155-0.932-0.466-1.397-0.932c-0.466-0.466-0.621-0.932-0.776-1.397c-0.155-0.621-0.311-1.242-0.311-1.863
			s0.155-1.242,0.466-1.863c0.311-0.776,0.621-1.397,1.087-2.018l3.105-4.037c0.155-0.155,0.155-0.311,0.466-0.311
			c0.155,0,0.466-0.155,0.776-0.155h2.018l-3.726,4.658c-0.155,0.155-0.155,0.155-0.155,0.311s-0.155,0.155-0.155,0.311
			c0.311-0.155,0.621-0.155,0.776-0.311C257.918,196.253,258.229,196.253,258.384,196.253z M255.279,200.135
			c0,0.311,0,0.621,0.155,0.932c0,0.311,0.155,0.466,0.466,0.776c0.155,0.155,0.466,0.466,0.776,0.466
			c0.621,0.311,1.242,0.311,1.863,0c0.621-0.311,0.932-0.776,1.242-1.242c0.155-0.311,0.155-0.621,0.155-0.932
			c0-0.311,0-0.621-0.155-0.932c-0.155-0.311-0.311-0.466-0.466-0.776c-0.155-0.155-0.466-0.311-0.776-0.466
			c-0.621-0.311-1.242-0.311-1.863,0c-0.311,0.155-0.466,0.311-0.776,0.466c-0.155,0.155-0.311,0.466-0.466,0.776
			C255.434,199.514,255.434,199.824,255.279,200.135L255.279,200.135z"/>
		<path fill="#424A4F" d="M263.508,202.929c0-0.155,0-0.311,0.155-0.466s0.155-0.311,0.155-0.466
			c0.155-0.155,0.311-0.155,0.466-0.155c0.155-0.155,0.311-0.155,0.466-0.155s0.466,0,0.621,0.155c0.155,0,0.311,0.155,0.466,0.311
			c0.155,0.155,0.155,0.311,0.155,0.466c0.155,0.155,0.155,0.311,0.155,0.466c0,0.311,0,0.621-0.155,0.932
			c-0.155,0.311-0.311,0.621-0.466,0.932l-0.621,0.932c-0.311,0.311-0.466,0.621-0.776,0.776l-0.466-0.311
			c-0.155-0.155-0.155-0.155-0.155-0.311v-0.155c0-0.155,0.155-0.155,0.155-0.155l0.155-0.155c0,0,0.155-0.155,0.311-0.311
			c0.155-0.155,0.155-0.311,0.155-0.466s0.155-0.311,0.155-0.466c-0.155,0-0.311,0-0.466-0.155
			c-0.155-0.155-0.311-0.155-0.466-0.311c-0.155-0.155-0.155-0.311-0.155-0.466C263.508,203.395,263.508,203.085,263.508,202.929z"
			/>
		<path fill="#424A4F" d="M269.253,202.464h2.639v-8.384l-1.863,1.553c-0.155,0.155-0.155,0.155-0.155,0.155h-0.155
			c-0.155,0-0.155,0-0.311-0.155s-0.155-0.155-0.155-0.155l-0.776-0.776l3.882-3.416h1.708v11.179h2.329v1.708h-7.142
			L269.253,202.464L269.253,202.464z"/>
		<path fill="#424A4F" d="M286.797,197.806c0,0.932-0.155,2.018-0.311,2.95c-0.155,0.776-0.466,1.397-0.932,2.018
			c-0.311,0.466-0.932,0.932-1.397,1.087c-0.621,0.311-1.242,0.466-1.863,0.466c-0.621,0-1.242-0.155-1.863-0.466
			c-0.621-0.311-1.087-0.621-1.397-1.087c-0.466-0.621-0.776-1.242-0.932-2.018c-0.466-1.863-0.466-3.882,0-5.9
			c0.155-0.776,0.466-1.397,0.932-2.018c0.311-0.466,0.932-0.932,1.397-1.087c0.621-0.311,1.242-0.466,1.863-0.466
			c0.621,0,1.242,0.155,1.863,0.466s1.087,0.621,1.397,1.087c0.466,0.621,0.776,1.242,0.932,2.018
			C286.797,195.942,286.953,196.874,286.797,197.806z M284.624,197.806c0-0.776,0-1.553-0.155-2.329
			c-0.155-0.466-0.311-0.932-0.466-1.397c-0.155-0.311-0.466-0.466-0.776-0.776c-0.621-0.311-1.242-0.311-1.863,0
			c-0.311,0.155-0.621,0.466-0.776,0.776c-0.311,0.466-0.466,0.932-0.466,1.397c-0.311,1.553-0.311,3.105,0,4.658
			c0.155,0.466,0.311,0.932,0.466,1.397c0.155,0.311,0.466,0.466,0.776,0.776c0.621,0.311,1.242,0.311,1.863,0
			c0.311-0.155,0.621-0.466,0.776-0.776c0.311-0.466,0.466-0.932,0.466-1.397C284.624,199.514,284.624,198.737,284.624,197.806
			L284.624,197.806z"/>
		<path fill="#424A4F" d="M295.647,199.358h1.553v1.242c0,0.155-0.155,0.466-0.311,0.466c0,0,0,0-0.155,0h-1.087v3.105h-1.863
			v-3.105h-5.434c-0.155,0-0.311,0-0.466-0.155s-0.155-0.155-0.155-0.311l-0.155-1.087l6.055-8.074h2.174L295.647,199.358
			L295.647,199.358z M293.784,195.166v-0.621c0-0.311,0-0.466,0.155-0.776l-4.037,5.434h3.882V195.166L293.784,195.166z"/>
	</g>
	<g>
		<path fill="#707A7C" d="M365.05,175.137c0.155,0.155,0.155,0.311,0.155,0.466s0.155-0.311,0.155-0.466s0.155-0.311,0.155-0.466
			l2.484-4.658c0,0,0-0.155,0.155-0.155l0,0l0.155-0.155h1.397v8.384h-1.397v-5.745L365.827,177
			c-0.155,0.155-0.155,0.155-0.155,0.155s-0.155,0.155-0.311,0.155h-0.155c-0.155,0-0.155,0-0.311-0.155
			C364.74,177,364.74,177,364.74,177l-2.484-4.658v6.055h-1.397v-8.384h1.397c0,0,0.155,0,0.155,0.155l0,0l0.155,0.155l2.484,4.658
			C364.895,174.982,365.05,174.982,365.05,175.137z"/>
		<path fill="#707A7C" d="M373.745,172.187c0.311,0,0.776,0,1.087,0.155c0.621,0.155,1.087,0.776,1.397,1.397
			c0.155,0.311,0.155,0.776,0.155,1.087v0.466l-0.155,0.155h-3.882c0,0.466,0.155,0.932,0.466,1.397
			c0.311,0.311,0.776,0.466,1.087,0.466c0.155,0,0.466,0,0.621-0.155c0.155-0.155,0.311-0.155,0.466-0.155s0.155-0.155,0.311-0.155
			c0.155-0.155,0.155-0.155,0.311-0.155h0.155l0.155,0.155l0.466,0.466c-0.155,0.155-0.311,0.311-0.466,0.466l-0.621,0.311
			c-0.155,0.155-0.466,0.155-0.621,0.155c-0.155,0-0.466,0-0.621,0c-0.466,0-0.776,0-1.087-0.155
			c-0.311-0.155-0.621-0.311-0.932-0.621c-0.311-0.311-0.466-0.621-0.621-0.932c-0.155-0.466-0.155-0.932-0.155-1.397
			c0-0.466,0.155-0.776,0.155-1.087c0.155-0.311,0.311-0.621,0.466-0.932c0.155-0.311,0.621-0.466,0.932-0.621
			C373.124,172.342,373.434,172.187,373.745,172.187z M373.745,173.274c-0.311,0-0.621,0.155-0.932,0.311
			c-0.311,0.311-0.466,0.621-0.466,1.087h2.795c0-0.155,0-0.311-0.155-0.466c0-0.155,0-0.311-0.155-0.466
			c-0.155-0.155-0.311-0.311-0.466-0.311C374.211,173.429,374.055,173.274,373.745,173.274z"/>
		<path fill="#707A7C" d="M381.663,178.242c-0.155,0-0.311-0.155-0.311-0.155l-0.155-0.466c-0.155,0.155-0.155,0.311-0.466,0.466
			c-0.155,0-0.311,0.155-0.466,0.311s-0.311,0.155-0.466,0.155s-0.466,0.155-0.621,0.155c-0.311,0-0.621,0-0.776-0.155
			c-0.311-0.155-0.621-0.311-0.776-0.621s-0.311-0.621-0.466-0.932c-0.311-0.776-0.311-1.708,0-2.484
			c0.155-0.311,0.311-0.621,0.466-0.932c0.155-0.311,0.466-0.466,0.776-0.621s0.621-0.155,1.087-0.155c0.311,0,0.621,0,0.776,0.155
			s0.466,0.311,0.621,0.466v-3.105h1.397v8.539h-0.932L381.663,178.242L381.663,178.242z M379.8,177.311
			c0.311,0,0.466,0,0.776-0.155c0.155-0.155,0.466-0.311,0.621-0.466v-2.795c-0.155-0.155-0.311-0.311-0.466-0.466
			c-0.466-0.155-0.776-0.155-1.242,0c-0.155,0-0.311,0.155-0.466,0.311l-0.311,0.621c-0.155,0.621-0.155,1.087,0,1.708
			c0.155,0.155,0.155,0.466,0.155,0.621c0,0.155,0.155,0.155,0.466,0.311C379.334,177.156,379.645,177.311,379.8,177.311z"/>
		<path fill="#707A7C" d="M385.7,170.635c0,0.155,0,0.155-0.155,0.311c0,0.155-0.155,0.155-0.155,0.311
			c0,0.155-0.155,0.155-0.311,0.155c-0.155,0.155-0.466,0.155-0.621,0c-0.155-0.155-0.155-0.155-0.311-0.155
			s-0.155-0.155-0.155-0.311s-0.155-0.155-0.155-0.311c0-0.155,0-0.155,0.155-0.311c0-0.155,0.155-0.155,0.155-0.311
			s0.155-0.155,0.311-0.155c0.155-0.155,0.466-0.155,0.621,0c0.155,0.155,0.155,0.155,0.311,0.155c0.155,0,0.155,0.155,0.155,0.311
			C385.7,170.479,385.7,170.479,385.7,170.635z M385.545,172.342v5.9h-1.397v-5.9H385.545z"/>
		<path fill="#707A7C" d="M388.495,172.342v3.726c0,0.311,0,0.621,0.155,0.776c0.155,0.155,0.466,0.311,0.776,0.311
			s0.466-0.155,0.776-0.155c0.155-0.155,0.466-0.311,0.621-0.466v-4.192h1.397v5.9h-0.776c-0.155,0-0.311-0.155-0.311-0.155
			l-0.155-0.466c-0.155,0.155-0.311,0.311-0.466,0.311c-0.155,0.155-0.311,0.155-0.466,0.155c-0.155,0.155-0.311,0.155-0.466,0.155
			c-0.155,0.155-0.311,0.155-0.466,0.155c-0.311,0-0.621,0-0.776-0.155s-0.466-0.311-0.621-0.466
			c-0.155-0.155-0.311-0.466-0.466-0.776c-0.155-0.311-0.155-0.621-0.155-0.932v-3.726H388.495L388.495,172.342L388.495,172.342z"/>
		<path fill="#707A7C" d="M393.774,178.242v-5.9h0.776c0.155,0,0.311,0.155,0.311,0.155l0.155,0.466l0.311-0.311
			c0.155-0.155,0.155-0.155,0.311-0.155c0.155,0,0.311-0.155,0.466-0.155s0.311-0.155,0.466-0.155c0.311,0,0.621,0.155,0.932,0.311
			c0.311,0.155,0.466,0.466,0.466,0.776c0.155-0.155,0.155-0.311,0.311-0.466c0.155-0.155,0.311-0.155,0.466-0.311
			s0.311-0.155,0.466-0.155s0.311,0,0.466-0.155c0.311,0,0.621,0,0.776,0.155s0.466,0.311,0.621,0.466
			c0.155,0.155,0.311,0.466,0.466,0.776c0.155,0.311,0.155,0.621,0.155,0.932v3.726h-1.397v-3.726c0-0.311,0-0.621-0.155-0.776
			c-0.155-0.155-0.466-0.311-0.776-0.311c-0.155,0-0.311,0-0.466,0.155s-0.155,0.155-0.311,0.155c-0.155,0-0.155,0.155-0.155,0.311
			c-0.155,0.155-0.155,0.311-0.155,0.466v3.726h-1.397v-3.726c0-0.311,0-0.621-0.155-0.776c-0.155-0.155-0.466-0.311-0.776-0.311
			c-0.155,0-0.311,0-0.466,0.155s-0.311,0.311-0.466,0.466v4.347h-1.087L393.774,178.242L393.774,178.242z"/>
		<path fill="#707A7C" d="M407.282,175.292v2.95h-1.553v-8.384h2.795c0.466,0,0.932,0,1.397,0.155
			c0.311,0.155,0.776,0.311,1.087,0.466c0.311,0.311,0.466,0.466,0.621,0.776c0.155,0.311,0.155,0.621,0.155,1.087
			c0,0.466-0.155,0.776-0.155,1.087c-0.155,0.311-0.311,0.621-0.621,0.776c-0.311,0.311-0.621,0.466-1.087,0.466
			c-0.466,0.155-0.932,0.155-1.397,0.155L407.282,175.292L407.282,175.292z M407.282,174.05h1.087c0.311,0,0.466,0,0.776-0.155
			c0.466-0.155,0.776-0.466,0.776-0.776c0.155-0.466,0.155-0.776,0-1.242c0-0.155-0.155-0.311-0.311-0.466
			c-0.155-0.155-0.311-0.155-0.466-0.311s-0.466-0.155-0.776-0.155h-1.087V174.05z"/>
		<path fill="#707A7C" d="M412.871,178.242v-5.9h0.776c0.155,0,0.155,0,0.311,0.155c0.155,0.155,0.155,0.155,0.155,0.311
			l0.155,0.776c0.155-0.311,0.466-0.621,0.776-0.776s0.621-0.311,0.932-0.311c0.311,0,0.466,0,0.776,0.155l-0.155,1.087
			c0,0.155,0,0.155-0.155,0.155h-0.776c-0.311,0-0.466,0-0.776,0.155s-0.466,0.466-0.466,0.776v3.726L412.871,178.242
			L412.871,178.242z"/>
		<path fill="#707A7C" d="M419.237,170.635c0,0.155,0,0.155-0.155,0.311c0,0.155-0.155,0.155-0.155,0.311
			c0,0.155-0.155,0.155-0.311,0.155c-0.155,0.155-0.466,0.155-0.621,0c-0.155-0.155-0.155-0.155-0.311-0.155
			s-0.155-0.155-0.155-0.311s-0.155-0.155-0.155-0.311c0-0.155,0-0.155,0.155-0.311c0-0.155,0.155-0.155,0.155-0.311
			s0.155-0.155,0.311-0.155c0.155-0.155,0.466-0.155,0.621,0s0.155,0.155,0.311,0.155c0.155,0,0.155,0.155,0.155,0.311
			C419.237,170.479,419.237,170.479,419.237,170.635z M419.082,172.342v5.9h-1.397v-5.9H419.082z"/>
		<path fill="#707A7C" d="M423.274,172.187c0.466,0,0.776,0,1.087,0.155s0.621,0.311,0.932,0.621
			c0.155,0.311,0.466,0.621,0.621,0.932c0.155,0.466,0.155,0.776,0.155,1.242c0,0.466,0,0.776-0.155,1.242
			c-0.155,0.311-0.311,0.776-0.621,0.932c-0.311,0.311-0.621,0.466-0.932,0.621c-0.311,0.155-0.776,0.311-1.087,0.155
			c-0.466,0-0.776,0-1.087-0.155c-0.311-0.155-0.621-0.311-0.932-0.621s-0.466-0.621-0.621-0.932c-0.311-0.776-0.311-1.708,0-2.484
			c0.155-0.311,0.311-0.776,0.621-0.932c0.311-0.311,0.621-0.466,0.932-0.621C422.498,172.342,422.808,172.187,423.274,172.187z
			 M423.274,177.311c0.466,0,0.776-0.155,1.087-0.466c0.466-0.932,0.466-2.018,0-2.95c-0.311-0.311-0.621-0.466-1.087-0.466
			c-0.466,0-0.932,0.155-1.087,0.466c-0.466,0.932-0.466,2.018,0,2.95C422.342,177.156,422.653,177.311,423.274,177.311z"/>
		<path fill="#707A7C" d="M427.156,178.242v-5.9h0.776c0.155,0,0.155,0,0.311,0.155c0.155,0.155,0.155,0.155,0.155,0.311
			l0.155,0.776c0.155-0.311,0.466-0.621,0.776-0.776s0.621-0.311,0.932-0.311s0.466,0,0.776,0.155l-0.155,1.087
			c0,0.155,0,0.155-0.155,0.155h-0.776c-0.311,0-0.466,0-0.776,0.155c-0.155,0.155-0.466,0.466-0.466,0.776v3.726L427.156,178.242
			L427.156,178.242z"/>
		<path fill="#707A7C" d="M433.677,170.635c0,0.155,0,0.155-0.155,0.311c0,0.155-0.155,0.155-0.155,0.311
			c0,0.155-0.155,0.155-0.311,0.155s-0.155,0.155-0.311,0.155s-0.155,0-0.311-0.155c-0.155,0-0.155-0.155-0.311-0.155
			s-0.155-0.155-0.155-0.311s-0.155-0.155-0.155-0.311c0-0.155,0-0.155,0.155-0.311c0-0.155,0.155-0.155,0.155-0.311
			s0.155-0.155,0.311-0.155s0.155-0.155,0.311-0.155s0.155,0,0.311,0.155c0.155,0,0.155,0.155,0.311,0.155s0.155,0.155,0.155,0.311
			S433.677,170.479,433.677,170.635z M433.366,172.342v5.9h-1.397v-5.9H433.366z"/>
		<path fill="#707A7C" d="M436.937,178.398c-0.466,0-0.932-0.155-1.087-0.466c-0.311-0.311-0.466-0.776-0.466-1.087v-3.416h-0.621
			c-0.155,0-0.155,0-0.155-0.155s-0.155-0.155-0.155-0.155v-0.466l0.932-0.155l0.311-1.553c0-0.155,0-0.155,0.155-0.155
			s0.155-0.155,0.155-0.155h0.776v1.863h1.553v1.087h-1.397v3.261c0,0.155,0,0.311,0.155,0.466s0.155,0.155,0.466,0.155h0.155
			c0.155,0,0.155,0,0.155-0.155c0,0,0.155,0,0.155-0.155l0,0c0-0.155,0.155,0,0.155,0h0.155c0,0,0.155,0,0.155,0.155l0,0
			l0.466,0.776c-0.155,0.155-0.466,0.311-0.776,0.466C437.558,178.242,437.248,178.398,436.937,178.398z"/>
		<path fill="#707A7C" d="M441.595,179.795c0,0.155-0.155,0.155-0.155,0.155c-0.155,0-0.155,0.155-0.311,0.155h-1.087l1.087-2.484
			l-2.329-5.434h1.242c0.155,0,0.155,0,0.311,0.155s0.155,0.155,0.155,0.155l1.242,3.105c0,0.155,0.155,0.155,0.155,0.311
			s0.155,0.155,0.155,0.311s0.155-0.155,0.155-0.311s0.155-0.155,0.155-0.311l1.087-3.105c0-0.155,0.155-0.155,0.155-0.155
			l0.155-0.155h1.087L441.595,179.795z"/>
	</g>
	<g>
		<path fill="#424A4F" d="M362.255,202.464h2.639v-8.384l-1.863,1.553c-0.155,0.155-0.155,0.155-0.155,0.155h-0.155
			c-0.155,0-0.155,0-0.311-0.155c-0.155-0.155-0.155-0.155-0.155-0.155l-0.776-0.932l3.882-3.416h1.708v11.334h2.174v1.708H362.1
			L362.255,202.464L362.255,202.464z"/>
		<path fill="#424A4F" d="M378.403,199.358h1.553v1.242c0,0.155-0.155,0.466-0.311,0.466c0,0,0,0-0.155,0h-1.087v3.105h-1.863
			v-3.105h-5.434c-0.155,0-0.311,0-0.466-0.155s-0.155-0.155-0.155-0.311l-0.155-1.087l6.055-8.074h2.174v7.918H378.403z
			 M376.54,195.166v-0.621c0-0.311,0-0.466,0.155-0.776l-4.037,5.434h3.882V195.166L376.54,195.166z"/>
		<path fill="#424A4F" d="M383.837,191.129v7.608h0.466c0.155,0,0.311,0,0.311-0.155s0.155-0.155,0.311-0.155l2.329-2.795
			l0.311-0.311c0.155-0.155,0.155-0.155,0.466-0.155h2.018l-2.795,3.416l-0.311,0.311l-0.311,0.311l0.311,0.311
			c0.155,0.155,0.311,0.311,0.311,0.466l3.105,4.347h-2.018c-0.155,0-0.311,0-0.466-0.155l-0.311-0.311l-2.329-3.416l-0.311-0.311
			c-0.155,0-0.155-0.155-0.466-0.155h-0.621v4.192h-2.329v-13.197h2.174L383.837,191.129z"/>
	</g>
	<g>
		<path fill="#707A7C" d="M490.658,177h3.416v1.242h-4.968v-8.384h1.553V177z"/>
		<path fill="#707A7C" d="M497.179,172.187c0.466,0,0.776,0,1.087,0.155s0.621,0.311,0.932,0.621
			c0.155,0.311,0.466,0.621,0.621,0.932c0.155,0.466,0.311,0.776,0.155,1.242c0,0.466,0,0.776-0.155,1.242
			c-0.155,0.311-0.311,0.776-0.621,0.932c-0.311,0.311-0.621,0.466-0.932,0.621c-0.311,0.155-0.776,0.311-1.087,0.155
			c-0.466,0-0.776,0-1.087-0.155c-0.311-0.155-0.621-0.311-0.932-0.621s-0.466-0.621-0.621-0.932
			c-0.155-0.466-0.311-0.776-0.155-1.242c0-0.466,0.155-0.776,0.155-1.242c0.155-0.311,0.311-0.776,0.621-0.932
			c0.311-0.311,0.621-0.466,0.932-0.621S496.714,172.187,497.179,172.187z M497.179,177.311c0.466,0,0.776-0.155,1.087-0.466
			c0.466-0.932,0.466-2.018,0-2.95c-0.311-0.311-0.621-0.466-1.087-0.466c-0.466,0-0.932,0.155-1.087,0.466
			c-0.466,0.932-0.466,2.018,0,2.95C496.248,177.156,496.714,177.311,497.179,177.311z"/>
		<path fill="#707A7C" d="M500.44,172.342h1.087c0.155,0,0.155,0,0.311,0.155c0.155,0,0.155,0.155,0.155,0.155l0.776,3.105
			c0,0.155,0.155,0.311,0.155,0.466s0.155,0.311,0.155,0.466c0-0.155,0.155-0.311,0.155-0.466s0.155-0.311,0.155-0.466l0.932-3.105
			c0-0.155,0.155-0.155,0.155-0.155l0.155-0.155h0.621c0.155,0,0.155,0,0.155,0.155c0,0.155,0.155,0.155,0.155,0.155l0.932,3.261
			c0,0.155,0.155,0.311,0.155,0.466s0.155,0.311,0.155,0.466c0-0.155,0.155-0.311,0.155-0.466s0.155-0.311,0.155-0.466l0.776-3.105
			c0-0.155,0.155-0.155,0.155-0.155s0.155,0,0.155-0.155h1.087l-1.863,5.9h-1.087c-0.155,0-0.155-0.155-0.311-0.155l-1.087-3.416
			c0-0.155-0.155-0.155-0.155-0.311s-0.155-0.155-0.155-0.311c0,0.155,0,0.155-0.155,0.311c0,0.155-0.155,0.155-0.155,0.311
			l-1.087,3.416c-0.155,0.155-0.155,0.155-0.311,0.155h-1.087L500.44,172.342z"/>
		<path fill="#707A7C" d="M514.258,175.292v2.95h-1.553v-8.384h2.795c0.466,0,0.932,0,1.397,0.155
			c0.311,0.155,0.776,0.311,1.087,0.466c0.311,0.311,0.466,0.466,0.621,0.776c0.155,0.311,0.311,0.621,0.155,1.087
			c0,0.466-0.155,0.776-0.155,1.087c-0.155,0.311-0.311,0.621-0.621,0.776c-0.311,0.311-0.621,0.466-1.087,0.466
			c-0.466,0.155-0.932,0.155-1.397,0.155L514.258,175.292L514.258,175.292z M514.258,174.05h1.087c0.311,0,0.466,0,0.776-0.155
			c0.466-0.155,0.776-0.466,0.776-0.776c0.155-0.466,0.155-0.776,0-1.242c0-0.155-0.155-0.311-0.311-0.466s-0.311-0.155-0.466-0.311
			c-0.155-0.155-0.466-0.155-0.776-0.155h-1.087V174.05z"/>
		<path fill="#707A7C" d="M519.693,178.242v-5.9h0.776c0.155,0,0.155,0,0.311,0.155c0.155,0.155,0.155,0.155,0.155,0.311
			l0.155,0.776c0.155-0.311,0.466-0.621,0.776-0.776c0.311-0.155,0.621-0.311,0.932-0.311s0.466,0,0.776,0.155l-0.155,1.087
			c0,0.155,0,0.155-0.155,0.155h-0.776c-0.311,0-0.466,0-0.776,0.155c-0.155,0.155-0.466,0.466-0.466,0.776v3.726L519.693,178.242
			L519.693,178.242z"/>
		<path fill="#707A7C" d="M526.214,170.635c0,0.155,0,0.155-0.155,0.311c0,0.155-0.155,0.155-0.155,0.311
			c0,0.155-0.155,0.155-0.311,0.155c-0.155,0.155-0.466,0.155-0.621,0c-0.155-0.155-0.155-0.155-0.311-0.155
			s-0.155-0.155-0.155-0.311s-0.155-0.155-0.155-0.311c0-0.155,0-0.155,0.155-0.311c0-0.155,0.155-0.155,0.155-0.311
			s0.155-0.155,0.311-0.155c0.155-0.155,0.466-0.155,0.621,0s0.155,0.155,0.311,0.155s0.155,0.155,0.155,0.311
			S526.214,170.479,526.214,170.635z M526.058,172.342v5.9h-1.397v-5.9H526.058z"/>
		<path fill="#707A7C" d="M530.095,172.187c0.466,0,0.776,0,1.087,0.155s0.621,0.311,0.932,0.621
			c0.155,0.311,0.466,0.621,0.621,0.932c0.155,0.466,0.311,0.776,0.155,1.242c0,0.466,0,0.776-0.155,1.242
			c-0.155,0.311-0.311,0.776-0.621,0.932c-0.311,0.311-0.621,0.466-0.932,0.621c-0.311,0.155-0.776,0.311-1.087,0.155
			c-0.466,0-0.776,0-1.087-0.155c-0.311-0.155-0.621-0.311-0.932-0.621s-0.466-0.621-0.621-0.932
			c-0.155-0.466-0.311-0.776-0.155-1.242c0-0.466,0.155-0.776,0.155-1.242c0.155-0.311,0.311-0.776,0.621-0.932
			c0.311-0.311,0.621-0.466,0.932-0.621S529.629,172.187,530.095,172.187z M530.095,177.311c0.466,0,0.776-0.155,1.087-0.466
			c0.466-0.932,0.466-2.018,0-2.95c-0.311-0.311-0.621-0.466-1.087-0.466c-0.466,0-0.932,0.155-1.087,0.466
			c-0.466,0.932-0.466,2.018,0,2.95C529.164,177.156,529.629,177.311,530.095,177.311z"/>
		<path fill="#707A7C" d="M534.132,178.242v-5.9h0.776c0.155,0,0.155,0,0.311,0.155c0.155,0.155,0.155,0.155,0.155,0.311
			l0.155,0.776c0.155-0.311,0.466-0.621,0.776-0.776s0.621-0.311,0.932-0.311s0.466,0,0.776,0.155l-0.155,1.087
			c0,0.155,0,0.155-0.155,0.155h-0.776c-0.311,0-0.466,0-0.776,0.155c-0.155,0.155-0.466,0.466-0.466,0.776v3.726L534.132,178.242
			L534.132,178.242z"/>
		<path fill="#707A7C" d="M540.498,170.635c0,0.155,0,0.155-0.155,0.311c0,0.155-0.155,0.155-0.155,0.311
			c0,0.155-0.155,0.155-0.311,0.155c-0.155,0.155-0.466,0.155-0.621,0c-0.155-0.155-0.155-0.155-0.311-0.155
			s-0.155-0.155-0.155-0.311s-0.155-0.155-0.155-0.311c0-0.155,0-0.155,0.155-0.311c0-0.155,0.155-0.155,0.155-0.311
			s0.155-0.155,0.311-0.155c0.155-0.155,0.466-0.155,0.621,0s0.155,0.155,0.311,0.155s0.155,0.155,0.155,0.311
			C540.498,170.479,540.498,170.479,540.498,170.635z M540.343,172.342v5.9h-1.397v-5.9H540.343z"/>
		<path fill="#707A7C" d="M543.914,178.398c-0.466,0-0.932-0.155-1.087-0.466c-0.311-0.311-0.466-0.776-0.466-1.087v-3.416h-0.621
			c-0.155,0-0.155,0-0.155-0.155s-0.155-0.155-0.155-0.155v-0.466l0.932-0.155l0.311-1.553c0-0.155,0-0.155,0.155-0.155
			s0.155-0.155,0.155-0.155h0.776v1.863h1.553v1.087h-1.553v3.261c0,0.155,0,0.311,0.155,0.466s0.155,0.155,0.466,0.155h0.155
			c0.155,0,0.155,0,0.155-0.155c0,0,0.155,0,0.155-0.155l0,0c0-0.155,0.155,0,0.155,0h0.155c0,0,0.155,0,0.155,0.155l0,0
			l0.466,0.776c-0.155,0.155-0.466,0.311-0.776,0.466C544.379,178.242,544.224,178.398,543.914,178.398z"/>
		<path fill="#707A7C" d="M548.416,179.795c0,0.155-0.155,0.155-0.155,0.155c-0.155,0-0.155,0.155-0.311,0.155h-1.087l1.087-2.484
			l-2.329-5.434h1.242c0.155,0,0.155,0,0.31,0.155c0.155,0.155,0.155,0.155,0.155,0.155l1.242,3.105
			c0,0.155,0.155,0.155,0.155,0.311s0.155,0.155,0.155,0.311s0.155-0.155,0.155-0.311s0.155-0.155,0.155-0.311l1.087-3.105
			c0-0.155,0.155-0.155,0.155-0.155l0.155-0.155h1.087L548.416,179.795z"/>
	</g>
	<g>
		<path fill="#707A7C" d="M600.274,171.411c0,0.155-0.155,0.155-0.155,0.155h-0.155c-0.155,0-0.155,0-0.155-0.155
			c0-0.155-0.155-0.155-0.311-0.155s-0.311-0.155-0.466-0.155s-0.466-0.155-0.621-0.155s-0.311,0-0.466,0.155
			c-0.155,0-0.311,0-0.466,0.155s-0.155,0.155-0.155,0.311c-0.155,0.155-0.155,0.311-0.155,0.466c0,0.155,0.155,0.311,0.155,0.466
			c0.155,0.155,0.311,0.311,0.466,0.311c0.155,0.155,0.466,0.155,0.621,0.155c0.311,0.155,0.466,0.155,0.776,0.155
			c0.311,0.155,0.466,0.155,0.776,0.311c0.466,0.155,0.776,0.621,1.087,1.087c0.155,0.311,0.155,0.621,0.155,0.776
			c0,0.311,0,0.776-0.155,1.087c-0.155,0.311-0.311,0.621-0.466,0.776c-0.311,0.311-0.621,0.466-0.932,0.621
			c-0.466,0.155-0.776,0.311-1.242,0.155c-0.31,0-0.466,0-0.776-0.155c-0.311,0-0.466-0.155-0.776-0.155l-0.621-0.311
			c-0.155-0.155-0.311-0.311-0.466-0.466l0.466-0.776c0,0,0-0.155,0.155-0.155l0,0c0.155,0,0.155-0.155,0.155-0.155
			c0.155,0,0.155,0,0.311,0.155s0.311,0.155,0.466,0.155c0.155,0.155,0.311,0.155,0.466,0.311c0.155,0.155,0.466,0.155,0.776,0.155
			s0.776-0.155,1.087-0.311c0.155-0.311,0.311-0.621,0.311-0.932c0-0.155,0-0.311-0.155-0.466c-0.155-0.155-0.311-0.311-0.466-0.311
			c-0.155-0.155-0.466-0.155-0.621-0.155c-0.311-0.155-0.466-0.155-0.776-0.155c-0.311-0.155-0.466-0.155-0.776-0.311
			c-0.466-0.155-0.776-0.621-1.087-1.087c-0.155-0.311-0.155-0.621-0.155-0.932c0-0.311,0-0.621,0.155-0.776
			c0.155-0.311,0.311-0.466,0.466-0.776c0.311-0.311,0.466-0.466,0.776-0.466c0.311-0.155,0.776-0.155,1.087-0.155
			c0.466,0,0.932,0,1.397,0.155c0.311,0.155,0.776,0.311,1.087,0.621L600.274,171.411z"/>
		<path fill="#707A7C" d="M603.535,170.635c0,0.155,0,0.155-0.155,0.311c0,0.155-0.155,0.155-0.155,0.311
			c0,0.155-0.155,0.155-0.311,0.155c-0.155,0.155-0.466,0.155-0.621,0c-0.155-0.155-0.155-0.155-0.311-0.155
			s-0.155-0.155-0.155-0.311s-0.155-0.155-0.155-0.311c0-0.155,0-0.155,0.155-0.311c0-0.155,0.155-0.155,0.155-0.311
			s0.155-0.155,0.311-0.155c0.155-0.155,0.466-0.155,0.621,0s0.155,0.155,0.311,0.155s0.155,0.155,0.155,0.311
			C603.535,170.479,603.535,170.479,603.535,170.635z M603.38,172.342v5.9h-1.397v-5.9H603.38z"/>
		<path fill="#707A7C" d="M606.951,178.398c-0.466,0-0.932-0.155-1.087-0.466c-0.311-0.311-0.466-0.776-0.466-1.087v-3.416h-0.621
			c-0.155,0-0.155,0-0.155-0.155s-0.155-0.155-0.155-0.155v-0.466l0.932-0.155l0.311-1.553c0-0.155,0-0.155,0.155-0.155
			s0.155-0.155,0.155-0.155h0.776v1.863h1.553v1.087h-1.553v3.261c0,0.155,0,0.311,0.155,0.466s0.155,0.155,0.466,0.155h0.155
			c0.155,0,0.155,0,0.155-0.155c0,0,0.155,0,0.155-0.155l0,0c0-0.155,0.155,0,0.155,0h0.155c0,0,0.155,0,0.155,0.155l0,0
			l0.466,0.776c-0.155,0.155-0.466,0.311-0.776,0.466C607.572,178.242,607.261,178.398,606.951,178.398z"/>
		<path fill="#707A7C" d="M611.919,172.187c0.311,0,0.776,0,1.087,0.155c0.621,0.155,1.087,0.776,1.397,1.397
			c0.155,0.311,0.155,0.776,0.155,1.087v0.466l-0.155,0.155h-3.882c0,0.466,0.155,0.932,0.466,1.397
			c0.311,0.311,0.776,0.466,1.087,0.466c0.155,0,0.466,0,0.621-0.155c0.155-0.155,0.311-0.155,0.466-0.155s0.155-0.155,0.311-0.155
			c0.155-0.155,0.155-0.155,0.311-0.155h0.155l0.155,0.155l0.466,0.466c-0.155,0.155-0.311,0.311-0.466,0.466l-0.621,0.311
			c-0.155,0.155-0.466,0.155-0.621,0.155s-0.466,0-0.621,0c-0.466,0-0.776,0-1.087-0.155c-0.311-0.155-0.621-0.311-0.932-0.621
			l-0.621-0.932c-0.155-0.466-0.155-0.932-0.155-1.397c0-0.466,0.155-0.776,0.155-1.087c0.155-0.311,0.311-0.621,0.466-0.932
			c0.155-0.311,0.621-0.466,0.932-0.621C611.298,172.342,611.609,172.187,611.919,172.187z M611.919,173.274
			c-0.311,0-0.621,0.155-0.932,0.311c-0.311,0.311-0.466,0.621-0.466,1.087h2.795c0-0.155,0-0.311-0.155-0.466
			c0-0.155,0-0.311-0.155-0.466c-0.155-0.155-0.311-0.311-0.466-0.311S612.23,173.274,611.919,173.274z"/>
		<path fill="#707A7C" d="M619.682,178.242h-1.553v-8.384h1.553V178.242z"/>
		<path fill="#707A7C" d="M621.545,178.242v-5.9h0.776c0.155,0,0.311,0.155,0.311,0.155l0.155,0.466
			c0.155-0.155,0.311-0.311,0.466-0.311c0.155-0.155,0.311-0.155,0.466-0.155c0.155-0.155,0.311-0.155,0.466-0.155
			c0.155,0,0.311-0.155,0.466-0.155c0.311,0,0.621,0,0.776,0.155s0.466,0.311,0.621,0.466s0.311,0.466,0.466,0.776
			c0.155,0.311,0.155,0.621,0.155,0.932v3.726h-1.397v-3.726c0-0.311,0-0.621-0.155-0.776c-0.155-0.155-0.466-0.311-0.776-0.311
			s-0.466,0.155-0.776,0.155c-0.155,0.155-0.466,0.311-0.621,0.466v4.347L621.545,178.242z"/>
		<path fill="#707A7C" d="M628.222,178.242v-4.813l-0.466-0.155c-0.155,0-0.155-0.155-0.311-0.155s-0.155-0.155-0.155-0.155v-0.621
			h0.776v-0.466c0-0.311,0-0.621,0.155-0.932c0.155-0.621,0.621-1.087,1.087-1.087c0.311-0.155,0.621-0.155,0.932-0.155
			s0.466,0,0.776,0.155v0.776c0,0,0,0.155-0.155,0.155h-0.155c-0.155,0-0.311,0-0.466,0.155s-0.155,0.155-0.311,0.155
			s-0.155,0.155-0.155,0.311c0,0.155-0.155,0.311-0.155,0.466v0.466h1.553v1.087h-1.397v4.813H628.222z"/>
		<path fill="#707A7C" d="M634.588,172.187c0.466,0,0.776,0,1.087,0.155s0.621,0.311,0.932,0.621
			c0.155,0.311,0.466,0.621,0.621,0.932c0.155,0.466,0.311,0.776,0.155,1.242c0,0.466,0,0.776-0.155,1.242
			c-0.155,0.311-0.311,0.776-0.621,0.932c-0.311,0.311-0.621,0.466-0.932,0.621c-0.311,0.155-0.776,0.311-1.087,0.155
			c-0.466,0-0.776,0-1.087-0.155c-0.311-0.155-0.621-0.311-0.932-0.621s-0.466-0.621-0.621-0.932
			c-0.155-0.466-0.311-0.776-0.155-1.242c0-0.466,0.155-0.776,0.155-1.242c0.155-0.311,0.31-0.776,0.621-0.932
			c0.311-0.311,0.621-0.466,0.932-0.621S634.122,172.187,634.588,172.187z M634.588,177.311c0.466,0,0.776-0.155,1.087-0.466
			c0.466-0.932,0.466-2.018,0-2.95c-0.311-0.311-0.621-0.466-1.087-0.466c-0.466,0-0.932,0.155-1.087,0.466
			c-0.466,0.932-0.466,2.018,0,2.95C633.656,177.156,634.122,177.311,634.588,177.311z"/>
	</g>
	<g>
		<path fill="#424A4F" d="M493.298,204.327c-0.621,0-1.242-0.155-1.708-0.311c-0.466-0.155-0.932-0.466-1.397-0.776
			c-0.466-0.311-0.776-0.621-0.932-1.087c-0.155-0.466-0.311-1.087-0.311-1.553c0-0.621,0.155-1.242,0.466-1.863
			c0.466-0.621,1.087-0.932,1.708-1.087c-0.621-0.155-1.087-0.621-1.397-1.087c-0.311-0.466-0.466-1.087-0.466-1.708
			c0-0.466,0.155-0.932,0.311-1.397c0.155-0.466,0.466-0.776,0.776-1.087c0.311-0.311,0.776-0.621,1.242-0.776
			c0.466-0.155,1.087-0.311,1.708-0.155c0.621,0,1.087,0,1.708,0.155c0.466,0.155,0.932,0.466,1.242,0.776
			c0.311,0.311,0.621,0.621,0.776,1.087c0.155,0.466,0.311,0.932,0.311,1.397c0,0.621-0.155,1.242-0.466,1.708
			c-0.311,0.466-0.776,0.932-1.397,1.087c0.776,0.155,1.397,0.621,1.708,1.087c0.466,0.621,0.621,1.242,0.466,1.863
			c0,0.466-0.155,1.087-0.311,1.553c-0.155,0.466-0.621,0.776-0.932,1.087c-0.466,0.311-0.932,0.621-1.397,0.776
			C494.85,204.327,494.074,204.327,493.298,204.327z M493.298,202.774c0.311,0,0.621,0,0.932-0.155c0.311,0,0.466-0.155,0.776-0.466
			c0.155-0.155,0.311-0.466,0.466-0.621c0.155-0.311,0.155-0.621,0.155-0.776c0-0.621-0.155-1.242-0.621-1.553
			c-0.466-0.311-0.932-0.466-1.553-0.466s-1.087,0.155-1.553,0.466c-0.311,0.466-0.621,0.932-0.621,1.553
			c0,0.311,0,0.621,0.155,0.776c0.155,0.155,0.155,0.466,0.466,0.621c0.155,0.155,0.466,0.311,0.776,0.466
			C492.521,202.464,492.832,202.774,493.298,202.774z M493.298,196.719c0.311,0,0.621-0.155,0.932-0.155
			c0.155-0.155,0.466-0.311,0.621-0.466l0.311-0.621c0.155-0.466,0.155-0.932,0-1.397l-0.311-0.621
			c-0.155-0.155-0.311-0.311-0.621-0.466c-0.311-0.155-0.621-0.155-0.776-0.155c-0.311,0-0.621,0-0.776,0.155
			s-0.466,0.311-0.621,0.466s-0.311,0.311-0.311,0.621c-0.155,0.155-0.155,0.466-0.155,0.776c0,0.311,0,0.466,0.155,0.776
			l0.311,0.621c0.155,0.155,0.311,0.311,0.621,0.466C492.521,196.719,492.832,196.719,493.298,196.719L493.298,196.719z"/>
		<path fill="#424A4F" d="M508.048,191.44v0.932c0,0.311,0,0.466-0.155,0.776c-0.155,0.155-0.155,0.311-0.155,0.466l-4.813,9.937
			c0,0.155-0.155,0.466-0.466,0.466c-0.155,0.155-0.466,0.155-0.776,0.155h-1.553l4.968-9.782c0.155-0.311,0.466-0.776,0.776-1.087
			h-6.211c-0.155,0-0.466-0.155-0.466-0.311c0,0,0,0,0-0.155v-1.397L508.048,191.44L508.048,191.44z"/>
		<path fill="#424A4F" d="M514.569,196.253c0.466,0,0.932,0,1.397,0.155s0.932,0.466,1.242,0.776
			c0.311,0.311,0.621,0.776,0.776,1.087c0.466,1.087,0.466,2.329,0,3.416c-0.155,0.466-0.466,0.932-0.932,1.397
			c-0.466,0.466-0.932,0.776-1.397,0.932c-0.621,0.155-1.242,0.311-1.863,0.311c-0.621,0-1.242-0.155-1.863-0.311
			c-0.466-0.155-0.932-0.466-1.397-0.932c-0.466-0.466-0.621-0.932-0.776-1.397c-0.155-0.621-0.311-1.242-0.311-1.863
			s0.155-1.242,0.466-1.863c0.311-0.776,0.621-1.397,1.087-2.018l3.105-4.037c0.155-0.155,0.155-0.311,0.466-0.311
			c0.311,0,0.466-0.155,0.776-0.155h2.018l-3.726,4.658c-0.155,0.155-0.155,0.155-0.155,0.311s-0.155,0.155-0.155,0.311
			c0.311-0.155,0.621-0.155,0.776-0.311C514.103,196.253,514.258,196.253,514.569,196.253z M511.464,200.135
			c0,0.311,0,0.621,0.155,0.932c0,0.311,0.155,0.466,0.466,0.776c0.155,0.155,0.466,0.466,0.776,0.466
			c0.621,0.311,1.242,0.311,1.863,0c0.621-0.311,0.932-0.776,1.242-1.242c0.155-0.311,0.155-0.621,0.155-0.932
			c0-0.311,0-0.621-0.155-0.932c-0.155-0.311-0.311-0.466-0.466-0.776c-0.155-0.155-0.466-0.311-0.776-0.466
			c-0.621-0.311-1.242-0.311-1.863,0c-0.311,0.155-0.466,0.311-0.776,0.466c-0.155,0.155-0.311,0.466-0.466,0.776
			C511.619,199.514,511.464,199.824,511.464,200.135L511.464,200.135z"/>
	</g>
	
		<line fill="none" stroke="#DBE3E3" stroke-width="0.67" stroke-miterlimit="10" x1="487.398" y1="305.093" x2="487.398" y2="485.975"/>
	
		<line fill="none" stroke="#E1E7E8" stroke-width="0.67" stroke-miterlimit="10" x1="749.793" y1="486.13" x2="97.065" y2="486.13"/>
	
		<line fill="none" stroke="#C7CECF" stroke-width="0.67" stroke-miterlimit="10" x1="94.581" y1="331.953" x2="95.668" y2="331.953"/>
	
		<line fill="none" stroke="#C7CECF" stroke-width="0.67" stroke-miterlimit="10" stroke-dasharray="0.67,2.02" x1="98.618" y1="331.953" x2="744.359" y2="331.953"/>
	
		<line fill="none" stroke="#C7CECF" stroke-width="0.67" stroke-miterlimit="10" x1="745.29" y1="331.953" x2="746.377" y2="331.953"/>
	
		<line fill="none" stroke="#C7CECF" stroke-width="0.67" stroke-miterlimit="10" x1="94.581" y1="382.414" x2="95.668" y2="382.414"/>
	
		<line fill="none" stroke="#C7CECF" stroke-width="0.67" stroke-miterlimit="10" stroke-dasharray="0.67,2.02" x1="98.618" y1="382.414" x2="744.98" y2="382.414"/>
	
		<line fill="none" stroke="#C7CECF" stroke-width="0.67" stroke-miterlimit="10" x1="94.581" y1="432.719" x2="95.668" y2="432.719"/>
	
		<line fill="none" stroke="#C7CECF" stroke-width="0.67" stroke-miterlimit="10" stroke-dasharray="0.67,2.02" x1="98.618" y1="432.719" x2="744.98" y2="432.719"/>
	
		<line fill="none" stroke="#C7CECF" stroke-width="0.67" stroke-miterlimit="10" x1="94.581" y1="280.872" x2="95.668" y2="280.872"/>
	
		<line fill="none" stroke="#C7CECF" stroke-width="0.67" stroke-miterlimit="10" stroke-dasharray="0.67,2.02" x1="98.618" y1="280.872" x2="744.98" y2="280.872"/>
	
		<line fill="none" stroke="#DADADA" stroke-width="1.35" stroke-linecap="round" stroke-miterlimit="10" x1="102.034" y1="274.816" x2="95.202" y2="274.816"/>
	
		<line fill="none" stroke="#DADADA" stroke-width="1.35" stroke-linecap="round" stroke-miterlimit="10" x1="553.074" y1="501.501" x2="546.243" y2="501.501"/>
	
		<line fill="none" stroke="#DADADA" stroke-width="1.35" stroke-linecap="round" stroke-miterlimit="10" x1="619.993" y1="502.122" x2="613.161" y2="502.122"/>
	
		<line fill="none" stroke="#DADADA" stroke-width="1.35" stroke-linecap="round" stroke-miterlimit="10" x1="683.806" y1="502.898" x2="676.974" y2="502.898"/>
	<path fill="none" stroke="#DADADA" stroke-width="1.35" stroke-miterlimit="10" d="M102.5,422.472
		c52.324-3.261,106.355,1.087,156.971-11.334c46.734-11.489,84.308-36.332,122.503-58.534c39.903-23.29,75.613-43.474,126.54-51.547
		c35.555-5.59,71.732-7.453,107.753-5.59c24.532,1.397,80.116,0,130.732-3.261"/>
	<circle fill="#DADADA" cx="229.35" cy="416.261" r="4.192"/>
	<circle fill="#DADADA" cx="294.871" cy="398.872" r="4.192"/>
	<circle fill="#DADADA" cx="359.305" cy="365.645" r="4.192"/>
	<circle fill="#DADADA" cx="424.827" cy="328.848" r="4.192"/>
	<circle fill="#FFFFFF" stroke="#DADADA" stroke-width="1.35" stroke-miterlimit="10" cx="487.243" cy="304.627" r="4.192"/>
	<circle fill="#DADADA" cx="549.658" cy="295.622" r="4.192"/>
	<circle fill="#DADADA" cx="616.577" cy="295.932" r="4.192"/>
	<circle fill="#DADADA" cx="680.39" cy="295.932" r="4.192"/>
	<circle fill="#DADADA" cx="747.309" cy="292.051" r="4.192"/>
	<circle fill="#DADADA" cx="164.605" cy="419.832" r="4.192"/>
	<circle fill="#DADADA" cx="102.034" cy="423.093" r="4.192"/>
	<path opacity="0.1" fill="#FFE198" enable-background="new    " d="M100.792,435.048c52.324-1.397,108.529,1.242,159.145-4.037
		c46.734-4.813,84.153-16.303,122.192-25.618c39.903-9.782,75.769-17.855,126.695-21.116c35.555-2.329,73.75-3.105,108.063-2.329
		c24.532,0.621,79.65-0.466,130.421-1.863l0.155,106.2l-646.517-0.311L100.792,435.048z"/>
	<path fill="none" stroke="#F15552" stroke-width="1.35" stroke-miterlimit="10" d="M102.5,380.24
		c52.324-1.397,106.355,0.466,156.971-4.813c46.734-4.813,84.308-15.371,122.503-24.687c39.903-9.782,75.613-18.321,126.54-21.737
		c35.555-2.329,73.595-3.105,107.753-2.329c24.532,0.621,80.116,0,130.732-1.397"/>
	<path opacity="0.1" fill="#F15552" enable-background="new    " d="M101.413,380.861c52.324-1.397,108.529,1.242,159.145-4.037
		c46.734-4.813,84.153-16.303,122.192-25.618c39.903-9.782,75.769-17.855,126.695-21.116c35.555-2.329,73.75-3.105,108.063-2.329
		c24.532,0.621,79.65-0.466,130.421-1.863l-0.155,19.097c0,0-54.342,1.397-127.006,1.863
		c-76.079,0.466-173.274,2.174-251.527,26.395c-113.498,35.09-267.674,26.084-267.674,26.084L101.413,380.861z"/>
	<path opacity="0.1" fill="#7AD65F" enable-background="new    " d="M100.947,400.269c52.324-1.397,108.529,1.242,159.145-4.037
		c46.734-4.813,84.153-16.303,122.348-25.618c39.903-9.782,75.769-17.855,126.695-21.116c35.555-2.329,73.75-3.105,108.063-2.329
		c24.532,0.621,79.65-0.466,130.421-1.863l-0.155,34.779c0,0-54.342,1.397-127.005,1.863
		c-76.079,0.466-173.274,2.174-251.527,26.395c-113.498,35.245-267.674,25.929-267.674,25.929L100.947,400.269z"/>
	<circle fill="#F15552" cx="229.35" cy="377.29" r="4.192"/>
	<circle fill="#F15552" cx="294.871" cy="369.993" r="4.192"/>
	<circle fill="#F15552" cx="359.305" cy="356.174" r="4.192"/>
	<circle fill="#F15552" cx="424.827" cy="340.803" r="4.192"/>
	<circle fill="#FFFFFF" stroke="#F15552" stroke-width="1.35" stroke-miterlimit="10" cx="487.243" cy="330.866" r="4.192"/>
	<circle fill="#F15552" cx="549.814" cy="326.985" r="4.192"/>
	<circle fill="#F15552" cx="615.49" cy="326.985" r="4.192"/>
	<circle fill="#F15552" cx="680.39" cy="326.985" r="4.192"/>
	<circle fill="#F15552" cx="747.309" cy="325.587" r="4.192"/>
	<circle fill="#F15552" cx="164.605" cy="379.619" r="4.192"/>
	<circle fill="#F15552" cx="102.034" cy="380.861" r="4.192"/>
	<path fill="none" stroke="#7AD65F" stroke-width="1.35" stroke-miterlimit="10" d="M102.5,399.959
		c52.324-1.397,106.355,0.466,156.971-4.813c46.734-4.813,84.308-15.371,122.503-24.687c39.903-9.782,75.613-18.321,126.54-21.737
		c35.555-2.329,73.595-3.105,107.753-2.329c24.532,0.621,80.116,0,130.732-1.397"/>
	<circle fill="#7AD65F" cx="229.35" cy="396.853" r="4.192"/>
	<circle fill="#7AD65F" cx="294.871" cy="389.556" r="4.192"/>
	<circle fill="#7AD65F" cx="359.305" cy="375.738" r="4.192"/>
	<circle fill="#7AD65F" cx="424.827" cy="360.366" r="4.192"/>
	<circle fill="#FFFFFF" stroke="#7AD65F" stroke-width="1.35" stroke-miterlimit="10" cx="487.243" cy="350.43" r="4.192"/>
	<circle fill="#7AD65F" cx="549.814" cy="346.548" r="4.192"/>
	<circle fill="#7AD65F" cx="615.49" cy="346.548" r="4.192"/>
	<circle fill="#7AD65F" cx="680.39" cy="346.548" r="4.192"/>
	<circle fill="#7AD65F" cx="747.309" cy="345.151" r="4.192"/>
	<circle fill="#7AD65F" cx="164.605" cy="399.182" r="4.192"/>
	<circle fill="#7AD65F" cx="102.034" cy="400.424" r="4.192"/>
	<path fill="none" stroke="#FFE198" stroke-width="1.35" stroke-miterlimit="10" d="M102.5,434.738
		c52.324-1.397,106.355,0.466,156.971-4.813c46.734-4.813,84.308-15.371,122.503-24.687c39.903-9.782,75.613-18.321,126.54-21.737
		c35.555-2.329,73.595-3.105,107.753-2.329c24.532,0.621,80.116,0,130.732-1.397"/>
	<circle fill="#FFE198" cx="229.35" cy="431.788" r="4.192"/>
	<circle fill="#FFE198" cx="294.871" cy="424.49" r="4.192"/>
	<circle fill="#FFE198" cx="359.305" cy="410.672" r="4.192"/>
	<circle fill="#FFE198" cx="424.827" cy="395.301" r="4.192"/>
	<circle fill="#FFFFFF" stroke="#FFE198" stroke-width="1.35" stroke-miterlimit="10" cx="487.243" cy="385.364" r="4.192"/>
	<circle fill="#FFE198" cx="549.814" cy="381.482" r="4.192"/>
	<circle fill="#FFE198" cx="615.49" cy="381.482" r="4.192"/>
	<circle fill="#FFE198" cx="680.39" cy="381.482" r="4.192"/>
	<circle fill="#FFE198" cx="747.309" cy="379.93" r="4.192"/>
	<circle fill="#FFE198" cx="164.605" cy="434.117" r="4.192"/>
	<circle fill="#FFE198" cx="102.034" cy="435.359" r="4.192"/>
	<text transform="matrix(1 0 0 1 90.0551 96.6018)" fill="#FFFFFF" font-family="'Montserrat-Medium'" font-size="20">Crawic</text>
</g>
</svg>
