<?xml version="1.0" encoding="UTF-8"?>
<svg xmlns="http://www.w3.org/2000/svg" viewBox="0 0 517.7 383.5">
  <defs>
    <style>.cls-1,.cls-10{fill:#fff;}.cls-13,.cls-14,.cls-15,.cls-19,.cls-2,.cls-25,.cls-5,.cls-7,.cls-9{fill:none;}.cls-10,.cls-14,.cls-2,.cls-25{stroke:#dbe3e3;}.cls-10,.cls-13,.cls-14,.cls-15,.cls-19,.cls-2,.cls-25,.cls-5,.cls-7,.cls-9{stroke-miterlimit:10;}.cls-2{stroke-width:1.14px;}.cls-3{fill:#72797b;}.cls-4{fill:#5ec93a;}.cls-5{stroke:#5ec93a;}.cls-5,.cls-7,.cls-9{stroke-width:1.7px;}.cls-6{fill:#4dbdeb;}.cls-15,.cls-7{stroke:#4dbdeb;}.cls-8{fill:#ab8ede;}.cls-9{stroke:#ab8ede;}.cls-10{stroke-width:1.09px;}.cls-11{fill:#e2f3f9;}.cls-12{fill:#b1b8b9;}.cls-13{stroke:#fff;}.cls-13,.cls-19{stroke-width:1.63px;}.cls-14,.cls-15{stroke-width:4.35px;}.cls-16{fill:#778283;}.cls-17{fill:#565e66;}.cls-18{fill:#0075a8;}.cls-19{stroke:#b1b8b9;}.cls-20{fill:#3594ba;}.cls-21{fill:#4dbae8;}.cls-22{fill:#e4b34f;}.cls-23{fill:#ffd262;}.cls-24{fill:#672f08;}.cls-25{stroke-width:1.16px;}</style>
  </defs>
  <title>link-explorer-screenshot-02-pro-overview</title>
  <g id="Device_Frame" data-name="Device Frame">
    <path class="cls-1" d="M493.1,0H24.7A24.69,24.69,0,0,0,0,24.7V358.8a24.75,24.75,0,0,0,24.7,24.7H493a24.69,24.69,0,0,0,24.7-24.7V24.6A24.52,24.52,0,0,0,493.1,0Z"></path>
  </g>
  <g id="Nav">
    <line class="cls-2" x1="475.32" y1="314.36" x2="39.13" y2="314.36"></line>
    <line class="cls-2" x1="475.32" y1="231.23" x2="39.13" y2="231.23"></line>
    <line class="cls-2" x1="475.32" y1="272.79" x2="39.13" y2="272.79"></line>
    <line class="cls-2" x1="475.32" y1="245.08" x2="39.13" y2="245.08"></line>
    <line class="cls-2" x1="475.32" y1="258.94" x2="39.13" y2="258.94"></line>
    <line class="cls-2" x1="475.32" y1="286.65" x2="39.13" y2="286.65"></line>
    <line class="cls-2" x1="475.32" y1="300.51" x2="39.13" y2="300.51"></line>
    <line class="cls-2" x1="475.32" y1="328.22" x2="39.13" y2="328.22"></line>
    <path class="cls-3" d="M52.38,206.3h0l-4.18,10.36H47L42.82,206.3h0l.18,5.23v3.74l1.45.25v1.12H39.76v-1.12l1.44-.25V205.11l-1.44-.25v-1.13h3.68l4.12,10.49h0l4.11-10.49h3.69v1.13l-1.45.25v10.17l1.45.25v1.12H50.77v-1.12l1.44-.25v-3.74Z"></path>
    <path class="cls-3" d="M61.2,216.83A4,4,0,0,1,58,215.5,5,5,0,0,1,56.82,212v-.39A5,5,0,0,1,58,208.23a3.77,3.77,0,0,1,2.89-1.36A3.63,3.63,0,0,1,63.86,208a4.62,4.62,0,0,1,1,3.12v1.09H58.63l0,.05a3.72,3.72,0,0,0,.7,2.27,2.23,2.23,0,0,0,1.89.9,4.3,4.3,0,0,0,1.55-.26,3.61,3.61,0,0,0,1.16-.69l.68,1.13a4.16,4.16,0,0,1-1.36.84A5.36,5.36,0,0,1,61.2,216.83Zm-.27-8.58a1.89,1.89,0,0,0-1.5.74,3.48,3.48,0,0,0-.76,1.85l0,0h4.42v-.23a2.65,2.65,0,0,0-.55-1.72A2,2,0,0,0,60.93,208.25Z"></path>
    <path class="cls-3" d="M69.63,204.73v2.32h1.82v1.29H69.63v5.83a1.33,1.33,0,0,0,.28,1,1,1,0,0,0,.74.27,3.28,3.28,0,0,0,.52,0,3.66,3.66,0,0,0,.48-.08l.24,1.2a2.34,2.34,0,0,1-.72.26,4.47,4.47,0,0,1-1,.1,2.28,2.28,0,0,1-1.7-.64,2.79,2.79,0,0,1-.62-2v-5.83H66.37v-1.29h1.52v-2.32Z"></path>
    <path class="cls-3" d="M73.23,208.17v-1.12h3l.17,1.39a3.35,3.35,0,0,1,1-1.15,2.29,2.29,0,0,1,1.37-.42l.42,0,.33.07-.23,1.62-1-.05a2.06,2.06,0,0,0-1.17.32,2.12,2.12,0,0,0-.72.91v5.51l1.44.25v1.12H73.23v-1.12l1.45-.25v-6.86Z"></path>
    <path class="cls-3" d="M80.75,215.53l1.44-.25v-6.86l-1.44-.25v-1.12h3.19v8.23l1.45.25v1.12H80.75Zm3.19-10.94H82.19v-1.78h1.75Z"></path>
    <path class="cls-3" d="M91,215.47a2.35,2.35,0,0,0,1.53-.54,1.65,1.65,0,0,0,.66-1.32h1.57l0,.06a2.69,2.69,0,0,1-1.11,2.2,4.05,4.05,0,0,1-2.67,1,3.87,3.87,0,0,1-3.2-1.36A5.28,5.28,0,0,1,86.72,212v-.37a5.24,5.24,0,0,1,1.11-3.42,3.89,3.89,0,0,1,3.2-1.37,5.42,5.42,0,0,1,2.07.38,4.3,4.3,0,0,1,1.52,1.05l.08,2.13H93.31l-.39-1.51a2.36,2.36,0,0,0-.79-.49,3.21,3.21,0,0,0-1.1-.18,2.11,2.11,0,0,0-2,1,4.7,4.7,0,0,0-.59,2.43V212a4.77,4.77,0,0,0,.59,2.46A2.11,2.11,0,0,0,91,215.47Z"></path>
    <path class="cls-3" d="M103.85,210.06h-1.31l-.28-1.15a2.39,2.39,0,0,0-.81-.48,3.08,3.08,0,0,0-1.09-.18,2.06,2.06,0,0,0-1.39.4,1.3,1.3,0,0,0-.45,1,1.06,1.06,0,0,0,.4.89,4.13,4.13,0,0,0,1.62.59,6.9,6.9,0,0,1,2.71,1.06,2.14,2.14,0,0,1,.89,1.8,2.46,2.46,0,0,1-1,2.06,4.31,4.31,0,0,1-2.7.79,7,7,0,0,1-2-.25,5.27,5.27,0,0,1-1.55-.73v-2.19h1.31l.33,1.28a1.75,1.75,0,0,0,.82.4,4.73,4.73,0,0,0,1.06.13,2.48,2.48,0,0,0,1.46-.38,1.17,1.17,0,0,0,.53-1,1.21,1.21,0,0,0-.44-.95,4.2,4.2,0,0,0-1.66-.65,7,7,0,0,1-2.64-1,2.1,2.1,0,0,1-.88-1.78,2.5,2.5,0,0,1,1-2,4,4,0,0,1,2.6-.83,6.58,6.58,0,0,1,2,.28,4.14,4.14,0,0,1,1.44.79Z"></path>
    <path class="cls-3" d="M110.29,211.76a5.29,5.29,0,0,1,1.16-3.51,4.25,4.25,0,0,1,6.27,0,5.25,5.25,0,0,1,1.16,3.51V212a5.32,5.32,0,0,1-1.15,3.52,4.29,4.29,0,0,1-6.28,0,5.25,5.25,0,0,1-1.16-3.51ZM112,212a4.53,4.53,0,0,0,.64,2.52,2.14,2.14,0,0,0,1.91,1,2.12,2.12,0,0,0,1.89-1,4.53,4.53,0,0,0,.65-2.52v-.19a4.54,4.54,0,0,0-.65-2.51,2.31,2.31,0,0,0-3.8,0,4.54,4.54,0,0,0-.64,2.51Z"></path>
    <path class="cls-3" d="M123.63,208.17l-1.15.18,2,5.47.16.69h0l.17-.69,1.91-5.47-1.16-.18v-1.12h3.71v1.12l-.79.14-3.22,8.34H124l-3.26-8.34-.79-.14v-1.12h3.71Z"></path>
    <path class="cls-3" d="M134.75,216.83a4,4,0,0,1-3.19-1.33,5,5,0,0,1-1.19-3.47v-.39a5,5,0,0,1,1.22-3.41,3.77,3.77,0,0,1,2.89-1.36,3.63,3.63,0,0,1,2.93,1.17,4.62,4.62,0,0,1,1,3.12v1.09h-6.23l0,.05a3.72,3.72,0,0,0,.7,2.27,2.23,2.23,0,0,0,1.89.9,4.3,4.3,0,0,0,1.55-.26,3.61,3.61,0,0,0,1.16-.69l.68,1.13a4.16,4.16,0,0,1-1.36.84A5.36,5.36,0,0,1,134.75,216.83Zm-.27-8.58a1.86,1.86,0,0,0-1.5.74,3.48,3.48,0,0,0-.76,1.85l0,0h4.42v-.23a2.65,2.65,0,0,0-.55-1.72A2,2,0,0,0,134.48,208.25Z"></path>
    <path class="cls-3" d="M140.13,208.17v-1.12h3l.17,1.39a3.32,3.32,0,0,1,1-1.15,2.34,2.34,0,0,1,1.37-.42,3,3,0,0,1,.42,0,2.79,2.79,0,0,1,.34.07l-.23,1.62-1-.05a2,2,0,0,0-1.16.32,2.22,2.22,0,0,0-.73.91v5.51l1.45.25v1.12h-4.64v-1.12l1.45-.25v-6.86Z"></path>
    <path class="cls-3" d="M155.21,204.73v2.32H157v1.29h-1.82v5.83a1.28,1.28,0,0,0,.28,1,1,1,0,0,0,.74.27,3.37,3.37,0,0,0,.52,0,4,4,0,0,0,.48-.08l.24,1.2a2.41,2.41,0,0,1-.73.26,4.38,4.38,0,0,1-1,.1,2.27,2.27,0,0,1-1.7-.64,2.79,2.79,0,0,1-.63-2v-5.83H152v-1.29h1.51v-2.32Z"></path>
    <path class="cls-3" d="M158.81,215.53l1.45-.25v-6.86l-1.45-.25v-1.12H162v8.23l1.45.25v1.12h-4.64ZM162,204.59h-1.74v-1.78H162Z"></path>
    <path class="cls-3" d="M164.43,215.53l1.45-.25v-6.86l-1.45-.25v-1.12h3l.11,1.25a3.19,3.19,0,0,1,1.19-1.06,3.66,3.66,0,0,1,1.69-.37,3,3,0,0,1,1.64.44,2.7,2.7,0,0,1,1,1.33,3.61,3.61,0,0,1,1.19-1.29,3.16,3.16,0,0,1,1.74-.48,2.91,2.91,0,0,1,2.33,1,4.64,4.64,0,0,1,.85,3v4.37l1.44.25v1.12H176v-1.12l1.44-.25v-4.39a3.15,3.15,0,0,0-.49-2,1.76,1.76,0,0,0-1.44-.59,1.84,1.84,0,0,0-1.47.64,2.8,2.8,0,0,0-.64,1.62v4.73l1.44.25v1.12h-4.64v-1.12l1.45-.25v-4.39a3.15,3.15,0,0,0-.5-2,1.74,1.74,0,0,0-1.45-.63,2.38,2.38,0,0,0-1.31.33,2,2,0,0,0-.79.92v5.74l1.44.25v1.12h-4.64Z"></path>
    <path class="cls-3" d="M186.24,216.83a4,4,0,0,1-3.19-1.33,5,5,0,0,1-1.19-3.47v-.39a5,5,0,0,1,1.22-3.41,3.77,3.77,0,0,1,2.89-1.36A3.63,3.63,0,0,1,188.9,208a4.62,4.62,0,0,1,1,3.12v1.09h-6.23l0,.05a3.72,3.72,0,0,0,.7,2.27,2.23,2.23,0,0,0,1.89.9,4.3,4.3,0,0,0,1.55-.26,3.61,3.61,0,0,0,1.16-.69l.68,1.13a4.16,4.16,0,0,1-1.36.84A5.36,5.36,0,0,1,186.24,216.83Zm-.27-8.58a1.86,1.86,0,0,0-1.5.74,3.48,3.48,0,0,0-.76,1.85l0,0h4.42v-.23a2.65,2.65,0,0,0-.55-1.72A2,2,0,0,0,186,208.25Z"></path>
    <circle class="cls-4" cx="39.13" cy="326.62" r="3.41"></circle>
    <circle class="cls-4" cx="126.48" cy="326.62" r="3.41"></circle>
    <circle class="cls-4" cx="213.69" cy="305.83" r="3.41"></circle>
    <circle class="cls-4" cx="300.9" cy="305.83" r="3.41"></circle>
    <circle class="cls-4" cx="388.11" cy="291.98" r="3.41"></circle>
    <circle class="cls-4" cx="475.32" cy="278.12" r="3.41"></circle>
    <polyline class="cls-5" points="39.13 326.62 126.48 326.62 213.69 305.83 300.9 305.83 475.32 278.12"></polyline>
    <circle class="cls-6" cx="39.13" cy="278.12" r="3.41"></circle>
    <circle class="cls-6" cx="126.48" cy="271.19" r="3.41"></circle>
    <circle class="cls-6" cx="300.9" cy="264.26" r="3.41"></circle>
    <circle class="cls-6" cx="475.32" cy="236.55" r="3.41"></circle>
    <polyline class="cls-7" points="39.13 278.12 126.48 271.19 213.69 271.19 300.9 264.26 388.11 243.48 475.32 236.55"></polyline>
    <circle class="cls-8" cx="39.13" cy="264.07" r="3.41"></circle>
    <circle class="cls-8" cx="126.48" cy="257.14" r="3.41"></circle>
    <circle class="cls-8" cx="213.69" cy="271.19" r="3.41"></circle>
    <circle class="cls-8" cx="300.9" cy="243.48" r="3.41"></circle>
    <circle class="cls-8" cx="388.11" cy="243.48" r="3.41"></circle>
    <circle class="cls-8" cx="475.32" cy="229.62" r="3.41"></circle>
    <polyline class="cls-9" points="39.13 264.07 126.48 257.14 213.69 271.19 300.9 243.48 388.11 243.48 475.32 229.62"></polyline>
    <rect class="cls-10" x="47.94" y="111.91" width="418.4" height="73.27"></rect>
    <rect class="cls-10" x="48.24" y="82.33" width="364.76" height="18.51"></rect>
    <rect class="cls-6" x="417.35" y="81.84" width="48.99" height="19.45" rx="1.09" ry="1.09"></rect>
    <rect class="cls-11" x="51.36" y="85.05" width="78.07" height="13.06"></rect>
    <polygon class="cls-12" points="120.49 90.25 117.77 93.52 115.05 90.25 120.49 90.25"></polygon>
    <circle class="cls-13" cx="440.97" cy="90.17" r="5.07"></circle>
    <line class="cls-13" x1="444.27" y1="94.36" x2="447.8" y2="98.66"></line>
    <path class="cls-14" d="M59,154.7a17.42,17.42,0,0,1,17.42-17.42"></path>
    <path class="cls-15" d="M76.45,137.28A17.42,17.42,0,1,1,59,154.7"></path>
    <path class="cls-16" d="M62.72,123.66a3.87,3.87,0,0,1-.26,1.43,3.34,3.34,0,0,1-.73,1.12,3.19,3.19,0,0,1-1.13.73,3.88,3.88,0,0,1-1.47.26h-2.7v-7.08h2.7a4.09,4.09,0,0,1,1.47.26,3.49,3.49,0,0,1,1.13.73,3.45,3.45,0,0,1,.73,1.12A3.91,3.91,0,0,1,62.72,123.66Zm-1.35,0a3,3,0,0,0-.16-1,2.25,2.25,0,0,0-.44-.79,2,2,0,0,0-.71-.49,2.45,2.45,0,0,0-.93-.17H57.76v5h1.37a2.27,2.27,0,0,0,.93-.18,1.85,1.85,0,0,0,.71-.49,2.12,2.12,0,0,0,.44-.78A3.13,3.13,0,0,0,61.37,123.66Z"></path>
    <path class="cls-16" d="M65.83,122.1a2.8,2.8,0,0,1,1,.18,2,2,0,0,1,.78.52,2.22,2.22,0,0,1,.5.81,3.3,3.3,0,0,1,0,2.15,2.35,2.35,0,0,1-.5.82,2.14,2.14,0,0,1-.78.52,3,3,0,0,1-2,0,2.22,2.22,0,0,1-.78-.52,2.37,2.37,0,0,1-.51-.82,3.3,3.3,0,0,1,0-2.15,2.24,2.24,0,0,1,.51-.81,2.1,2.1,0,0,1,.78-.52A2.82,2.82,0,0,1,65.83,122.1Zm0,4.25a1.07,1.07,0,0,0,.93-.42,2.71,2.71,0,0,0,0-2.48,1.25,1.25,0,0,0-1.87,0,2.08,2.08,0,0,0-.31,1.24,2,2,0,0,0,.31,1.23A1.05,1.05,0,0,0,65.83,126.35Z"></path>
    <path class="cls-16" d="M69.25,127.2v-5H70a.29.29,0,0,1,.31.22l.08.37a2.37,2.37,0,0,1,.28-.27,1.61,1.61,0,0,1,.3-.21,1.42,1.42,0,0,1,.36-.14,1.7,1.7,0,0,1,.41-.05,1.12,1.12,0,0,1,.78.26A1.5,1.5,0,0,1,73,123a1.71,1.71,0,0,1,.29-.43,1.8,1.8,0,0,1,.39-.29,1.74,1.74,0,0,1,.45-.17,2.61,2.61,0,0,1,.48-.05,2,2,0,0,1,.74.13,1.45,1.45,0,0,1,.54.37,1.6,1.6,0,0,1,.34.6,2.76,2.76,0,0,1,.11.8v3.2H75.1V124a1.07,1.07,0,0,0-.21-.72.78.78,0,0,0-.62-.24.93.93,0,0,0-.34.06.92.92,0,0,0-.28.19.91.91,0,0,0-.19.3,1.07,1.07,0,0,0-.07.41v3.2H72.18V124a1.06,1.06,0,0,0-.21-.73.75.75,0,0,0-.6-.23.91.91,0,0,0-.48.13,1.45,1.45,0,0,0-.43.36v3.67Z"></path>
    <path class="cls-16" d="M81.44,127.2H80.9a.5.5,0,0,1-.27,0,.29.29,0,0,1-.15-.21l-.11-.35c-.12.11-.25.21-.37.3a2.88,2.88,0,0,1-.38.22,2.58,2.58,0,0,1-.42.13,2.49,2.49,0,0,1-.49,0,2.21,2.21,0,0,1-.59-.08,1.38,1.38,0,0,1-.46-.26,1.19,1.19,0,0,1-.3-.43,1.55,1.55,0,0,1-.11-.59,1.21,1.21,0,0,1,.15-.57,1.49,1.49,0,0,1,.5-.5,3.2,3.2,0,0,1,.92-.37,5.89,5.89,0,0,1,1.44-.15V124a1.17,1.17,0,0,0-.21-.76.8.8,0,0,0-.62-.24,1.37,1.37,0,0,0-.49.07,1.82,1.82,0,0,0-.34.15l-.27.16a.6.6,0,0,1-.27.07.38.38,0,0,1-.21-.07.36.36,0,0,1-.14-.16l-.22-.38a3,3,0,0,1,2.09-.8,2,2,0,0,1,.79.15,1.72,1.72,0,0,1,.58.4,1.83,1.83,0,0,1,.37.62,2.41,2.41,0,0,1,.12.78Zm-2.35-.75a1.79,1.79,0,0,0,.34,0,2.11,2.11,0,0,0,.3-.1l.27-.17.26-.24v-.84a5.22,5.22,0,0,0-.88.07,2,2,0,0,0-.57.17.73.73,0,0,0-.31.24.53.53,0,0,0-.09.3.51.51,0,0,0,.19.46A.81.81,0,0,0,79.09,126.45Z"></path>
    <path class="cls-16" d="M84.1,120.71a.73.73,0,0,1-.06.3.81.81,0,0,1-.17.24.72.72,0,0,1-.25.16.78.78,0,0,1-.6,0,.78.78,0,0,1-.24-.16,1,1,0,0,1-.17-.24.78.78,0,0,1,0-.6.92.92,0,0,1,.17-.25A1,1,0,0,1,83,120a.78.78,0,0,1,.6,0,.89.89,0,0,1,.25.16.74.74,0,0,1,.17.25A.73.73,0,0,1,84.1,120.71Zm-.18,1.47v5H82.71v-5Z"></path>
    <path class="cls-16" d="M85.29,127.2v-5H86a.28.28,0,0,1,.3.22l.09.4a2.89,2.89,0,0,1,.32-.29,2.16,2.16,0,0,1,.36-.22,1.72,1.72,0,0,1,.4-.14,2.26,2.26,0,0,1,.47-.05,1.86,1.86,0,0,1,.73.14,1.38,1.38,0,0,1,.53.39,1.93,1.93,0,0,1,.33.6,2.7,2.7,0,0,1,.11.77v3.2H88.46V124a1.09,1.09,0,0,0-.22-.71.77.77,0,0,0-.64-.25,1.27,1.27,0,0,0-.58.14,2.15,2.15,0,0,0-.52.39v3.63Z"></path>
    <path class="cls-16" d="M99,127.2H98a.42.42,0,0,1-.28-.08.65.65,0,0,1-.16-.21l-.53-1.45H94.12l-.53,1.45a.55.55,0,0,1-.15.2.48.48,0,0,1-.29.09h-1l2.78-7.08h1.35Zm-4.58-2.67h2.26l-.87-2.36c0-.1-.08-.22-.13-.37l-.14-.46c0,.17-.09.32-.13.47s-.09.27-.13.37Z"></path>
    <path class="cls-16" d="M100.81,122.18v3.19a1.06,1.06,0,0,0,.21.71.81.81,0,0,0,.64.26,1.31,1.31,0,0,0,.59-.14,2.08,2.08,0,0,0,.52-.39v-3.63H104v5h-.74a.29.29,0,0,1-.31-.22l-.08-.4a3,3,0,0,1-.33.29,1.59,1.59,0,0,1-.35.22,1.8,1.8,0,0,1-.41.14,1.71,1.71,0,0,1-.46,0,1.67,1.67,0,0,1-.73-.14,1.38,1.38,0,0,1-.53-.39,1.57,1.57,0,0,1-.33-.61,2.65,2.65,0,0,1-.11-.77v-3.19Z"></path>
    <path class="cls-16" d="M106.92,127.28a1.31,1.31,0,0,1-1-.37,1.38,1.38,0,0,1-.35-1v-2.81h-.51a.25.25,0,0,1-.17-.06.24.24,0,0,1-.07-.19v-.48l.81-.13.25-1.37a.24.24,0,0,1,.09-.16.35.35,0,0,1,.18,0h.63v1.58h1.32v.86h-1.32v2.73a.55.55,0,0,0,.12.37.41.41,0,0,0,.31.13.54.54,0,0,0,.19,0l.13-.06.1,0a.15.15,0,0,1,.18,0l.07.08.36.59a2,2,0,0,1-.61.33A2.07,2.07,0,0,1,106.92,127.28Z"></path>
    <path class="cls-16" d="M109.07,127.2v-7.28h1.2v2.8a3.15,3.15,0,0,1,.65-.45,2,2,0,0,1,.83-.17,1.86,1.86,0,0,1,.73.14,1.38,1.38,0,0,1,.53.39,1.73,1.73,0,0,1,.32.6,2.39,2.39,0,0,1,.12.77v3.2h-1.21V124a1.09,1.09,0,0,0-.22-.71.77.77,0,0,0-.64-.25,1.35,1.35,0,0,0-.59.14,2.62,2.62,0,0,0-.52.39v3.63Z"></path>
    <path class="cls-16" d="M116.78,122.1a2.73,2.73,0,0,1,1,.18,2,2,0,0,1,.78.52,2.09,2.09,0,0,1,.5.81,3.3,3.3,0,0,1,0,2.15,2.21,2.21,0,0,1-.5.82,2.14,2.14,0,0,1-.78.52,3,3,0,0,1-2,0,2.27,2.27,0,0,1-.79-.52,2.21,2.21,0,0,1-.5-.82,3.3,3.3,0,0,1,0-2.15,2.09,2.09,0,0,1,.5-.81,2.14,2.14,0,0,1,.79-.52A2.73,2.73,0,0,1,116.78,122.1Zm0,4.25a1.07,1.07,0,0,0,.93-.42,2.71,2.71,0,0,0,0-2.48,1.07,1.07,0,0,0-.93-.42,1.08,1.08,0,0,0-.94.42,2.16,2.16,0,0,0-.3,1.24,2.11,2.11,0,0,0,.3,1.23A1.07,1.07,0,0,0,116.78,126.35Z"></path>
    <path class="cls-16" d="M120.2,127.2v-5h.71a.29.29,0,0,1,.36.3l.08.61a2.44,2.44,0,0,1,.63-.74,1.32,1.32,0,0,1,.81-.27,1,1,0,0,1,.62.18l-.16.9a.23.23,0,0,1-.06.13.25.25,0,0,1-.13,0l-.21,0a1.42,1.42,0,0,0-.33,0,1.09,1.09,0,0,0-.65.2,1.75,1.75,0,0,0-.46.61v3.13Z"></path>
    <path class="cls-16" d="M125.68,120.71a.6.6,0,0,1-.07.3.81.81,0,0,1-.17.24.78.78,0,0,1-.24.16.81.81,0,0,1-.31.06.82.82,0,0,1-.54-.22,1,1,0,0,1-.16-.24.78.78,0,0,1,0-.6.69.69,0,0,1,.41-.41.72.72,0,0,1,.29-.06.81.81,0,0,1,.31.06,1,1,0,0,1,.24.16.74.74,0,0,1,.17.25A.6.6,0,0,1,125.68,120.71Zm-.18,1.47v5h-1.21v-5Z"></path>
    <path class="cls-16" d="M128.51,127.28a1.31,1.31,0,0,1-1-.37,1.38,1.38,0,0,1-.35-1v-2.81h-.51a.25.25,0,0,1-.17-.06.24.24,0,0,1-.07-.19v-.48l.81-.13.25-1.37a.24.24,0,0,1,.09-.16.35.35,0,0,1,.18,0h.63v1.58h1.32v.86h-1.32v2.73a.55.55,0,0,0,.12.37.41.41,0,0,0,.31.13.54.54,0,0,0,.19,0l.13-.06.1,0a.15.15,0,0,1,.18,0l.07.08.36.59a2,2,0,0,1-.61.33A2.07,2.07,0,0,1,128.51,127.28Z"></path>
    <path class="cls-16" d="M132.44,128.59a.55.55,0,0,1-.14.19.47.47,0,0,1-.26.07h-.9l.94-2-2-4.65h1.06a.33.33,0,0,1,.23.07.33.33,0,0,1,.11.15l1.08,2.61.09.26c0,.1,0,.19.07.28a2.29,2.29,0,0,1,.08-.28,1.69,1.69,0,0,0,.1-.27l1-2.6a.4.4,0,0,1,.13-.16.37.37,0,0,1,.21-.06h1Z"></path>
    <path class="cls-17" d="M105.34,151.74a5.48,5.48,0,0,1-1.71-.25,4.12,4.12,0,0,1-1.33-.71,3.26,3.26,0,0,1-.86-1.12,3.43,3.43,0,0,1-.3-1.46,3,3,0,0,1,.53-1.81,3.09,3.09,0,0,1,1.64-1.1,2.85,2.85,0,0,1-1.33-1,3,3,0,0,1-.44-1.63,2.89,2.89,0,0,1,.28-1.28,3.2,3.2,0,0,1,.78-1,3.86,3.86,0,0,1,1.21-.69,4.63,4.63,0,0,1,1.53-.24,4.74,4.74,0,0,1,1.54.24,3.7,3.7,0,0,1,1.2.69,3.09,3.09,0,0,1,.79,1,3,3,0,0,1,.28,1.28,2.89,2.89,0,0,1-.45,1.63,2.82,2.82,0,0,1-1.32,1,3.12,3.12,0,0,1,1.64,1.1,3.05,3.05,0,0,1,.53,1.81,3.29,3.29,0,0,1-.31,1.46,3.15,3.15,0,0,1-.86,1.12,4.07,4.07,0,0,1-1.32.71A5.5,5.5,0,0,1,105.34,151.74Zm0-1.62a2.74,2.74,0,0,0,.9-.14,2,2,0,0,0,.65-.41,1.74,1.74,0,0,0,.4-.62,2.2,2.2,0,0,0,.13-.78,2,2,0,0,0-.55-1.51,2.54,2.54,0,0,0-3.05,0,2,2,0,0,0-.55,1.51,2.2,2.2,0,0,0,.13.78,1.62,1.62,0,0,0,.4.62,1.85,1.85,0,0,0,.65.41A2.64,2.64,0,0,0,105.34,150.12Zm0-5.59a2.11,2.11,0,0,0,.85-.16,1.49,1.49,0,0,0,.55-.43,1.54,1.54,0,0,0,.3-.6,2.74,2.74,0,0,0,.09-.7A2,2,0,0,0,107,142a1.55,1.55,0,0,0-.88-.93,2.33,2.33,0,0,0-1.59,0,1.5,1.5,0,0,0-.56.38,1.47,1.47,0,0,0-.33.55,2,2,0,0,0-.1.65,2.74,2.74,0,0,0,.09.7,1.49,1.49,0,0,0,.85,1A2.1,2.1,0,0,0,105.34,144.53Z"></path>
    <path class="cls-17" d="M119.38,139.49v.9a2.3,2.3,0,0,1-.08.65,3.31,3.31,0,0,1-.18.41l-4.58,9.45a1.39,1.39,0,0,1-.4.5,1.08,1.08,0,0,1-.7.21h-1.5l4.69-9.26a4.51,4.51,0,0,1,.65-1h-5.8a.44.44,0,0,1-.33-.15.42.42,0,0,1-.14-.33v-1.4Z"></path>
    <path class="cls-16" d="M281.75,127.2h-1.32v-7.08h1.32Z"></path>
    <path class="cls-16" d="M283.27,127.2v-5H284a.29.29,0,0,1,.31.22l.09.4a2.21,2.21,0,0,1,.32-.29,2.56,2.56,0,0,1,.35-.22,1.8,1.8,0,0,1,.41-.14,2.26,2.26,0,0,1,.47-.05,1.86,1.86,0,0,1,.73.14,1.38,1.38,0,0,1,.53.39,1.73,1.73,0,0,1,.32.6,2.39,2.39,0,0,1,.11.77v3.2h-1.21V124a1.09,1.09,0,0,0-.21-.71.79.79,0,0,0-.64-.25,1.35,1.35,0,0,0-.59.14,2.62,2.62,0,0,0-.52.39v3.63Z"></path>
    <path class="cls-16" d="M288.86,127.2v-7.28h1.21v2.88a2.17,2.17,0,0,1,.67-.51,1.94,1.94,0,0,1,.89-.19,1.72,1.72,0,0,1,.75.17,1.82,1.82,0,0,1,.59.49,2.48,2.48,0,0,1,.38.8,4,4,0,0,1,.13,1.09,3.51,3.51,0,0,1-.15,1,2.72,2.72,0,0,1-.43.83,2.12,2.12,0,0,1-.68.55,2,2,0,0,1-.9.2,1.86,1.86,0,0,1-.42,0,1.33,1.33,0,0,1-.35-.13,1.37,1.37,0,0,1-.29-.2,3.38,3.38,0,0,1-.26-.27L290,127a.32.32,0,0,1-.1.18.29.29,0,0,1-.19,0Zm2.35-4.16a1.23,1.23,0,0,0-.65.16,2,2,0,0,0-.49.45v2.25a1.09,1.09,0,0,0,.45.36,1.46,1.46,0,0,0,.52.1,1.15,1.15,0,0,0,.5-.11.91.91,0,0,0,.37-.31,1.53,1.53,0,0,0,.24-.53,2.91,2.91,0,0,0,.08-.76,3.3,3.3,0,0,0-.07-.75,1.39,1.39,0,0,0-.2-.49.84.84,0,0,0-.32-.28A1,1,0,0,0,291.21,123Z"></path>
    <path class="cls-16" d="M296.57,122.1a2.73,2.73,0,0,1,1,.18,2.14,2.14,0,0,1,.79.52,2.36,2.36,0,0,1,.5.81,3.48,3.48,0,0,1,0,2.15,2.51,2.51,0,0,1-.5.82,2.27,2.27,0,0,1-.79.52,2.73,2.73,0,0,1-1,.18,2.8,2.8,0,0,1-1-.18,2.27,2.27,0,0,1-.79-.52,2.51,2.51,0,0,1-.5-.82,3.3,3.3,0,0,1,0-2.15,2.36,2.36,0,0,1,.5-.81,2.14,2.14,0,0,1,.79-.52A2.8,2.8,0,0,1,296.57,122.1Zm0,4.25a1.07,1.07,0,0,0,.93-.42,2.71,2.71,0,0,0,0-2.48,1.07,1.07,0,0,0-.93-.42,1.08,1.08,0,0,0-.94.42,2.16,2.16,0,0,0-.3,1.24,2.11,2.11,0,0,0,.3,1.23A1.07,1.07,0,0,0,296.57,126.35Z"></path>
    <path class="cls-16" d="M301.1,122.18v3.19a1.06,1.06,0,0,0,.22.71.78.78,0,0,0,.64.26,1.27,1.27,0,0,0,.58-.14,1.92,1.92,0,0,0,.52-.39v-3.63h1.21v5h-.74a.28.28,0,0,1-.3-.22l-.09-.4a2.89,2.89,0,0,1-.32.29,1.65,1.65,0,0,1-.36.22,1.72,1.72,0,0,1-.4.14,1.78,1.78,0,0,1-.47,0,1.7,1.7,0,0,1-.73-.14,1.38,1.38,0,0,1-.53-.39,1.88,1.88,0,0,1-.33-.61,2.65,2.65,0,0,1-.11-.77v-3.19Z"></path>
    <path class="cls-16" d="M305.57,127.2v-5h.74a.3.3,0,0,1,.31.22l.08.4a2.89,2.89,0,0,1,.32-.29,2.16,2.16,0,0,1,.36-.22,1.72,1.72,0,0,1,.4-.14,2.26,2.26,0,0,1,.47-.05,1.83,1.83,0,0,1,.73.14,1.38,1.38,0,0,1,.53.39,1.75,1.75,0,0,1,.33.6,2.7,2.7,0,0,1,.11.77v3.2h-1.21V124a1,1,0,0,0-.22-.71.77.77,0,0,0-.64-.25,1.3,1.3,0,0,0-.58.14,2.15,2.15,0,0,0-.52.39v3.63Z"></path>
    <path class="cls-16" d="M314.67,127.2a.28.28,0,0,1-.3-.22l-.1-.48c-.11.12-.22.22-.33.32a2.92,2.92,0,0,1-.37.24,2,2,0,0,1-.43.16,1.88,1.88,0,0,1-.49.06,1.69,1.69,0,0,1-.75-.17,1.66,1.66,0,0,1-.59-.5,2.35,2.35,0,0,1-.39-.81,4,4,0,0,1-.13-1.09,3.44,3.44,0,0,1,.15-1,2.59,2.59,0,0,1,.44-.84,2.14,2.14,0,0,1,.68-.55,2,2,0,0,1,.89-.2,1.74,1.74,0,0,1,.72.14,1.77,1.77,0,0,1,.53.36v-2.66h1.21v7.28Zm-1.61-.88a1.17,1.17,0,0,0,.64-.16,1.61,1.61,0,0,0,.5-.45v-2.25a1.1,1.1,0,0,0-.44-.35,1.35,1.35,0,0,0-.53-.1,1.13,1.13,0,0,0-.49.1,1,1,0,0,0-.38.31,1.63,1.63,0,0,0-.24.53,3.34,3.34,0,0,0-.08.76,3.15,3.15,0,0,0,.07.74,1.45,1.45,0,0,0,.2.5.8.8,0,0,0,.33.28A1,1,0,0,0,313.06,126.32Z"></path>
    <path class="cls-16" d="M320,126.12h2.84v1.08h-4.16v-7.08H320Z"></path>
    <path class="cls-16" d="M325.15,120.71a.6.6,0,0,1-.07.3.78.78,0,0,1-.16.24.81.81,0,0,1-.56.22.72.72,0,0,1-.29-.06.6.6,0,0,1-.24-.16.81.81,0,0,1-.17-.24.78.78,0,0,1,0-.6.74.74,0,0,1,.17-.25.77.77,0,0,1,.53-.22.81.81,0,0,1,.31.06,1.07,1.07,0,0,1,.25.16.72.72,0,0,1,.16.25A.6.6,0,0,1,325.15,120.71Zm-.18,1.47v5h-1.21v-5Z"></path>
    <path class="cls-16" d="M326.33,127.2v-5h.74a.29.29,0,0,1,.31.22l.09.4a2.21,2.21,0,0,1,.32-.29,2.56,2.56,0,0,1,.35-.22,2,2,0,0,1,.41-.14,2.26,2.26,0,0,1,.47-.05,1.86,1.86,0,0,1,.73.14,1.38,1.38,0,0,1,.53.39,1.73,1.73,0,0,1,.32.6,2.39,2.39,0,0,1,.11.77v3.2H329.5V124a1.09,1.09,0,0,0-.21-.71.77.77,0,0,0-.64-.25,1.35,1.35,0,0,0-.59.14,2.62,2.62,0,0,0-.52.39v3.63Z"></path>
    <path class="cls-16" d="M333.13,119.92v4.17h.22a.53.53,0,0,0,.2,0,.54.54,0,0,0,.14-.13l1.25-1.54a.86.86,0,0,1,.18-.16.54.54,0,0,1,.24,0h1.11L334.91,124l-.17.19a1,1,0,0,1-.2.15,1.54,1.54,0,0,1,.19.17l.15.21,1.68,2.44h-1.09a.43.43,0,0,1-.24,0,.39.39,0,0,1-.18-.16l-1.28-1.91a.39.39,0,0,0-.15-.14.41.41,0,0,0-.22,0h-.27v2.3h-1.21v-7.28Z"></path>
    <path class="cls-16" d="M340.29,123.16a.36.36,0,0,1-.1.11.29.29,0,0,1-.14,0,.49.49,0,0,1-.19,0l-.23-.11a2.09,2.09,0,0,0-.3-.11,1.56,1.56,0,0,0-.4,0,.91.91,0,0,0-.56.15.48.48,0,0,0-.21.4.37.37,0,0,0,.11.27.88.88,0,0,0,.28.2l.39.15.45.14a4.22,4.22,0,0,1,.45.18,1.8,1.8,0,0,1,.4.25,1.41,1.41,0,0,1,.27.37,1.21,1.21,0,0,1,.11.52,1.63,1.63,0,0,1-.13.67,1.46,1.46,0,0,1-.39.53,1.91,1.91,0,0,1-.63.35,2.84,2.84,0,0,1-.86.12,2.92,2.92,0,0,1-.51,0l-.47-.13a4.09,4.09,0,0,1-.42-.2,2.3,2.3,0,0,1-.34-.25l.28-.46a.34.34,0,0,1,.12-.12.36.36,0,0,1,.19,0,.31.31,0,0,1,.21.07l.24.13a1.51,1.51,0,0,0,.31.14,1.42,1.42,0,0,0,.45.07,1,1,0,0,0,.37-.06.73.73,0,0,0,.25-.13.53.53,0,0,0,.15-.19.64.64,0,0,0,.05-.23.4.4,0,0,0-.11-.29.88.88,0,0,0-.28-.2l-.39-.15-.46-.14a2.53,2.53,0,0,1-.45-.19,1.53,1.53,0,0,1-.4-.26,1.15,1.15,0,0,1-.28-.4,1.41,1.41,0,0,1-.11-.57,1.42,1.42,0,0,1,.49-1.07,1.87,1.87,0,0,1,.59-.34,2.57,2.57,0,0,1,.82-.12,2.54,2.54,0,0,1,.94.17,2.33,2.33,0,0,1,.72.45Z"></path>
    <path class="cls-18" d="M285.16,144.15a3.82,3.82,0,0,1,1.34.23,3.15,3.15,0,0,1,1.14.68,3.35,3.35,0,0,1,.8,1.13,3.92,3.92,0,0,1,.3,1.59,4,4,0,0,1-1.18,2.88,4,4,0,0,1-1.35.87,4.7,4.7,0,0,1-1.75.32,4.54,4.54,0,0,1-1.74-.31,3.8,3.8,0,0,1-1.32-.87,3.75,3.75,0,0,1-.83-1.34,4.81,4.81,0,0,1-.29-1.74,4.87,4.87,0,0,1,.35-1.75A7.86,7.86,0,0,1,281.7,144l2.89-3.88a1.22,1.22,0,0,1,.44-.35,1.6,1.6,0,0,1,.67-.14h1.84L284,144l-.22.27-.21.26a3.83,3.83,0,0,1,.76-.28A3.49,3.49,0,0,1,285.16,144.15Zm-2.9,3.76a3,3,0,0,0,.14.92,2,2,0,0,0,.41.71,1.92,1.92,0,0,0,.68.45,2.41,2.41,0,0,0,.93.17,2.46,2.46,0,0,0,.91-.17,2.15,2.15,0,0,0,.71-.47,2.28,2.28,0,0,0,.63-1.59,2.54,2.54,0,0,0-.16-.94,2,2,0,0,0-.45-.7,2,2,0,0,0-.7-.44,2.67,2.67,0,0,0-.91-.15,2.37,2.37,0,0,0-.9.17,2.14,2.14,0,0,0-.69.46,2,2,0,0,0-.44.71A2.49,2.49,0,0,0,282.26,147.91Z"></path>
    <path class="cls-18" d="M289.88,150.57a1.19,1.19,0,0,1,.1-.49,1.11,1.11,0,0,1,.26-.4,1.46,1.46,0,0,1,.41-.27,1.3,1.3,0,0,1,1,0,1.41,1.41,0,0,1,.4.27,1.28,1.28,0,0,1,.27.4,1.38,1.38,0,0,1,.1.49,1.35,1.35,0,0,1-.1.5,1.28,1.28,0,0,1-.27.4,1.41,1.41,0,0,1-.4.27,1.43,1.43,0,0,1-1,0,1.46,1.46,0,0,1-.41-.27,1.11,1.11,0,0,1-.26-.4A1.18,1.18,0,0,1,289.88,150.57Z"></path>
    <path class="cls-18" d="M295.29,150.16h2.46V143.1c0-.27,0-.56,0-.86L296,143.7a.75.75,0,0,1-.44.16.62.62,0,0,1-.31-.08.58.58,0,0,1-.21-.16l-.65-.9,3.69-3.14h1.71v10.58H302v1.55h-6.7Z"></path>
    <path class="cls-18" d="M303.86,151.71v-8.59h1.27a.51.51,0,0,1,.53.38l.13.63c.15-.16.31-.32.47-.46a3.1,3.1,0,0,1,.53-.36,3.13,3.13,0,0,1,.6-.24,2.66,2.66,0,0,1,.71-.08,2,2,0,0,1,1.34.43,2.69,2.69,0,0,1,.78,1.17,2.55,2.55,0,0,1,.5-.73,2.93,2.93,0,0,1,.67-.5,2.89,2.89,0,0,1,.76-.28A3.81,3.81,0,0,1,313,143a3.54,3.54,0,0,1,1.26.21,2.46,2.46,0,0,1,.93.64,2.83,2.83,0,0,1,.58,1,4.47,4.47,0,0,1,.19,1.38v5.47h-2.07v-5.47a1.82,1.82,0,0,0-.36-1.23,1.31,1.31,0,0,0-1.05-.42,1.63,1.63,0,0,0-.59.11,1.55,1.55,0,0,0-.48.32,1.31,1.31,0,0,0-.32.51,2,2,0,0,0-.12.71v5.47h-2.08v-5.47a1.87,1.87,0,0,0-.34-1.25,1.3,1.3,0,0,0-1-.4,1.62,1.62,0,0,0-.83.23,2.71,2.71,0,0,0-.73.6v6.29Z"></path>
    <path class="cls-16" d="M378.61,124.44v2.76h-1.32v-7.08h2.16a4.43,4.43,0,0,1,1.24.15,2.33,2.33,0,0,1,.85.42,1.69,1.69,0,0,1,.49.64,2.23,2.23,0,0,1,.15.83,2.09,2.09,0,0,1-.11.67,1.88,1.88,0,0,1-.3.58,2,2,0,0,1-.49.46,2.68,2.68,0,0,1-.66.31,1.39,1.39,0,0,1,.43.41l1.77,2.61h-1.18a.62.62,0,0,1-.29-.06.67.67,0,0,1-.21-.2l-1.49-2.27a.52.52,0,0,0-.18-.18.62.62,0,0,0-.3,0Zm0-1h.82a2.08,2.08,0,0,0,.65-.09,1.21,1.21,0,0,0,.46-.26.93.93,0,0,0,.26-.39,1.3,1.3,0,0,0,.09-.49,1,1,0,0,0-.35-.83,1.73,1.73,0,0,0-1.09-.29h-.84Z"></path>
    <path class="cls-16" d="M387.53,127.2H387a.54.54,0,0,1-.27,0,.36.36,0,0,1-.15-.21l-.1-.35-.38.3a2.88,2.88,0,0,1-.38.22,2.8,2.8,0,0,1-.41.13,2.53,2.53,0,0,1-.5,0,2.14,2.14,0,0,1-.58-.08,1.43,1.43,0,0,1-.47-.26,1.33,1.33,0,0,1-.3-.43,1.55,1.55,0,0,1-.1-.59,1.2,1.2,0,0,1,.14-.57,1.49,1.49,0,0,1,.5-.5,3.15,3.15,0,0,1,.93-.37,5.75,5.75,0,0,1,1.43-.15V124a1.17,1.17,0,0,0-.21-.76.78.78,0,0,0-.62-.24,1.41,1.41,0,0,0-.49.07,2.16,2.16,0,0,0-.34.15l-.27.16a.6.6,0,0,1-.27.07.38.38,0,0,1-.21-.07.44.44,0,0,1-.14-.16l-.22-.38a3,3,0,0,1,2.09-.8,2,2,0,0,1,.79.15,1.72,1.72,0,0,1,.58.4,1.56,1.56,0,0,1,.37.62,2.41,2.41,0,0,1,.12.78Zm-2.35-.75a1.9,1.9,0,0,0,.35,0l.29-.1.27-.17a2,2,0,0,0,.26-.24v-.84a5.31,5.31,0,0,0-.88.07,2,2,0,0,0-.57.17.8.8,0,0,0-.31.24.53.53,0,0,0-.09.3.51.51,0,0,0,.19.46A.84.84,0,0,0,385.18,126.45Z"></path>
    <path class="cls-16" d="M388.73,127.2v-5h.74a.29.29,0,0,1,.3.22l.09.4a2.89,2.89,0,0,1,.32-.29,2.56,2.56,0,0,1,.35-.22,2,2,0,0,1,.41-.14,2.26,2.26,0,0,1,.47-.05,1.86,1.86,0,0,1,.73.14,1.38,1.38,0,0,1,.53.39,1.73,1.73,0,0,1,.32.6,2.39,2.39,0,0,1,.12.77v3.2H391.9V124a1.09,1.09,0,0,0-.22-.71A.77.77,0,0,0,391,123a1.35,1.35,0,0,0-.59.14,2.31,2.31,0,0,0-.51.39v3.63Z"></path>
    <path class="cls-16" d="M395.52,119.92v4.17h.22a.53.53,0,0,0,.2,0,.54.54,0,0,0,.14-.13l1.25-1.54a.86.86,0,0,1,.18-.16.54.54,0,0,1,.24,0h1.11L397.3,124a1.62,1.62,0,0,1-.17.19,1,1,0,0,1-.2.15,1.54,1.54,0,0,1,.19.17l.15.21L399,127.2h-1.09a.43.43,0,0,1-.24,0,.39.39,0,0,1-.18-.16l-1.28-1.91a.39.39,0,0,0-.15-.14.41.41,0,0,0-.22,0h-.27v2.3h-1.21v-7.28Z"></path>
    <path class="cls-16" d="M401.17,120.71a.6.6,0,0,1-.07.3.78.78,0,0,1-.16.24.81.81,0,0,1-.56.22.72.72,0,0,1-.29-.06.6.6,0,0,1-.24-.16.81.81,0,0,1-.17-.24.78.78,0,0,1,0-.6.74.74,0,0,1,.17-.25.77.77,0,0,1,.53-.22.81.81,0,0,1,.31.06,1.07,1.07,0,0,1,.25.16.72.72,0,0,1,.16.25A.6.6,0,0,1,401.17,120.71Zm-.18,1.47v5h-1.21v-5Z"></path>
    <path class="cls-16" d="M402.35,127.2v-5h.74a.29.29,0,0,1,.31.22l.09.4a2.21,2.21,0,0,1,.32-.29,2.56,2.56,0,0,1,.35-.22,1.8,1.8,0,0,1,.41-.14,2.26,2.26,0,0,1,.47-.05,1.9,1.9,0,0,1,.73.14,1.38,1.38,0,0,1,.53.39,1.73,1.73,0,0,1,.32.6,2.39,2.39,0,0,1,.11.77v3.2h-1.21V124a1.09,1.09,0,0,0-.21-.71.77.77,0,0,0-.64-.25,1.35,1.35,0,0,0-.59.14,2.62,2.62,0,0,0-.52.39v3.63Z"></path>
    <path class="cls-16" d="M409.66,122.09a2.37,2.37,0,0,1,.61.07,1.79,1.79,0,0,1,.52.19h1.44v.45a.23.23,0,0,1-.26.26l-.45.09a1.07,1.07,0,0,1,.08.27,1.39,1.39,0,0,1,0,.3,1.5,1.5,0,0,1-.15.67,1.57,1.57,0,0,1-.41.51,2.1,2.1,0,0,1-.63.33,2.77,2.77,0,0,1-.78.11,3.31,3.31,0,0,1-.55,0,.39.39,0,0,0-.24.32.23.23,0,0,0,.14.22,1.16,1.16,0,0,0,.37.11l.52,0,.59,0a5.59,5.59,0,0,1,.59.08,1.88,1.88,0,0,1,.52.2,1,1,0,0,1,.51,1,1.4,1.4,0,0,1-.17.65,1.9,1.9,0,0,1-.47.56,2.59,2.59,0,0,1-.76.39,3.33,3.33,0,0,1-1,.15,3.68,3.68,0,0,1-1-.11,2.21,2.21,0,0,1-.69-.29,1.23,1.23,0,0,1-.42-.43,1,1,0,0,1-.14-.49.84.84,0,0,1,.22-.6,1.38,1.38,0,0,1,.6-.38.76.76,0,0,1-.42-.72.93.93,0,0,1,0-.23,1.34,1.34,0,0,1,.12-.24,1.08,1.08,0,0,1,.21-.22,1.21,1.21,0,0,1,.29-.19,1.52,1.52,0,0,1-.6-.55,1.44,1.44,0,0,1-.22-.8,1.51,1.51,0,0,1,.15-.68,1.57,1.57,0,0,1,.41-.51,2,2,0,0,1,.64-.33A2.85,2.85,0,0,1,409.66,122.09Zm1.33,5.33a.35.35,0,0,0-.09-.25.7.7,0,0,0-.24-.15,1.67,1.67,0,0,0-.35-.07,3,3,0,0,0-.43,0h-.47a2.34,2.34,0,0,1-.47,0,1,1,0,0,0-.33.26.53.53,0,0,0-.13.36.45.45,0,0,0,.07.25.49.49,0,0,0,.21.19,1.06,1.06,0,0,0,.37.13,3,3,0,0,0,.57.05,3.21,3.21,0,0,0,.58-.05,1.52,1.52,0,0,0,.4-.15.57.57,0,0,0,.24-.22A.5.5,0,0,0,411,127.42Zm-1.33-2.85a1.14,1.14,0,0,0,.39-.06.72.72,0,0,0,.45-.43,1.14,1.14,0,0,0,.05-.33.77.77,0,0,0-.22-.59.9.9,0,0,0-.67-.22.92.92,0,0,0-.67.22.77.77,0,0,0-.22.59.87.87,0,0,0,.06.32.92.92,0,0,0,.16.27.88.88,0,0,0,.28.17A1.23,1.23,0,0,0,409.66,124.57Z"></path>
    <path class="cls-16" d="M416.32,123.09h.3a.87.87,0,0,0,.31,0,.56.56,0,0,0,.21-.17l2-2.47a.71.71,0,0,1,.25-.22.9.9,0,0,1,.34-.06h1.14l-2.38,2.94a1.65,1.65,0,0,1-.22.23.82.82,0,0,1-.22.16,1,1,0,0,1,.29.16,1.38,1.38,0,0,1,.25.28L421,127.2h-1.16a.76.76,0,0,1-.35-.06.64.64,0,0,1-.2-.2l-2-2.61a.52.52,0,0,0-.22-.18.82.82,0,0,0-.35-.06h-.41v3.11H415v-7.09h1.32Z"></path>
    <path class="cls-16" d="M423.8,122.1a2.5,2.5,0,0,1,.88.15,1.84,1.84,0,0,1,.68.45,1.8,1.8,0,0,1,.45.71,2.63,2.63,0,0,1,.17,1,1.52,1.52,0,0,1,0,.23.29.29,0,0,1,0,.14.16.16,0,0,1-.09.07.25.25,0,0,1-.13,0h-3.11A1.71,1.71,0,0,0,423,126a1.3,1.3,0,0,0,1,.36,1.51,1.51,0,0,0,.5-.07,1.67,1.67,0,0,0,.38-.15l.28-.15a.41.41,0,0,1,.23-.07.28.28,0,0,1,.13,0l.09.08.35.44a1.9,1.9,0,0,1-.45.4,2.26,2.26,0,0,1-.52.25,2.78,2.78,0,0,1-.55.14,5.28,5.28,0,0,1-.55,0,2.67,2.67,0,0,1-1-.18,2,2,0,0,1-.78-.51,2.39,2.39,0,0,1-.52-.84,3.26,3.26,0,0,1-.2-1.17,2.77,2.77,0,0,1,.17-1,2.24,2.24,0,0,1,1.24-1.32A2.37,2.37,0,0,1,423.8,122.1Zm0,.87a1.15,1.15,0,0,0-.83.29,1.46,1.46,0,0,0-.38.85h2.27a1.61,1.61,0,0,0-.06-.44,1.2,1.2,0,0,0-.2-.37,1,1,0,0,0-.33-.24A1.19,1.19,0,0,0,423.83,123Z"></path>
    <path class="cls-16" d="M428.74,128.59a.45.45,0,0,1-.14.19.43.43,0,0,1-.26.07h-.9l.94-2-2-4.65h1.06a.31.31,0,0,1,.22.07.35.35,0,0,1,.12.15l1.07,2.61a2,2,0,0,1,.1.26c0,.1.05.19.06.28l.09-.28c0-.08.07-.17.1-.27l1-2.6a.33.33,0,0,1,.13-.16.36.36,0,0,1,.2-.06h1Z"></path>
    <path class="cls-16" d="M431.58,122.18h1a.41.41,0,0,1,.23.06.25.25,0,0,1,.11.16l.72,2.69c0,.14.07.29.1.43l.07.42c0-.14.07-.28.12-.42l.12-.43.84-2.7a.31.31,0,0,1,.12-.16.32.32,0,0,1,.2-.06h.54a.4.4,0,0,1,.22.06.36.36,0,0,1,.11.16l.83,2.75c0,.14.08.27.11.41s.07.26.1.4c0-.15.05-.29.08-.43s.06-.28.1-.43l.75-2.69a.27.27,0,0,1,.12-.16.37.37,0,0,1,.21-.06h.92l-1.59,5h-1c-.1,0-.18-.07-.23-.21l-.9-2.91c0-.09-.06-.19-.08-.28a1.5,1.5,0,0,1-.06-.29,9.27,9.27,0,0,1-.15.58l-.91,2.9a.27.27,0,0,1-.27.21h-.92Z"></path>
    <path class="cls-16" d="M442.08,122.1a2.73,2.73,0,0,1,1,.18,2.14,2.14,0,0,1,.79.52,2.36,2.36,0,0,1,.5.81,3.48,3.48,0,0,1,0,2.15,2.51,2.51,0,0,1-.5.82,2.27,2.27,0,0,1-.79.52,2.73,2.73,0,0,1-1,.18,2.8,2.8,0,0,1-1-.18,2.27,2.27,0,0,1-.79-.52,2.51,2.51,0,0,1-.5-.82,3.3,3.3,0,0,1,0-2.15,2.36,2.36,0,0,1,.5-.81,2.14,2.14,0,0,1,.79-.52A2.8,2.8,0,0,1,442.08,122.1Zm0,4.25a1.07,1.07,0,0,0,.93-.42,2.71,2.71,0,0,0,0-2.48,1.07,1.07,0,0,0-.93-.42,1.1,1.1,0,0,0-.94.42,2.16,2.16,0,0,0-.3,1.24,2.11,2.11,0,0,0,.3,1.23A1.08,1.08,0,0,0,442.08,126.35Z"></path>
    <path class="cls-16" d="M445.51,127.2v-5h.71a.37.37,0,0,1,.26.07.38.38,0,0,1,.1.23l.07.61a2.44,2.44,0,0,1,.63-.74,1.34,1.34,0,0,1,.82-.27,1,1,0,0,1,.61.18l-.16.9a.18.18,0,0,1-.06.13.25.25,0,0,1-.13,0l-.2,0a1.58,1.58,0,0,0-.34,0,1.09,1.09,0,0,0-.65.2,1.62,1.62,0,0,0-.45.61v3.13Z"></path>
    <path class="cls-16" d="M453.05,127.2a.29.29,0,0,1-.31-.22l-.1-.48a2.5,2.5,0,0,1-.33.32,2,2,0,0,1-.37.24,2,2,0,0,1-.91.22,1.73,1.73,0,0,1-.76-.17,1.66,1.66,0,0,1-.59-.5,2.53,2.53,0,0,1-.38-.81,4,4,0,0,1-.14-1.09,3.15,3.15,0,0,1,.16-1,2.57,2.57,0,0,1,.43-.84,2.26,2.26,0,0,1,.68-.55,2,2,0,0,1,.89-.2,1.74,1.74,0,0,1,.72.14,2,2,0,0,1,.54.36v-2.66h1.21v7.28Zm-1.61-.88a1.19,1.19,0,0,0,.64-.16,1.87,1.87,0,0,0,.5-.45v-2.25a1.2,1.2,0,0,0-.45-.35,1.3,1.3,0,0,0-.52-.1,1.15,1.15,0,0,0-.5.1,1,1,0,0,0-.38.31,1.44,1.44,0,0,0-.23.53,2.83,2.83,0,0,0-.09.76,3.79,3.79,0,0,0,.07.74,1.45,1.45,0,0,0,.21.5.72.72,0,0,0,.32.28A1,1,0,0,0,451.44,126.32Z"></path>
    <path class="cls-16" d="M458.08,123.16a.36.36,0,0,1-.1.11.29.29,0,0,1-.14,0,.49.49,0,0,1-.19,0l-.23-.11a2.09,2.09,0,0,0-.3-.11,1.62,1.62,0,0,0-.4,0,1,1,0,0,0-.57.15.49.49,0,0,0-.2.4.36.36,0,0,0,.1.27,1,1,0,0,0,.28.2l.4.15.45.14a4.22,4.22,0,0,1,.45.18,1.53,1.53,0,0,1,.39.25,1.25,1.25,0,0,1,.28.37,1.21,1.21,0,0,1,.11.52,1.82,1.82,0,0,1-.13.67,1.46,1.46,0,0,1-.39.53,1.91,1.91,0,0,1-.63.35,2.84,2.84,0,0,1-.86.12,2.92,2.92,0,0,1-.51,0l-.47-.13a3.45,3.45,0,0,1-.43-.2,3,3,0,0,1-.34-.25l.28-.46a.49.49,0,0,1,.13-.12.37.37,0,0,1,.4,0l.23.13.31.14a1.44,1.44,0,0,0,.46.07,1.06,1.06,0,0,0,.37-.06.84.84,0,0,0,.25-.13.53.53,0,0,0,.15-.19.64.64,0,0,0,0-.23.4.4,0,0,0-.11-.29.88.88,0,0,0-.28-.2l-.4-.15-.45-.14a2.62,2.62,0,0,1-.46-.19,1.33,1.33,0,0,1-.39-.26,1.15,1.15,0,0,1-.28-.4,1.41,1.41,0,0,1-.11-.57,1.52,1.52,0,0,1,.12-.59,1.68,1.68,0,0,1,.36-.48,1.92,1.92,0,0,1,.6-.34,2.53,2.53,0,0,1,.82-.12,2.58,2.58,0,0,1,.94.17,2.27,2.27,0,0,1,.71.45Z"></path>
    <path class="cls-18" d="M384.84,147.15h1.52v1.2a.41.41,0,0,1-.11.29.39.39,0,0,1-.31.12h-1.1v3H383v-3h-5.11a.62.62,0,0,1-.37-.13.57.57,0,0,1-.2-.33l-.21-1,5.74-7.67h2Zm-1.81-4c0-.18,0-.38,0-.58s0-.42.05-.65l-3.76,5.19H383Z"></path>
    <path class="cls-18" d="M391.1,146.88a3.51,3.51,0,0,1-1.23-.22,3,3,0,0,1-1.07-.65,3.28,3.28,0,0,1-.76-1.09,3.78,3.78,0,0,1-.29-1.52,3.9,3.9,0,0,1,.3-1.53,4.13,4.13,0,0,1,.85-1.25,3.78,3.78,0,0,1,1.31-.84,4.83,4.83,0,0,1,3.35,0,3.71,3.71,0,0,1,1.27.82,3.4,3.4,0,0,1,.8,1.27,4.43,4.43,0,0,1,.28,1.61,6.1,6.1,0,0,1-.09,1.07,6.23,6.23,0,0,1-.28,1,6.29,6.29,0,0,1-.43.91c-.17.29-.36.59-.56.88l-2.78,4a1.14,1.14,0,0,1-.42.34,1.47,1.47,0,0,1-.64.13h-1.9l3.76-4.7c.1-.11.18-.23.27-.34l.24-.33a3.47,3.47,0,0,1-.92.4A4.11,4.11,0,0,1,391.1,146.88Zm2.83-3.63a2.42,2.42,0,0,0-.15-.88,1.89,1.89,0,0,0-.43-.66,1.85,1.85,0,0,0-.66-.41,2.45,2.45,0,0,0-.83-.14,2.26,2.26,0,0,0-.85.15,2.06,2.06,0,0,0-.64.43,2,2,0,0,0-.4.66,2.28,2.28,0,0,0-.15.84,2.1,2.1,0,0,0,.53,1.54,2,2,0,0,0,1.48.53,2.21,2.21,0,0,0,.89-.16,1.8,1.8,0,0,0,.66-.43,1.76,1.76,0,0,0,.41-.65A2.48,2.48,0,0,0,393.93,143.25Z"></path>
    <path class="cls-18" d="M399.58,139.27v7.12H400a.69.69,0,0,0,.32,0,1,1,0,0,0,.26-.22l2.13-2.64a1.83,1.83,0,0,1,.3-.27.87.87,0,0,1,.42-.09h1.9l-2.68,3.19a2.26,2.26,0,0,1-.29.32,1.64,1.64,0,0,1-.33.26,1.42,1.42,0,0,1,.31.29q.13.16.27.36l2.87,4.17h-1.87a.86.86,0,0,1-.41-.08.79.79,0,0,1-.3-.28l-2.19-3.26a.59.59,0,0,0-.25-.25.94.94,0,0,0-.38-.06h-.47v3.93h-2.07V139.27Z"></path>
    <line class="cls-19" x1="133.56" y1="91.88" x2="276.28" y2="91.88"></line>
    <path class="cls-16" d="M56.43,94.44V90h.63a.33.33,0,0,1,.23.06.41.41,0,0,1,.09.21l.06.54a2.17,2.17,0,0,1,.56-.66,1.2,1.2,0,0,1,.72-.24.94.94,0,0,1,.55.16l-.14.8a.23.23,0,0,1-.05.11A.21.21,0,0,1,59,91a.86.86,0,0,1-.18,0,2.16,2.16,0,0,0-.3,0,.93.93,0,0,0-.57.19,1.38,1.38,0,0,0-.41.54v2.78Z"></path>
    <path class="cls-16" d="M61.89,89.91a2.36,2.36,0,0,1,.9.16,2,2,0,0,1,.7.46,1.86,1.86,0,0,1,.44.72,2.82,2.82,0,0,1,.16,1,2.93,2.93,0,0,1-.16,1,2,2,0,0,1-.44.72,1.86,1.86,0,0,1-.7.46,2.49,2.49,0,0,1-1.81,0,1.78,1.78,0,0,1-.7-.46,2.2,2.2,0,0,1-.45-.72,2.69,2.69,0,0,1-.16-1,2.59,2.59,0,0,1,.16-1,2,2,0,0,1,.45-.72,1.9,1.9,0,0,1,.7-.46A2.38,2.38,0,0,1,61.89,89.91Zm0,3.77a.94.94,0,0,0,.82-.38A1.82,1.82,0,0,0,63,92.21a1.88,1.88,0,0,0-.27-1.1.94.94,0,0,0-.82-.38,1,1,0,0,0-.84.38,1.88,1.88,0,0,0-.27,1.1,1.85,1.85,0,0,0,.27,1.09A1,1,0,0,0,61.89,93.68Z"></path>
    <path class="cls-16" d="M66.83,89.91a2.42,2.42,0,0,1,.91.16,1.94,1.94,0,0,1,.69.46,1.86,1.86,0,0,1,.44.72,2.59,2.59,0,0,1,.16,1,2.69,2.69,0,0,1-.16,1,2,2,0,0,1-.44.72,1.82,1.82,0,0,1-.69.46,2.52,2.52,0,0,1-1.82,0,1.94,1.94,0,0,1-.7-.46,2.2,2.2,0,0,1-.45-.72,2.93,2.93,0,0,1-.15-1,2.83,2.83,0,0,1,.15-1,2,2,0,0,1,.45-.72,2.08,2.08,0,0,1,.7-.46A2.42,2.42,0,0,1,66.83,89.91Zm0,3.77a.93.93,0,0,0,.82-.38,1.82,1.82,0,0,0,.27-1.09,1.88,1.88,0,0,0-.27-1.1,1.09,1.09,0,0,0-1.65,0,1.81,1.81,0,0,0-.27,1.1A1.77,1.77,0,0,0,66,93.3.94.94,0,0,0,66.83,93.68Z"></path>
    <path class="cls-16" d="M71.34,94.51a1.19,1.19,0,0,1-.9-.33,1.26,1.26,0,0,1-.31-.91V90.78h-.45a.25.25,0,0,1-.15,0,.24.24,0,0,1-.06-.17v-.43l.71-.12.23-1.21a.22.22,0,0,1,.08-.14.25.25,0,0,1,.16,0h.55V90h1.18v.76H71.2V93.2a.49.49,0,0,0,.11.33.38.38,0,0,0,.28.11.47.47,0,0,0,.17,0l.11-.05.09,0a.12.12,0,0,1,.08,0,.11.11,0,0,1,.08,0l.06.07.33.52a1.78,1.78,0,0,1-.54.3A2,2,0,0,1,71.34,94.51Z"></path>
    <path class="cls-16" d="M78.05,94.44a.27.27,0,0,1-.27-.2l-.09-.43a2.65,2.65,0,0,1-.29.29,1.85,1.85,0,0,1-.33.21,1.88,1.88,0,0,1-.38.15,2,2,0,0,1-.43.05,1.47,1.47,0,0,1-.67-.16,1.49,1.49,0,0,1-.53-.44,2,2,0,0,1-.33-.71,3.29,3.29,0,0,1-.12-1,3,3,0,0,1,.13-.92,2.27,2.27,0,0,1,.39-.74,1.88,1.88,0,0,1,.6-.49,1.73,1.73,0,0,1,.79-.18,1.7,1.7,0,0,1,.64.12,1.75,1.75,0,0,1,.48.32V88h1.07v6.46Zm-1.43-.79a1,1,0,0,0,.57-.14,1.62,1.62,0,0,0,.45-.39v-2a1.15,1.15,0,0,0-.4-.32,1.22,1.22,0,0,0-.46-.09,1.1,1.1,0,0,0-.45.09.88.88,0,0,0-.33.28,1.36,1.36,0,0,0-.21.47,2.62,2.62,0,0,0-.08.67,3,3,0,0,0,.07.66,1.24,1.24,0,0,0,.18.45.74.74,0,0,0,.28.25A1,1,0,0,0,76.62,93.65Z"></path>
    <path class="cls-16" d="M81.78,89.91a2.36,2.36,0,0,1,.9.16,2,2,0,0,1,.7.46,1.86,1.86,0,0,1,.44.72,2.59,2.59,0,0,1,.16,1,2.69,2.69,0,0,1-.16,1,2,2,0,0,1-.44.72,1.86,1.86,0,0,1-.7.46,2.49,2.49,0,0,1-1.81,0,1.86,1.86,0,0,1-.7-.46,2.2,2.2,0,0,1-.45-.72,2.93,2.93,0,0,1-.16-1,2.82,2.82,0,0,1,.16-1,2,2,0,0,1,.45-.72,2,2,0,0,1,.7-.46A2.38,2.38,0,0,1,81.78,89.91Zm0,3.77a.94.94,0,0,0,.82-.38,1.82,1.82,0,0,0,.27-1.09,1.88,1.88,0,0,0-.27-1.1.94.94,0,0,0-.82-.38,1,1,0,0,0-.84.38,1.88,1.88,0,0,0-.27,1.1,1.85,1.85,0,0,0,.27,1.09A1,1,0,0,0,81.78,93.68Z"></path>
    <path class="cls-16" d="M84.82,94.44V90h.65a.27.27,0,0,1,.28.19l.07.33.24-.24a1.67,1.67,0,0,1,.28-.18,1.44,1.44,0,0,1,.31-.13,1.4,1.4,0,0,1,.37,0,1,1,0,0,1,.69.23,1.37,1.37,0,0,1,.41.6,1.42,1.42,0,0,1,.26-.38,1.7,1.7,0,0,1,.34-.26,1.9,1.9,0,0,1,.4-.14,1.51,1.51,0,0,1,.42,0,1.9,1.9,0,0,1,.66.11,1.37,1.37,0,0,1,.48.33,1.53,1.53,0,0,1,.3.53,2.28,2.28,0,0,1,.1.72v2.84H90V91.6a.92.92,0,0,0-.19-.64.66.66,0,0,0-.55-.22.73.73,0,0,0-.3.06.72.72,0,0,0-.25.16.73.73,0,0,0-.17.27,1.06,1.06,0,0,0-.06.37v2.84H87.41V91.6a1,1,0,0,0-.18-.65.66.66,0,0,0-.53-.21.82.82,0,0,0-.43.12,1.37,1.37,0,0,0-.38.31v3.27Z"></path>
    <path class="cls-16" d="M95.64,94.44h-.49a.54.54,0,0,1-.24,0,.33.33,0,0,1-.13-.18l-.09-.32-.33.27a1.93,1.93,0,0,1-.34.19,1.6,1.6,0,0,1-.37.12,2,2,0,0,1-.44,0,1.77,1.77,0,0,1-.52-.08,1,1,0,0,1-.41-.23,1.09,1.09,0,0,1-.27-.38,1.38,1.38,0,0,1-.09-.52,1,1,0,0,1,.13-.5,1.25,1.25,0,0,1,.44-.45,3,3,0,0,1,.82-.33,5.74,5.74,0,0,1,1.28-.13v-.26A1,1,0,0,0,94.4,91a.71.71,0,0,0-.55-.22,1.42,1.42,0,0,0-.44.06l-.3.14-.24.14a.46.46,0,0,1-.23.06.29.29,0,0,1-.19-.06.44.44,0,0,1-.13-.14l-.19-.34A2.64,2.64,0,0,1,94,89.89a1.86,1.86,0,0,1,.7.13,1.51,1.51,0,0,1,.52.36,1.58,1.58,0,0,1,.33.55,2.17,2.17,0,0,1,.11.69Zm-2.09-.67a1.39,1.39,0,0,0,.3,0,1.22,1.22,0,0,0,.27-.09,1.58,1.58,0,0,0,.24-.15l.23-.2v-.75a4.38,4.38,0,0,0-.79.06,2,2,0,0,0-.5.15A.61.61,0,0,0,93,93a.44.44,0,0,0-.09.27.48.48,0,0,0,.17.41A.74.74,0,0,0,93.55,93.77Z"></path>
    <path class="cls-16" d="M98,88.68a.58.58,0,0,1-.06.26.8.8,0,0,1-.15.21.71.71,0,0,1-.22.15.76.76,0,0,1-.27,0,.75.75,0,0,1-.26,0,1.07,1.07,0,0,1-.22-.15.77.77,0,0,1-.14-.21.58.58,0,0,1-.06-.26.6.6,0,0,1,.06-.27.69.69,0,0,1,.14-.22A1.07,1.07,0,0,1,97,88,.75.75,0,0,1,97.3,88a.76.76,0,0,1,.27.05.72.72,0,0,1,.37.37A.6.6,0,0,1,98,88.68ZM97.84,90v4.46H96.76V90Z"></path>
    <path class="cls-16" d="M99.05,94.44V90h.66a.25.25,0,0,1,.27.19l.08.36a2.27,2.27,0,0,1,.28-.26,2.07,2.07,0,0,1,.32-.19A1.4,1.4,0,0,1,101,90a1.73,1.73,0,0,1,.41,0,1.64,1.64,0,0,1,.65.12,1.19,1.19,0,0,1,.47.35,1.44,1.44,0,0,1,.29.53,2.17,2.17,0,0,1,.1.69v2.84h-1.07V91.6a1,1,0,0,0-.19-.63.72.72,0,0,0-.57-.23,1.14,1.14,0,0,0-.52.13,1.66,1.66,0,0,0-.46.34v3.23Z"></path>
    <path class="cls-18" d="M180.13,139.6v.9a2,2,0,0,1-.09.65,3.41,3.41,0,0,1-.17.41L175.29,151a1.5,1.5,0,0,1-.4.5,1.11,1.11,0,0,1-.71.2h-1.5l4.69-9.25a4.93,4.93,0,0,1,.66-1h-5.8a.52.52,0,0,1-.48-.48v-1.4Z"></path>
    <path class="cls-18" d="M185.71,139.47a4.63,4.63,0,0,1,1.53.24,3.5,3.5,0,0,1,1.19.7,3.13,3.13,0,0,1,.77,1.09,3.46,3.46,0,0,1,.28,1.42,3.84,3.84,0,0,1-.2,1.24,5.18,5.18,0,0,1-.52,1.09,7.12,7.12,0,0,1-.78,1q-.45.5-.93,1L184.32,150a6,6,0,0,1,.79-.18,4.68,4.68,0,0,1,.73-.06H189a.7.7,0,0,1,.53.19.61.61,0,0,1,.2.49v1.24h-8.31V151a1.19,1.19,0,0,1,.09-.44,1.24,1.24,0,0,1,.28-.42l3.68-3.68c.3-.32.58-.62.82-.9a5,5,0,0,0,.61-.85,3.76,3.76,0,0,0,.38-.85,3,3,0,0,0,.13-.9,2.22,2.22,0,0,0-.12-.77,1.57,1.57,0,0,0-.37-.56,1.55,1.55,0,0,0-.55-.34,2.38,2.38,0,0,0-.73-.11,1.87,1.87,0,0,0-1.22.38,1.9,1.9,0,0,0-.68,1,.9.9,0,0,1-.27.46.79.79,0,0,1-.47.13,1.37,1.37,0,0,1-.28,0l-1.09-.19a4.44,4.44,0,0,1,.49-1.53,3.62,3.62,0,0,1,.9-1.1,3.78,3.78,0,0,1,1.24-.66A4.81,4.81,0,0,1,185.71,139.47Z"></path>
    <path class="cls-18" d="M191,150.57a1.37,1.37,0,0,1,.09-.49,1.28,1.28,0,0,1,.27-.4,1.46,1.46,0,0,1,.41-.27,1.18,1.18,0,0,1,.5-.1,1.16,1.16,0,0,1,.49.1,1.46,1.46,0,0,1,.41.27,1.11,1.11,0,0,1,.26.4,1.21,1.21,0,0,1,.11.49,1.18,1.18,0,0,1-.11.5,1.11,1.11,0,0,1-.26.4,1.46,1.46,0,0,1-.41.27,1.33,1.33,0,0,1-.49.09,1.35,1.35,0,0,1-.5-.09,1.46,1.46,0,0,1-.41-.27,1.28,1.28,0,0,1-.27-.4A1.35,1.35,0,0,1,191,150.57Z"></path>
    <path class="cls-18" d="M202.05,147.15h1.52v1.2a.4.4,0,0,1-.43.41h-1.09v3h-1.81v-3h-5.11a.59.59,0,0,1-.37-.13.53.53,0,0,1-.2-.33l-.21-1,5.74-7.67h2Zm-1.81-4c0-.18,0-.38,0-.58s0-.42.06-.65l-3.76,5.19h3.69Z"></path>
    <path class="cls-18" d="M207.07,139.27v7.12h.39a.76.76,0,0,0,.33,0,1.15,1.15,0,0,0,.25-.22l2.13-2.64a1.54,1.54,0,0,1,.31-.27.8.8,0,0,1,.41-.09h1.9l-2.68,3.19a2.26,2.26,0,0,1-.29.32,1.64,1.64,0,0,1-.33.26,1.23,1.23,0,0,1,.31.29l.27.36,2.87,4.17h-1.87a.86.86,0,0,1-.41-.08.79.79,0,0,1-.3-.28l-2.19-3.26a.59.59,0,0,0-.25-.25.91.91,0,0,0-.38-.06h-.47v3.93H205V139.27Z"></path>
    <path class="cls-16" d="M173,126.12h2.83v1.09h-4.15v-7.08H173Z"></path>
    <path class="cls-16" d="M178.14,120.72a.69.69,0,0,1-.07.29.61.61,0,0,1-.17.24.81.81,0,0,1-.24.17.81.81,0,0,1-.31.06.72.72,0,0,1-.29-.06.74.74,0,0,1-.25-.17.6.6,0,0,1-.16-.24.68.68,0,0,1-.06-.29.73.73,0,0,1,.06-.3.77.77,0,0,1,.7-.47.81.81,0,0,1,.31.06.78.78,0,0,1,.24.16.83.83,0,0,1,.24.55Zm-.19,1.47v5h-1.21v-5Z"></path>
    <path class="cls-16" d="M179.32,127.21v-5h.74a.29.29,0,0,1,.31.22l.08.39a2.79,2.79,0,0,1,.32-.28,2.32,2.32,0,0,1,.36-.22,1.9,1.9,0,0,1,.4-.14,1.83,1.83,0,0,1,.47,0,1.75,1.75,0,0,1,.74.14,1.46,1.46,0,0,1,.53.39,1.73,1.73,0,0,1,.32.6,2.65,2.65,0,0,1,.11.77v3.2h-1.21V124a1.09,1.09,0,0,0-.21-.71.79.79,0,0,0-.64-.25,1.31,1.31,0,0,0-.59.14,1.86,1.86,0,0,0-.52.39v3.63Z"></path>
    <path class="cls-16" d="M186.11,119.93v4.17h.23a.47.47,0,0,0,.19,0,.58.58,0,0,0,.15-.13l1.25-1.54a.64.64,0,0,1,.17-.16.49.49,0,0,1,.25,0h1.11l-1.57,1.86a1.54,1.54,0,0,1-.17.19.9.9,0,0,1-.19.15,1,1,0,0,1,.18.17l.16.21,1.67,2.44h-1.09a.47.47,0,0,1-.24,0A.51.51,0,0,1,188,127l-1.28-1.91a.53.53,0,0,0-.15-.15.61.61,0,0,0-.22,0h-.28v2.3h-1.2v-7.28Z"></path>
    <path class="cls-16" d="M191.76,120.72a.68.68,0,0,1-.06.29.61.61,0,0,1-.17.24.74.74,0,0,1-.25.17.73.73,0,0,1-.3.06.72.72,0,0,1-.54-.23.6.6,0,0,1-.16-.24.68.68,0,0,1-.06-.29.73.73,0,0,1,.06-.3.72.72,0,0,1,.16-.25.78.78,0,0,1,.24-.16.8.8,0,0,1,.3-.06.73.73,0,0,1,.3.06.72.72,0,0,1,.25.16.74.74,0,0,1,.17.25A.73.73,0,0,1,191.76,120.72Zm-.18,1.47v5h-1.21v-5Z"></path>
    <path class="cls-16" d="M193,127.21v-5h.74a.29.29,0,0,1,.31.22l.08.39a2.79,2.79,0,0,1,.32-.28,1.93,1.93,0,0,1,.36-.22,1.9,1.9,0,0,1,.4-.14,1.83,1.83,0,0,1,.47,0,1.67,1.67,0,0,1,.73.14,1.42,1.42,0,0,1,.54.39,1.73,1.73,0,0,1,.32.6,2.65,2.65,0,0,1,.11.77v3.2h-1.21V124a1.09,1.09,0,0,0-.21-.71.8.8,0,0,0-.64-.25,1.31,1.31,0,0,0-.59.14,1.86,1.86,0,0,0-.52.39v3.63Z"></path>
    <path class="cls-16" d="M200.26,122.1a3,3,0,0,1,.61.06,2.16,2.16,0,0,1,.52.2h1.44v.45a.24.24,0,0,1-.06.17.27.27,0,0,1-.2.09l-.45.09a2,2,0,0,1,.08.26c0,.1,0,.2,0,.3a1.51,1.51,0,0,1-.15.68,1.45,1.45,0,0,1-.41.51,1.93,1.93,0,0,1-.62.33,2.77,2.77,0,0,1-.78.11,3.43,3.43,0,0,1-.56,0,.39.39,0,0,0-.23.32.24.24,0,0,0,.14.22,1.1,1.1,0,0,0,.37.1,3.89,3.89,0,0,0,.51,0c.2,0,.39,0,.6,0a3.81,3.81,0,0,1,.59.08,1.81,1.81,0,0,1,.52.2,1,1,0,0,1,.36.36,1.05,1.05,0,0,1,.14.59,1.35,1.35,0,0,1-.16.64,1.83,1.83,0,0,1-.48.57,2.47,2.47,0,0,1-.76.39,3.24,3.24,0,0,1-1,.15,4.1,4.1,0,0,1-1-.11,2.38,2.38,0,0,1-.7-.29,1.38,1.38,0,0,1-.41-.43,1,1,0,0,1-.14-.5.83.83,0,0,1,.22-.59,1.4,1.4,0,0,1,.59-.38.89.89,0,0,1-.3-.28.82.82,0,0,1-.11-.44.93.93,0,0,1,0-.23,1.08,1.08,0,0,1,.12-.24,2.05,2.05,0,0,1,.2-.23,1.41,1.41,0,0,1,.29-.18,1.67,1.67,0,0,1-.6-.55,1.53,1.53,0,0,1-.21-.81,1.49,1.49,0,0,1,.14-.67,1.48,1.48,0,0,1,.42-.51,1.73,1.73,0,0,1,.63-.33A2.92,2.92,0,0,1,200.26,122.1Zm1.33,5.32a.32.32,0,0,0-.09-.24.49.49,0,0,0-.24-.15,1.6,1.6,0,0,0-.36-.08l-.43,0H200a1.84,1.84,0,0,1-.47-.06,1.49,1.49,0,0,0-.33.27.56.56,0,0,0-.12.36.5.5,0,0,0,.06.24.54.54,0,0,0,.22.2,1.06,1.06,0,0,0,.37.13,2.9,2.9,0,0,0,.56.05,3.33,3.33,0,0,0,.59-.05,1.68,1.68,0,0,0,.4-.15.55.55,0,0,0,.23-.22A.54.54,0,0,0,201.59,127.42Zm-1.33-2.84a1.14,1.14,0,0,0,.39-.06,1.1,1.1,0,0,0,.28-.17.71.71,0,0,0,.16-.26,1,1,0,0,0,.06-.34.8.8,0,0,0-.22-.59,1.17,1.17,0,0,0-1.34,0,.8.8,0,0,0-.22.59,1.14,1.14,0,0,0,0,.33.78.78,0,0,0,.17.26.8.8,0,0,0,.28.18A1.14,1.14,0,0,0,200.26,124.58Z"></path>
    <path class="cls-16" d="M211.84,123.67a3.87,3.87,0,0,1-.26,1.43,3.29,3.29,0,0,1-.73,1.12,3.11,3.11,0,0,1-1.13.73,3.85,3.85,0,0,1-1.47.26h-2.7v-7.08h2.7a4,4,0,0,1,1.47.26,3.24,3.24,0,0,1,1.13.73,3.29,3.29,0,0,1,.73,1.12A3.87,3.87,0,0,1,211.84,123.67Zm-1.35,0a3.41,3.41,0,0,0-.15-1,2.38,2.38,0,0,0-.45-.78,1.93,1.93,0,0,0-.7-.49,2.35,2.35,0,0,0-.94-.17h-1.37v5h1.37a2.35,2.35,0,0,0,.94-.17,1.93,1.93,0,0,0,.7-.49,2.38,2.38,0,0,0,.45-.78A3.41,3.41,0,0,0,210.49,123.67Z"></path>
    <path class="cls-16" d="M215,122.11a2.73,2.73,0,0,1,1,.18,2.15,2.15,0,0,1,1.28,1.33,3,3,0,0,1,.18,1.07,3.06,3.06,0,0,1-.18,1.08,2.09,2.09,0,0,1-.5.81,2,2,0,0,1-.78.52,2.73,2.73,0,0,1-1,.18,2.76,2.76,0,0,1-1-.18,2.14,2.14,0,0,1-.79-.52,2.09,2.09,0,0,1-.5-.81,3.06,3.06,0,0,1-.18-1.08,3,3,0,0,1,.18-1.07,2.13,2.13,0,0,1,.5-.82,2.24,2.24,0,0,1,.79-.51A2.76,2.76,0,0,1,215,122.11Zm0,4.24a1.07,1.07,0,0,0,.93-.42,2.11,2.11,0,0,0,.3-1.23,2.14,2.14,0,0,0-.3-1.24A1,1,0,0,0,215,123a1.09,1.09,0,0,0-.94.43,2.16,2.16,0,0,0-.3,1.24,2.11,2.11,0,0,0,.3,1.23A1.08,1.08,0,0,0,215,126.35Z"></path>
    <path class="cls-16" d="M218.37,127.21v-5h.74a.29.29,0,0,1,.31.22l.08.37a2.37,2.37,0,0,1,.28-.27,1.69,1.69,0,0,1,.31-.21,1.53,1.53,0,0,1,.76-.19,1.21,1.21,0,0,1,.79.25,1.6,1.6,0,0,1,.45.69,1.5,1.5,0,0,1,.3-.43,1.33,1.33,0,0,1,.38-.29,1.74,1.74,0,0,1,.45-.17,2.61,2.61,0,0,1,.48,0,2.13,2.13,0,0,1,.74.12,1.32,1.32,0,0,1,.54.38,1.63,1.63,0,0,1,.34.59,2.56,2.56,0,0,1,.11.81v3.2h-1.21V124a1.07,1.07,0,0,0-.21-.72.76.76,0,0,0-.61-.24,1,1,0,0,0-.35.06,1,1,0,0,0-.28.18,1,1,0,0,0-.19.31,1.3,1.3,0,0,0-.07.41v3.2H221.3V124a1.12,1.12,0,0,0-.2-.73.75.75,0,0,0-.6-.23.92.92,0,0,0-.49.13,1.7,1.7,0,0,0-.43.35v3.68Z"></path>
    <path class="cls-16" d="M230.56,127.21H230a.68.68,0,0,1-.27,0,.36.36,0,0,1-.15-.21l-.1-.36a4.73,4.73,0,0,1-.38.31,2,2,0,0,1-.38.21,1.88,1.88,0,0,1-.42.14,2.43,2.43,0,0,1-.49,0,1.81,1.81,0,0,1-.58-.09,1.25,1.25,0,0,1-.47-.25,1.33,1.33,0,0,1-.3-.43,1.57,1.57,0,0,1-.11-.6,1.18,1.18,0,0,1,.15-.56,1.49,1.49,0,0,1,.5-.5,3.15,3.15,0,0,1,.93-.37,5.75,5.75,0,0,1,1.43-.15V124a1.14,1.14,0,0,0-.21-.75.78.78,0,0,0-.62-.24,1.37,1.37,0,0,0-.49.07,1.52,1.52,0,0,0-.34.15l-.27.15a.5.5,0,0,1-.27.07.37.37,0,0,1-.21-.06.44.44,0,0,1-.14-.16l-.22-.38a3,3,0,0,1,2.09-.8,2,2,0,0,1,.79.15,1.59,1.59,0,0,1,.58.4,1.72,1.72,0,0,1,.37.61,2.47,2.47,0,0,1,.12.79Zm-2.35-.75a1.29,1.29,0,0,0,.35,0,1,1,0,0,0,.29-.1,1.91,1.91,0,0,0,.27-.16,2,2,0,0,0,.26-.24v-.84a4.41,4.41,0,0,0-.88.07,2,2,0,0,0-.57.17.73.73,0,0,0-.31.24.61.61,0,0,0,.1.76A.84.84,0,0,0,228.21,126.46Z"></path>
    <path class="cls-16" d="M233.22,120.72a.68.68,0,0,1-.06.29.61.61,0,0,1-.17.24.74.74,0,0,1-.25.17.73.73,0,0,1-.3.06.72.72,0,0,1-.54-.23.6.6,0,0,1-.16-.24.68.68,0,0,1-.06-.29.73.73,0,0,1,.06-.3.72.72,0,0,1,.16-.25.78.78,0,0,1,.24-.16.8.8,0,0,1,.3-.06.73.73,0,0,1,.3.06.72.72,0,0,1,.25.16.74.74,0,0,1,.17.25A.73.73,0,0,1,233.22,120.72Zm-.18,1.47v5h-1.21v-5Z"></path>
    <path class="cls-16" d="M234.41,127.21v-5h.74a.29.29,0,0,1,.31.22l.08.39a2.79,2.79,0,0,1,.32-.28,1.93,1.93,0,0,1,.36-.22,1.9,1.9,0,0,1,.4-.14,1.83,1.83,0,0,1,.47,0,1.67,1.67,0,0,1,.73.14,1.42,1.42,0,0,1,.54.39,1.73,1.73,0,0,1,.32.6,2.65,2.65,0,0,1,.11.77v3.2h-1.21V124a1.09,1.09,0,0,0-.21-.71.79.79,0,0,0-.64-.25,1.31,1.31,0,0,0-.59.14,1.86,1.86,0,0,0-.52.39v3.63Z"></path>
    <path class="cls-16" d="M243,123.17a.36.36,0,0,1-.1.11.29.29,0,0,1-.14,0,.49.49,0,0,1-.19,0l-.23-.11a2.09,2.09,0,0,0-.3-.11,1.5,1.5,0,0,0-.4-.05.93.93,0,0,0-.56.15.46.46,0,0,0-.21.4.37.37,0,0,0,.11.27.86.86,0,0,0,.28.19,1.76,1.76,0,0,0,.39.15c.15,0,.3.09.45.15a3,3,0,0,1,.45.18,1.5,1.5,0,0,1,.4.25,1.29,1.29,0,0,1,.28.37,1.18,1.18,0,0,1,.1.52,1.67,1.67,0,0,1-.13.67,1.55,1.55,0,0,1-.39.53,1.73,1.73,0,0,1-.63.34,2.51,2.51,0,0,1-.86.13,2.73,2.73,0,0,1-.5-.05,2.42,2.42,0,0,1-.48-.13,2.68,2.68,0,0,1-.42-.19,2.3,2.3,0,0,1-.34-.25l.28-.46a.4.4,0,0,1,.13-.13.44.44,0,0,1,.18,0,.43.43,0,0,1,.22.06,1.54,1.54,0,0,0,.23.14,1.8,1.8,0,0,0,.31.14,1.44,1.44,0,0,0,.45.06,1,1,0,0,0,.37,0,.9.9,0,0,0,.26-.13.56.56,0,0,0,.14-.2.59.59,0,0,0,0-.23.36.36,0,0,0-.11-.28,1,1,0,0,0-.27-.2,2.08,2.08,0,0,0-.4-.15l-.46-.14-.45-.19a1.84,1.84,0,0,1-.4-.26,1.15,1.15,0,0,1-.28-.4,1.42,1.42,0,0,1-.1-.57,1.48,1.48,0,0,1,.12-.59,1.29,1.29,0,0,1,.36-.48,1.87,1.87,0,0,1,.59-.34,2.57,2.57,0,0,1,.82-.12,2.43,2.43,0,0,1,.95.17,2.05,2.05,0,0,1,.71.45Z"></path>
    <rect class="cls-20" x="21.65" y="47.01" width="474.4" height="22.27"></rect>
    <path class="cls-21" d="M61.42,38.84,66,34.06H56.52a.31.31,0,0,0-.35.35v.94A5.37,5.37,0,0,0,51.62,33a5,5,0,0,0-5.13,3.85V34.18H44.86a1.44,1.44,0,0,0-.94.47l-3.14,3.49-3.15-3.49a1.44,1.44,0,0,0-.94-.47H35.06v7h1.87a.31.31,0,0,0,.35-.35h0V37.56l3.5,4,3.49-4v3.27a.31.31,0,0,0,.35.35h1.87v-2.8a5.11,5.11,0,0,0,5.13,3.85c2.92,0,5.25-2,5.25-4.55a5.14,5.14,0,0,0-.23-1.28h4.08l-4.55,4.78H65.5a.31.31,0,0,0,.35-.35h0V39H61.42Zm-9.68.94a2.47,2.47,0,0,1-2.57-2.22,2.38,2.38,0,0,1,2.57-2.21,2.46,2.46,0,0,1,2.56,2.21A2.46,2.46,0,0,1,51.74,39.78Z"></path>
    <path class="cls-1" d="M35.35,61.23v-.51l.66-.11V56l-.66-.12v-.51h2.12v.51l-.66.12v4.65h2l.06-.68h.69v1.3Z"></path>
    <path class="cls-1" d="M40.29,60.72l.66-.11V57.47l-.66-.11v-.52h1.46v3.77l.66.11v.51H40.29Zm1.46-5H41V54.9h.8Z"></path>
    <path class="cls-1" d="M42.9,60.72l.66-.11V57.47l-.66-.11v-.52h1.37l.06.66a1.58,1.58,0,0,1,.55-.54,1.45,1.45,0,0,1,.75-.2,1.42,1.42,0,0,1,1.1.42,1.83,1.83,0,0,1,.39,1.28v2.15l.66.11v.51H45.66v-.51l.66-.11V58.48a1.13,1.13,0,0,0-.23-.82.87.87,0,0,0-.69-.25,1.12,1.12,0,0,0-.61.17,1.24,1.24,0,0,0-.43.45v2.58l.66.11v.51H42.9Z"></path>
    <path class="cls-1" d="M48.26,55.42V54.9h1.46v3.67h.51l.93-1.16-.4,0v-.52H52.6v.52l-.54.11-1.15,1.38,1.41,1.78.5.09v.51H51v-.51l.41,0-1.16-1.46h-.52v1.4l.66.11v.51H48.26v-.51l.66-.11V55.53Z"></path>
    <path class="cls-1" d="M55.41,61.23v-.51l.66-.11V56l-.66-.12v-.51h4.53v1.42h-.68L59.19,56H56.87v1.91h2.26v.63H56.87v2.11h2.37l.07-.79H60v1.41Z"></path>
    <path class="cls-1" d="M60.67,60.72l.47-.09L62.44,59l-1.26-1.56-.47-.09v-.52h1.72v.52l-.4,0,.82,1.05.83-1.06-.4,0v-.52H65v.52l-.47.09L63.29,59l1.29,1.62.48.09v.51H63.34v-.51l.39,0-.86-1.1L62,60.68l.39,0v.51H60.67Z"></path>
    <path class="cls-1" d="M65.52,62.41l.66-.12V57.47l-.66-.11v-.52h1.34l.08.54a1.46,1.46,0,0,1,.53-.46,1.67,1.67,0,0,1,.73-.16,1.47,1.47,0,0,1,1.27.65,2.93,2.93,0,0,1,.45,1.71v.09a2.44,2.44,0,0,1-.45,1.53,1.51,1.51,0,0,1-1.26.58,1.73,1.73,0,0,1-.71-.14,1.35,1.35,0,0,1-.52-.4v1.51l.66.12v.51H65.52Zm3.6-3.29a2.29,2.29,0,0,0-.3-1.23.94.94,0,0,0-.86-.48,1,1,0,0,0-.59.16A1.13,1.13,0,0,0,67,58v2.14a1.13,1.13,0,0,0,.39.42,1.11,1.11,0,0,0,.6.14,1,1,0,0,0,.85-.41,1.76,1.76,0,0,0,.3-1.07Z"></path>
    <path class="cls-1" d="M70.5,55.42V54.9H72v5.71l.66.11v.51H70.5v-.51l.66-.11V55.53Z"></path>
    <path class="cls-1" d="M73.15,59a2.43,2.43,0,0,1,.52-1.61,1.95,1.95,0,0,1,2.87,0A2.39,2.39,0,0,1,77.07,59v.09a2.39,2.39,0,0,1-.52,1.6,2,2,0,0,1-2.88,0,2.41,2.41,0,0,1-.52-1.6Zm.8.09a2,2,0,0,0,.29,1.15,1.07,1.07,0,0,0,1.74,0,2,2,0,0,0,.29-1.15V59A2.07,2.07,0,0,0,76,57.85a1,1,0,0,0-.87-.46,1,1,0,0,0-.87.46A2.07,2.07,0,0,0,74,59Z"></path>
    <path class="cls-1" d="M77.8,57.36v-.52h1.38l.08.64a1.49,1.49,0,0,1,.46-.53,1.11,1.11,0,0,1,.62-.19l.2,0,.15,0-.11.74-.45,0a1,1,0,0,0-.53.14,1,1,0,0,0-.34.42v2.52l.67.11v.51H77.8v-.51l.67-.11V57.47Z"></path>
    <path class="cls-1" d="M83.17,61.32a1.85,1.85,0,0,1-1.46-.61,2.31,2.31,0,0,1-.54-1.58V59a2.24,2.24,0,0,1,.55-1.56,1.74,1.74,0,0,1,1.33-.63,1.66,1.66,0,0,1,1.34.54,2.15,2.15,0,0,1,.45,1.43v.5H82v0a1.81,1.81,0,0,0,.32,1,1,1,0,0,0,.87.4,1.93,1.93,0,0,0,.71-.11,1.67,1.67,0,0,0,.53-.32l.31.52a1.87,1.87,0,0,1-.62.38A2.38,2.38,0,0,1,83.17,61.32Zm-.12-3.93a.89.89,0,0,0-.69.34,1.59,1.59,0,0,0-.35.85v0h2v-.1a1.21,1.21,0,0,0-.25-.79A.89.89,0,0,0,83.05,57.39Z"></path>
    <path class="cls-1" d="M85.63,57.36v-.52H87l.07.64a1.71,1.71,0,0,1,.46-.53,1.14,1.14,0,0,1,.63-.19l.19,0,.15,0-.1.74-.46,0a.85.85,0,0,0-.86.56v2.52l.66.11v.51H85.63v-.51l.66-.11V57.47Z"></path>
  </g>
  <g id="_New_Label" data-name="&quot;New&quot; Label">
    <polygon class="cls-22" points="439.34 25.2 403.8 25.2 495.9 117.31 495.9 81.76 439.34 25.2"></polygon>
    <polygon class="cls-23" points="440.38 25.2 405.4 25.2 496.05 115.85 496.05 80.86 440.38 25.2"></polygon>
    <path class="cls-24" d="M449.73,43.57a.66.66,0,0,1,.11.2.79.79,0,0,1,.05.22c0,.08,0,.18,0,.3l-1.06,9.05c.15-.18.29-.35.44-.51l.41-.44,4.45-4.45,1.72,1.72-8.41,8.41-1-1a1.22,1.22,0,0,1-.31-.45,1.11,1.11,0,0,1-.05-.56l1-9c-.13.15-.26.31-.4.46l-.38.4-4.51,4.51-1.72-1.72,8.41-8.41,1,1Z"></path>
    <path class="cls-24" d="M463.83,57.65l-1.5,1.5-3.45-3.45-2,2,2.64,2.65-1.44,1.44-2.64-2.64-2,2,3.46,3.45-1.51,1.5L450,60.65l8.41-8.41Z"></path>
    <path class="cls-24" d="M465.47,59.29l1.64,1.63a1.06,1.06,0,0,1,.31.55.73.73,0,0,1-.09.52l-3.23,5.54c-.1.19-.22.37-.34.58a5.37,5.37,0,0,1-.42.59c.22-.14.43-.27.64-.38l.58-.32,5.75-3a.95.95,0,0,1,1.06.21l.57.58a1,1,0,0,1,.31.53.78.78,0,0,1-.08.54l-3,5.74-.29.56c-.11.2-.23.4-.37.61l.58-.39.53-.33,5.55-3.23a.72.72,0,0,1,.51-.08,1,1,0,0,1,.54.29l1.54,1.53-11,5.82-1.77-1.77,3.63-6.79.19-.35a3.84,3.84,0,0,1,.22-.39l-.39.22-.35.18-6.82,3.61-1.76-1.77Z"></path>
    <path class="cls-24" d="M472.12,80.94a1.38,1.38,0,0,1,.46-.31,1.61,1.61,0,0,1,.53-.1,1.67,1.67,0,0,1,.53.11,1.65,1.65,0,0,1,.48.33,1.47,1.47,0,0,1,.43,1,1.21,1.21,0,0,1-.09.53,1.29,1.29,0,0,1-.31.46,1.46,1.46,0,0,1-.47.32,1.38,1.38,0,0,1-.53.09,1.4,1.4,0,0,1-.53-.11,1.49,1.49,0,0,1-.47-.33,1.34,1.34,0,0,1-.33-.47,1.26,1.26,0,0,1-.11-.53,1.22,1.22,0,0,1,.1-.53A1.28,1.28,0,0,1,472.12,80.94Zm9.37-5.63-3.3,3.3a13.2,13.2,0,0,1-1.12,1q-.58.47-1.23.9l-1.21-1.21c.29-.44.59-.85.89-1.24a11.65,11.65,0,0,1,1-1.11l3.3-3.31Z"></path>
    <rect class="cls-25" x="21.65" y="25.2" width="474.4" height="330.3"></rect>
  </g>
</svg>
