<?xml version="1.0" encoding="UTF-8"?>
<!-- Generator: Adobe Illustrator 22.0.0, SVG Export Plug-In . SVG Version: 6.00 Build 0)  -->
<svg xmlns="http://www.w3.org/2000/svg" viewBox="0 0 518.3 385.4">
  <path d="m518.3 24.6c-.1-13.6-11.1-24.6-24.7-24.6h-467.5c-9 .1-16.8 4.8-21.2 11.9-3.1 4.1-4.9 9.2-4.9 14.7v334.1c0 13.6 11.1 24.7 24.7 24.7h468.3c13.6 0 24.7-11 24.7-24.7z" fill="#fff"></path>
  <path d="m62.9 39.9 4.7-4.7h-9.5c-.2 0-.4-.1-.4.1v.9c-1.7-2.5-5.1-3.1-7.6-1.4-1.1.7-1.8 1.8-2.2 3.1v-2.7h-1.4c-.4-.1-.9 0-1.2.2l-3.2 3.5-3.1-3.5c-.3-.3-.9-.1-1.3-.2h-1.4v6.8h2.2v-3.4l3.9 3.7 3.7-3.7v2.7c0 .2 0 .7.2.7h1.7v-2.7c.3 2.2 2.6 3.7 5.1 3.7 2.8 0 5.2-2 5.2-4.5 0-.4-.1-.8-.2-1.2h4.1l-4.5 4.8h9.3c.3-.1.5-.4.5-.7l0 0v-1.4h-4.6zm-9.7.7c-1.2-.2-2-1.4-1.8-2.6s1.4-2 2.6-1.8c1.1.2 1.8 1.1 1.8 2.2-.1 1.3-1.2 2.2-2.6 2.2z" fill="#5bc4eb"></path>
  <path d="m23.2 47.9h473.2v22.1h-473.2z" fill="#1076a6"></path>
  <path d="m45.9 56.5 0 0-2.5 6.2h-.7l-2.5-6.2 0 0 .1 3.1v2.2l.9.1v.7h-2.8v-.6l.9-.1v-6.1l-.9-.1v-.7h2.2l2.5 6.3 0 0 2.4-6.3h2.2v.7h-.7v6.1l.9.1v.7h-2.8v-.6l.9-.1v-2.2z" fill="#fff"></path>
  <path d="m48.4 59.7c-.1-.7.2-1.5.7-2.1 1-1 2.6-1.1 3.7-.1l.1.1c.5.6.7 1.4.7 2.1v.1c.1.7-.2 1.5-.7 2.1-1 1-2.6 1.1-3.7.1h-.1c-.5-.6-.7-1.4-.7-2.1zm1.1.2c0 .5.1 1 .4 1.5.4.6 1.2.8 1.9.4.2-.1.3-.3.4-.4.3-.5.4-.9.4-1.5v-.1c0-.5-.1-1-.4-1.5-.4-.6-1.2-.8-1.9-.4-.2.1-.3.3-.4.4-.3.5-.4.9-.4 1.5z" fill="#fff"></path>
  <path d="m55.8 61.9h2.4l.1-.9h.9v1.7h-4.6v-.7l3.1-4.2h-2.1l-.1.9h-.9v-1.7h4.4v.7z" fill="#fff"></path>
  <path d="m66.4 54.9c.7-.1 1.4.2 2 .6.9.9.9 2.4 0 3.4-.6.5-1.3.7-2 .6h-1.6v2.3l.9.1v.7h-2.8v-.6l.9-.1v-6.1l-.9-.1v-.7c0-.1 3.5-.1 3.5-.1zm-1.7 3.9h1.6c.4.1.9-.1 1.2-.4s.4-.7.4-1.1-.1-.8-.4-1.1-.7-.4-1.2-.4h-1.6z" fill="#fff"></path>
  <path d="m69.8 57.6v-.6h1.8l.1.8c.1-.3.3-.5.6-.7.3-.1.5-.3.8-.3h.3c.1 0 .1 0 .2.1l-.1.9h-.6c-.3 0-.5.1-.7.2s-.3.3-.4.5v3.3l.9.1v.7h-2.8v-.6l.9-.1v-4.1z" fill="#fff"></path>
  <path d="m74.2 59.7c-.1-.7.2-1.5.7-2.1 1-1 2.6-1.1 3.7-.1l.1.1c.5.6.7 1.4.7 2.1v.1c.1.7-.2 1.5-.7 2.1-1 1-2.6 1.1-3.7.1h-.2c-.5-.6-.7-1.4-.7-2.1v-.2zm1 .2c0 .5.1 1 .4 1.5.4.6 1.2.8 1.9.4.2-.1.3-.3.4-.4.3-.5.4-.9.4-1.5v-.1c0-.5-.1-1-.4-1.5-.4-.6-1.2-.8-1.9-.4-.2.1-.3.3-.4.4-.3.5-.4.9-.4 1.5z" fill="#fff"></path>
  <path d="m51.7 85.7 0 0-4.9 12h-1.4l-4.8-12h-.1l.2 6v4.3l1.7.3v1.3h-5.3v-1.3l1.7-.3v-11.7l-1.7-.3v-1.3h1.7 2.6l4.7 12.1 0 0 4.7-12.1h4.3v1.3l-1.7.3v11.8l1.7.3v1.3h-5.3v-1.3l1.7-.3v-4.3z" fill="#a4acad"></path>
  <path d="m56.8 92c0-1.6.5-3 1.4-4.1s2.1-1.6 3.6-1.6c1.6 0 2.7.5 3.7 1.6.9 1.1 1.4 2.4 1.4 4.1v.2c0 1.6-.5 3-1.4 4.1s-2.1 1.6-3.6 1.6c-1.6 0-2.8-.5-3.7-1.6s-1.4-2.4-1.4-4.1zm2.1.3c0 1.2.3 2.2.7 2.9.5.7 1.2 1.2 2.2 1.2.9 0 1.7-.4 2.2-1.2.5-.7.7-1.8.7-2.9v-.3c0-1.2-.3-2.1-.7-2.9-.5-.7-1.2-1.2-2.2-1.2s-1.7.4-2.2 1.2c-.5.7-.7 1.8-.7 2.9z" fill="#a4acad"></path>
  <path d="m71 96.1h4.5l.1-1.7h1.7v3.3h-8.8v-1.4l6-8.1h-4.1l-.1 1.7h-1.7v-3.3h8.4v1.4z" fill="#a4acad"></path>
  <path d="m91.1 82.7c1.6 0 2.8.3 3.7 1.1s1.3 1.8 1.3 3c0 .7-.2 1.4-.6 1.9s-.9 1-1.8 1.4c.8.3 1.4.7 1.8 1.3s.5 1.4.5 2.2v1.2c0 .5.1.8.2 1s .3.3.5.4l.5.1v1.4h-1c-.8 0-1.4-.3-1.7-.8s-.5-1.2-.5-2v-1.2c0-.8-.2-1.5-.7-2s-1.1-.7-1.9-.7h-3.2v5.1l1.7.3v1.3h-5.3v-1.3l1.7-.3v-11.7l-1.7-.3v-1.3h1.7zm-2.9 6.7h2.6c1.2 0 2-.2 2.4-.7.5-.4.7-1.1.7-1.9s-.3-1.4-.7-1.9-1.2-.6-2.2-.6h-2.8z" fill="#a4acad"></path>
  <path d="m106.8 96c-.3.6-.8 1.1-1.4 1.4-.5.3-1.2.5-1.9.5-1.2 0-2.2-.4-2.8-1.2-.7-.7-1-2-1-3.6v-4.9l-1.3-.3v-1.3h1.3 2v6.6c0 1.2.2 2 .5 2.4.3.5.9.7 1.6.7s1.3-.1 1.8-.4.8-.7 1.1-1.2v-6.4l-1.5-.3v-1.4h1.5 2v9.5l1.3.3v1.3h-3z" fill="#a4acad"></path>
  <path d="m111.4 83v-1.3h3.7v14.3l1.7.3v1.3h-5.3v-1.3l1.7-.3v-12.7z" fill="#a4acad"></path>
  <path d="m123.3 97.9c-1.6 0-2.8-.5-3.7-1.6-.9-1-1.4-2.4-1.4-4v-.5c0-1.6.5-2.9 1.4-3.9s2-1.6 3.3-1.6c1.5 0 2.6.5 3.4 1.4s1.2 2.1 1.2 3.6v1.3h-7.2v.1c0 1.1.3 2 .8 2.6.5.7 1.2 1 2.2 1 .7 0 1.3-.1 1.8-.3s.9-.5 1.4-.8l.8 1.3c-.4.4-.9.7-1.6.9-.7.4-1.5.5-2.4.5zm-.3-10c-.7 0-1.3.3-1.8.9s-.7 1.3-.9 2.2v.1h5.1v-.3c0-.8-.2-1.4-.6-2-.3-.6-.9-.9-1.8-.9z" fill="#a4acad"></path>
  <path d="m138 90h-1.5l-.3-1.4c-.3-.2-.5-.4-.9-.5s-.8-.2-1.3-.2c-.7 0-1.2.1-1.6.5-.4.3-.5.7-.5 1.2 0 .4.1.8.5 1 .3.3.9.5 1.9.7 1.4.3 2.4.7 3.1 1.2s1 1.2 1 2.1c0 1-.4 1.8-1.2 2.4s-1.8.9-3.1.9c-.8 0-1.6-.1-2.2-.3-.7-.2-1.3-.5-1.8-.8v-2.5h1.5l.4 1.5c.2.2.5.3.9.5.4.1.8.1 1.2.1.7 0 1.3-.1 1.7-.4s.6-.7.6-1.2-.1-.8-.5-1.1c-.3-.3-.9-.5-1.9-.7-1.4-.3-2.4-.7-3-1.2-.7-.5-1-1.2-1-2 0-.9.4-1.7 1.2-2.3.7-.6 1.8-.9 3-.9.8 0 1.6.1 2.2.3.7.2 1.2.5 1.7.9z" fill="#a4acad"></path>
  <path d="m42.8 122.9v1.8h-1l-.1-.7h-1.2v4.7l.7.1v.8h-2.8v-.8l.7-.1v-4.7h-1.1l-.1.7h-1v-1.8z" fill="#4dbdeb"></path>
  <path d="m43.2 128.8.7-.1v-3.1l-.7-.1v-.8h2.1v4.1l.7.1v.8h-2.6zm2-5.4h-1.4v-1h1.4z" fill="#4dbdeb"></path>
  <path d="m48.2 123.4v1.2h.9v.9h-.9v2.6c0 .2.1.3.1.4.1.1.2.1.3.1h.3c.1 0 .1 0 .2-.1l.1.9c-.1.1-.3.1-.5.1-.1 0-.3.1-.5.1-.5 0-.8-.1-1.1-.4s-.4-.7-.4-1.2v-2.6h-.7v-.9h.7v-1.2z" fill="#4dbdeb"></path>
  <path d="m49.7 123.2v-.8h2.1v6.3l.7.1v.8h-2.6v-.8l.7-.1v-5.3z" fill="#4dbdeb"></path>
  <path d="m55.2 129.7c-.7 0-1.3-.2-1.8-.7s-.7-1.1-.7-1.8v-.2c0-.7.2-1.4.6-1.8.4-.5.9-.7 1.6-.7s1.2.2 1.6.6.5.9.5 1.6v.7h-2.8l0 0c0 .3.1.6.3.8s.5.3.8.3.5 0 .7-.1.4-.1.7-.3l.3.8c-.2.1-.5.3-.8.4s-.6.4-1 .4zm-.1-4.1c-.3 0-.5.1-.6.3s-.2.5-.3.7l0 0h1.6v-.1c0-.3-.1-.5-.2-.7s-.3-.2-.5-.2z" fill="#4dbdeb"></path>
  <path d="m60.1 127.8c0-.3.1-.7.3-.9.2-.3.5-.5.9-.8-.2-.3-.3-.5-.5-.7-.1-.2-.1-.5-.1-.7 0-.5.1-.9.5-1.3s.8-.5 1.4-.5c.5 0 .9.1 1.2.5.3.3.5.7.5 1.1 0 .3-.1.6-.2.8s-.3.5-.6.7l-.4.3 1.3 1.5c.1-.2.2-.4.3-.6s.1-.5.1-.7h1c0 .4-.1.8-.1 1.2-.1.3-.3.7-.5.9l.9 1.2 0 0h-1.5l-.3-.4c-.3.2-.5.3-.8.4s-.6.1-.9.1c-.7 0-1.2-.2-1.6-.5-.7-.6-.9-1-.9-1.6zm2.3.9c.1 0 .3 0 .5-.1.1-.1.3-.1.5-.2l-1.4-1.6-.1.1c-.1.1-.3.3-.3.4-.1.1-.1.3-.1.4 0 .3.1.5.3.7.1.2.3.3.6.3zm-.5-4.2c0 .1 0 .3.1.4s.1.3.3.5l.4-.3c.2-.1.3-.2.3-.3.1-.1.1-.3.1-.4s-.1-.3-.1-.4c-.1-.1-.3-.2-.5-.2s-.3.1-.5.2c0 .1-.1.3-.1.5z" fill="#4dbdeb"></path>
  <path d="m71.4 122.9c.8 0 1.5.3 2 .8s.8 1.2.8 2v1.1c0 .8-.3 1.5-.8 2s-1.2.8-2 .8h-3v-.8l.7-.1v-4.9l-.7-.1v-.8h.7zm-1 1v4.7h.9c.5 0 .9-.1 1.2-.5.3-.3.4-.7.4-1.3v-1.2c0-.5-.1-.9-.4-1.3-.3-.3-.7-.5-1.2-.5z" fill="#4dbdeb"></path>
  <path d="m77.3 129.7c-.7 0-1.3-.2-1.8-.7s-.7-1.1-.7-1.8v-.2c0-.7.2-1.4.6-1.8s.9-.7 1.6-.7 1.2.2 1.6.6c.3.4.5.9.5 1.6v.7h-3l0 0c0 .3.1.6.3.8s.5.3.8.3.5 0 .7-.1.4-.1.7-.3l.3.8c-.2.1-.5.3-.8.4-.1.3-.4.4-.8.4zm-.1-4.1c-.3 0-.5.1-.6.3s-.2.5-.3.7l0 0h1.6v-.1c0-.3-.1-.5-.2-.7 0-.2-.2-.2-.5-.2z" fill="#4dbdeb"></path>
  <path d="m84.1 126.3h-.9l-.1-.6c-.1-.1-.2-.1-.3-.2s-.3-.1-.5-.1c-.3 0-.4.1-.5.1-.1.1-.2.3-.2.4s.1.3.2.4.4.2.8.3c.6.1 1.1.3 1.4.5.3.3.5.5.5 1s-.2.8-.6 1.1-.9.4-1.6.4c-.4 0-.7-.1-1.1-.1-.3-.1-.6-.3-.9-.5v-1.2h.9l.2.7c.1.1.2.1.3.1s.3.1.4.1c.3 0 .5-.1.6-.1.1-.1.2-.2.2-.4 0-.1-.1-.3-.2-.4s-.4-.2-.8-.3c-.6-.1-1-.3-1.4-.5-.3-.2-.5-.5-.5-.9s.2-.8.5-1.1.8-.5 1.5-.5c.4 0 .7.1 1.1.1.3.1.6.3.8.4z" fill="#4dbdeb"></path>
  <path d="m87.2 128.7c.3 0 .4-.1.6-.2.1-.1.2-.3.2-.5h1.2l0 0c0 .5-.2.9-.5 1.3-.4.3-.9.5-1.5.5-.7 0-1.4-.2-1.7-.7s-.6-1.1-.6-1.8v-.1c0-.7.2-1.4.6-1.8s1-.7 1.8-.7c.4 0 .7.1 1.1.2.3.1.6.3.8.5v1.4h-1.1l-.2-.8c-.1-.1-.1-.1-.3-.1-.1-.1-.2-.1-.3-.1-.4 0-.7.1-.8.4s-.2.6-.2 1.1v.1c0 .5.1.8.2 1.1.1 0 .4.2.7.2z" fill="#4dbdeb"></path>
  <path d="m90 128.8.7-.1v-3.1l-.7-.1v-.8h2l .1.7c.1-.3.3-.5.5-.6s.4-.2.7-.2h.2s.1 0 .2.1l-.1 1.2h-.5c-.2 0-.3.1-.5.1-.1.1-.2.2-.3.3v2.4l.7.1v.8h-2.6v-.9h-.4z" fill="#4dbdeb"></path>
  <path d="m93.8 128.8.7-.1v-3.1l-.7-.1v-.8h2.1v4.1l.7.1v.8h-2.6zm2-5.4h-1.4v-1h1.4z" fill="#4dbdeb"></path>
  <path d="m96.8 125.4v-.8h2l .1.6c.1-.2.3-.4.5-.5s.5-.2.7-.2c.6 0 1.1.3 1.4.7.3.5.5 1.2.5 1.9v.1c0 .7-.2 1.4-.5 1.8s-.8.7-1.4.7c-.3 0-.5-.1-.7-.1-.2-.1-.4-.3-.5-.4v1.4l.7.1v.8h-2.7v-.8l.7-.1v-5zm3.9 1.8c0-.5-.1-.9-.2-1.2s-.4-.4-.7-.4c-.2 0-.4.1-.5.1-.1.1-.3.2-.3.3v2.2c.1.1.2.3.3.3.1.1.3.1.5.1.3 0 .5-.1.7-.4s.2-.6.2-1z" fill="#4dbdeb"></path>
  <path d="m104.6 123.4v1.2h.9v.9h-.9v2.6c0 .2.1.3.1.4.1.1.2.1.3.1h.3c.1 0 .1 0 .2-.1l.1.9c-.1.1-.3.1-.5.1-.1 0-.3.1-.5.1-.5 0-.8-.1-1.1-.4s-.4-.7-.4-1.2v-2.6h-.7v-.9h.7v-1.2z" fill="#4dbdeb"></path>
  <path d="m106.1 128.8.7-.1v-3.1l-.7-.1v-.8h2.1v4.1l.7.1v.8h-2.6zm2-5.4h-1.4v-1h1.4z" fill="#4dbdeb"></path>
  <path d="m109.2 127c0-.7.2-1.4.6-1.8.4-.5 1-.7 1.8-.7s1.3.3 1.8.7c.5.5.6 1.1.6 1.8v.1c0 .7-.2 1.4-.6 1.8-.4.5-1 .7-1.8.7s-1.4-.2-1.8-.7c-.4-.4-.6-1-.6-1.9zm1.4.2c0 .5.1.8.3 1.1.1.3.4.4.7.4s.6-.1.7-.4.3-.7.3-1.1v-.1c0-.5-.1-.8-.3-1.1s-.4-.4-.7-.4-.6.1-.7.4-.3.7-.3 1.2z" fill="#4dbdeb"></path>
  <path d="m114.5 128.8.7-.1v-3.1l-.7-.1v-.8h2l .1.7c.1-.3.3-.5.6-.6s.5-.2.8-.2c.5 0 .9.1 1.2.5.3.3.4.8.4 1.5v2.2l.7.1v.8h-2.6v-.8l.6-.1v-2.2c0-.3-.1-.5-.2-.7-.1-.1-.3-.2-.6-.2-.2 0-.3.1-.5.1-.1.1-.3.2-.3.3v2.7l.5.1v.8h-2.6v-.9z" fill="#4dbdeb"></path>
  <path d="m128.1 127.1 0 0-2.7-.9v-1.2l4.1 1.7v1.1l-4.1 1.7v-1.2z" fill="#4dbdeb"></path>
  <path d="m132.1 128.8.5-.1 2-5.9h1.4l2 5.9.5.1v.8h-2.3v-.8l.5-.1-.3-.9h-2.2l-.3.9.5.1v.8h-2.3zm2.5-2h1.6l-.7-2.4 0 0z" fill="#707a7c"></path>
  <path d="m142.4 129c-.1.2-.3.4-.5.5s-.5.2-.7.2c-.6 0-1.1-.2-1.4-.7s-.5-1-.5-1.8v-.1c0-.8.2-1.4.5-1.9s.8-.7 1.4-.7c.3 0 .5.1.7.1.2.1.4.3.5.5v-1.8l-.7-.1v-.8h.7 1.4v6.3l.7.1v.8h-1.8zm-1.9-1.7c0 .4.1.8.2 1 .1.3.4.4.7.4.2 0 .3-.1.5-.1s.3-.2.3-.3v-2.1c-.1-.1-.2-.3-.3-.4s-.3-.1-.5-.1c-.3 0-.5.1-.7.4s-.2.7-.2 1.2z" fill="#707a7c"></path>
  <path d="m147.9 129c-.1.2-.3.4-.5.5s-.5.2-.7.2c-.6 0-1.1-.2-1.4-.7s-.5-1-.5-1.8v-.1c0-.8.2-1.4.5-1.9s.8-.7 1.4-.7c.3 0 .5.1.7.1.2.1.4.3.5.5v-1.8l-.7-.1v-.8h.7 1.4v6.3l.7.1v.8h-2zm-1.8-1.7c0 .4.1.8.2 1 .1.3.4.4.7.4.2 0 .3-.1.5-.1s.3-.2.3-.3v-2.1c-.1-.1-.2-.3-.3-.4s-.3-.1-.5-.1c-.3 0-.5.1-.7.4s-.2.7-.2 1.2z" fill="#707a7c"></path>
  <path d="m159.1 124.6 0 0-1.8 5h-.9l-1.8-4.9 0 0 .1 3v1.1l.7.1v.8h-2.8v-.8l.7-.1v-4.9l-.7-.1v-.8h.7 1.8l1.7 4.9 0 0 1.8-4.9h2.5v.8l-.7.1v4.8l.7.1v.8h-2.8v-.8l.7-.1v-1.1-3z" fill="#707a7c"></path>
  <path d="m161.5 127c0-.7.2-1.4.6-1.8.4-.5 1-.7 1.8-.7s1.3.3 1.8.7c.5.5.6 1.1.6 1.8v.1c0 .7-.2 1.4-.6 1.8-.4.5-1 .7-1.8.7s-1.4-.2-1.8-.7c-.4-.4-.6-1-.6-1.9zm1.4.2c0 .5.1.8.3 1.1.1.3.4.4.7.4s.6-.1.7-.4.3-.7.3-1.1v-.1c0-.5-.1-.8-.3-1.1s-.4-.4-.7-.4-.6.1-.7.4-.3.7-.3 1.2z" fill="#707a7c"></path>
  <path d="m170.1 129c-.1.2-.3.4-.5.5s-.5.2-.7.2c-.6 0-1.1-.2-1.4-.7s-.5-1-.5-1.8v-.1c0-.8.2-1.4.5-1.9s.8-.7 1.4-.7c.3 0 .5.1.7.1.2.1.4.3.5.5v-1.8l-.7-.1v-.8h.7 1.4v6.3l.7.1v.8h-1.8zm-1.9-1.7c0 .4.1.8.2 1 .1.3.4.4.7.4.2 0 .3-.1.5-.1s.3-.2.3-.3v-2.1c-.1-.1-.2-.3-.3-.4s-.3-.1-.5-.1c-.3 0-.5.1-.7.4s-.2.7-.2 1.2z" fill="#707a7c"></path>
  <path d="m175.9 129c-.1.2-.3.4-.6.5s-.5.2-.8.2c-.5 0-.9-.1-1.2-.5-.3-.3-.5-.9-.5-1.6v-2.1l-.5-.1v-.8h.5 1.4v3c0 .3.1.6.2.8.1.1.3.3.5.3s.4-.1.5-.1c.1-.1.3-.1.4-.3v-2.7l-.6-.1v-.8h.6 1.4v4.1l.6.1v.8h-1.8z" fill="#707a7c"></path>
  <path d="m178.2 123.2v-.8h2.1v6.3l.7.1v.8h-2.6v-.8l.7-.1v-5.3z" fill="#707a7c"></path>
  <path d="m183.8 129.7c-.7 0-1.3-.2-1.8-.7s-.7-1.1-.7-1.8v-.2c0-.7.2-1.4.6-1.8s.9-.7 1.6-.7 1.2.2 1.6.6.5.9.5 1.6v.7h-2.8l0 0c0 .3.1.6.3.8s.5.3.8.3.5 0 .7-.1.4-.1.7-.3l.3.8c-.2.1-.5.3-.8.4s-.6.4-1 .4zm-.2-4.1c-.3 0-.5.1-.6.3s-.2.5-.3.7l0 0h1.6v-.1c0-.3-.1-.5-.2-.7 0-.2-.2-.2-.5-.2z" fill="#707a7c"></path>
  <path d="m190.5 126.3h-.9l-.1-.6c-.1-.1-.2-.1-.3-.2s-.3-.1-.5-.1c-.3 0-.4.1-.5.1-.1.1-.2.3-.2.4s.1.3.2.4.4.2.8.3c.6.1 1.1.3 1.4.5.3.3.5.5.5 1s-.2.8-.6 1.1-.9.4-1.6.4c-.4 0-.7-.1-1.1-.1-.3-.1-.6-.3-.9-.5v-1.2h.9l.2.7c.1.1.2.1.3.1s.3.1.4.1c.3 0 .5-.1.6-.1.1-.1.2-.2.2-.4 0-.1-.1-.3-.2-.4s-.4-.2-.8-.3c-.6-.1-1-.3-1.4-.5-.3-.2-.5-.5-.5-.9s.2-.8.5-1.1.8-.5 1.5-.5c.4 0 .7.1 1.1.1.3.1.6.3.8.4z" fill="#707a7c"></path>
  <path d="m198.9 127.1 0 0-2.7-.9v-1.2l4.1 1.7v1.1l-4.1 1.7v-1.2z" fill="#707a7c"></path>
  <path d="m208.3 122.9c.8 0 1.5.3 2 .8s.8 1.2.8 2v1.1c0 .8-.3 1.5-.8 2s-1.2.8-2 .8h-3v-.8l.7-.1v-4.9l-.7-.1v-.8h.7zm-.9 1v4.7h.9c.5 0 .9-.1 1.2-.5.3-.3.4-.7.4-1.3v-1.2c0-.5-.1-.9-.4-1.3-.3-.3-.7-.5-1.2-.5z" fill="#707a7c"></path>
  <path d="m214.3 129.7c-.7 0-1.3-.2-1.8-.7s-.7-1.1-.7-1.8v-.2c0-.7.2-1.4.6-1.8s.9-.7 1.6-.7 1.2.2 1.6.6c.3.4.5.9.5 1.6v.7h-3l0 0c0 .3.1.6.3.8s.5.3.8.3.5 0 .7-.1.4-.1.7-.3l.3.8c-.2.1-.5.3-.8.4s-.4.4-.8.4zm-.2-4.1c-.3 0-.5.1-.6.3s-.2.5-.3.7l0 0h1.6v-.1c0-.3-.1-.5-.2-.7 0-.2-.2-.2-.5-.2z" fill="#707a7c"></path>
  <path d="m221 126.3h-.9l-.1-.6c-.1-.1-.2-.1-.3-.2s-.3-.1-.5-.1c-.3 0-.4.1-.5.1-.1.1-.2.3-.2.4s.1.3.2.4.4.2.8.3c.6.1 1.1.3 1.4.5.3.3.5.5.5 1s-.2.8-.6 1.1-.9.4-1.6.4c-.4 0-.7-.1-1.1-.1-.3-.1-.6-.3-.9-.5v-1.2h.9l.2.7c.1.1.2.1.3.1s.3.1.4.1c.3 0 .5-.1.6-.1.1-.1.2-.2.2-.4 0-.1-.1-.3-.2-.4s-.4-.2-.8-.3c-.6-.1-1-.3-1.4-.5-.3-.2-.5-.5-.5-.9s.2-.8.5-1.1.8-.5 1.5-.5c.4 0 .7.1 1.1.1.3.1.6.3.8.4z" fill="#707a7c"></path>
  <path d="m221.8 128.8.7-.1v-3.1l-.7-.1v-.8h2.1v4.1l.7.1v.8h-2.6zm1.9-5.4h-1.4v-1h1.4z" fill="#707a7c"></path>
  <path d="m225 127.2c0-.8.2-1.4.5-1.9s.8-.7 1.4-.7c.3 0 .5.1.7.2s.4.3.5.5l.1-.6h1.2v4.9c0 .7-.2 1.2-.6 1.6s-1 .6-1.7.6c-.3 0-.5-.1-.8-.1-.3-.1-.5-.1-.8-.3l.3-.9c.2.1.4.1.7.2.2.1.5.1.7.1.3 0 .6-.1.7-.3s.3-.5.3-.8v-.3c-.1.2-.3.3-.5.4s-.4.1-.7.1c-.6 0-1.1-.2-1.4-.7s-.5-1-.5-1.8v-.2zm1.3.1c0 .4.1.8.2 1 .1.3.4.4.7.4.2 0 .4-.1.5-.1.1-.1.3-.2.3-.3v-2.3c-.1-.1-.2-.3-.3-.3s-.3-.1-.5-.1c-.3 0-.5.1-.7.4s-.2.7-.2 1.2z" fill="#707a7c"></path>
  <path d="m230.2 128.8.7-.1v-3.1l-.7-.1v-.8h2l .1.7c.1-.3.3-.5.6-.6s.5-.2.8-.2c.5 0 .9.1 1.2.5.3.3.4.8.4 1.5v2.2l.7.1v.8h-2.6v-.8l.6-.1v-2.2c0-.3-.1-.5-.2-.7-.1-.1-.3-.2-.6-.2-.2 0-.3.1-.5.1-.1.1-.3.2-.3.3v2.7l.5.1v.8h-2.6v-.9z" fill="#707a7c"></path>
  <path d="m241.6 122.9c.7 0 1.4.2 1.8.5s.7.8.7 1.4c0 .3-.1.6-.3.9s-.5.5-.8.6c.4.1.7.3.9.6s.3.6.3 1v .3c0 .1 0 .3.1.3.1.1.1.1.3.1h.1v.8h-.7c-.5 0-.7-.1-.9-.3s-.3-.5-.3-.9v-.4c0-.3-.1-.6-.3-.7-.2-.2-.4-.3-.7-.3h-1.1v1.8l.7.1v.8h-2.8v-.8l.7-.1v-4.8l-.7-.1v-.8h.7zm-.9 2.9h.9c.4 0 .7-.1.9-.3s.3-.4.3-.7-.1-.5-.3-.7-.5-.3-.8-.3h-.9z" fill="#707a7c"></path>
  <path d="m247.5 129.7c-.7 0-1.3-.2-1.8-.7s-.7-1.1-.7-1.8v-.2c0-.7.2-1.4.6-1.8s.9-.7 1.6-.7 1.2.2 1.6.6.5.9.5 1.6v.7h-3l0 0c0 .3.1.6.3.8s.5.3.8.3.5 0 .7-.1.4-.1.7-.3l.3.8c-.2.1-.5.3-.8.4-.1.3-.4.4-.8.4zm-.1-4.1c-.3 0-.5.1-.6.3s-.2.5-.3.7l0 0h1.6v-.1c0-.3-.1-.5-.2-.7s-.3-.2-.5-.2z" fill="#707a7c"></path>
  <path d="m250.1 125.4v-.8h2l .1.6c.1-.2.3-.4.5-.5s.5-.2.7-.2c.6 0 1.1.3 1.4.7.3.5.5 1.2.5 1.9v.1c0 .7-.2 1.4-.5 1.8s-.8.7-1.4.7c-.3 0-.5-.1-.7-.1-.2-.1-.4-.3-.5-.4v1.4l.7.1v.8h-2.6v-.8l.7-.1v-5zm3.8 1.8c0-.5-.1-.9-.2-1.2s-.4-.4-.7-.4c-.2 0-.4.1-.5.1-.1.1-.3.2-.3.3v2.2c.1.1.2.3.3.3.1.1.3.1.5.1.3 0 .5-.1.7-.4s.2-.6.2-1z" fill="#707a7c"></path>
  <path d="m255.9 127c0-.7.2-1.4.6-1.8.4-.5 1-.7 1.8-.7.7 0 1.3.3 1.8.7.5.5.6 1.1.6 1.8v.1c0 .7-.2 1.4-.6 1.8-.4.5-1 .7-1.8.7-.7 0-1.4-.2-1.8-.7-.4-.4-.6-1-.6-1.9zm1.3.2c0 .5.1.8.3 1.1.1.3.4.4.7.4s.6-.1.7-.4.3-.7.3-1.1v-.1c0-.5-.1-.8-.3-1.1s-.4-.4-.7-.4-.6.1-.7.4-.3.7-.3 1.2z" fill="#707a7c"></path>
  <path d="m261.3 128.8.7-.1v-3.1l-.7-.1v-.8h2l .1.7c.1-.3.3-.5.5-.6s.4-.2.7-.2h.2s.1 0 .2.1l-.1 1.2h-.5c-.2 0-.3.1-.5.1-.1.1-.2.2-.3.3v2.4l.7.1v.8h-2.8v-.8z" fill="#707a7c"></path>
  <path d="m267.3 123.4v1.2h.9v.9h-.9v2.6c0 .2.1.3.1.4.1.1.2.1.3.1h.3c.1 0 .1 0 .2-.1l.1.9c-.1.1-.3.1-.5.1-.1 0-.3.1-.5.1-.5 0-.8-.1-1.1-.4s-.4-.7-.4-1.2v-2.6h-.7v-.9h.7v-1.2z" fill="#707a7c"></path>
  <path d="m276.4 127.1 0 0-2.7-.9v-1.2l4.1 1.7v1.1l-4.1 1.7v-1.2z" fill="#707a7c"></path>
  <path d="m286.1 122.9c.7 0 1.4.2 1.8.6.5.4.7.9.7 1.6s-.2 1.2-.7 1.6-1.1.6-1.8.6h-1.2v1.5l.7.1v.8h-2.8v-.8l.7-.1v-4.9l-.7-.1v-.8h.7 2.6zm-1.2 3.2h1.2c.4 0 .7-.1.9-.3s.3-.5.3-.8-.1-.6-.3-.8-.5-.3-.9-.3h-1.2z" fill="#707a7c"></path>
  <path d="m289.1 128.8.7-.1v-3.1l-.7-.1v-.8h2l .1.7c.1-.3.3-.5.5-.6s.4-.2.7-.2h.2c.1 0 .1 0 .2.1l-.1 1.2h-.7c-.2 0-.3.1-.5.1-.1.1-.2.2-.3.3v2.4l.7.1v.8h-2.6v-.9h-.2z" fill="#707a7c"></path>
  <path d="m295.3 129.7c-.7 0-1.3-.2-1.8-.7s-.7-1.1-.7-1.8v-.2c0-.7.2-1.4.6-1.8.4-.5.9-.7 1.6-.7s1.2.2 1.6.6c.3.4.5.9.5 1.6v.7h-3l0 0c0 .3.1.6.3.8s.5.3.8.3.5 0 .7-.1.4-.1.7-.3l.3.8c-.2.1-.5.3-.8.4 0 .4-.4.4-.8.4zm-.1-4.1c-.3 0-.5.1-.6.3s-.2.5-.3.7l0 0h1.6v-.1c0-.3-.1-.5-.2-.7 0-.2-.2-.2-.5-.2z" fill="#707a7c"></path>
  <path d="m300 125.4-.5.1.7 2.2.1.5 0 0 .1-.5.7-2.2-.5-.1v-.8h2.3v.8l-.4.1-1.5 4.1h-1.3l-1.5-4.1-.4-.1v-.8h2.3z" fill="#707a7c"></path>
  <path d="m303.3 128.8.7-.1v-3.1l-.7-.1v-.8h2.1v4.1l.7.1v.8h-2.7v-.9zm2-5.4h-1.4v-1h1.4z" fill="#707a7c"></path>
  <path d="m308.7 129.7c-.7 0-1.3-.2-1.8-.7s-.7-1.1-.7-1.8v-.2c0-.7.2-1.4.6-1.8s.9-.7 1.6-.7 1.2.2 1.6.6c.3.4.5.9.5 1.6v.7h-3l0 0c0 .3.1.6.3.8s.5.3.8.3.5 0 .7-.1.4-.1.7-.3l.3.8c-.2.1-.5.3-.8.4 0 .4-.4.4-.8.4zm0-4.1c-.3 0-.5.1-.6.3s-.2.5-.3.7l0 0h1.6v-.1c0-.3-.1-.5-.2-.7s-.3-.2-.5-.2z" fill="#707a7c"></path>
  <path d="m318.5 125.4-.5.1-1 4.1h-1.2l-.9-3 0 0-.9 3h-1.2l-1.1-4.1-.5-.1v-.8h2.2v.8l-.5.1.5 2.3 0 0 .9-3.2h.9l.9 3.2 0 0 .5-2.3-.5-.1v-.8h2.2v.7h.2z" fill="#707a7c"></path>
  <path d="m321.2 127.8c0-.3.1-.7.3-.9.2-.3.5-.5.9-.8-.2-.3-.3-.5-.5-.7-.1-.2-.1-.5-.1-.7 0-.5.1-.9.5-1.3.3-.3.8-.5 1.4-.5.5 0 .9.1 1.2.5.3.3.5.7.5 1.1 0 .3-.1.6-.2.8s-.3.5-.6.7l-.4.3 1.3 1.5c.1-.2.2-.4.3-.6s.1-.5.1-.7h1c0 .4-.1.8-.1 1.2-.1.3-.3.7-.5.9l.9 1.2 0 0h-1.5l-.3-.4c-.3.2-.5.3-.8.4s-.5.1-.9.1c-.7 0-1.2-.2-1.6-.5-.6-.6-.9-1-.9-1.6zm2.3.9c.1 0 .3 0 .5-.1.1-.1.3-.1.5-.2l-1.4-1.6-.1.1c-.1.1-.3.3-.3.4-.1.1-.1.3-.1.4 0 .3.1.5.3.7.1.2.3.3.6.3zm-.5-4.2c0 .1 0 .3.1.4s.1.3.3.5l.4-.3c.2-.1.3-.2.3-.3.1-.1.1-.3.1-.4s-.1-.3-.1-.4c-.1-.1-.3-.2-.5-.2s-.3.1-.5.2c0 .1-.1.3-.1.5z" fill="#707a7c"></path>
  <path d="m332.5 122.9c.8 0 1.5.3 2 .8s.8 1.2.8 2v1.1c0 .8-.3 1.5-.8 2s-1.2.8-2 .8h-3v-.8l.7-.1v-4.9l-.7-.1v-.8h.7zm-.9 1v4.7h.9c.5 0 .9-.1 1.2-.5.3-.3.4-.7.4-1.3v-1.2c0-.5-.1-.9-.4-1.3-.3-.3-.7-.5-1.2-.5z" fill="#707a7c"></path>
  <path d="m336.1 127c0-.7.2-1.4.6-1.8.4-.5 1-.7 1.8-.7.7 0 1.3.3 1.8.7.4.5.6 1.1.6 1.8v.1c0 .7-.2 1.4-.6 1.8-.4.5-1 .7-1.8.7-.7 0-1.4-.2-1.8-.7-.4-.4-.6-1-.6-1.9zm1.3.2c0 .5.1.8.3 1.1.1.3.4.4.7.4s.6-.1.7-.4.3-.7.3-1.1v-.1c0-.5-.1-.8-.3-1.1s-.4-.4-.7-.4-.6.1-.7.4-.3.7-.3 1.2z" fill="#707a7c"></path>
  <path d="m348.5 125.4-.5.1-1 4.1h-1.2l-.9-3 0 0-.9 3h-1.2l-1.1-4.1-.5-.1v-.8h2.2v.8l-.5.1.5 2.3 0 0 .9-3.2h.9l.9 3.2 0 0 .5-2.3-.5-.1v-.8h2.2v.7h.2z" fill="#707a7c"></path>
  <path d="m348.9 128.8.7-.1v-3.1l-.7-.1v-.8h2l .1.7c.1-.3.3-.5.6-.6s.5-.2.8-.2c.5 0 .9.1 1.2.5.3.3.4.8.4 1.5v2.2l.7.1v.8h-2.7v-.8l.6-.1v-2.2c0-.3-.1-.5-.2-.7-.1-.1-.3-.2-.6-.2-.2 0-.3.1-.5.1-.1.1-.3.2-.3.3v2.7l.5.1v.8h-2.6z" fill="#707a7c"></path>
  <path d="m354.9 123.2v-.8h2.1v6.3l.7.1v.8h-2.7v-.8l.7-.1v-5.3z" fill="#707a7c"></path>
  <path d="m357.9 127c0-.7.2-1.4.6-1.8.4-.5 1-.7 1.8-.7s1.3.3 1.8.7c.4.5.6 1.1.6 1.8v.1c0 .7-.2 1.4-.6 1.8-.4.5-1 .7-1.8.7s-1.4-.2-1.8-.7c-.4-.4-.6-1-.6-1.9zm1.4.2c0 .5.1.8.3 1.1.1.3.4.4.7.4s.6-.1.7-.4.3-.7.3-1.1v-.1c0-.5-.1-.8-.3-1.1s-.4-.4-.7-.4-.6.1-.7.4-.3.7-.3 1.2z" fill="#707a7c"></path>
  <path d="m366.4 129.6c-.1-.1-.1-.1-.1-.3 0-.1-.1-.2-.1-.3-.1.2-.3.3-.6.5-.2.1-.5.2-.8.2-.5 0-.9-.1-1.2-.4s-.4-.6-.4-1.1.2-.8.5-1.1.9-.4 1.6-.4h.7v-.5c0-.3-.1-.4-.2-.5s-.3-.2-.6-.2c-.1 0-.3 0-.4.1s-.2.1-.3.1l-.1.5h-1v-1.1c.3-.1.5-.3.9-.4.3-.1.7-.2 1-.2.6 0 1.2.1 1.5.5.4.3.6.7.6 1.3v2.1.2.2l.4.1v.8h-1.6v-.1zm-1.2-.9c.2 0 .4-.1.5-.1.1-.1.3-.2.4-.3v-.7h-.7c-.3 0-.5.1-.7.2-.1.1-.2.3-.2.5s.1.3.1.4z" fill="#707a7c"></path>
  <path d="m371.7 129c-.1.2-.3.4-.5.5s-.5.2-.7.2c-.6 0-1.1-.2-1.4-.7s-.5-1-.5-1.8v-.1c0-.8.2-1.4.5-1.9s.8-.7 1.4-.7c.3 0 .5.1.7.1.2.1.4.3.5.5v-1.8l-.7-.1v-.8h.7 1.4v6.3l.7.1v.8h-1.8zm-1.9-1.7c0 .4.1.8.2 1 .1.3.4.4.7.4.2 0 .3-.1.5-.1s.3-.2.3-.3v-2.1c-.1-.1-.2-.3-.3-.4s-.3-.1-.5-.1c-.3 0-.5.1-.7.4s-.2.7-.2 1.2z" fill="#707a7c"></path>
  <path d="m381.6 127.1 0 0-2.7-.9v-1.2l4.1 1.7v1.1l-4.1 1.7v-1.2z" fill="#707a7c"></path>
  <path d="m393.2 125h-1l-.2-.9c-.1-.1-.3-.1-.5-.2-.3-.1-.5-.1-.7-.1-.3 0-.7.1-.9.2s-.3.3-.3.6c0 .2.1.4.3.5s.6.3 1.1.5c.7.2 1.3.5 1.7.8s.6.8.6 1.4-.2 1-.7 1.4c-.5.3-1.1.5-1.8.5-.5 0-1-.1-1.4-.3s-.8-.4-1.1-.7v-1.4h1l .1.9c.1.1.3.2.5.3s.5.1.8.1.7-.1.8-.2c.2-.1.3-.3.3-.6s-.1-.5-.3-.6-.5-.3-.9-.5c-.8-.2-1.4-.5-1.8-.8s-.6-.7-.6-1.3c0-.5.2-1 .7-1.4s1-.5 1.8-.5c.5 0 1 .1 1.4.2s.8.3 1.1.6z" fill="#707a7c"></path>
  <path d="m396.2 128.7c.3 0 .4-.1.6-.2.1-.1.2-.3.2-.5h1.2l0 0c0 .5-.2.9-.5 1.3-.4.3-.9.5-1.5.5-.7 0-1.4-.2-1.7-.7s-.6-1.1-.6-1.8v-.1c0-.7.2-1.4.6-1.8.4-.5 1-.7 1.8-.7.4 0 .7.1 1.1.2s.6.3.8.5v1.4h-1.1l-.2-.8c-.1-.1-.1-.1-.3-.1-.1-.1-.2-.1-.3-.1-.4 0-.7.1-.8.4s-.2.6-.2 1.1v.1c0 .5.1.8.2 1.1 0 0 .3.2.7.2z" fill="#707a7c"></path>
  <path d="m398.8 128.8.7-.1v-5.3l-.7-.1v-.8h2.1v2.8c.1-.2.3-.4.6-.5.2-.1.5-.2.7-.2.5 0 .9.2 1.2.5s.5.9.5 1.6v2l .7.1v.8h-2.6v-.8l.6-.1v-2c0-.4-.1-.7-.2-.8s-.3-.3-.6-.3c-.2 0-.3 0-.5.1-.1.1-.3.1-.3.3v2.7l.6.1v.8h-2.6v-.8z" fill="#707a7c"></path>
  <path d="m407.2 129.7c-.7 0-1.3-.2-1.8-.7s-.7-1.1-.7-1.8v-.2c0-.7.2-1.4.6-1.8.4-.5.9-.7 1.6-.7s1.2.2 1.6.6c.3.4.5.9.5 1.6v.7h-3l0 0c0 .3.1.6.3.8s.5.3.8.3.5 0 .7-.1.4-.1.7-.3l.3.8c-.2.1-.5.3-.8.4 0 .4-.4.4-.8.4zm-.1-4.1c-.3 0-.5.1-.6.3s-.2.5-.3.7l0 0h1.6v-.1c0-.3-.1-.5-.2-.7 0-.2-.2-.2-.5-.2z" fill="#707a7c"></path>
  <path d="m413.1 129c-.1.2-.3.4-.5.5s-.5.2-.7.2c-.6 0-1.1-.2-1.4-.7s-.5-1-.5-1.8v-.1c0-.8.2-1.4.5-1.9s.8-.7 1.4-.7c.3 0 .5.1.7.1.2.1.4.3.5.5v-1.8l-.7-.1v-.8h.7 1.4v6.3l.7.1v.8h-1.8zm-1.9-1.7c0 .4.1.8.2 1 .1.3.4.4.7.4.2 0 .3-.1.5-.1s.3-.2.3-.3v-2.1c-.1-.1-.2-.3-.3-.4s-.3-.1-.5-.1c-.3 0-.5.1-.7.4s-.2.7-.2 1.2z" fill="#707a7c"></path>
  <path d="m419 129c-.1.2-.3.4-.6.5-.2.1-.5.2-.8.2-.5 0-.9-.1-1.2-.5-.3-.3-.5-.9-.5-1.6v-2.1l-.5-.1v-.8h.5 1.4v3c0 .3.1.6.2.8.1.1.3.3.5.3s.4-.1.5-.1c.1-.1.3-.1.4-.3v-2.7l-.6-.1v-.8h.6 1.4v4.1l.6.1v.8h-1.8z" fill="#707a7c"></path>
  <path d="m421.3 123.2v-.8h2.1v6.3l.7.1v.8h-2.6v-.8l.7-.1v-5.3z" fill="#707a7c"></path>
  <path d="m426.8 129.7c-.7 0-1.3-.2-1.8-.7s-.7-1.1-.7-1.8v-.2c0-.7.2-1.4.6-1.8.4-.5.9-.7 1.6-.7s1.2.2 1.6.6.5.9.5 1.6v.7h-3l0 0c0 .3.1.6.3.8s.5.3.8.3.5 0 .7-.1.4-.1.7-.3l.3.8c-.2.1-.5.3-.8.4-.1.4-.4.4-.8.4zm-.1-4.1c-.3 0-.5.1-.6.3s-.2.5-.3.7l0 0h1.6v-.1c0-.3-.1-.5-.2-.7s-.3-.2-.5-.2z" fill="#707a7c"></path>
  <path d="m431.7 127.8c0-.3.1-.7.3-.9.2-.3.5-.5.9-.8-.2-.3-.3-.5-.5-.7-.1-.2-.1-.5-.1-.7 0-.5.1-.9.5-1.3.3-.3.8-.5 1.4-.5.5 0 .9.1 1.2.5.3.3.5.7.5 1.1 0 .3-.1.6-.2.8s-.3.5-.6.7l-.4.3 1.3 1.5c.1-.2.2-.4.3-.6s.1-.5.1-.7h1c0 .4-.1.8-.1 1.2-.1.3-.3.7-.5.9l.9 1.2 0 0h-1.5l-.3-.4c-.3.2-.5.3-.8.4s-.5.1-.9.1c-.7 0-1.2-.2-1.6-.5-.7-.6-.9-1-.9-1.6zm2.3.9c.1 0 .3 0 .5-.1.1-.1.3-.1.5-.2l-1.4-1.6-.1.1c-.1.1-.3.3-.3.4-.1.1-.1.3-.1.4 0 .3.1.5.3.7 0 .2.3.3.6.3zm-.5-4.2c0 .1 0 .3.1.4s.1.3.3.5l.4-.3c.2-.1.3-.2.3-.3.1-.1.1-.3.1-.4s-.1-.3-.1-.4c-.1-.1-.3-.2-.5-.2s-.3.1-.5.2c-.1.1-.1.3-.1.5z" fill="#707a7c"></path>
  <path d="m445.1 125h-1l-.2-.9c-.1-.1-.3-.1-.5-.2-.3-.1-.5-.1-.7-.1-.3 0-.7.1-.9.2s-.3.3-.3.6c0 .2.1.4.3.5s.6.3 1.1.5c.7.2 1.3.5 1.7.8s.6.8.6 1.4-.2 1-.7 1.4c-.5.3-1.1.5-1.8.5-.5 0-1-.1-1.4-.3s-.8-.4-1.1-.7v-1.4h1l .1.9c.1.1.3.2.5.3s.5.1.8.1.7-.1.8-.2c.2-.1.3-.3.3-.6s-.1-.5-.3-.6-.5-.3-.9-.5c-.8-.2-1.4-.5-1.8-.8s-.6-.7-.6-1.3c0-.5.2-1 .7-1.4s1-.5 1.8-.5c.5 0 1 .1 1.4.2s.8.3 1.1.6z" fill="#707a7c"></path>
  <path d="m445.7 128.8.7-.1v-5.3l-.7-.1v-.8h2.1v2.8c.1-.2.3-.4.6-.5.2-.1.5-.2.7-.2.5 0 .9.2 1.2.5s.5.9.5 1.6v2l .7.1v.8h-2.7v-.8l.6-.1v-2c0-.4-.1-.7-.2-.8s-.3-.3-.6-.3c-.2 0-.3 0-.5.1-.1.1-.3.1-.3.3v2.7l.6.1v.8h-2.6z" fill="#707a7c"></path>
  <path d="m454.9 129.6c-.1-.1-.1-.1-.1-.3 0-.1-.1-.2-.1-.3-.1.2-.3.3-.6.5-.2.1-.5.2-.8.2-.5 0-.9-.1-1.2-.4s-.4-.6-.4-1.1.2-.8.5-1.1.9-.4 1.6-.4h.7v-.5c0-.3-.1-.4-.2-.5s-.3-.2-.6-.2c-.1 0-.3 0-.4.1s-.2.1-.3.1l-.1.5h-1v-1.1c.3-.1.5-.3.9-.4.3-.1.7-.2 1-.2.6 0 1.2.1 1.5.5.4.3.6.7.6 1.3v2.1.2.2l.4.1v.8h-1.6v-.1zm-1.1-.9c.2 0 .4-.1.5-.1.1-.1.3-.2.4-.3v-.7h-.7c-.3 0-.5.1-.7.2-.1.1-.2.3-.2.5s.1.3.1.4z" fill="#707a7c"></path>
  <path d="m457 128.8.7-.1v-3.1l-.7-.1v-.8h2l .1.7c.1-.3.3-.5.5-.6s.4-.2.7-.2h.2c.1 0 .1 0 .2.1l-.1 1.2h-.5c-.2 0-.3.1-.5.1-.1.1-.2.2-.3.3v2.4l.7.1v.8h-2.6v-.9h-.4z" fill="#707a7c"></path>
  <path d="m463.3 129.7c-.7 0-1.3-.2-1.8-.7s-.7-1.1-.7-1.8v-.2c0-.7.2-1.4.6-1.8.4-.5.9-.7 1.6-.7s1.2.2 1.6.6c.3.4.5.9.5 1.6v.7h-2.9l0 0c0 .3.1.6.3.8s.5.3.8.3.5 0 .7-.1.4-.1.7-.3l.3.8c-.2.1-.5.3-.8.4-.2.4-.5.4-.9.4zm-.2-4.1c-.3 0-.5.1-.6.3s-.2.5-.3.7l0 0h1.6v-.1c0-.3-.1-.5-.2-.7 0-.2-.2-.2-.5-.2z" fill="#707a7c"></path>
  <g fill="#5d6769">
    <path d="m38.6 149.1v2.7h-1.3v-6.8h2.1c.5 0 .9.1 1.2.1s.6.2.8.4.3.4.5.6c.1.3.1.5.1.8 0 .2 0 .5-.1.7s-.1.4-.3.5c-.1.1-.3.3-.5.5-.2.1-.4.2-.6.3.1.1.3.2.4.4l1.7 2.5h-1.2c-.1 0-.2 0-.3-.1s-.1-.1-.2-.2l-1.4-2.2c-.1-.1-.1-.1-.2-.2s-.1-.1-.3-.1zm0-.9h.8c.3 0 .5 0 .6-.1.2-.1.3-.1.5-.3.1-.1.2-.2.3-.4.1-.1.1-.3.1-.5 0-.3-.1-.6-.3-.8s-.6-.3-1.1-.3h-.8c-.1.1-.1 2.4-.1 2.4z"></path>
    <path d="m45.5 146.8c.3 0 .6.1.8.1s.5.3.7.4.3.4.4.7.1.6.1.9v.2c0 .1 0 .1-.1.1s-.1.1-.1.1c-.1 0-.1 0-.1 0h-3c .1.5.1.9.4 1.1.2.2.5.3.9.3.2 0 .3 0 .5-.1.1-.1.3-.1.3-.1.1-.1.2-.1.3-.1.1-.1.1-.1.2-.1h.1s.1.1.1.1l.3.4c-.1.1-.3.3-.4.4s-.3.2-.5.3-.3.1-.5.1-.3.1-.5.1c-.3 0-.7-.1-.9-.1-.3-.1-.5-.3-.7-.5s-.4-.5-.5-.8-.2-.7-.2-1.2c0-.3.1-.7.1-.9.1-.3.3-.5.5-.7s.5-.4.7-.5c.4-.1.7-.2 1.1-.2zm0 .9c-.3 0-.6.1-.8.3s-.3.5-.3.8h2.2c0-.1 0-.3-.1-.4s-.1-.3-.2-.3c-.1-.1-.2-.2-.3-.3-.2-.1-.3-.1-.5-.1z"></path>
    <path d="m48.5 153.3v-6.4h.7c.1 0 .1 0 .2.1s.1.1.1.1l.1.5c.2-.2.4-.4.7-.5s.5-.2.9-.2c.3 0 .5.1.7.1.2.1.4.3.5.5s.3.5.3.7c.1.3.1.7.1 1.1 0 .3-.1.7-.1 1s-.3.6-.4.8c-.2.2-.4.4-.7.5s-.5.2-.9.2c-.3 0-.5-.1-.7-.1-.2-.1-.3-.2-.5-.3v2h-1zm2.3-5.5c-.3 0-.5.1-.6.1-.2.1-.3.3-.5.4v2.2c.1.1.3.3.4.3.1.1.3.1.5.1s.3 0 .5-.1c.1-.1.3-.1.3-.3.1-.1.2-.3.2-.5.1-.2.1-.5.1-.7 0-.3 0-.5-.1-.7s-.1-.3-.2-.5c-.1-.1-.2-.2-.3-.3-.2-.1-.2 0-.3 0z"></path>
    <path d="m55.9 146.8c.3 0 .7.1 1 .2s.5.3.7.5.3.5.5.8c.1.3.2.7.2 1 0 .4-.1.7-.2 1s-.3.5-.5.8c-.2.2-.5.4-.7.5-.3.1-.6.2-1 .2-.3 0-.7-.1-1-.2s-.5-.3-.7-.5-.4-.5-.5-.8-.2-.7-.2-1c0-.4.1-.7.2-1s .3-.5.5-.8c.2-.2.5-.4.7-.5.4-.1.7-.2 1-.2zm0 4.1c.4 0 .7-.1.9-.4s.3-.7.3-1.2-.1-.9-.3-1.2-.5-.4-.9-.4-.7.1-.9.4-.3.7-.3 1.2.1.9.3 1.2c.3.3.5.4.9.4z"></path>
    <path d="m59.3 151.7v-4.9h.7c.1 0 .2 0 .3.1s.1.1.1.2l.1.6c.2-.3.4-.5.6-.7.2-.1.5-.3.8-.3s.4.1.6.1l-.1.9c0 .1 0 .1-.1.1 0 0-.1.1-.1.1s-.1 0-.2 0-.2 0-.3 0c-.3 0-.5.1-.6.2-.2.1-.3.3-.5.6v3h-1.2v0z"></path>
    <path d="m64.7 151.8c-.4 0-.7-.1-.9-.3-.2-.3-.3-.5-.3-1v-2.7h-.5c-.1 0-.1 0-.1-.1-.1-.1-.1-.1-.1-.2v-.5l.8-.1.3-1.4c0-.1.1-.1.1-.1.1-.1.1-.1.2-.1h.6v1.6h1.2v.8h-1.3v2.6c0 .1.1.3.1.3.1.1.2.1.3.1s.1 0 .2 0 .1-.1.1-.1c.1 0 .1-.1.1-.1h.1.1l.1.1.3.5c-.2.1-.3.3-.6.3-.3.3-.6.4-.8.4z"></path>
    <path d="m69.5 144.9h.1l.1.1s.1.1.1.1l3.6 4.6c0-.1 0-.2 0-.3s0-.2 0-.3v-4.2h1.2v6.8h-.7c-.1 0-.2 0-.3-.1-.1 0-.1-.1-.2-.2l-3.6-4.5v.3s0 .2 0 .3v4.2h-1.2v-6.8h.7z"></path>
    <path d="m79.6 151.7h-.5c-.1 0-.2 0-.3-.1-.1 0-.1-.1-.1-.2l-.1-.3c-.1.1-.3.2-.3.3-.1.1-.3.1-.3.2-.1.1-.3.1-.4.1s-.3.1-.5.1-.4 0-.5-.1-.3-.1-.5-.3-.2-.3-.3-.4-.1-.3-.1-.6c0-.2.1-.3.1-.5s.3-.3.5-.5c.2-.1.5-.3.9-.3.4-.1.8-.1 1.4-.1v-.3c0-.3-.1-.5-.2-.7-.1-.1-.3-.2-.6-.2-.2 0-.3 0-.5.1-.1.1-.2.1-.3.1-.1.1-.2.1-.3.1s-.1.1-.3.1c-.1 0-.1 0-.2-.1-.2-.1-.2-.1-.2-.1l-.2-.4c.5-.5 1.2-.7 2-.7.3 0 .5.1.7.1.2.1.4.2.5.4s.3.3.3.6c.1.3.1.5.1.7zm-2.3-.7h.3c.1 0 .2-.1.3-.1.1-.1.2-.1.3-.1.1-.1.1-.1.3-.2v-.8c-.3 0-.6 0-.9.1s-.4.1-.5.1c-.1.1-.3.1-.3.2-.1.1-.1.2-.1.3 0 .2.1.3.2.5.2.1.2 0 .4 0z"></path>
    <path d="m80.8 151.7v-4.9h.7c.1 0 .3.1.3.2l.1.3c.1-.1.2-.2.3-.3s.2-.1.3-.2.2-.1.3-.1.3-.1.4-.1c.3 0 .5.1.7.3s.3.4.5.7c.1-.1.2-.3.3-.4s.3-.2.4-.3.3-.1.4-.1c.1-.1.3-.1.5-.1.3 0 .5.1.7.1.2.1.4.2.5.3s.3.3.3.6c.1.2.1.5.1.8v3.1h-1.2v-3.1c0-.3-.1-.5-.2-.7-.1-.1-.3-.2-.6-.2-.1 0-.2 0-.3.1s-.2.1-.3.2-.1.2-.2.3-.1.3-.1.4v3.1h-1.2v-3.1c0-.3-.1-.5-.2-.7-.1-.1-.3-.2-.6-.2-.1 0-.3.1-.5.1-.1.1-.3.2-.4.3v3.6h-1.2v0z"></path>
    <path d="m90.7 146.8c.3 0 .6.1.8.1.2.1.5.3.7.4s.3.4.4.7.1.6.1.9v.2c0 .1 0 .1-.1.1s-.1.1-.1.1c-.1 0-.1 0-.1 0h-3c .1.5.1.9.4 1.1.2.2.5.3.9.3.2 0 .3 0 .5-.1.1-.1.3-.1.3-.1.1-.1.2-.1.3-.1.1-.1.1-.1.2-.1s.1 0 .1 0c .1 0 .1.1.1.1l.3.4c-.1.1-.3.3-.4.4s-.3.2-.5.3-.3.1-.5.1-.3.1-.5.1c-.3 0-.7-.1-.9-.1-.3-.1-.5-.3-.7-.5s-.4-.5-.5-.8-.2-.7-.2-1.2c0-.3.1-.7.1-.9.1-.3.3-.5.5-.7s.5-.4.7-.5c.5-.1.8-.2 1.1-.2zm.1.9c-.3 0-.6.1-.8.3s-.3.5-.3.8h2.2c0-.1 0-.3-.1-.4s-.1-.3-.2-.3c-.1-.1-.2-.2-.3-.3s-.4-.1-.5-.1z"></path>
    <path d="m55.3 206.5c.1.1.1.2.1.3.1-.1.1-.2.1-.3s.1-.2.1-.3l2-3.8c0-.1.1-.1.1-.1s.1-.1.1-.1.1 0 .1 0 .1 0 .1 0h .9v6.9h-.9v-4.4c0-.1 0-.2 0-.3s0-.2 0-.3l-2.1 3.9c-.1.1-.1.1-.2.2s-.1.1-.3.1h-.2c-.1 0-.2 0-.3-.1s-.1-.1-.2-.2l-2.1-3.9v.3.3 4.4h-1.2v-6.8h.9.1.1s.1 0 .1.1.1.1.1.1l2 3.8c.6 0 .6.1.6.2z"></path>
    <path d="m62.6 204.1c.3 0 .7.1 1 .2s.5.3.7.5.3.5.5.8.2.7.2 1c0 .4-.1.7-.2 1s-.3.5-.5.8c-.2.2-.5.4-.7.5-.3.1-.6.2-1 .2-.3 0-.7-.1-1-.2s-.5-.3-.7-.5-.4-.5-.5-.8-.2-.7-.2-1c0-.4.1-.7.2-1s .3-.5.5-.8c.2-.2.5-.4.7-.5.3-.1.6-.2 1-.2zm0 4.1c.4 0 .7-.1.9-.4s.3-.7.3-1.2-.1-.9-.3-1.2-.5-.4-.9-.4-.7.1-.9.4-.3.7-.3 1.2.1.9.3 1.2c.2.2.5.4.9.4z"></path>
    <path d="m69.4 204.7c0 .1 0 .1-.1.3 0 .1-.1.1-.1.2l-2.3 3h2.4v.9h-3.8v-.5c0-.1 0-.1.1-.2 0-.1.1-.1.1-.2l2.3-3h-2.2v-.9h3.7v.4z"></path>
    <path d="m73.5 206.3v2.7h-1.3v-6.8h2.1c.5 0 .9.1 1.2.1.3.1.6.2.8.4s.3.4.5.6c.1.3.1.5.1.8 0 .2 0 .5-.1.7s-.1.4-.3.5c-.1.1-.3.3-.5.5-.2.1-.4.2-.6.3.1.1.3.2.4.4l1.7 2.5h-1.2c-.1 0-.2 0-.3-.1s-.1-.1-.2-.2l-1.4-2.2c-.1-.1-.1-.1-.2-.2s-.1-.1-.3-.1zm0-.8h.8c.3 0 .5 0 .6-.1.2-.1.3-.1.5-.3.1-.1.2-.2.3-.4.1-.1.1-.3.1-.5 0-.3-.1-.6-.3-.8s-.6-.3-1.1-.3h-.8v2.4z"></path>
    <path d="m79.4 204.2v3.1c0 .3.1.5.2.7.1.1.3.3.6.3.2 0 .4-.1.5-.1.1-.1.3-.2.5-.3v-3.5h1.2v4.9h-.7c-.1 0-.3-.1-.3-.2l-.1-.4c-.1.1-.2.2-.3.3s-.2.1-.3.2-.3.1-.4.1-.3.1-.5.1c-.3 0-.5-.1-.7-.1-.2-.1-.4-.2-.5-.4-.1-.1-.3-.3-.3-.6-.1-.2-.1-.5-.1-.7v-3.1z"></path>
    <path d="m85 202v7h-1.2v-7z"></path>
    <path d="m88.4 204.1c.3 0 .6.1.8.1.2.1.5.3.7.4s.3.4.4.7.1.6.1.9v.2c0 .1 0 .1-.1.1s-.1.1-.1.1c-.1 0-.1 0-.1 0h-3c .1.5.1.9.4 1.1.2.2.5.3.9.3.2 0 .3 0 .5-.1.1-.1.3-.1.3-.1.1-.1.2-.1.3-.1.1-.1.1-.1.2-.1s.1 0 .1 0c .1 0 .1.1.1.1l.3.4c-.1.1-.3.3-.4.4s-.3.2-.5.3-.3.1-.5.1-.3.1-.5.1c-.3 0-.7-.1-.9-.1-.3-.1-.5-.3-.7-.5s-.4-.5-.5-.8-.2-.7-.2-1.2c0-.3.1-.7.1-.9.1-.3.3-.5.5-.7s.5-.4.7-.5c.4-.1.7-.2 1.1-.2zm0 .8c-.3 0-.6.1-.8.3s-.3.5-.3.8h2.2c0-.1 0-.3-.1-.4s-.1-.3-.2-.3c-.1-.1-.2-.2-.3-.3-.2 0-.3-.1-.5-.1z"></path>
    <path d="m94.3 205.1c0 .1-.1.1-.1.1-.1 0-.1 0-.1 0-.1 0-.1 0-.2-.1-.1 0-.1-.1-.2-.1-.1-.1-.2-.1-.3-.1-.1-.1-.3-.1-.4-.1-.2 0-.4.1-.5.1-.1.1-.2.2-.2.4 0 .1 0 .2.1.3s.1.1.3.2c.1.1.3.1.4.1.1.1.3.1.4.1.1.1.3.1.4.2s.3.1.4.3c.1.1.2.2.3.3s.1.3.1.5-.1.5-.1.7c-.1.2-.2.3-.4.5s-.3.3-.6.3c-.3.1-.5.1-.8.1-.1 0-.3 0-.5-.1-.1 0-.3-.1-.5-.1-.1-.1-.3-.1-.4-.2s-.2-.1-.3-.2l.3-.5c.1-.1.1-.1.1-.1.1-.1.1-.1.2-.1s.1 0 .2.1.1.1.2.1c.1.1.2.1.3.1.1.1.3.1.4.1s.3 0 .3-.1c.1 0 .2-.1.3-.1.1-.1.1-.1.1-.2s.1-.1.1-.2-.1-.2-.1-.3c-.1-.1-.1-.1-.3-.2-.1-.1-.3-.1-.4-.1-.1-.1-.3-.1-.5-.1-.1-.1-.3-.1-.5-.2-.1-.1-.3-.1-.4-.3-.1-.1-.2-.2-.3-.4-.1-.1-.1-.3-.1-.5s.1-.4.1-.5c.1-.2.2-.3.3-.5.1-.1.3-.3.5-.3.2-.1.5-.1.8-.1s.6.1.9.1c.3.1.5.3.7.4z"></path>
    <path d="m40.3 174.1h.5c.1 0 .3-.1.4-.1.1-.1.3-.1.4-.1.1-.1.3-.1.3-.1v-1.5h-1.1c-.1 0-.1 0-.1-.1-.1-.1-.1-.1-.1-.1v-.5h2.2v2.6c-.2.1-.3.2-.5.3s-.4.1-.6.2-.4.1-.7.1-.5.1-.8.1c-.5 0-.9-.1-1.4-.3-.4-.1-.7-.4-1.1-.7-.3-.3-.5-.7-.7-1.1-.1-.4-.3-.9-.3-1.4s.1-1 .3-1.4c.1-.4.4-.8.7-1.1s.7-.5 1.1-.7c.4-.1.9-.3 1.4-.3.3 0 .5 0 .7.1s.5.1.6.2c.2.1.4.1.5.3.1.1.3.2.5.3l-.3.4c-.1.1-.1.1-.2.1s-.1 0-.1-.1c-.1-.1-.1-.1-.3-.1-.1-.1-.2-.1-.3-.2s-.3-.1-.5-.1c-.2-.1-.4-.1-.7-.1-.4 0-.7.1-1 .2s-.5.3-.8.5c-.2.2-.4.5-.5.8s-.2.7-.2 1.1.1.8.2 1.2c.1.3.3.6.5.9.2.2.5.4.8.5.4.1.7.2 1.2.2z"></path>
    <path d="m45.1 168.4c0 .1 0 .1-.1.2 0 .1-.1.1-.1.2-.1.1-.1.1-.2.1s-.1.1-.2.1-.1 0-.2-.1-.1-.1-.2-.1c-.1-.1-.1-.1-.1-.2s-.1-.1-.1-.2 0-.1.1-.2c0-.1.1-.1.1-.2.1-.1.1-.1.2-.1s.1-.1.2-.1.1 0 .2.1c.1 0 .1.1.2.1.1.1.1.1.1.2.1.1.1.1.1.2zm-.1 1.5v4.8h-.9v-4.8z"></path>
    <path d="m45.9 169.9h.7c.1 0 .1 0 .1.1.1.1.1.1.1.1l1.2 3.1c.1.1.1.2.1.3s.1.2.1.3c0-.1.1-.2.1-.3s.1-.2.1-.3l1.2-3.1c0-.1.1-.1.1-.1s.1-.1.1-.1h.7l-2 4.8h-.7z"></path>
    <path d="m53 169.8c.3 0 .5.1.8.1s.5.2.6.4c.2.2.3.4.4.7s.1.5.1.9c0 .1 0 .2-.1.3s-.1.1-.1.1h-3.2c0 .3.1.5.1.8.1.2.2.4.3.5s.3.3.5.3c.2.1.4.1.6.1s.4 0 .5-.1.3-.1.4-.1c.1-.1.2-.1.3-.1.1-.1.1-.1.2-.1s.1 0 .1.1l.3.3c-.1.1-.2.2-.4.3-.1.1-.3.2-.5.2s-.3.1-.5.1-.3.1-.5.1c-.3 0-.6-.1-.9-.1-.3-.1-.5-.3-.7-.5s-.3-.5-.5-.8c-.1-.3-.2-.7-.2-1.1 0-.3.1-.7.1-.9.1-.3.3-.5.5-.7s.4-.4.7-.5.8-.3 1.1-.3zm.1.7c-.4 0-.7.1-.9.3s-.4.5-.4.9h2.6c0-.2 0-.4-.1-.5s-.1-.3-.2-.4-.2-.2-.4-.3c-.3 0-.4 0-.6 0z"></path>
    <path d="m59.4 176.1c0 .1-.1.1-.1.1-.1.1-.1.1-.2.1h-.6l.9-1.9-2-4.5h.7c.1 0 .1 0 .2.1s.1.1.1.1l1.3 3c0 .1.1.1.1.2s.1.1.1.2c0-.1.1-.1.1-.2s.1-.1.1-.2l1.2-3c0-.1.1-.1.1-.1.1 0 .1-.1.1-.1h.5z"></path>
    <path d="m64.6 169.8c.3 0 .7.1.9.2.3.1.5.3.7.5s.3.5.5.8c.1.3.1.7.1 1 0 .4-.1.7-.1 1-.1.3-.3.5-.5.7s-.4.4-.7.5-.6.2-.9.2-.7-.1-.9-.2c-.3-.1-.5-.3-.7-.5s-.3-.5-.5-.7c-.1-.3-.1-.7-.1-1 0-.4.1-.7.1-1 .1-.3.3-.5.5-.8s.4-.4.7-.5c.2-.1.6-.2.9-.2zm0 4.3c.5 0 .8-.1 1.1-.5.2-.3.3-.7.3-1.4 0-.5-.1-1-.3-1.4s-.6-.5-1.1-.5c-.3 0-.5.1-.6.1-.2.1-.3.2-.5.3-.1.1-.2.3-.3.5s-.1.5-.1.7c0 .3 0 .5.1.7s.1.4.3.5c.1.1.3.3.5.3.2.7.4.7.6.7z"></path>
    <path d="m68.7 169.9v3c0 .3.1.7.3.8.1.2.4.3.7.3s.5-.1.7-.2.4-.3.6-.5v-3.5h.8v4.8h-.5c-.1 0-.2-.1-.2-.2l-.1-.5c-.2.2-.5.4-.7.5-.3.1-.5.2-.9.2-.3 0-.5-.1-.7-.1-.2-.1-.3-.2-.5-.3-.1-.1-.3-.3-.3-.5-.1-.2-.1-.5-.1-.7v-3z"></path>
    <path d="m73.2 174.7v-4.8h.5c.1 0 .1 0 .2.1s.1.1.1.2l.1.7c.1-.3.3-.6.6-.8s.5-.3.9-.3c.1 0 .3 0 .3.1.1.1.2.1.3.1l-.1.6c0 .1-.1.1-.1.1-.1 0-.1 0-.2-.1-.1 0-.2-.1-.4-.1-.3 0-.5.1-.7.3s-.3.4-.5.7v3h-1z"></path>
    <path d="m78.9 174.7v-4.8h.5c.1 0 .1 0 .2.1s.1.1.1.2l.1.7c.1-.3.3-.6.6-.8s.5-.3.9-.3c.1 0 .3 0 .3.1.1.1.2.1.3.1l-.1.6c0 .1-.1.1-.1.1-.1 0-.1 0-.2-.1-.1 0-.2-.1-.4-.1-.3 0-.5.1-.7.3s-.3.4-.5.7v3h-1z"></path>
    <path d="m84.6 169.8c.3 0 .5.1.8.1.3.1.5.2.6.4.2.2.3.4.4.7s.1.5.1.9c0 .1 0 .2-.1.3s-.1.1-.1.1h-3.2c0 .3.1.5.1.8.1.2.2.4.3.5s.3.3.5.3c.2.1.4.1.6.1s.4 0 .5-.1.3-.1.4-.1c.1-.1.2-.1.3-.1.1-.1.1-.1.2-.1s.1 0 .1.1l.3.3c-.1.1-.2.2-.4.3-.1.1-.3.2-.5.2s-.3.1-.5.1-.3.1-.5.1c-.3 0-.6-.1-.9-.1-.3-.1-.5-.3-.7-.5s-.3-.5-.5-.8c-.1-.3-.2-.7-.2-1.1 0-.3.1-.7.1-.9.1-.3.3-.5.5-.7s.4-.4.7-.5c.3 0 .7-.3 1.1-.3zm0 .7c-.4 0-.7.1-.9.3s-.4.5-.4.9h2.6c0-.2 0-.4-.1-.5s-.1-.3-.2-.4-.2-.2-.4-.3c-.2 0-.4 0-.6 0z"></path>
    <path d="m87.7 176.3v-6.4h.5c.1 0 .2.1.2.2l.1.5c.2-.3.4-.5.7-.6s.5-.2.9-.2c.3 0 .5.1.7.1.2.1.4.3.5.5s.3.5.3.7c.1.3.1.7.1 1.1 0 .3-.1.7-.1 1-.1.3-.2.5-.4.8-.2.2-.4.4-.7.5s-.5.2-.9.2c-.3 0-.5-.1-.7-.1s-.4-.2-.5-.4v2.1zm2.1-5.8c-.3 0-.5.1-.7.2s-.4.3-.5.5v2.3c.1.2.3.3.5.5.2.1.4.1.6.1.5 0 .8-.1 1-.5.3-.3.3-.7.3-1.4 0-.3 0-.6-.1-.8s-.1-.4-.3-.5c-.1-.1-.2-.3-.4-.3-.1 0-.2-.1-.4-.1z"></path>
    <path d="m94.8 169.8c.3 0 .7.1.9.2.3.1.5.3.7.5s.3.5.5.8c.1.3.1.7.1 1 0 .4-.1.7-.1 1-.1.3-.3.5-.5.7s-.4.4-.7.5-.6.2-.9.2-.7-.1-.9-.2c-.3-.1-.5-.3-.7-.5s-.3-.5-.5-.7-.1-.7-.1-1c0-.4.1-.7.1-1 .1-.3.3-.5.5-.8s.4-.4.7-.5.5-.2.9-.2zm0 4.3c.5 0 .8-.1 1.1-.5.2-.3.3-.7.3-1.4 0-.5-.1-1-.3-1.4-.2-.3-.6-.5-1.1-.5-.3 0-.5.1-.6.1-.2.1-.3.2-.5.3-.1.1-.2.3-.3.5s-.1.5-.1.7c0 .3 0 .5.1.7s.1.4.3.5c.1.1.3.3.5.3.2.7.4.7.6.7z"></path>
    <path d="m98.2 174.7v-4.8h.5c.1 0 .1 0 .2.1s.1.1.1.2l.1.7c.1-.3.3-.6.6-.8s.5-.3.9-.3c.1 0 .3 0 .3.1.1.1.2.1.3.1l-.1.6c0 .1-.1.1-.1.1-.1 0-.1 0-.2-.1-.1 0-.2-.1-.4-.1-.3 0-.5.1-.7.3s-.3.4-.5.7v3h-1z"></path>
    <path d="m103.4 174.8c-.4 0-.7-.1-.9-.3s-.3-.5-.3-.9v-2.9h-.6c-.1 0-.1 0-.1-.1-.1 0-.1-.1-.1-.1v-.3l.8-.1.2-1.5c0-.1 0-.1.1-.1s.1-.1.1-.1h.4v1.6h1.4v.6h-1.4v2.9c0 .2.1.3.1.5.1.1.2.1.4.1.1 0 .1 0 .2-.1.1 0 .1-.1.1-.1s.1-.1.1-.1l.1-.1c.1 0 .1 0 .1.1l.3.4c-.1.1-.3.3-.5.3-.1.2-.2.3-.5.3z"></path>
    <path d="m110.8 174.7h-.4c-.1 0-.1 0-.2-.1-.1 0-.1-.1-.1-.1l-.1-.5c-.1.1-.3.2-.3.3-.1.1-.3.1-.4.2s-.3.1-.4.1-.3.1-.5.1-.3 0-.5-.1-.3-.1-.4-.2-.2-.2-.3-.4c-.1-.1-.1-.3-.1-.5s.1-.4.1-.5l.5-.5c.2-.1.5-.3.9-.3.4-.1.8-.1 1.4-.1v-.4c0-.4-.1-.7-.3-.9-.1-.2-.4-.3-.7-.3-.2 0-.4 0-.5.1s-.3.1-.3.2c-.1.1-.2.1-.3.2s-.1.1-.2.1-.1 0-.1-.1-.1-.1-.1-.1l-.1-.3c.3-.3.5-.5.9-.5.3-.1.7-.2 1-.2s.5.1.7.1c.2.1.4.2.5.3s.3.3.3.5.1.5.1.7zm-2.1-.5c.1 0 .3 0 .4-.1.1 0 .3-.1.3-.1.1-.1.2-.1.3-.2s.2-.1.3-.3v-1c-.4 0-.7 0-1 .1s-.5.1-.7.2-.3.2-.3.3c-.1.1-.1.2-.1.3s0 .2.1.3.1.1.1.2c.1.1.1.1.3.1.1.2.1.2.3.2z"></path>
    <path d="m113.9 174.7v-4.8h.5c.1 0 .2.1.2.2l.1.5c.2-.2.5-.4.7-.5s.5-.2.9-.2c.3 0 .5.1.7.1.2.1.3.2.5.3.1.1.2.3.3.6.1.2.1.5.1.7v3h-.9v-3c0-.3-.1-.7-.3-.8-.1-.2-.4-.3-.7-.3s-.5.1-.7.2-.4.3-.6.5v3.5z"></path>
    <path d="m122.7 174.7h-.4c-.1 0-.1 0-.2-.1-.1 0-.1-.1-.1-.1v-.5c-.1.1-.3.2-.3.3-.1.1-.3.1-.4.2s-.3.1-.4.1-.3.1-.5.1-.3 0-.5-.1-.3-.1-.4-.2-.2-.2-.3-.4c-.1-.1-.1-.3-.1-.5s.1-.4.1-.5l.5-.5c.2-.1.5-.3.9-.3.4-.1.8-.1 1.4-.1v-.4c0-.4-.1-.7-.3-.9-.1-.2-.4-.3-.7-.3-.2 0-.4 0-.5.1s-.3.1-.3.2c-.1.1-.2.1-.3.2s-.1.1-.2.1-.1 0-.1-.1-.1-.1-.1-.1l-.1-.3c.3-.3.5-.5.9-.5.3-.1.7-.2 1-.2s.5.1.7.1c.2.1.4.2.5.3s.3.3.3.5.1.5.1.7zm-2.1-.5c.1 0 .3 0 .4-.1.1 0 .3-.1.3-.1.1-.1.2-.1.3-.2s.2-.1.3-.3v-1c-.4 0-.7 0-1 .1s-.5.1-.7.2-.3.2-.3.3c-.1.1-.1.2-.1.3s0 .2.1.3.1.1.1.2c.1.1.1.1.3.1.1.2.1.2.3.2z"></path>
    <path d="m124 174.7v-4.8h.5c.1 0 .2.1.2.2l.1.5c.2-.2.4-.4.6-.5s.5-.2.7-.2c.3 0 .6.1.8.3s.3.4.4.7c.1-.2.1-.3.3-.5.1-.1.2-.2.3-.3s.3-.1.4-.2.3-.1.5-.1c.3 0 .5.1.7.1.2.1.3.2.5.3.1.1.3.3.3.5.1.2.1.5.1.7v3h-.8v-3c0-.4-.1-.7-.3-.9s-.4-.3-.7-.3c-.1 0-.3 0-.4.1s-.2.1-.3.2-.2.2-.2.3c-.1.1-.1.3-.1.5v3h-.8v-3c0-.4-.1-.7-.2-.9s-.4-.3-.7-.3c-.2 0-.4.1-.6.1-.2.1-.3.3-.5.5v3.6h-.8z"></path>
    <path d="m133.7 169.8c.3 0 .5.1.8.1.3.1.5.2.6.4.2.2.3.4.4.7s.1.5.1.9c0 .1 0 .2-.1.3s-.1.1-.1.1h-3.2c0 .3.1.5.1.8.1.2.2.4.3.5s.3.3.5.3c.2.1.4.1.6.1s.4 0 .5-.1.3-.1.4-.1c.1-.1.2-.1.3-.1.1-.1.1-.1.2-.1s.1 0 .1.1l.3.3c-.1.1-.2.2-.4.3-.1.1-.3.2-.5.2s-.3.1-.5.1-.3.1-.5.1c-.3 0-.6-.1-.9-.1-.3-.1-.5-.3-.7-.5s-.3-.5-.5-.8c-.1-.3-.2-.7-.2-1.1 0-.3.1-.7.1-.9.1-.3.3-.5.5-.7s.4-.4.7-.5.8-.3 1.1-.3zm0 .7c-.4 0-.7.1-.9.3s-.4.5-.4.9h2.6c0-.2 0-.4-.1-.5s-.1-.3-.2-.4-.2-.2-.4-.3c-.2 0-.4 0-.6 0z"></path>
    <path d="m136.5 174.2c0-.1 0-.1.1-.2 0-.1.1-.1.1-.2.1-.1.1-.1.2-.1.1-.1.1-.1.2-.1s.1 0 .2.1c.1 0 .1.1.2.1.1.1.1.1.1.2.1.1.1.1.1.2s0 .1-.1.2c0 .1-.1.1-.1.2-.1.1-.1.1-.2.1s-.1.1-.2.1-.1 0-.2-.1c-.1 0-.1-.1-.2-.1-.1-.1-.1-.1-.1-.2-.1-.1-.1-.1-.1-.2z"></path>
    <path d="m145.3 167.9v.7h-2.2v6h-.9v-6h-2.2v-.7z"></path>
    <path d="m146.2 174.7v-7h .8v2.8c.2-.2.4-.4.7-.5s.5-.2.9-.2c.3 0 .5.1.7.1s.3.2.5.3c.1.1.2.3.3.6.1.2.1.5.1.7v3h-.8v-3c0-.3-.1-.7-.3-.8-.1-.2-.4-.3-.7-.3s-.5.1-.7.2-.4.3-.6.5v3.5z"></path>
    <path d="m152.6 168.4c0 .1 0 .1-.1.2 0 .1-.1.1-.1.2-.1.1-.1.1-.2.1s-.1.1-.2.1-.1 0-.2-.1-.1-.1-.2-.1c-.1-.1-.1-.1-.1-.2s-.1-.1-.1-.2 0-.1.1-.2c0-.1.1-.1.1-.2.1-.1.1-.1.2-.1s.1-.1.2-.1.1 0 .2.1c.1 0 .1.1.2.1.1.1.1.1.1.2.1.1.1.1.1.2zm-.2 1.5v4.8h-.8v-4.8z"></path>
    <path d="m156.6 170.7c-.1.1-.1.1-.2.1s-.1 0-.1-.1c-.1-.1-.1-.1-.2-.1-.1-.1-.2-.1-.3-.1-.1-.1-.3-.1-.4-.1s-.3 0-.4.1-.2.1-.3.1-.1.1-.2.2-.1.2-.1.3.1.2.1.3c.1.1.1.1.3.2.1.1.3.1.4.1.1.1.3.1.5.1.2.1.3.1.5.2.1.1.3.1.4.2l.3.3c.1.1.1.3.1.5s-.1.4-.1.6c-.1.2-.2.3-.3.5-.1.1-.3.3-.5.3-.2.1-.5.1-.7.1-.3 0-.6-.1-.9-.1-.3-.1-.5-.3-.7-.4l.2-.3c0-.1.1-.1.1-.1h.1s.1 0 .2.1.1.1.2.1c.1.1.2.1.3.1s.3.1.5.1c.1 0 .3 0 .4-.1s.2-.1.3-.2.1-.1.2-.3c.1-.1.1-.2.1-.3s-.1-.3-.1-.3c-.1-.1-.1-.1-.3-.2-.1-.1-.3-.1-.4-.1-.1-.1-.3-.1-.5-.1-.1-.1-.3-.1-.5-.2-.1-.1-.3-.1-.4-.3-.1-.1-.2-.2-.3-.3s-.1-.3-.1-.5.1-.3.1-.5c.1-.1.2-.3.3-.5.1-.1.3-.2.5-.3s.5-.1.7-.1c.3 0 .6.1.9.1.3.1.5.2.7.4z"></path>
    <path d="m159.2 169.9h.7c.1 0 .1 0 .2.1s.1.1.1.1l.9 3.1c0 .1.1.2.1.3s.1.2.1.3c0-.1.1-.2.1-.3s.1-.2.1-.3l1-3.1c0-.1.1-.1.1-.1.1 0 .1-.1.1-.1h.3c.1 0 .1 0 .1.1s.1.1.1.1l1 3.1c.1.1.1.2.1.3s.1.2.1.3c0-.1.1-.2.1-.3s.1-.2.1-.3l.9-3.1c0-.1.1-.1.1-.1s.1-.1.1-.1h.6l-1.6 4.8h-.7c-.1 0-.1-.1-.2-.1l-1.1-3.2c0-.1-.1-.1-.1-.2s0-.1-.1-.2c0 .1 0 .1-.1.2s-.1.1-.1.2l-1.1 3.2c-.1.1-.1.1-.2.1h-.6z"></path>
    <path d="m168.2 168.4c0 .1 0 .1-.1.2 0 .1-.1.1-.1.2-.1.1-.1.1-.2.1s-.1.1-.2.1-.1 0-.2-.1-.1-.1-.2-.1c-.1-.1-.1-.1-.1-.2s-.1-.1-.1-.2 0-.1.1-.2c0-.1.1-.1.1-.2.1-.1.1-.1.2-.1s.1-.1.2-.1.1 0 .2.1c.1 0 .1.1.2.1.1.1.1.1.1.2.1.1.1.1.1.2zm-.2 1.5v4.8h-.8v-4.8z"></path>
    <path d="m170.4 167.7v7h-.8v-7z"></path>
    <path d="m172.9 167.7v7h-.9v-7z"></path>
    <path d="m179.7 174.7h-.4c-.1 0-.1 0-.2-.1-.1 0-.1-.1-.1-.1v-.5c-.1.1-.3.2-.3.3-.1.1-.3.1-.4.2s-.3.1-.4.1-.3.1-.5.1-.3 0-.5-.1-.3-.1-.4-.2-.2-.2-.3-.4c-.1-.1-.1-.3-.1-.5s.1-.4.1-.5c.1-.1.3-.3.5-.5.2-.1.5-.3.9-.3.4-.1.8-.1 1.4-.1v-.4c0-.4-.1-.7-.3-.9-.1-.2-.4-.3-.7-.3-.2 0-.4 0-.5.1s-.3.1-.3.2c-.1.1-.2.1-.3.2s-.1.1-.2.1-.1 0-.1-.1-.1-.1-.1-.1l-.1-.3c.3-.3.5-.5.9-.5.3-.1.7-.2 1-.2s.5.1.7.1c.2.1.4.2.5.3s.3.3.3.5c.1.2.1.5.1.7zm-2.2-.5c.1 0 .3 0 .4-.1.1 0 .3-.1.3-.1.1-.1.2-.1.3-.2s.2-.1.3-.3v-1c-.4 0-.7 0-1 .1s-.5.1-.7.2-.3.2-.3.3c-.1.1-.1.2-.1.3s0 .2.1.3.1.1.1.2c.1.1.1.1.3.1.1.2.2.2.3.2z"></path>
    <path d="m181 176.3v-6.4h.5c.1 0 .2.1.2.2l.1.5c.2-.3.4-.5.7-.6s.5-.2.9-.2c.3 0 .5.1.7.1.2.1.4.3.5.5s.3.5.3.7c.1.3.1.7.1 1.1 0 .3-.1.7-.1 1-.1.3-.2.5-.4.8-.2.2-.4.4-.7.5s-.5.2-.9.2c-.3 0-.5-.1-.7-.1-.2-.1-.4-.2-.5-.4v2.1zm2.1-5.8c-.3 0-.5.1-.7.2s-.4.3-.5.5v2.3c.1.2.3.3.5.5.2.1.4.1.6.1.5 0 .8-.1 1-.5.3-.3.3-.7.3-1.4 0-.3 0-.6-.1-.8s-.1-.4-.3-.5c-.1-.1-.2-.3-.4-.3 0 0-.2-.1-.4-.1z"></path>
    <path d="m186.2 176.3v-6.4h.5c.1 0 .2.1.2.2l.1.5c.2-.3.4-.5.7-.6s.5-.2.9-.2c.3 0 .5.1.7.1.2.1.4.3.5.5s.3.5.3.7c.1.3.1.7.1 1.1 0 .3-.1.7-.1 1-.1.3-.2.5-.4.8-.2.2-.4.4-.7.5s-.5.2-.9.2c-.3 0-.5-.1-.7-.1s-.4-.2-.5-.4v2.1zm2.2-5.8c-.3 0-.5.1-.7.2s-.4.3-.5.5v2.3c.1.2.3.3.5.5.2.1.4.1.6.1.5 0 .8-.1 1-.5.3-.3.3-.7.3-1.4 0-.3 0-.6-.1-.8s-.1-.4-.3-.5c-.1-.1-.2-.3-.4-.3-.1 0-.2-.1-.4-.1z"></path>
    <path d="m193.4 169.8c.3 0 .5.1.8.1s.5.2.6.4c.2.2.3.4.4.7s.1.5.1.9c0 .1 0 .2-.1.3s-.1.1-.1.1h-3.2c0 .3.1.5.1.8.1.2.2.4.3.5s.3.3.5.3c.2.1.4.1.6.1s.4 0 .5-.1.3-.1.4-.1c.1-.1.2-.1.3-.1.1-.1.1-.1.2-.1s.1 0 .1.1l.2.3c-.1.1-.2.2-.4.3s-.3.2-.5.2-.3.1-.5.1-.3.1-.5.1c-.3 0-.6-.1-.9-.1-.3-.1-.5-.3-.7-.5s-.3-.5-.5-.8c-.1-.3-.2-.7-.2-1.1 0-.3.1-.7.1-.9.1-.3.3-.5.5-.7s.4-.4.7-.5c.5-.2.8-.3 1.2-.3zm0 .7c-.4 0-.7.1-.9.3s-.4.5-.4.9h2.6c0-.2 0-.4-.1-.5s-.1-.3-.3-.4c-.1-.1-.2-.2-.4-.3-.2 0-.3 0-.5 0z"></path>
    <path d="m199.9 174.7h-.4c-.1 0-.1 0-.2-.1-.1 0-.1-.1-.1-.1l-.1-.5c-.1.1-.3.2-.3.3-.1.1-.3.1-.4.2s-.3.1-.4.1-.3.1-.5.1-.3 0-.5-.1-.3-.1-.4-.2-.2-.2-.3-.4c-.1-.1-.1-.3-.1-.5s.1-.4.1-.5c.1-.1.3-.3.5-.5.2-.1.5-.3.9-.3.4-.1.8-.1 1.4-.1v-.4c0-.4-.1-.7-.3-.9s-.4-.3-.7-.3c-.2 0-.4 0-.5.1s-.3.1-.3.2c-.1.1-.2.1-.3.2s-.1.1-.2.1-.1 0-.1-.1c-.1 0-.1-.1-.1-.1l-.1-.3c.3-.3.5-.5.9-.5.3-.1.7-.2 1-.2s.5.1.7.1c.2.1.4.2.5.3s.3.3.3.5c.1.2.1.5.1.7zm-2.1-.5c.1 0 .3 0 .4-.1.1 0 .3-.1.3-.1.1-.1.2-.1.3-.2s.2-.1.3-.3v-1c-.4 0-.7 0-1 .1s-.5.1-.7.2-.3.2-.3.3c-.1.1-.1.2-.1.3s0 .2.1.3.1.1.1.2c.1.1.1.1.3.1 0 .2.1.2.3.2z"></path>
    <path d="m201.2 174.7v-4.8h.5c.1 0 .1 0 .2.1s.1.1.1.2l.1.7c.1-.3.3-.6.6-.8s.5-.3.9-.3c.1 0 .3 0 .3.1.1 0 .2.1.3.1l-.1.6c0 .1-.1.1-.1.1-.1 0-.1 0-.2-.1-.1 0-.2-.1-.4-.1-.3 0-.5.1-.7.3s-.3.4-.5.7v3h-1z"></path>
    <path d="m210.4 174.7h-.4c-.1 0-.1 0-.2-.1-.1 0-.1-.1-.1-.1l-.1-.5c-.1.1-.3.2-.3.3-.1.1-.3.1-.4.2s-.3.1-.4.1-.3.1-.5.1-.3 0-.5-.1-.3-.1-.4-.2-.2-.2-.3-.4c-.1-.1-.1-.3-.1-.5s.1-.4.1-.5c.1-.1.3-.3.5-.5.2-.1.5-.3.9-.3.4-.1.8-.1 1.4-.1v-.4c0-.4-.1-.7-.3-.9s-.4-.3-.7-.3c-.2 0-.4 0-.5.1s-.3.1-.3.2c-.1.1-.2.1-.3.2s-.1.1-.2.1-.1 0-.1-.1c-.1 0-.1-.1-.1-.1l-.1-.3c.3-.3.5-.5.9-.5.3-.1.7-.2 1-.2s.5.1.7.1c.2.1.4.2.5.3s.3.3.3.5c.1.2.1.5.1.7zm-2.2-.5c.1 0 .3 0 .4-.1.1 0 .3-.1.3-.1.1-.1.2-.1.3-.2s.2-.1.3-.3v-1c-.4 0-.7 0-1 .1s-.5.1-.7.2-.3.2-.3.3c-.1.1-.1.2-.1.3s0 .2.1.3.1.1.1.2c.1.1.1.1.3.1.1.2.2.2.3.2z"></path>
    <path d="m213.1 174.8c-.4 0-.7-.1-.9-.3s-.3-.5-.3-.9v-2.9h-.6c-.1 0-.1 0-.1-.1-.1 0-.1-.1-.1-.1v-.3l.8-.1.2-1.5c0-.1 0-.1.1-.1s.1-.1.1-.1h.4v1.6h1.4v.6h-1.4v2.9c0 .2.1.3.1.5.1.1.2.1.4.1.1 0 .1 0 .2-.1.1 0 .1-.1.1-.1s.1-.1.1-.1c.1 0 .1-.1.1-.1.1 0 .1 0 .1.1l.3.4c-.1.1-.3.3-.5.3-.1.2-.3.3-.5.3z"></path>
    <path d="m218.5 174.8c-.4 0-.7-.1-.9-.3s-.3-.5-.3-.9v-2.9h-.6c-.1 0-.1 0-.1-.1-.1 0-.1-.1-.1-.1v-.3l.8-.1.2-1.5c0-.1 0-.1.1-.1s.1-.1.1-.1h.4v1.6h1.4v.6h-1.4v2.9c0 .2.1.3.1.5.1.1.2.1.4.1.1 0 .1 0 .2-.1.1 0 .1-.1.1-.1s.1-.1.1-.1c.1 0 .1-.1.1-.1.1 0 .1 0 .1.1l.3.4c-.1.1-.3.3-.5.3-.1.2-.3.3-.5.3z"></path>
    <path d="m220.6 174.7v-7h .8v2.8c.2-.2.4-.4.7-.5s.5-.2.9-.2c.3 0 .5.1.7.1s.3.2.5.3.2.3.3.6c.1.2.1.5.1.7v3h-.8v-3c0-.3-.1-.7-.3-.8-.1-.2-.4-.3-.7-.3s-.5.1-.7.2-.4.3-.6.5v3.5z"></path>
    <path d="m227.7 169.8c.3 0 .5.1.8.1s.5.2.6.4c.2.2.3.4.4.7s.1.5.1.9c0 .1 0 .2-.1.3s-.1.1-.1.1h-3.2c0 .3.1.5.1.8.1.2.2.4.3.5s.3.3.5.3c.2.1.4.1.6.1s.4 0 .5-.1.3-.1.4-.1c.1-.1.2-.1.3-.1.1-.1.1-.1.2-.1s.1 0 .1.1l.2.3c-.1.1-.2.2-.4.3s-.3.2-.5.2-.3.1-.5.1-.3.1-.5.1c-.3 0-.6-.1-.9-.1-.3-.1-.5-.3-.7-.5s-.3-.5-.5-.8-.2-.7-.2-1.1c0-.3.1-.7.1-.9.1-.3.3-.5.5-.7s.4-.4.7-.5c.6-.2.8-.3 1.2-.3zm0 .7c-.4 0-.7.1-.9.3s-.4.5-.4.9h2.6c0-.2 0-.4-.1-.5s-.1-.3-.3-.4c-.1-.1-.2-.2-.4-.3-.1 0-.3 0-.5 0z"></path>
    <path d="m234 174.8c-.4 0-.7-.1-.9-.3s-.3-.5-.3-.9v-2.9h-.6c-.1 0-.1 0-.1-.1-.1 0-.1-.1-.1-.1v-.3l.8-.1.2-1.5c0-.1 0-.1.1-.1s.1-.1.1-.1h.4v1.6h1.4v.6h-1.4v2.9c0 .2.1.3.1.5.1.1.2.1.4.1.1 0 .1 0 .2-.1.1 0 .1-.1.1-.1s.1-.1.1-.1c.1 0 .1-.1.1-.1.1 0 .1 0 .1.1l.3.4c-.1.1-.3.3-.5.3 0 .2-.2.3-.5.3z"></path>
    <path d="m238.1 169.8c.3 0 .7.1.9.2.3.1.5.3.7.5s.3.5.5.8c.1.3.1.7.1 1 0 .4-.1.7-.1 1s-.3.5-.5.7-.4.4-.7.5-.6.2-.9.2-.7-.1-.9-.2c-.3-.1-.5-.3-.7-.5s-.3-.5-.5-.7-.1-.7-.1-1c0-.4.1-.7.1-1 .1-.3.3-.5.5-.8s.4-.4.7-.5c.2-.1.6-.2.9-.2zm0 4.3c.5 0 .8-.1 1.1-.5.2-.3.3-.7.3-1.4 0-.5-.1-1-.3-1.4-.2-.3-.6-.5-1.1-.5-.3 0-.5.1-.6.1-.2.1-.3.2-.5.3s-.2.3-.3.5-.1.5-.1.7c0 .3 0 .5.1.7s.1.4.3.5c.1.1.3.3.5.3.1.7.3.7.6.7z"></path>
    <path d="m241.4 176.3v-6.4h.5c.1 0 .2.1.2.2l.1.5c.2-.3.4-.5.7-.6s.5-.2.9-.2c.3 0 .5.1.7.1.2.1.4.3.5.5s.3.5.3.7c.1.3.1.7.1 1.1 0 .3-.1.7-.1 1-.1.3-.2.5-.4.8-.2.2-.4.4-.7.5s-.5.2-.9.2c-.3 0-.5-.1-.7-.1s-.4-.2-.5-.4v2.1zm2.2-5.8c-.3 0-.5.1-.7.2s-.4.3-.5.5v2.3c.1.2.3.3.5.5.2.1.4.1.6.1.5 0 .8-.1 1-.5.3-.3.3-.7.3-1.4 0-.3 0-.6-.1-.8s-.1-.4-.3-.5c-.1-.1-.2-.3-.4-.3-.1 0-.3-.1-.4-.1z"></path>
    <path d="m250.4 169.8c.3 0 .7.1.9.2.3.1.5.3.7.5s.3.5.5.8c.1.3.1.7.1 1 0 .4-.1.7-.1 1-.1.3-.3.5-.5.7s-.4.4-.7.5-.6.2-.9.2-.7-.1-.9-.2c-.3-.1-.5-.3-.7-.5s-.3-.5-.5-.7-.1-.7-.1-1c0-.4.1-.7.1-1 .1-.3.3-.5.5-.8s.4-.4.7-.5c.2-.1.6-.2.9-.2zm0 4.3c.5 0 .8-.1 1.1-.5.2-.3.3-.7.3-1.4 0-.5-.1-1-.3-1.4s-.6-.5-1.1-.5c-.3 0-.5.1-.6.1-.2.1-.3.2-.5.3s-.2.3-.3.5-.1.5-.1.7c0 .3 0 .5.1.7s.1.4.3.5c.1.1.3.3.5.3.1.7.3.7.6.7z"></path>
    <path d="m253.9 174.7v-4.1l-.5-.1c-.1 0-.1-.1-.1-.1-.1 0-.1-.1-.1-.1v-.3h.7v-.5c0-.3.1-.5.1-.7.1-.2.2-.4.3-.5s.3-.3.5-.3.4-.1.7-.1c.2 0 .4 0 .6.1v.4c0 .1 0 .1-.1.1s-.1 0-.2 0h-.1c-.1 0-.3 0-.4.1s-.2.1-.3.2-.1.2-.2.3-.1.3-.1.5v.5h1.4v.6h-1.4v4.1h-.8z"></path>
    <path d="m260.2 176.1c0 .1-.1.1-.1.1-.1.1-.1.1-.2.1h-.6l.9-1.9-2-4.5h.7c.1 0 .1 0 .2.1s.1.1.1.1l1.3 3c0 .1.1.1.1.2s.1.1.1.2c0-.1.1-.1.1-.2s.1-.1.1-.2l1.2-3c0-.1.1-.1.1-.1.1 0 .1-.1.1-.1h.7z"></path>
    <path d="m265.4 169.8c.3 0 .7.1.9.2.3.1.5.3.7.5s.3.5.5.8c.1.3.1.7.1 1 0 .4-.1.7-.1 1s-.3.5-.5.7-.4.4-.7.5-.6.2-.9.2-.7-.1-.9-.2c-.3-.1-.5-.3-.7-.5s-.3-.5-.5-.7c-.1-.3-.1-.7-.1-1 0-.4.1-.7.1-1 .1-.3.3-.5.5-.8s.4-.4.7-.5.6-.2.9-.2zm0 4.3c.5 0 .8-.1 1.1-.5.2-.3.3-.7.3-1.4 0-.5-.1-1-.3-1.4s-.6-.5-1.1-.5c-.3 0-.5.1-.6.1-.2.1-.3.2-.5.3-.1.1-.2.3-.3.5s-.1.5-.1.7c0 .3 0 .5.1.7s.1.4.3.5c.1.1.3.3.5.3.2.7.4.7.6.7z"></path>
    <path d="m269.5 169.9v3c0 .3.1.7.3.8.1.2.4.3.7.3s.5-.1.7-.2.4-.3.6-.5v-3.5h.8v4.8h-.5c-.1 0-.2-.1-.2-.2l-.1-.5c-.2.2-.5.4-.7.5-.3.1-.5.2-.9.2-.3 0-.5-.1-.7-.1-.2-.1-.3-.2-.5-.3-.1-.1-.3-.3-.3-.5s-.1-.5-.1-.7v-3z"></path>
    <path d="m274 174.7v-4.8h.5c.1 0 .1 0 .2.1s.1.1.1.2l.1.7c.1-.3.3-.6.6-.8s.5-.3.9-.3c.1 0 .3 0 .3.1.1 0 .2.1.3.1l-.1.6c0 .1-.1.1-.1.1-.1 0-.1 0-.2-.1-.1 0-.2-.1-.4-.1-.3 0-.5.1-.7.3s-.3.4-.5.7v3h-1z"></path>
    <path d="m279.6 174.7v-4.8h.5c.1 0 .1 0 .2.1s.1.1.1.2l.1.7c.1-.3.3-.6.6-.8s.5-.3.9-.3c.1 0 .3 0 .3.1.1 0 .2.1.3.1l-.1.6c0 .1-.1.1-.1.1-.1 0-.1 0-.2-.1-.1 0-.2-.1-.4-.1-.3 0-.5.1-.7.3s-.3.4-.5.7v3h-1z"></path>
    <path d="m285.4 169.8c.3 0 .5.1.8.1s.5.2.6.4c.2.2.3.4.4.7s.1.5.1.9c0 .1 0 .2-.1.3s-.1.1-.1.1h-3.1c0 .3.1.5.1.8.1.2.2.4.3.5s.3.3.5.3c.2.1.4.1.6.1s.4 0 .5-.1.3-.1.4-.1c.1-.1.2-.1.3-.1.1-.1.1-.1.2-.1s.1 0 .1.1l.2.3c-.1.1-.2.2-.4.3s-.3.2-.5.2-.3.1-.5.1-.3.1-.5.1c-.3 0-.6-.1-.9-.1-.3-.1-.5-.3-.7-.5s-.3-.5-.5-.8c-.1-.3-.2-.7-.2-1.1 0-.3.1-.7.1-.9.1-.3.3-.5.5-.7s.4-.4.7-.5c.4-.2.8-.3 1.1-.3zm0 .7c-.4 0-.7.1-.9.3s-.4.5-.4.9h2.6c0-.2 0-.4-.1-.5s-.1-.3-.3-.4c-.1-.1-.2-.2-.4-.3s-.3 0-.5 0z"></path>
    <path d="m288.4 176.3v-6.4h.5c.1 0 .2.1.2.2l.1.5c.2-.3.4-.5.7-.6s.5-.2.9-.2c.3 0 .5.1.7.1.2.1.4.3.5.5s.3.5.3.7c.1.3.1.7.1 1.1 0 .3-.1.7-.1 1s-.2.5-.4.8c-.2.2-.4.4-.7.5s-.5.2-.9.2c-.3 0-.5-.1-.7-.1-.2-.1-.4-.2-.5-.4v2.1zm2.2-5.8c-.3 0-.5.1-.7.2s-.4.3-.5.5v2.3c.1.2.3.3.5.5.2.1.4.1.6.1.5 0 .8-.1 1-.5.3-.3.3-.7.3-1.4 0-.3 0-.6-.1-.8s-.1-.4-.3-.5c-.1-.1-.2-.3-.4-.3-.1 0-.3-.1-.4-.1z"></path>
    <path d="m295.6 169.8c.3 0 .7.1.9.2.3.1.5.3.7.5s.3.5.5.8c.1.3.1.7.1 1 0 .4-.1.7-.1 1-.1.3-.3.5-.5.7s-.4.4-.7.5-.6.2-.9.2-.7-.1-.9-.2c-.3-.1-.5-.3-.7-.5s-.3-.5-.5-.7-.1-.7-.1-1c0-.4.1-.7.1-1 .1-.3.3-.5.5-.8s.4-.4.7-.5c.2-.1.6-.2.9-.2zm0 4.3c.5 0 .8-.1 1.1-.5.2-.3.3-.7.3-1.4 0-.5-.1-1-.3-1.4-.2-.3-.6-.5-1.1-.5-.3 0-.5.1-.6.1-.2.1-.3.2-.5.3-.1.1-.2.3-.3.5s-.1.5-.1.7c0 .3 0 .5.1.7s.1.4.3.5c.1.1.3.3.5.3.1.7.3.7.6.7z"></path>
    <path d="m298.9 174.7v-4.8h.5c.1 0 .1 0 .2.1s.1.1.1.2l.1.7c.1-.3.3-.6.6-.8s.5-.3.9-.3c.1 0 .3 0 .3.1.1 0 .2.1.3.1l-.1.6c0 .1-.1.1-.1.1-.1 0-.1 0-.2-.1-.1 0-.2-.1-.4-.1-.3 0-.5.1-.7.3s-.3.4-.5.7v3h-1z"></path>
    <path d="m304.2 174.8c-.4 0-.7-.1-.9-.3s-.3-.5-.3-.9v-2.9h-.6c-.1 0-.1 0-.1-.1-.1 0-.1-.1-.1-.1v-.3l.8-.1.2-1.5c0-.1 0-.1.1-.1s.1-.1.1-.1h.4v1.6h1.4v.6h-1.4v2.9c0 .2.1.3.1.5.1.1.2.1.4.1.1 0 .1 0 .2-.1.1 0 .1-.1.1-.1s.1-.1.1-.1c.1 0 .1-.1.1-.1.1 0 .1 0 .1.1l.3.4c-.1.1-.3.3-.5.3-.1.2-.3.3-.5.3z"></path>
    <path d="m306 174.2c0-.1 0-.1.1-.2 0-.1.1-.1.1-.2.1-.1.1-.1.2-.1.1-.1.1-.1.2-.1s.1 0 .2.1.1.1.2.1.1.1.1.2.1.1.1.2 0 .1-.1.2c0 .1-.1.1-.1.2-.1.1-.1.1-.2.1s-.1.1-.2.1-.1 0-.2-.1c-.1 0-.1-.1-.2-.1s-.1-.1-.1-.2c-.1-.1-.1-.1-.1-.2z"></path>
    <path d="m43.4 241.2c0 .5-.1.9-.3 1.4-.1.4-.4.8-.7 1.1s-.7.5-1.1.7c-.4.1-.9.3-1.4.3h-2.6v-6.8h2.7c.5 0 1 .1 1.4.3.4.1.8.4 1.1.7s.5.7.7 1.1c.1.2.2.7.2 1.2zm-1.3 0c0-.4-.1-.7-.1-1-.1-.3-.3-.5-.4-.7s-.4-.3-.7-.5c-.3-.1-.5-.1-.9-.1h-1.4v4.8h1.4c.3 0 .6-.1.9-.1.3-.1.5-.3.7-.5s.3-.5.4-.7c.1-.5.1-.8.1-1.2z"></path>
    <path d="m46.3 239.7c.3 0 .6.1.8.1.2.1.5.3.7.4s.3.4.4.7.1.6.1.9v.2c0 .1 0 .1-.1.1s-.1.1-.1.1c-.1 0-.1 0-.1 0h-3c .1.5.1.9.4 1.1.2.2.5.3.9.3.2 0 .3 0 .5-.1.1-.1.3-.1.3-.1.1-.1.2-.1.3-.1.1-.1.1-.1.2-.1h.1c.1 0 .1.1.1.1l.3.4c-.1.1-.3.3-.4.4s-.3.2-.5.3-.3.1-.5.1-.3.1-.5.1c-.3 0-.7-.1-.9-.1-.3-.1-.5-.3-.7-.5s-.4-.5-.5-.8-.2-.7-.2-1.2c0-.3.1-.7.1-.9.1-.3.3-.5.5-.7s.5-.4.7-.5c.5-.1.8-.2 1.1-.2zm.1.9c-.3 0-.6.1-.8.3s-.3.5-.3.8h2.2c0-.1 0-.3-.1-.4s-.1-.3-.2-.3c-.1-.1-.2-.2-.3-.3-.2-.1-.4-.1-.5-.1z"></path>
    <path d="m52.3 240.7c0 .1-.1.1-.1.1-.1 0-.1 0-.1 0s-.1 0-.2-.1c-.1 0-.1-.1-.2-.1-.1-.1-.2-.1-.3-.1-.1-.1-.3-.1-.4-.1-.2 0-.4.1-.5.1-.1.1-.2.2-.2.4 0 .1 0 .2.1.3s.1.1.3.2c.1.1.3.1.4.1.1.1.3.1.4.1.1.1.3.1.4.2s.3.1.4.3c.1.1.2.2.3.3s.1.3.1.5-.1.5-.1.7-.2.3-.4.5-.3.3-.6.3c-.3.1-.5.1-.8.1-.1 0-.3 0-.5-.1-.1 0-.3-.1-.5-.1-.1-.1-.3-.1-.4-.2s-.2-.1-.3-.2l.3-.5c.1-.1.1-.1.1-.1.1-.1.1-.1.2-.1s.1 0 .2.1.1.1.2.1c.1.1.2.1.3.1.1.1.3.1.4.1s.3 0 .3-.1c.1 0 .2-.1.3-.1.1-.1.1-.1.1-.2s.1-.1.1-.2-.1-.2-.1-.3c-.1-.1-.1-.1-.3-.2-.1-.1-.3-.1-.4-.1-.1-.1-.3-.1-.5-.1-.1-.1-.3-.1-.5-.2-.1-.1-.3-.1-.4-.3-.1-.1-.2-.2-.3-.4-.1-.1-.1-.3-.1-.5s.1-.4.1-.5c.1-.2.2-.3.3-.5.1-.1.3-.3.5-.3.2-.1.5-.1.8-.1s.6.1.9.1c.3.1.5.3.7.4z"></path>
    <path d="m57 240.8c-.1.1-.1.1-.1.1s-.1.1-.1.1c-.1 0-.1 0-.2-.1s-.1-.1-.2-.1c-.1-.1-.2-.1-.3-.1-.1-.1-.3-.1-.4-.1-.2 0-.4.1-.5.1-.1.1-.3.2-.4.3s-.2.3-.2.5c-.1.2-.1.4-.1.7s0 .5.1.7.1.3.3.5c.1.1.2.3.4.3.1.1.3.1.5.1s.3 0 .5-.1c.1-.1.2-.1.3-.1.1-.1.1-.1.2-.1.1-.1.1-.1.2-.1s.1.1.2.1l.3.4c-.1.1-.3.3-.4.4s-.3.2-.5.3c-.1.1-.3.1-.5.1s-.3.1-.5.1c-.3 0-.6-.1-.9-.1-.3-.1-.5-.3-.7-.5s-.3-.5-.5-.8c-.1-.3-.2-.7-.2-1.1 0-.3.1-.7.1-1 .1-.3.3-.5.5-.8s.5-.4.7-.5c.3-.1.6-.2 1-.2.3 0 .7.1.9.2.3.1.5.3.7.5z"></path>
    <path d="m58 244.6v-4.9h.7c.1 0 .2 0 .3.1s.1.1.1.2l.1.6c.2-.3.4-.5.6-.7.2-.1.5-.3.8-.3s.4.1.6.1l-.1.9c0 .1 0 .1-.1.1 0 0-.1.1-.1.1s-.1 0-.2 0-.2 0-.3 0c-.3 0-.5.1-.6.2-.2.1-.3.3-.5.6v3z"></path>
    <path d="m63.3 238.4c0 .1 0 .2-.1.3s-.1.1-.1.2c-.1.1-.1.1-.3.1-.1 0-.2.1-.3.1s-.2 0-.3-.1-.1-.1-.2-.1c-.1-.1-.1-.1-.1-.2-.1-.1-.1-.2-.1-.3s0-.2.1-.3.1-.2.1-.2c.1-.1.1-.1.2-.1.1-.1.2-.1.3-.1s.2 0 .3.1.2.1.3.1c.1.1.1.1.1.2.1 0 .1.2.1.3zm-.1 1.4v4.9h-1.2v-4.9z"></path>
    <path d="m64.5 246.3v-6.4h.7c.1 0 .1 0 .2.1s.1.1.1.1l.1.5c.2-.2.4-.4.7-.5s.5-.2.9-.2c.3 0 .5.1.7.1.2.1.4.3.5.5s.3.5.3.7c.1.3.1.7.1 1.1 0 .3-.1.7-.1 1s-.3.6-.4.8c-.2.2-.4.4-.7.5s-.5.2-.9.2c-.3 0-.5-.1-.7-.1-.2-.1-.3-.2-.5-.3v2zm2.3-5.6c-.3 0-.5.1-.6.1-.2.1-.3.3-.5.4v2.2c.1.1.3.3.4.3.1.1.3.1.5.1s.3 0 .5-.1c.1-.1.3-.1.3-.3.1-.1.2-.3.2-.5.1-.2.1-.5.1-.7s0-.5-.1-.7-.1-.3-.2-.5-.2-.2-.3-.3c-.2-.1-.2 0-.3 0z"></path>
    <path d="m71.4 244.7c-.4 0-.7-.1-.9-.3-.2-.3-.3-.5-.3-1v-2.7h-.5c-.1 0-.1 0-.1-.1-.1-.1-.1-.1-.1-.2v-.5l.8-.1.3-1.4c0-.1.1-.1.1-.1.1-.1.1-.1.2-.1h.6v1.6h1.3v.8h-1.3v2.6c0 .1.1.3.1.3.1.1.2.1.3.1h.2s.1-.1.1-.1.1-.1.1-.1h.1.1l.1.1.3.5c-.2.1-.3.3-.6.3-.4.3-.6.4-.9.4z"></path>
    <path d="m75 238.4c0 .1 0 .2-.1.3s-.1.1-.1.2c-.1.1-.1.1-.3.1-.1 0-.2.1-.3.1s-.2 0-.3-.1-.1-.1-.2-.1c-.1-.1-.1-.1-.1-.2-.1-.1-.1-.2-.1-.3s0-.2.1-.3.1-.2.1-.2c.1-.1.1-.1.2-.1.1-.1.2-.1.3-.1s.2 0 .3.1.2.1.3.1c.1.1.1.1.1.2 0 0 .1.2.1.3zm-.2 1.4v4.9h-1.2v-4.9z"></path>
    <path d="m78.1 239.7c.3 0 .7.1 1 .2s.5.3.7.5.3.5.5.8c.1.3.2.7.2 1 0 .4-.1.7-.2 1s-.3.5-.5.8c-.2.2-.5.4-.7.5-.3.1-.6.2-1 .2-.3 0-.7-.1-1-.2s-.5-.3-.7-.5-.4-.5-.5-.8-.2-.7-.2-1c0-.4.1-.7.2-1s .3-.5.5-.8c.2-.2.5-.4.7-.5.4-.1.7-.2 1-.2zm0 4.1c.4 0 .7-.1.9-.4s.3-.7.3-1.2-.1-.9-.3-1.2-.5-.4-.9-.4-.7.1-.9.4-.3.7-.3 1.2.1.9.3 1.2c.3.3.5.4.9.4z"></path>
    <path d="m81.5 244.6v-4.9h.7c.1 0 .3.1.3.2l.1.4c.1-.1.2-.2.3-.3s.2-.1.3-.2.3-.1.4-.1.3-.1.5-.1c.3 0 .5.1.7.1.2.1.4.2.5.4s.3.3.3.6c.1.2.1.5.1.7v3.1h-1.2v-3.2c0-.3-.1-.5-.2-.7-.1-.1-.3-.3-.6-.3-.2 0-.4.1-.5.1-.2.1-.3.2-.5.4v3.5z"></path>
    <path d="m89.4 241.7c0 .7.1 1.4.3 2s .4 1.2.7 1.8c0 .1 0 .1.1.1v.1.1c0 .1-.1.1-.1.1l-.4.2c-.2-.3-.4-.7-.6-1.1-.1-.3-.3-.7-.4-1.1-.1-.3-.2-.7-.2-1.1s-.1-.7-.1-1.2 0-.7.1-1.2c.1-.3.1-.7.2-1.1.1-.3.3-.7.4-1.1.1-.3.3-.7.6-1.1l.4.2c.1 0 .1.1.1.1s0 .1 0 .1c0 .1 0 .1-.1.1-.3.5-.6 1.2-.7 1.8-.2.9-.3 1.6-.3 2.3z"></path>
    <path d="m93.4 239.8c.3 0 .7.1.9.2.3.1.5.3.7.5s.3.5.5.8c.1.3.1.7.1 1 0 .4-.1.7-.1 1-.1.3-.3.5-.5.7s-.4.4-.7.5-.6.2-.9.2-.7-.1-.9-.2c-.3-.1-.5-.3-.7-.5s-.3-.5-.5-.7c-.1-.3-.1-.7-.1-1 0-.4.1-.7.1-1 .1-.3.3-.5.5-.8s.4-.4.7-.5c.2-.2.5-.2.9-.2zm0 4.2c.5 0 .8-.1 1.1-.5.2-.3.3-.7.3-1.4 0-.5-.1-1-.3-1.4s-.6-.5-1.1-.5c-.3 0-.5.1-.6.1-.2.1-.3.2-.5.3s-.2.3-.3.5-.1.5-.1.7c0 .3 0 .5.1.7s.1.4.3.5c.1.1.3.3.5.3.2.7.4.7.6.7z"></path>
    <path d="m96.7 246.3v-6.4h.5c.1 0 .2.1.2.2l.1.5c.2-.3.4-.5.7-.6s.5-.2.9-.2c.3 0 .5.1.7.1.2.1.4.3.5.5s.3.5.3.7c.1.3.1.7.1 1.1 0 .3-.1.7-.1 1-.1.3-.2.5-.4.8-.2.2-.4.4-.7.5s-.5.2-.9.2c-.3 0-.5-.1-.7-.1-.2-.1-.4-.2-.5-.4v2.1zm2.1-5.9c-.3 0-.5.1-.7.2s-.4.3-.5.5v2.3c.1.2.3.3.5.5.2.1.4.1.6.1.5 0 .8-.1 1-.5.3-.3.3-.7.3-1.4 0-.3 0-.6-.1-.8s-.1-.4-.3-.5c-.1-.1-.2-.3-.4-.3 0-.1-.2-.1-.4-.1z"></path>
    <path d="m103.4 244.7c-.4 0-.7-.1-.9-.3s-.3-.5-.3-.9v-2.9h-.5c-.1 0-.1 0-.1-.1-.1 0-.1-.1-.1-.1v-.4l.8-.1.2-1.5c0-.1 0-.1.1-.1s.1-.1.1-.1h.4v1.6h1.4v.6h-1.5v2.9c0 .2.1.3.1.5.1.1.2.1.4.1.1 0 .1 0 .2-.1.1 0 .1-.1.1-.1s.1-.1.1-.1l.1-.1c.1 0 .1 0 .1.1l.3.4c-.1.1-.3.3-.5.3-.1.3-.3.4-.5.4z"></path>
    <path d="m106.6 238.4c0 .1 0 .1-.1.2 0 .1-.1.1-.1.2-.1.1-.1.1-.2.1s-.1.1-.2.1-.1 0-.2-.1-.1-.1-.2-.1c-.1-.1-.1-.1-.1-.2s-.1-.1-.1-.2 0-.1.1-.2c0-.1.1-.1.1-.2.1-.1.1-.1.2-.1s.1-.1.2-.1.1 0 .2.1c.1 0 .1.1.2.1.1.1.1.1.1.2.1 0 .1.1.1.2zm-.2 1.4v4.8h-.8v-4.8z"></path>
    <path d="m109.9 239.8c.3 0 .7.1.9.2.3.1.5.3.7.5s.3.5.5.8c.1.3.1.7.1 1 0 .4-.1.7-.1 1-.1.3-.3.5-.5.7s-.4.4-.7.5-.6.2-.9.2-.7-.1-.9-.2c-.3-.1-.5-.3-.7-.5s-.3-.5-.5-.7c-.1-.3-.1-.7-.1-1 0-.4.1-.7.1-1 .1-.3.3-.5.5-.8s.4-.4.7-.5c.2-.2.5-.2.9-.2zm0 4.2c.5 0 .8-.1 1.1-.5.2-.3.3-.7.3-1.4 0-.5-.1-1-.3-1.4s-.6-.5-1.1-.5c-.3 0-.5.1-.6.1-.2.1-.3.2-.5.3s-.2.3-.3.5-.1.5-.1.7c0 .3 0 .5.1.7s.1.4.3.5c.1.1.3.3.5.3.1.7.3.7.6.7z"></path>
    <path d="m113.2 244.6v-4.8h.5c.1 0 .2.1.2.2l.1.5c.2-.2.5-.4.7-.5s.5-.2.9-.2c.3 0 .5.1.7.1.2.1.3.2.5.3s.2.3.3.6c.1.2.1.5.1.7v3h-.8v-3c0-.3-.1-.7-.3-.8-.1-.2-.4-.3-.7-.3s-.5.1-.7.2-.4.3-.6.5v3.5h-.8v0z"></path>
    <path d="m122 244.6h-.4c-.1 0-.1 0-.2-.1-.1 0-.1-.1-.1-.1l-.1-.5c-.1.1-.3.2-.3.3-.1.1-.3.1-.4.2s-.3.1-.4.1-.3.1-.5.1-.3 0-.5-.1-.3-.1-.4-.2-.2-.2-.3-.4c-.1-.1-.1-.3-.1-.5s.1-.4.1-.5.3-.3.5-.5.5-.3.9-.3c.4-.1.8-.1 1.4-.1v-.4c0-.4-.1-.7-.3-.9-.1-.2-.4-.3-.7-.3-.2 0-.4 0-.5.1s-.3.1-.3.2c-.1.1-.2.1-.3.2s-.1.1-.2.1-.1 0-.1-.1-.1-.1-.1-.1l-.1-.3c.3-.3.5-.5.9-.5.3-.1.7-.2 1-.2s.5.1.7.1c.2.1.4.2.5.3s.3.3.3.5c.1.2.1.5.1.7zm-2.2-.5c.1 0 .3 0 .4-.1.1 0 .3-.1.3-.1.1-.1.2-.1.3-.2s.2-.1.3-.3v-1c-.4 0-.7 0-1 .1s-.5.1-.7.2-.3.2-.3.3c-.1.1-.1.2-.1.3s0 .2.1.3.1.1.1.2c.1.1.1.1.3.1.1.2.2.2.3.2z"></path>
    <path d="m124.2 237.7v7h-.8v-7z"></path>
    <path d="m126.4 241.7c0-.7-.1-1.4-.3-2s-.4-1.2-.7-1.8c0-.1-.1-.1-.1-.1 0-.1 0-.1 0-.1 0-.1.1-.1.1-.1l.4-.2c.3.3.4.7.6 1.1.1.3.3.7.4 1.1.1.3.2.7.2 1.1.1.3.1.7.1 1.2s0 .7-.1 1.2c-.1.3-.1.7-.2 1.1-.1.3-.3.7-.4 1.1-.1.3-.3.7-.6 1.1l-.4-.2c-.1 0-.1-.1-.1-.1s0-.1 0-.1v-.1s0-.1.1-.1c.3-.6.6-1.2.7-1.8.2-1 .3-1.7.3-2.3z"></path>
    <path d="m39.8 264.9v2.7h-.9v-2.7l-2.5-4.1h.8c.1 0 .1 0 .2.1s.1.1.1.1l1.6 2.6c.1.1.1.2.1.3.1.1.1.2.1.3.1-.1.1-.2.1-.3.1-.1.1-.2.1-.3l1.6-2.6c0-.1.1-.1.1-.1.1-.1.1-.1.2-.1h.8z"></path>
    <path d="m44.2 262.7c.3 0 .7.1.9.2.3.1.5.3.7.5s.3.5.5.8c.1.3.1.7.1 1 0 .4-.1.7-.1 1-.1.3-.3.5-.5.7s-.4.4-.7.5-.6.2-.9.2-.7-.1-.9-.2c-.3-.1-.5-.3-.7-.5s-.3-.5-.5-.7c-.1-.3-.1-.7-.1-1 0-.4.1-.7.1-1 .1-.3.3-.5.5-.8s.4-.4.7-.5.5-.2.9-.2zm0 4.3c.5 0 .8-.1 1.1-.5.2-.3.3-.7.3-1.4 0-.5-.1-1-.3-1.4-.2-.3-.6-.5-1.1-.5-.3 0-.5.1-.6.1-.2.1-.3.2-.5.3-.1.1-.2.3-.3.5s-.1.5-.1.7c0 .3 0 .5.1.7s.1.4.3.5.3.3.5.3c.2.7.4.7.6.7z"></path>
    <path d="m48.2 262.8v3c0 .3.1.7.3.8.1.2.4.3.7.3s.5-.1.7-.2.4-.3.6-.5v-3.5h.8v4.8h-.5c-.1 0-.2-.1-.2-.2l-.1-.5c-.2.2-.5.4-.7.5-.3.1-.5.2-.9.2-.3 0-.5-.1-.7-.1-.2-.1-.3-.2-.5-.3-.1-.1-.3-.3-.3-.5-.1-.2-.1-.5-.1-.7v-3z"></path>
    <path d="m57.9 263.7h0c-.1.1-.1.1-.2.1s-.1 0-.1-.1c-.1-.1-.1-.1-.2-.1-.1-.1-.2-.1-.3-.1-.1-.1-.3-.1-.5-.1s-.5.1-.6.1c-.2.1-.3.2-.5.3-.1.1-.2.3-.3.5s-.1.5-.1.7 0 .5.1.7.1.4.3.5.3.3.4.3c.2.1.3.1.6.1.2 0 .4 0 .5-.1s.3-.1.3-.1c.1-.1.1-.1.2-.1.1-.1.1-.1.2-.1s.1 0 .1.1l.3.3c-.2.3-.5.5-.8.5-.3.1-.6.2-1 .2-.3 0-.6-.1-.8-.1-.3-.1-.5-.3-.7-.5s-.3-.5-.5-.7c-.1-.3-.1-.7-.1-1s .1-.7.1-1c .1-.3.3-.5.4-.8.2-.2.4-.4.7-.5s.6-.2.9-.2.6.1.9.1c.3.1.5.3.7.5z"></path>
    <path d="m62.6 267.6h-.4c-.1 0-.1 0-.2-.1-.1 0-.1-.1-.1-.1l-.1-.5c-.1.1-.3.2-.3.3-.1.1-.3.1-.4.2s-.3.1-.4.1-.3.1-.5.1-.3 0-.5-.1-.3-.1-.4-.2-.2-.2-.3-.4c-.1-.1-.1-.3-.1-.5s.1-.4.1-.5l.5-.5c.2-.1.5-.3.9-.3.4-.1.8-.1 1.4-.1v-.4c0-.4-.1-.7-.3-.9-.1-.2-.4-.3-.7-.3-.2 0-.4 0-.5.1s-.3.1-.3.2c-.1.1-.2.1-.3.2s-.1.1-.2.1-.1 0-.1-.1-.1-.1-.1-.1l-.1-.3c.3-.3.5-.5.9-.5.3-.1.7-.2 1-.2s.5.1.7.1c.2.1.4.2.5.3s.3.3.3.5.1.5.1.7zm-2.2-.5c.1 0 .3 0 .4-.1.1 0 .3-.1.3-.1.1-.1.2-.1.3-.2s.2-.1.3-.3v-1c-.4 0-.7 0-1 .1s-.5.1-.7.2-.3.2-.3.3c-.1.1-.1.2-.1.3s0 .2.1.3.1.1.1.2c.1.1.1.1.3.1 0 .2.2.2.3.2z"></path>
    <path d="m63.9 267.6v-4.8h.5c.1 0 .2.1.2.2l.1.5c.2-.2.5-.4.7-.5s.5-.2.9-.2c.3 0 .5.1.7.1.2.1.3.2.5.3.1.1.2.3.3.6.1.2.1.5.1.7v3h-.9v-3.1c0-.3-.1-.7-.3-.8-.1-.2-.4-.3-.7-.3s-.5.1-.7.2-.4.3-.6.5v3.5z"></path>
    <path d="m74.5 267.6h-.4c-.1 0-.1 0-.2-.1-.1 0-.1-.1-.1-.1l-.1-.5c-.1.1-.3.2-.3.3-.1.1-.3.1-.4.2s-.3.1-.4.1-.3.1-.5.1-.3 0-.5-.1-.3-.1-.4-.2-.2-.2-.3-.4c-.1-.1-.1-.3-.1-.5s.1-.4.1-.5l.5-.5c.2-.1.5-.3.9-.3.4-.1.8-.1 1.4-.1v-.4c0-.4-.1-.7-.3-.9-.1-.2-.4-.3-.7-.3-.2 0-.4 0-.5.1s-.3.1-.3.2c-.1.1-.2.1-.3.2s-.1.1-.2.1-.1 0-.1-.1-.1-.1-.1-.1l-.1-.3c.3-.3.5-.5.9-.5.3-.1.7-.2 1-.2s.5.1.7.1c.2.1.4.2.5.3s.3.3.3.5.1.5.1.7zm-2.2-.5c.1 0 .3 0 .4-.1.1 0 .3-.1.3-.1.1-.1.2-.1.3-.2s.2-.1.3-.3v-1c-.4 0-.7 0-1 .1s-.5.1-.7.2-.3.2-.3.3c-.1.1-.1.2-.1.3s0 .2.1.3.1.1.1.2.1.1.3.1c.1.2.2.2.3.2z"></path>
    <path d="m79.2 267.6c-.1 0-.2-.1-.2-.2l-.1-.6c-.2.3-.4.5-.7.6s-.5.2-.9.2c-.3 0-.5-.1-.7-.1-.2-.1-.4-.3-.5-.5s-.3-.5-.3-.7c-.1-.3-.1-.7-.1-1.1 0-.3.1-.7.1-1 .1-.3.2-.5.4-.8.2-.2.4-.4.7-.5s.5-.2.9-.2c.3 0 .5.1.7.1.2.1.4.3.5.4v-2.6h.8v7zm-1.7-.6c.3 0 .5-.1.7-.2s.4-.3.5-.5v-2.3c-.1-.2-.3-.3-.5-.4s-.4-.1-.6-.1c-.5 0-.8.1-1 .5-.3.3-.3.7-.3 1.4 0 .3 0 .6.1.8s.1.4.3.5.2.3.4.3z"></path>
    <path d="m84.4 267.6c-.1 0-.2-.1-.2-.2l-.1-.6c-.2.3-.4.5-.7.6s-.5.2-.9.2c-.3 0-.5-.1-.7-.1-.2-.1-.4-.3-.5-.5s-.3-.5-.3-.7c-.1-.3-.1-.7-.1-1.1 0-.3.1-.7.1-1 .1-.3.2-.5.4-.8.2-.2.4-.4.7-.5s.5-.2.9-.2c.3 0 .5.1.7.1.2.1.4.3.5.4v-2.6h.8v7zm-1.6-.6c.3 0 .5-.1.7-.2s.4-.3.5-.5v-2.3c-.1-.2-.3-.3-.5-.4s-.4-.1-.6-.1c-.5 0-.8.1-1 .5-.3.3-.3.7-.3 1.4 0 .3 0 .6.1.8s.1.4.3.5c.1.1.2.3.4.3z"></path>
    <path d="m91.7 267.6h-.4c-.1 0-.1 0-.2-.1-.1 0-.1-.1-.1-.1l-.1-.5c-.1.1-.3.2-.3.3-.1.1-.3.1-.4.2s-.3.1-.4.1-.3.1-.5.1-.3 0-.5-.1-.3-.1-.4-.2-.2-.2-.3-.4c-.1-.1-.1-.3-.1-.5s.1-.4.1-.5l.5-.5c.2-.1.5-.3.9-.3.4-.1.8-.1 1.4-.1v-.4c0-.4-.1-.7-.3-.9-.1-.2-.4-.3-.7-.3-.2 0-.4 0-.5.1s-.3.1-.3.2c-.1.1-.2.1-.3.2s-.1.1-.2.1-.1 0-.1-.1-.1-.1-.1-.1l-.1-.3c.3-.3.5-.5.9-.5.3-.1.7-.2 1-.2s.5.1.7.1c.2.1.4.2.5.3s.3.3.3.5.1.5.1.7zm-2.2-.5c.1 0 .3 0 .4-.1.1 0 .3-.1.3-.1.1-.1.2-.1.3-.2s.2-.1.3-.3v-1c-.4 0-.7 0-1 .1s-.5.1-.7.2-.3.2-.3.3c-.1.1-.1.2-.1.3s0 .2.1.3.1.1.1.2c.1.1.1.1.3.1.1.2.2.2.3.2z"></path>
    <path d="m98.2 267.6c-.1 0-.2-.1-.2-.2l-.1-.6c-.2.3-.4.5-.7.6s-.5.2-.9.2c-.3 0-.5-.1-.7-.1-.2-.1-.4-.3-.5-.5s-.3-.5-.3-.7c-.1-.3-.1-.7-.1-1.1 0-.3.1-.7.1-1 .1-.3.2-.5.4-.8.2-.2.4-.4.7-.5s.5-.2.9-.2c.3 0 .5.1.7.1.2.1.4.3.5.4v-2.6h.8v7zm-1.7-.6c.3 0 .5-.1.7-.2s.4-.3.5-.5v-2.3c-.1-.2-.3-.3-.5-.4s-.4-.1-.6-.1c-.5 0-.8.1-1 .5-.3.3-.3.7-.3 1.4 0 .3 0 .6.1.8s.1.4.3.5.2.3.4.3z"></path>
    <path d="m102 262.7c.3 0 .5.1.8.1.3.1.5.2.6.4.2.2.3.4.4.7s.1.5.1.9c0 .1 0 .2-.1.3s-.1.1-.1.1h-3.2c0 .3.1.5.1.8.1.2.2.4.3.5s.3.3.5.3c.2.1.4.1.6.1s.4 0 .5-.1.3-.1.4-.1c.1-.1.2-.1.3-.1.1-.1.1-.1.2-.1s.1 0 .1.1l.3.3c-.1.1-.2.2-.4.3-.1.1-.3.2-.5.2s-.3.1-.5.1-.3.1-.5.1c-.3 0-.6-.1-.9-.1-.3-.1-.5-.3-.7-.5s-.3-.5-.5-.8c-.1-.3-.2-.7-.2-1.1 0-.3.1-.7.1-.9.1-.3.3-.5.5-.7s.4-.4.7-.5c.3 0 .7-.3 1.1-.3zm0 .7c-.4 0-.7.1-.9.3s-.4.5-.4.9h2.6c0-.2 0-.4-.1-.5s-.1-.3-.2-.4-.2-.2-.4-.3c-.2 0-.4 0-.6 0z"></path>
    <path d="m107.8 263.6c-.1.1-.1.1-.2.1s-.1 0-.1-.1c-.1-.1-.1-.1-.2-.1-.1-.1-.2-.1-.3-.1-.1-.1-.3-.1-.4-.1s-.3 0-.4.1-.2.1-.3.1c-.1.1-.1.1-.2.2s-.1.2-.1.3.1.2.1.3c.1.1.1.1.3.2s.3.1.4.1c.1.1.3.1.5.1.2.1.3.1.5.2.1.1.3.1.4.2l.3.3c.1.1.1.3.1.5s-.1.4-.1.6c-.1.2-.2.3-.3.5-.1.1-.3.3-.5.3-.2.1-.5.1-.7.1-.3 0-.6-.1-.9-.1-.3-.1-.5-.3-.7-.4l.2-.3c0-.1.1-.1.1-.1h.1s.1 0 .2.1.1.1.2.1c.1.1.2.1.3.1s.3.1.5.1c.1 0 .3 0 .4-.1s.2-.1.3-.2.1-.1.2-.3c.1-.1.1-.2.1-.3s-.1-.3-.1-.3c-.1-.1-.1-.1-.3-.2s-.3-.1-.4-.1c-.1-.1-.3-.1-.5-.1-.1-.1-.3-.1-.5-.2-.1-.1-.3-.1-.4-.3-.1-.1-.2-.2-.3-.3s-.1-.3-.1-.5.1-.3.1-.5c.1-.1.2-.3.3-.5.1-.1.3-.2.5-.3s.5-.1.7-.1c.3 0 .6.1.9.1.3.1.5.2.7.4z"></path>
    <path d="m112.4 263.7v0c-.1.1-.1.1-.2.1s-.1 0-.1-.1c-.1-.1-.1-.1-.2-.1-.1-.1-.2-.1-.3-.1s-.3-.1-.5-.1-.5.1-.6.1c-.2.1-.3.2-.5.3-.1.1-.2.3-.3.5s-.1.5-.1.7 0 .5.1.7.1.4.3.5c.1.1.3.3.4.3.2.1.3.1.6.1.2 0 .4 0 .5-.1s.3-.1.3-.1c.1-.1.1-.1.2-.1.1-.1.1-.1.2-.1s.1 0 .1.1l.3.3c-.2.3-.5.5-.8.5-.3.1-.6.2-1 .2-.3 0-.6-.1-.8-.1-.3-.1-.5-.3-.7-.5s-.3-.5-.5-.7c-.1-.3-.1-.7-.1-1s .1-.7.1-1c .1-.3.3-.5.4-.8.2-.2.4-.4.7-.5s.6-.2.9-.2.6.1.9.1c.3.1.5.3.7.5z"></path>
    <path d="m113.6 267.6v-4.8h.5c.1 0 .1 0 .2.1s.1.1.1.2l.1.7c.1-.3.3-.6.6-.8s.5-.3.9-.3c.1 0 .3 0 .3.1s.2.1.3.1l-.1.6c0 .1-.1.1-.1.1-.1 0-.1 0-.2-.1-.1 0-.2-.1-.4-.1-.3 0-.5.1-.7.3s-.3.4-.5.7v3h-1z"></path>
    <path d="m118.5 261.3c0 .1 0 .1-.1.2 0 .1-.1.1-.1.2-.1.1-.1.1-.2.1s-.1.1-.2.1-.1 0-.2-.1-.1-.1-.2-.1c-.1-.1-.1-.1-.1-.2s-.1-.1-.1-.2 0-.1.1-.2c0-.1.1-.1.1-.2.1-.1.1-.1.2-.1s.1-.1.2-.1.1 0 .2.1c.1 0 .1.1.2.1.1.1.1.1.1.2.1.1.1.1.1.2zm-.2 1.5v4.8h-.8v-4.8z"></path>
    <path d="m119.8 269.2v-6.4h.5c.1 0 .2.1.2.2l.1.5c.2-.3.4-.5.7-.6s.5-.2.9-.2c.3 0 .5.1.7.1.2.1.4.3.5.5s.3.5.3.7c.1.3.1.7.1 1.1 0 .3-.1.7-.1 1-.1.3-.2.5-.4.8-.2.2-.4.4-.7.5s-.5.2-.9.2c-.3 0-.5-.1-.7-.1s-.4-.2-.5-.4v2.1zm2.2-5.8c-.3 0-.5.1-.7.2s-.4.3-.5.5v2.3c.1.2.3.3.5.5.2.1.4.1.6.1.5 0 .8-.1 1-.5.3-.3.3-.7.3-1.4 0-.3 0-.6-.1-.8s-.1-.4-.3-.5-.2-.3-.4-.3c-.1 0-.2-.1-.4-.1z"></path>
    <path d="m126.5 267.7c-.4 0-.7-.1-.9-.3s-.3-.5-.3-.9v-2.9h-.6c-.1 0-.1 0-.1-.1-.1 0-.1-.1-.1-.1v-.4l.8-.1.2-1.5c0-.1 0-.1.1-.1s.1-.1.1-.1h.4v1.6h1.4v.6h-1.4v2.9c0 .2.1.3.1.5.1.1.2.1.4.1.1 0 .1 0 .2-.1.1 0 .1-.1.1-.1s.1-.1.1-.1l.1-.1c.1 0 .1 0 .1.1l.3.4c-.1.1-.3.3-.5.3s-.3.4-.5.4z"></path>
    <path d="m129.7 261.3c0 .1 0 .1-.1.2 0 .1-.1.1-.1.2s-.1.1-.2.1-.1.1-.2.1-.1 0-.2-.1-.1-.1-.2-.1c-.1-.1-.1-.1-.1-.2s-.1-.1-.1-.2 0-.1.1-.2c0-.1.1-.1.1-.2.1-.1.1-.1.2-.1s.1-.1.2-.1.1 0 .2.1c.1 0 .1.1.2.1.1.1.1.1.1.2.1.1.1.1.1.2zm-.1 1.5v4.8h-.9v-4.8z"></path>
    <path d="m132.9 262.7c.3 0 .7.1.9.2.3.1.5.3.7.5s.3.5.5.8c.1.3.1.7.1 1 0 .4-.1.7-.1 1-.1.3-.3.5-.5.7s-.4.4-.7.5-.6.2-.9.2-.7-.1-.9-.2-.5-.3-.7-.5-.3-.5-.5-.7c-.1-.3-.1-.7-.1-1 0-.4.1-.7.1-1 .1-.3.3-.5.5-.8s.4-.4.7-.5.6-.2.9-.2zm0 4.3c.5 0 .8-.1 1.1-.5.2-.3.3-.7.3-1.4 0-.5-.1-1-.3-1.4-.2-.3-.6-.5-1.1-.5-.3 0-.5.1-.6.1-.2.1-.3.2-.5.3-.1.1-.2.3-.3.5s-.1.5-.1.7c0 .3 0 .5.1.7s.1.4.3.5c.1.1.3.3.5.3.2.7.4.7.6.7z"></path>
    <path d="m136.3 267.6v-4.8h.5c.1 0 .2.1.2.2l.1.5c.2-.2.5-.4.7-.5s.5-.2.9-.2c.3 0 .5.1.7.1.2.1.3.2.5.3.1.1.2.3.3.6.1.2.1.5.1.7v3h-.8v-3.1c0-.3-.1-.7-.3-.8-.1-.2-.4-.3-.7-.3s-.5.1-.7.2-.4.3-.6.5v3.5z"></path>
    <path d="m144.5 261.3c0 .1 0 .1-.1.2 0 .1-.1.1-.1.2s-.1.1-.2.1-.1.1-.2.1-.1 0-.2-.1-.1-.1-.2-.1c-.1-.1-.1-.1-.1-.2s-.1-.1-.1-.2 0-.1.1-.2c0-.1.1-.1.1-.2s.1-.1.2-.1.1-.1.2-.1.1 0 .2.1c.1 0 .1.1.2.1.1.1.1.1.1.2.1.1.1.1.1.2zm-.2 1.5v4.8h-.8v-4.8z"></path>
    <path d="m146 267.6v-4.1l-.5-.1c-.1 0-.1-.1-.1-.1s-.1-.1-.1-.1v-.3h.7v-.5c0-.3.1-.5.1-.7.1-.2.2-.4.3-.5s.3-.3.5-.3c.2-.1.4-.1.7-.1.2 0 .4 0 .6.1v.4c0 .1 0 .1-.1.1s-.1 0-.2 0h-.1c-.1 0-.3 0-.4.1s-.2.1-.3.2-.1.2-.2.3-.1.3-.1.5v.5h1.4v.6h-1.2v4.1z"></path>
    <path d="m152.2 269c0 .1-.1.1-.1.1-.1.1-.1.1-.2.1h-.6l.9-1.9-2-4.5h.7c.1 0 .1 0 .2.1s.1.1.1.1l1.3 3c0 .1.1.1.1.2s.1.1.1.2c0-.1.1-.1.1-.2s.1-.1.1-.2l1.2-3c0-.1.1-.1.1-.1.1 0 .1-.1.1-.1h.7z"></path>
    <path d="m157.5 262.7c.3 0 .7.1.9.2.3.1.5.3.7.5s.3.5.5.8c.1.3.1.7.1 1 0 .4-.1.7-.1 1-.1.3-.3.5-.5.7s-.4.4-.7.5-.6.2-.9.2-.7-.1-.9-.2-.5-.3-.7-.5-.3-.5-.5-.7c-.1-.3-.1-.7-.1-1 0-.4.1-.7.1-1 .1-.3.3-.5.5-.8s.4-.4.7-.5c.2-.1.6-.2.9-.2zm0 4.3c.5 0 .8-.1 1.1-.5.2-.3.3-.7.3-1.4 0-.5-.1-1-.3-1.4s-.6-.5-1.1-.5c-.3 0-.5.1-.6.1-.2.1-.3.2-.5.3-.1.1-.2.3-.3.5s-.1.5-.1.7c0 .3 0 .5.1.7s.1.4.3.5c.1.1.3.3.5.3.1.7.3.7.6.7z"></path>
    <path d="m161.6 262.8v3c0 .3.1.7.3.8.1.2.4.3.7.3s.5-.1.7-.2.4-.3.6-.5v-3.5h.8v4.8h-.5c-.1 0-.2-.1-.2-.2l-.1-.5c-.2.2-.5.4-.7.5-.3.1-.5.2-.9.2-.3 0-.5-.1-.7-.1-.2-.1-.3-.2-.5-.3-.1-.1-.3-.3-.3-.5-.1-.2-.1-.5-.1-.7v-3z"></path>
    <path d="m166.7 260.5c.1.1.1.3.2.5.1.1.1.3.1.5 0 .3-.1.5-.2.8s-.3.5-.6.7l-.3-.1s-.1 0-.1-.1 0-.1 0-.1c0-.1 0-.1.1-.1.1-.1.1-.1.1-.2.1-.1.1-.1.1-.2.1-.1.1-.1.1-.3s0-.2 0-.3 0-.2-.1-.3c0-.1-.1-.2-.1-.3s0-.1 0-.1.1-.1.1-.1z"></path>
    <path d="m171 267.6c-.1 0-.2-.1-.2-.2l-.1-.6c-.2.3-.4.5-.7.6s-.5.2-.9.2c-.3 0-.5-.1-.7-.1-.2-.1-.4-.3-.5-.5s-.3-.5-.3-.7c-.1-.3-.1-.7-.1-1.1 0-.3.1-.7.1-1 .1-.3.2-.5.4-.8.2-.2.4-.4.7-.5s.5-.2.9-.2c.3 0 .5.1.7.1.2.1.4.3.5.4v-2.6h.8v7zm-1.6-.6c.3 0 .5-.1.7-.2s.4-.3.5-.5v-2.3c-.1-.2-.3-.3-.5-.4s-.4-.1-.6-.1c-.5 0-.8.1-1 .5-.3.3-.3.7-.3 1.4 0 .3 0 .6.1.8s.1.4.3.5c.1.1.2.3.4.3z"></path>
    <path d="m175.7 260.6v7h-.8v-7z"></path>
    <path d="m178.3 261.3c0 .1 0 .1-.1.2 0 .1-.1.1-.1.2-.1.1-.1.1-.2.1s-.1.1-.2.1-.1 0-.2-.1-.1-.1-.2-.1c-.1-.1-.1-.1-.1-.2s-.1-.1-.1-.2 0-.1.1-.2c0-.1.1-.1.1-.2.1-.1.1-.1.2-.1s.1-.1.2-.1.1 0 .2.1c.1 0 .1.1.2.1.1.1.1.1.1.2.1.1.1.1.1.2zm-.2 1.5v4.8h-.8v-4.8z"></path>
    <path d="m180.5 260.6v4.1h.2.1s.1-.1.1-.1l1.5-1.6c.1-.1.1-.1.1-.1.1 0 .1-.1.2-.1h.7l-1.8 1.9c-.1.1-.1.1-.1.1-.1.1-.1.1-.1.1.1.1.1.1.1.1 0 .1.1.1.1.1l1.9 2.4h-.5c-.1 0-.1 0-.2-.1-.1 0-.1-.1-.1-.1l-1.6-2c-.1-.1-.1-.1-.1-.1-.1 0-.1 0-.2 0h-.2v2.3h-.9v-7h .8z"></path>
    <path d="m186.2 262.7c.3 0 .5.1.8.1s.5.2.6.4c.2.2.3.4.4.7s.1.5.1.9c0 .1 0 .2-.1.3s-.1.1-.1.1h-3.2c0 .3.1.5.1.8.1.2.2.4.3.5s.3.3.5.3c.2.1.4.1.6.1s.4 0 .5-.1.3-.1.4-.1c.1-.1.2-.1.3-.1.1-.1.1-.1.2-.1s.1 0 .1.1l.2.3c-.1.1-.2.2-.4.3s-.3.2-.5.2-.3.1-.5.1-.3.1-.5.1c-.3 0-.6-.1-.9-.1-.3-.1-.5-.3-.7-.5s-.3-.5-.5-.8c-.1-.3-.2-.7-.2-1.1 0-.3.1-.7.1-.9.1-.3.3-.5.5-.7s.4-.4.7-.5c.6-.2.9-.3 1.2-.3zm.1.7c-.4 0-.7.1-.9.3s-.4.5-.4.9h2.6c0-.2 0-.4-.1-.5s-.1-.3-.3-.4c-.1-.1-.2-.2-.4-.3-.2 0-.4 0-.5 0z"></path>
    <path d="m189 267.1c0-.1 0-.1.1-.2 0-.1.1-.1.1-.2.1-.1.1-.1.2-.1s.1-.1.2-.1.1 0 .2.1.1.1.2.1c.1.1.1.1.1.2s.1.1.1.2 0 .1-.1.2c0 .1-.1.1-.1.2-.1.1-.1.1-.2.1s-.1.1-.2.1-.1 0-.2-.1c-.1 0-.1-.1-.2-.1-.1-.1-.1-.1-.1-.2-.1-.1-.1-.1-.1-.2z"></path>
    <path d="m197.9 260.8v.7h-2.2v6h-.9v-6h-2.2v-.7z"></path>
    <path d="m198.7 267.6v-7h .8v2.8c.2-.2.4-.4.7-.5s.5-.2.9-.2c.3 0 .5.1.7.1.2.1.3.2.5.3.1.1.2.3.3.6.1.2.1.5.1.7v3h-.8v-3c0-.3-.1-.7-.3-.8-.1-.2-.4-.3-.7-.3s-.5.1-.7.2-.4.3-.6.5v3.5z"></path>
    <path d="m205.1 261.3c0 .1 0 .1-.1.2 0 .1-.1.1-.1.2-.1.1-.1.1-.2.1s-.1.1-.2.1-.1 0-.2-.1c-.1 0-.1-.1-.2-.1-.1-.1-.1-.1-.1-.2s-.1-.1-.1-.2 0-.1.1-.2c0-.1.1-.1.1-.2.1-.1.1-.1.2-.1s.1-.1.2-.1.1 0 .2.1c.1 0 .1.1.2.1.1.1.1.1.1.2.1.1.1.1.1.2zm-.2 1.5v4.8h-.8v-4.8z"></path>
    <path d="m209.1 263.6c-.1.1-.1.1-.2.1s-.1 0-.1-.1c-.1-.1-.1-.1-.2-.1-.1-.1-.2-.1-.3-.1s-.3-.1-.4-.1-.3 0-.4.1-.2.1-.3.1c-.1.1-.1.1-.2.2s-.1.2-.1.3.1.2.1.3c.1.1.1.1.3.2.1.1.3.1.4.1.1.1.3.1.5.1.1.1.3.1.5.2.1.1.3.1.4.2l.3.3c.1.1.1.3.1.5s-.1.4-.1.6c-.1.2-.2.3-.3.5-.1.1-.3.3-.5.3-.2.1-.5.1-.7.1-.3 0-.6-.1-.9-.1-.3-.1-.5-.3-.7-.4l.2-.3c0-.1.1-.1.1-.1h.1c.1 0 .1 0 .2.1s.1.1.2.1c.1.1.2.1.3.1.1.1.3.1.5.1.1 0 .3 0 .4-.1s.2-.1.3-.2.1-.1.2-.3c.1-.1.1-.2.1-.3s-.1-.3-.1-.3c-.1-.1-.1-.1-.3-.2-.1-.1-.3-.1-.4-.1-.1-.1-.3-.1-.5-.1-.1-.1-.3-.1-.5-.2-.1-.1-.3-.1-.4-.3-.1-.1-.2-.2-.3-.3s-.1-.3-.1-.5.1-.3.1-.5c.1-.1.2-.3.3-.5.1-.1.3-.2.5-.3s.5-.1.7-.1c.3 0 .6.1.9.1.3.1.5.2.7.4z"></path>
    <path d="m211.7 262.8h.7c.1 0 .1 0 .2.1s.1.1.1.1l.9 3.1c0 .1.1.2.1.3s.1.2.1.3c0-.1.1-.2.1-.3s.1-.2.1-.3l1-3.1c0-.1.1-.1.1-.1 0-.1.1-.1.1-.1h.3c.1 0 .1 0 .1.1.1 0 .1.1.1.1l1 3.1c.1.1.1.2.1.3s.1.2.1.3c0-.1.1-.2.1-.3s.1-.2.1-.3l.9-3.1c0-.1.1-.1.1-.1 0-.1.1-.1.1-.1h.6l-1.6 4.8h-.7c-.1 0-.1-.1-.2-.1l-1.1-3.2c0-.1-.1-.1-.1-.2s0-.1-.1-.2c0 .1 0 .1-.1.2s-.1.1-.1.2l-1.1 3.2c-.1.1-.1.1-.2.1h-.3z"></path>
    <path d="m220.7 261.3c0 .1 0 .1-.1.2 0 .1-.1.1-.1.2-.1.1-.1.1-.2.1s-.1.1-.2.1-.1 0-.2-.1c-.1 0-.1-.1-.2-.1-.1-.1-.1-.1-.1-.2s-.1-.1-.1-.2 0-.1.1-.2c0-.1.1-.1.1-.2.1-.1.1-.1.2-.1s.1-.1.2-.1.1 0 .2.1c.1 0 .1.1.2.1.1.1.1.1.1.2.1.1.1.1.1.2zm-.2 1.5v4.8h-.8v-4.8z"></path>
    <path d="m222.9 260.6v7h-.8v-7z"></path>
    <path d="m225.4 260.6v7h-.8v-7z"></path>
    <path d="m232.2 267.6h-.4c-.1 0-.1 0-.2-.1-.1 0-.1-.1-.1-.1l-.1-.5c-.1.1-.3.2-.3.3-.1.1-.3.1-.4.2s-.3.1-.4.1-.3.1-.5.1-.3 0-.5-.1-.3-.1-.4-.2-.2-.2-.3-.4c-.1-.1-.1-.3-.1-.5s.1-.4.1-.5c.1-.1.3-.3.5-.5.2-.1.5-.3.9-.3.4-.1.8-.1 1.4-.1v-.4c0-.4-.1-.7-.3-.9s-.4-.3-.7-.3c-.2 0-.4 0-.5.1s-.3.1-.3.2c-.1.1-.2.1-.3.2s-.1.1-.2.1-.1 0-.1-.1c-.1 0-.1-.1-.1-.1l-.1-.3c.3-.3.5-.5.9-.5.3-.1.7-.2 1-.2s.5.1.7.1c.2.1.4.2.5.3s.3.3.3.5c.1.2.1.5.1.7zm-2.2-.5c.1 0 .3 0 .4-.1.1 0 .3-.1.3-.1.1-.1.2-.1.3-.2s.2-.1.3-.3v-1c-.4 0-.7 0-1 .1s-.5.1-.7.2-.3.2-.3.3c-.1.1-.1.2-.1.3s0 .2.1.3.1.1.1.2c.1.1.1.1.3.1.1.2.2.2.3.2z"></path>
    <path d="m233.5 269.2v-6.4h.5c.1 0 .2.1.2.2l.1.5c.2-.3.4-.5.7-.6s.5-.2.9-.2c.3 0 .5.1.7.1.2.1.4.3.5.5s.3.5.3.7c.1.3.1.7.1 1.1 0 .3-.1.7-.1 1-.1.3-.2.5-.4.8-.2.2-.4.4-.7.5s-.5.2-.9.2c-.3 0-.5-.1-.7-.1-.2-.1-.4-.2-.5-.4v2.1zm2.2-5.8c-.3 0-.5.1-.7.2s-.4.3-.5.5v2.3c.1.2.3.3.5.5.2.1.4.1.6.1.5 0 .8-.1 1-.5.3-.3.3-.7.3-1.4 0-.3 0-.6-.1-.8s-.1-.4-.3-.5c-.1-.1-.2-.3-.4-.3-.1 0-.3-.1-.4-.1z"></path>
    <path d="m238.7 269.2v-6.4h.5c.1 0 .2.1.2.2l.1.5c.2-.3.4-.5.7-.6s.5-.2.9-.2c.3 0 .5.1.7.1.2.1.4.3.5.5s.3.5.3.7c.1.3.1.7.1 1.1 0 .3-.1.7-.1 1-.1.3-.2.5-.4.8-.2.2-.4.4-.7.5s-.5.2-.9.2c-.3 0-.5-.1-.7-.1-.2-.1-.4-.2-.5-.4v2.1zm2.2-5.8c-.3 0-.5.1-.7.2s-.4.3-.5.5v2.3c.1.2.3.3.5.5.2.1.4.1.6.1.5 0 .8-.1 1-.5.3-.3.3-.7.3-1.4 0-.3 0-.6-.1-.8s-.1-.4-.3-.5c-.1-.1-.2-.3-.4-.3-.1 0-.2-.1-.4-.1z"></path>
    <path d="m245.9 262.7c.3 0 .5.1.8.1s.5.2.6.4c.2.2.3.4.4.7s.1.5.1.9c0 .1 0 .2-.1.3s-.1.1-.1.1h-3.2c0 .3.1.5.1.8.1.2.2.4.3.5s.3.3.5.3c.2.1.4.1.6.1s.4 0 .5-.1.3-.1.4-.1c.1-.1.2-.1.3-.1.1-.1.1-.1.2-.1s.1 0 .1.1l.2.3c-.1.1-.2.2-.4.3s-.3.2-.5.2-.3.1-.5.1-.3.1-.5.1c-.3 0-.6-.1-.9-.1-.3-.1-.5-.3-.7-.5s-.3-.5-.5-.8c-.1-.3-.2-.7-.2-1.1 0-.3.1-.7.1-.9.1-.3.3-.5.5-.7s.4-.4.7-.5c.5-.2.8-.3 1.2-.3zm0 .7c-.4 0-.7.1-.9.3s-.4.5-.4.9h2.6c0-.2 0-.4-.1-.5s-.1-.3-.3-.4c-.1-.1-.2-.2-.4-.3s-.3 0-.5 0z"></path>
    <path d="m252.4 267.6h-.4c-.1 0-.1 0-.2-.1-.1 0-.1-.1-.1-.1l-.1-.5c-.1.1-.3.2-.3.3-.1.1-.3.1-.4.2s-.3.1-.4.1-.3.1-.5.1-.3 0-.5-.1-.3-.1-.4-.2-.2-.2-.3-.4c-.1-.1-.1-.3-.1-.5s.1-.4.1-.5.3-.3.5-.5c.2-.1.5-.3.9-.3.4-.1.8-.1 1.4-.1v-.4c0-.4-.1-.7-.3-.9s-.4-.3-.7-.3c-.2 0-.4 0-.5.1s-.3.1-.3.2c-.1.1-.2.1-.3.2s-.1.1-.2.1-.1 0-.1-.1c-.1 0-.1-.1-.1-.1l-.1-.3c.3-.3.5-.5.9-.5.3-.1.7-.2 1-.2s.5.1.7.1c.2.1.4.2.5.3s.3.3.3.5c.1.2.1.5.1.7zm-2.1-.5c.1 0 .3 0 .4-.1.1 0 .3-.1.3-.1.1-.1.2-.1.3-.2s.2-.1.3-.3v-1c-.4 0-.7 0-1 .1s-.5.1-.7.2-.3.2-.3.3c-.1.1-.1.2-.1.3s0 .2.1.3.1.1.1.2c.1.1.1.1.3.1.1.2.1.2.3.2z"></path>
    <path d="m253.7 267.6v-4.8h.5c.1 0 .1 0 .2.1s.1.1.1.2l.1.7c.1-.3.3-.6.6-.8s.5-.3.9-.3c.1 0 .3 0 .3.1.1 0 .2.1.3.1l-.1.6c0 .1-.1.1-.1.1-.1 0-.1 0-.2-.1-.1 0-.2-.1-.4-.1-.3 0-.5.1-.7.3s-.3.4-.5.7v3h-1z"></path>
    <path d="m262.9 267.6h-.4c-.1 0-.1 0-.2-.1-.1 0-.1-.1-.1-.1l-.1-.5c-.1.1-.3.2-.3.3-.1.1-.3.1-.4.2s-.3.1-.4.1-.3.1-.5.1-.3 0-.5-.1-.3-.1-.4-.2-.2-.2-.3-.4c-.1-.1-.1-.3-.1-.5s.1-.4.1-.5l.5-.5c.2-.1.5-.3.9-.3.4-.1.8-.1 1.4-.1v-.4c0-.4-.1-.7-.3-.9s-.4-.3-.7-.3c-.2 0-.4 0-.5.1s-.3.1-.3.2c-.1.1-.2.1-.3.2s-.1.1-.2.1-.1 0-.1-.1c-.1 0-.1-.1-.1-.1l-.1-.3c.3-.3.5-.5.9-.5.3-.1.7-.2 1-.2s.5.1.7.1c.2.1.4.2.5.3s.3.3.3.5c.1.2.1.5.1.7zm-2.2-.5c.1 0 .3 0 .4-.1.1 0 .3-.1.3-.1.1-.1.2-.1.3-.2s.2-.1.3-.3v-1c-.4 0-.7 0-1 .1s-.5.1-.7.2-.3.2-.3.3c-.1.1-.1.2-.1.3s0 .2.1.3.1.1.1.2c.1.1.1.1.3.1.1.2.2.2.3.2z"></path>
    <path d="m265.6 267.7c-.4 0-.7-.1-.9-.3s-.3-.5-.3-.9v-2.9h-.6c-.1 0-.1 0-.1-.1-.1 0-.1-.1-.1-.1v-.4l.8-.1.2-1.5c0-.1 0-.1.1-.1s.1-.1.1-.1h.4v1.6h1.4v.6h-1.4v2.9c0 .2.1.3.1.5.1.1.2.1.4.1.1 0 .1 0 .2-.1.1 0 .1-.1.1-.1s.1-.1.1-.1.1-.1.1-.1c.1 0 .1 0 .1.1l.3.4c-.1.1-.3.3-.5.3-.1.3-.3.4-.5.4z"></path>
    <path d="m271 267.7c-.4 0-.7-.1-.9-.3s-.3-.5-.3-.9v-2.9h-.6c-.1 0-.1 0-.1-.1-.1 0-.1-.1-.1-.1v-.4l.8-.1.2-1.5c0-.1 0-.1.1-.1s.1-.1.1-.1h.4v1.6h1.4v.6h-1.4v2.9c0 .2.1.3.1.5.1.1.2.1.4.1.1 0 .1 0 .2-.1.1 0 .1-.1.1-.1s.1-.1.1-.1.1-.1.1-.1c.1 0 .1 0 .1.1l.3.4c-.1.1-.3.3-.5.3-.1.3-.3.4-.5.4z"></path>
    <path d="m273.1 267.6v-7h .8v2.8c.2-.2.4-.4.7-.5s.5-.2.9-.2c.3 0 .5.1.7.1.2.1.3.2.5.3.1.1.2.3.3.6.1.2.1.5.1.7v3h-.9v-3c0-.3-.1-.7-.3-.8-.1-.2-.4-.3-.7-.3s-.5.1-.7.2-.4.3-.6.5v3.5z"></path>
    <path d="m280.2 262.7c.3 0 .5.1.8.1s.5.2.6.4c.2.2.3.4.4.7s.1.5.1.9c0 .1 0 .2-.1.3s-.1.1-.1.1h-3.2c0 .3.1.5.1.8.1.2.2.4.3.5s.3.3.5.3c.2.1.4.1.6.1s.4 0 .5-.1.3-.1.4-.1c.1-.1.2-.1.3-.1.1-.1.1-.1.2-.1s.1 0 .1.1l.2.3c-.1.1-.2.2-.4.3s-.3.2-.5.2-.3.1-.5.1-.3.1-.5.1c-.3 0-.6-.1-.9-.1-.3-.1-.5-.3-.7-.5s-.3-.5-.5-.8c-.1-.3-.2-.7-.2-1.1 0-.3.1-.7.1-.9.1-.3.3-.5.5-.7s.4-.4.7-.5c.6-.2.9-.3 1.2-.3zm0 .7c-.4 0-.7.1-.9.3s-.4.5-.4.9h2.6c0-.2 0-.4-.1-.5s-.1-.3-.3-.4c-.1-.1-.2-.2-.4-.3s-.2 0-.5 0z"></path>
    <path d="m286.6 267.7c-.4 0-.7-.1-.9-.3s-.3-.5-.3-.9v-2.9h-.6c-.1 0-.1 0-.1-.1-.1 0-.1-.1-.1-.1v-.4l.8-.1.2-1.5c0-.1 0-.1.1-.1s.1-.1.1-.1h.4v1.6h1.4v.6h-1.4v2.9c0 .2.1.3.1.5.1.1.2.1.4.1.1 0 .1 0 .2-.1.1 0 .1-.1.1-.1s.1-.1.1-.1c.1 0 .1-.1.1-.1.1 0 .1 0 .1.1l.3.4c-.1.1-.3.3-.5.3-.1.3-.3.4-.5.4z"></path>
    <path d="m290.6 262.7c.3 0 .7.1.9.2s.5.3.7.5.3.5.5.8c.1.3.1.7.1 1 0 .4-.1.7-.1 1-.1.3-.3.5-.5.7s-.4.4-.7.5-.6.2-.9.2-.7-.1-.9-.2c-.3-.1-.5-.3-.7-.5s-.3-.5-.5-.7c-.1-.3-.1-.7-.1-1 0-.4.1-.7.1-1 .1-.3.3-.5.5-.8s.4-.4.7-.5c.2-.1.6-.2.9-.2zm0 4.3c.5 0 .8-.1 1.1-.5.2-.3.3-.7.3-1.4 0-.5-.1-1-.3-1.4-.2-.3-.6-.5-1.1-.5-.3 0-.5.1-.6.1-.2.1-.3.2-.5.3-.1.1-.2.3-.3.5s-.1.5-.1.7c0 .3 0 .5.1.7s.1.4.3.5c.1.1.3.3.5.3.1.7.3.7.6.7z"></path>
    <path d="m293.9 269.2v-6.4h.5c.1 0 .2.1.2.2l.1.5c.2-.3.4-.5.7-.6s.5-.2.9-.2c.3 0 .5.1.7.1.2.1.4.3.5.5s.3.5.3.7c.1.3.1.7.1 1.1 0 .3-.1.7-.1 1-.1.3-.2.5-.4.8-.2.2-.4.4-.7.5s-.5.2-.9.2c-.3 0-.5-.1-.7-.1-.2-.1-.4-.2-.5-.4v2.1zm2.2-5.8c-.3 0-.5.1-.7.2s-.4.3-.5.5v2.3c.1.2.3.3.5.5.2.1.4.1.6.1.5 0 .8-.1 1-.5.3-.3.3-.7.3-1.4 0-.3 0-.6-.1-.8s-.1-.4-.3-.5-.2-.3-.4-.3c-.1 0-.2-.1-.4-.1z"></path>
    <path d="m302.9 262.7c.3 0 .7.1.9.2.3.1.5.3.7.5s.3.5.5.8c.1.3.1.7.1 1 0 .4-.1.7-.1 1-.1.3-.3.5-.5.7s-.4.4-.7.5-.6.2-.9.2-.7-.1-.9-.2-.5-.3-.7-.5-.3-.5-.5-.7c-.1-.3-.1-.7-.1-1 0-.4.1-.7.1-1 .1-.3.3-.5.5-.8s.4-.4.7-.5c.2-.1.6-.2.9-.2zm0 4.3c.5 0 .8-.1 1.1-.5.2-.3.3-.7.3-1.4 0-.5-.1-1-.3-1.4s-.6-.5-1.1-.5c-.3 0-.5.1-.6.1-.2.1-.3.2-.5.3-.1.1-.2.3-.3.5s-.1.5-.1.7c0 .3 0 .5.1.7s.1.4.3.5.3.3.5.3c.1.7.4.7.6.7z"></path>
    <path d="m306.4 267.6v-4.1l-.5-.1c-.1 0-.1-.1-.1-.1-.1 0-.1-.1-.1-.1v-.3h.7v-.5c0-.3.1-.5.1-.7.1-.2.2-.4.3-.5s.3-.3.5-.3c.2-.1.4-.1.7-.1.2 0 .4 0 .6.1v.4c0 .1 0 .1-.1.1s-.1 0-.2 0h-.1c-.1 0-.3 0-.4.1s-.2.1-.3.2-.1.2-.2.3-.1.3-.1.5v.5h1.4v.6h-1.4v4.1z"></path>
    <path d="m312.7 269c0 .1-.1.1-.1.1-.1.1-.1.1-.2.1h-.6l.9-1.9-2-4.5h.7c.1 0 .1 0 .2.1s.1.1.1.1l1.3 3c0 .1.1.1.1.2s.1.1.1.2c0-.1.1-.1.1-.2s.1-.1.1-.2l1.2-3c0-.1.1-.1.1-.1.1 0 .1-.1.1-.1h.7z"></path>
    <path d="m317.9 262.7c.3 0 .7.1.9.2.3.1.5.3.7.5s.3.5.5.8c.1.3.1.7.1 1 0 .4-.1.7-.1 1-.1.3-.3.5-.5.7s-.4.4-.7.5-.6.2-.9.2-.7-.1-.9-.2c-.3-.1-.5-.3-.7-.5s-.3-.5-.5-.7c-.1-.3-.1-.7-.1-1 0-.4.1-.7.1-1 .1-.3.3-.5.5-.8s.4-.4.7-.5.6-.2.9-.2zm0 4.3c.5 0 .8-.1 1.1-.5.2-.3.3-.7.3-1.4 0-.5-.1-1-.3-1.4s-.6-.5-1.1-.5c-.3 0-.5.1-.6.1-.2.1-.3.2-.5.3-.1.1-.2.3-.3.5s-.1.5-.1.7c0 .3 0 .5.1.7s.1.4.3.5c.1.1.3.3.5.3.2.7.4.7.6.7z"></path>
    <path d="m322 262.8v3c0 .3.1.7.3.8.1.2.4.3.7.3s.5-.1.7-.2.4-.3.6-.5v-3.5h.8v4.8h-.5c-.1 0-.2-.1-.2-.2l-.1-.5c-.2.2-.5.4-.7.5-.3.1-.5.2-.9.2-.3 0-.5-.1-.7-.1-.2-.1-.3-.2-.5-.3-.1-.1-.3-.3-.3-.5-.1-.2-.1-.5-.1-.7v-3z"></path>
    <path d="m326.5 267.6v-4.8h.5c.1 0 .1 0 .2.1s.1.1.1.2l.1.7c.1-.3.3-.6.6-.8s.5-.3.9-.3c.1 0 .3 0 .3.1.1 0 .2.1.3.1l-.1.6c0 .1-.1.1-.1.1s-.1 0-.2-.1c-.1 0-.2-.1-.4-.1-.3 0-.5.1-.7.3s-.3.4-.5.7v3h-1z"></path>
    <path d="m332.1 267.6v-4.8h.5c.1 0 .1 0 .2.1s.1.1.1.2l.1.7c.1-.3.3-.6.6-.8s.5-.3.9-.3c.1 0 .3 0 .3.1.1 0 .2.1.3.1l-.1.6c0 .1-.1.1-.1.1s-.1 0-.2-.1c-.1 0-.2-.1-.4-.1-.3 0-.5.1-.7.3s-.3.4-.5.7v3h-1z"></path>
    <path d="m337.9 262.7c.3 0 .5.1.8.1s.5.2.6.4c.2.2.3.4.4.7s.1.5.1.9c0 .1 0 .2-.1.3s-.1.1-.1.1h-3.2c0 .3.1.5.1.8.1.2.2.4.3.5s.3.3.5.3c.2.1.4.1.6.1s.4 0 .5-.1.3-.1.4-.1c.1-.1.2-.1.3-.1.1-.1.1-.1.2-.1s.1 0 .1.1l.2.3c-.1.1-.2.2-.4.3s-.3.2-.5.2-.3.1-.5.1-.3.1-.5.1c-.3 0-.6-.1-.9-.1-.3-.1-.5-.3-.7-.5s-.3-.5-.5-.8c-.1-.3-.2-.7-.2-1.1 0-.3.1-.7.1-.9.1-.3.3-.5.5-.7s.4-.4.7-.5c.5-.2.9-.3 1.2-.3zm0 .7c-.4 0-.7.1-.9.3s-.4.5-.4.9h2.6c0-.2 0-.4-.1-.5s-.1-.3-.3-.4c-.1-.1-.2-.2-.4-.3s-.3 0-.5 0z"></path>
    <path d="m340.9 269.2v-6.4h.5c.1 0 .2.1.2.2l.1.5c.2-.3.4-.5.7-.6s.5-.2.9-.2c.3 0 .5.1.7.1.2.1.4.3.5.5s.3.5.3.7c.1.3.1.7.1 1.1 0 .3-.1.7-.1 1-.1.3-.2.5-.4.8-.2.2-.4.4-.7.5s-.5.2-.9.2c-.3 0-.5-.1-.7-.1-.2-.1-.4-.2-.5-.4v2.1zm2.2-5.8c-.3 0-.5.1-.7.2s-.4.3-.5.5v2.3c.1.2.3.3.5.5.2.1.4.1.6.1.5 0 .8-.1 1-.5.3-.3.3-.7.3-1.4 0-.3 0-.6-.1-.8s-.1-.4-.3-.5-.2-.3-.4-.3c-.1 0-.2-.1-.4-.1z"></path>
    <path d="m348.1 262.7c.3 0 .7.1.9.2s.5.3.7.5.3.5.5.8c.1.3.1.7.1 1 0 .4-.1.7-.1 1-.1.3-.3.5-.5.7s-.4.4-.7.5-.6.2-.9.2-.7-.1-.9-.2c-.3-.1-.5-.3-.7-.5s-.3-.5-.5-.7c-.1-.3-.1-.7-.1-1 0-.4.1-.7.1-1 .1-.3.3-.5.5-.8s.4-.4.7-.5c.2-.1.6-.2.9-.2zm0 4.3c.5 0 .8-.1 1.1-.5.2-.3.3-.7.3-1.4 0-.5-.1-1-.3-1.4-.2-.3-.6-.5-1.1-.5-.3 0-.5.1-.6.1-.2.1-.3.2-.5.3-.1.1-.2.3-.3.5s-.1.5-.1.7c0 .3 0 .5.1.7s.1.4.3.5c.1.1.3.3.5.3.2.7.4.7.6.7z"></path>
    <path d="m351.4 267.6v-4.8h.5c.1 0 .1 0 .2.1s.1.1.1.2l.1.7c.1-.3.3-.6.6-.8s.5-.3.9-.3c.1 0 .3 0 .3.1.1 0 .2.1.3.1l-.1.6c0 .1-.1.1-.1.1-.1 0-.1 0-.2-.1-.1 0-.2-.1-.4-.1-.3 0-.5.1-.7.3s-.3.4-.5.7v3h-1z"></path>
    <path d="m356.7 267.7c-.4 0-.7-.1-.9-.3s-.3-.5-.3-.9v-2.9h-.6c-.1 0-.1 0-.1-.1-.1 0-.1-.1-.1-.1v-.4l.8-.1.2-1.5c0-.1 0-.1.1-.1s.1-.1.1-.1h.4v1.6h1.4v.6h-1.4v2.9c0 .2.1.3.1.5.1.1.2.1.4.1.1 0 .1 0 .2-.1.1 0 .1-.1.1-.1s.1-.1.1-.1.1-.1.1-.1c.1 0 .1 0 .1.1l.3.4c-.1.1-.3.3-.5.3 0 .3-.3.4-.5.4z"></path>
    <path d="m358.5 267.1c0-.1 0-.1.1-.2 0-.1.1-.1.1-.2.1-.1.1-.1.2-.1.1-.1.1-.1.2-.1s.1 0 .2.1.1.1.2.1c.1.1.1.1.1.2s.1.1.1.2 0 .1-.1.2c0 .1-.1.1-.1.2-.1.1-.1.1-.2.1s-.1.1-.2.1-.1 0-.2-.1c-.1 0-.1-.1-.2-.1-.1-.1-.1-.1-.1-.2-.1-.1-.1-.1-.1-.2z"></path>
    <path d="m54.1 306.5h-.7c-.1 0-.1 0-.2-.1s-.1-.1-.1-.1l-.3-1.6h-2.8l-.7 1.6c0 .1-.1.1-.1.1-.1.1-.1.1-.2.1h-.7l3.3-6.8h.9zm-3.8-2.6h2.3l-.6-2.8c0-.1-.1-.2-.1-.3s-.1-.2-.1-.3c-.1.1-.1.2-.1.3-.1.1-.1.2-.1.3z"></path>
    <path d="m57.9 306.5c-.1 0-.2 0-.2-.1-.1-.1-.1-.1-.1-.2l.1-1c-.1.2-.3.4-.4.5s-.3.3-.5.4c-.1.1-.3.2-.5.3-.1.1-.3.1-.5.1-.4 0-.7-.1-.9-.5-.2-.3-.3-.7-.3-1.3 0-.3 0-.5.1-.7.1-.3.1-.5.2-.7s.2-.5.3-.7.3-.4.5-.5.3-.3.5-.3c.2-.1.4-.1.6-.1s.5.1.6.1c.2.1.3.2.5.4l.3-2.6h.8l-.7 7h-.4zm-1.7-.7c.1 0 .3-.1.5-.1.1-.1.3-.2.5-.4s.3-.3.4-.6c.1-.2.2-.5.3-.7l.1-1.3c-.1-.1-.3-.3-.4-.3-.1-.1-.3-.1-.5-.1-.3 0-.5.1-.7.2s-.3.3-.5.5c-.1.2-.3.5-.3.8-.1.3-.1.6-.1.9 0 .4.1.7.2.9 0 .1.2.2.5.2z"></path>
    <path d="m62.9 306.5c-.1 0-.2 0-.2-.1-.1-.1-.1-.1-.1-.2l.1-1c-.1.2-.3.4-.4.5s-.3.3-.5.4c-.1.1-.3.2-.5.3-.1.1-.3.1-.5.1-.4 0-.7-.1-.9-.5-.2-.3-.3-.7-.3-1.3 0-.3 0-.5.1-.7.1-.3.1-.5.2-.7s.2-.5.3-.7.3-.4.5-.5.3-.3.5-.3c.2-.1.4-.1.6-.1s.5.1.6.1c.2.1.3.2.5.4l.3-2.6h.8l-.6 7h-.5zm-1.7-.7c.1 0 .3-.1.5-.1.1-.1.3-.2.5-.4s.3-.3.4-.6c.1-.2.2-.5.3-.7l.1-1.3c-.1-.1-.3-.3-.4-.3-.1-.1-.3-.1-.5-.1-.3 0-.5.1-.7.2s-.3.3-.5.5c-.1.2-.3.5-.3.8-.1.3-.1.6-.1.9 0 .4.1.7.2.9 0 .1.2.2.5.2z"></path>
    <path d="m70 306.5h-.4c-.1 0-.2 0-.2-.1-.1-.1-.1-.1-.1-.2l.1-.9c-.1.2-.2.4-.3.5s-.3.3-.4.4-.3.2-.5.3c-.1.1-.3.1-.5.1s-.3-.1-.5-.1c-.1-.1-.3-.2-.4-.3s-.2-.3-.3-.5-.1-.5-.1-.7c0-.3.1-.5.1-.8.1-.3.2-.5.3-.7s.3-.5.5-.7.4-.4.6-.5.5-.3.7-.3c.3-.1.5-.1.8-.1.2 0 .4 0 .6.1.2 0 .4.1.6.2zm-2.1-.7c.1 0 .3-.1.5-.1.1-.1.3-.2.4-.4.1-.1.3-.3.3-.6.1-.2.2-.5.3-.7l.2-1.6c-.1-.1-.1-.1-.2-.1s-.1 0-.2 0c-.2 0-.4 0-.5.1-.2.1-.3.1-.5.3s-.3.3-.4.4-.2.3-.3.5-.1.4-.2.6-.1.4-.1.6c0 .7.2 1 .7 1z"></path>
    <path d="m76.3 306.5c-.1 0-.2 0-.2-.1-.1-.1-.1-.1-.1-.2l.1-1c-.1.2-.3.4-.4.5s-.3.3-.5.4c-.1.1-.3.2-.5.3-.1.1-.3.1-.5.1-.4 0-.7-.1-.9-.5-.2-.3-.3-.7-.3-1.3 0-.3 0-.5.1-.7.1-.3.1-.5.2-.7s.2-.5.3-.7.3-.4.5-.5.3-.3.5-.3c.2-.1.4-.1.6-.1s.5.1.6.1c.2.1.3.2.5.4l.3-2.6h.8l-.9 7zm-1.7-.7c.1 0 .3-.1.5-.1.1-.1.3-.2.5-.4s.3-.3.4-.6c.1-.2.2-.5.3-.7l.1-1.3c-.1-.1-.3-.3-.4-.3-.1-.1-.3-.1-.5-.1-.3 0-.5.1-.7.2s-.3.3-.5.5c-.1.2-.3.5-.3.8-.1.3-.1.6-.1.9 0 .4.1.7.2.9.1.1.3.2.5.2z"></path>
    <path d="m81.9 302.7c0 .2-.1.4-.1.6-.1.2-.3.3-.5.5-.2.1-.5.3-.9.3-.4.1-.9.2-1.6.3v.1.1c0 .4.1.7.3.9s.5.3.8.3c.1 0 .3 0 .4-.1.1 0 .2-.1.3-.1.1-.1.2-.1.3-.1.1-.1.1-.1.2-.1.1-.1.1-.1.1-.1 0-.1.1-.1.1-.1.1 0 .1 0 .1.1l.2.3c-.1.1-.3.3-.5.4-.1.1-.3.2-.5.3-.1.1-.3.1-.5.2s-.3.1-.5.1c-.3 0-.5-.1-.7-.1-.2-.1-.4-.2-.5-.4-.1-.1-.3-.4-.3-.6-.1-.3-.1-.5-.1-.8s0-.5.1-.7c.1-.3.1-.5.2-.7s.2-.4.3-.6.3-.3.5-.5c.1-.1.4-.3.6-.3.2-.1.5-.1.7-.1s.5.1.6.1c.1.1.3.1.4.3.1.1.2.2.3.3 0 0 .2.1.2.2zm-1.5-.5c-.2 0-.4.1-.5.1-.1.1-.3.2-.5.3-.1.1-.3.3-.3.5-.1.1-.1.4-.2.6.5-.1.9-.1 1.2-.2s.5-.1.7-.3c.1-.1.3-.2.3-.3.1-.1.1-.2.1-.3s0-.1-.1-.2c0-.1-.1-.1-.1-.1-.1-.1-.1-.1-.2-.1s-.2 0-.4 0z"></path>
    <path d="m85.5 302.4c0 .1 0 .1 0 0l-.1.1c-.1 0-.1 0-.1-.1-.1-.1-.1-.1-.2-.1-.1-.1-.1-.1-.3-.1-.1-.1-.3-.1-.4-.1s-.3 0-.4.1-.2.1-.3.1c-.1.1-.1.1-.2.3-.1.1-.1.2-.1.3s.1.3.1.3.2.1.3.2.3.1.5.2.3.1.5.2c.1.1.3.2.3.3.1.1.1.3.1.5s-.1.4-.1.6c-.1.2-.2.4-.4.5-.1.1-.3.3-.6.3-.2.1-.5.1-.7.1-.3 0-.6-.1-.8-.1-.2-.1-.4-.3-.6-.4l.2-.3c0-.1.1-.1.1-.1h.1s.1 0 .1.1c.1.1.1.1.2.1.1.1.2.1.3.1s.3.1.4.1.3 0 .4-.1.2-.1.3-.2.1-.2.2-.3.1-.2.1-.3-.1-.3-.1-.4c-.1-.1-.2-.2-.3-.3s-.3-.1-.5-.2-.3-.1-.5-.2c-.1-.1-.3-.2-.3-.3-.1-.1-.1-.3-.1-.5s.1-.4.1-.6c.1-.2.2-.3.3-.5.1-.1.3-.3.5-.3.2-.1.5-.1.7-.1s.5.1.7.1c.2.1.4.2.5.4z"></path>
    <path d="m89.2 306c-.1.1-.3.2-.5.3-.1.1-.3.1-.5.1-.1 0-.3.1-.5.1-.3 0-.5-.1-.7-.1-.2-.1-.4-.2-.5-.4s-.3-.4-.3-.6c-.1-.3-.1-.5-.1-.8 0-.4.1-.7.2-1.2.1-.4.3-.7.5-.9.2-.3.5-.5.7-.7.3-.1.6-.3 1-.3.3 0 .6.1.8.1.2.1.4.3.5.5l-.3.3-.1.1h-.1c-.1 0-.1 0-.1-.1-.1-.1-.1-.1-.1-.1-.1-.1-.1-.1-.3-.1s-.2-.1-.4-.1-.4.1-.6.2-.3.3-.5.5c-.1.2-.3.5-.3.7-.1.3-.1.6-.1.9 0 .2 0 .4.1.5s.1.3.2.4.2.2.3.3.3.1.5.1c.1 0 .3 0 .4-.1.1 0 .2-.1.3-.1.1-.1.1-.1.2-.1s.1-.1.2-.1c.1-.1.1-.1.1-.1.1 0 .1-.1.1-.1.1 0 .1 0 .1.1l.2.3c-.2.2-.3.4-.4.5z"></path>
    <path d="m90.2 306.5.6-4.8h.4c.1 0 .1 0 .2.1s.1.1.1.2v.1.1.1l0 0-.1.9c.2-.5.4-.8.7-1s .5-.3.8-.3c.1 0 .3 0 .4.1l-.1.8c-.1-.1-.3-.1-.4-.1-.3 0-.6.1-.8.5-.3.3-.5.7-.6 1.4l-.3 2.2z"></path>
    <path d="m95.1 301.7-.6 4.8h-.8l.6-4.8zm.2-1.6c0 .1 0 .1-.1.2 0 .1-.1.1-.1.2-.1.1-.1.1-.2.1s-.1.1-.2.1-.1 0-.2-.1c-.1 0-.1-.1-.2-.1-.1-.1-.1-.1-.1-.2s-.1-.1-.1-.2 0-.1.1-.2c0-.1.1-.1.1-.2.1-.1.1-.1.2-.1s.1-.1.2-.1.1 0 .2.1c.1 0 .1.1.2.1.1.1.1.1.1.2.1.1.1.2.1.2z"></path>
    <path d="m95.6 308.1.8-6.4h.4c.2 0 .3.1.3.3l-.1 1c .1-.2.3-.4.4-.5s.3-.3.5-.4c.1-.1.3-.2.5-.3s.3-.1.5-.1c.4 0 .7.1.9.5.2.3.3.7.3 1.3 0 .3 0 .5-.1.7-.1.3-.1.5-.2.7-.1.3-.2.5-.3.7s-.3.4-.5.5-.3.3-.5.3c-.2.1-.4.1-.6.1-.3 0-.5-.1-.7-.1-.2-.1-.3-.2-.5-.4l-.3 2.1zm3-5.8c-.1 0-.3.1-.5.1-.1.1-.3.2-.5.4-.1.2-.3.4-.4.6s-.2.5-.3.7l-.1 1.2c.1.2.3.3.4.3.1.1.3.1.5.1.1 0 .3-.1.5-.1.1-.1.3-.1.4-.3s.2-.3.3-.4.2-.3.3-.5.1-.3.1-.5c.1-.2.1-.4.1-.6 0-.4-.1-.7-.2-.9-.2 0-.4-.1-.6-.1z"></path>
    <path d="m101.1 305.5 0 0c0-.1 0-.1 0-.2s0-.1 0-.2 0-.2.1-.3l.3-2.4h-.5c-.1 0-.1 0-.1-.1 0 0-.1-.1-.1-.1s0 0 0-.1v-.1-.1c0-.1 0-.1 0-.1l.7-.1.3-1.5c0-.1.1-.1.1-.1.1 0 .1-.1.1-.1h.5l-.2 1.6h1.3l-.1.6h-1.3l-.3 2.4c0 .1 0 .2-.1.3v.2s0 .1 0 .1 0 0 0 .1.1.3.1.3c.1.1.2.1.3.1s.1 0 .2-.1c.1 0 .1-.1.1-.1.1 0 .1-.1.1-.1l.1-.1h.1s0 0 .1.1l.2.4c-.1.1-.3.3-.5.3-.2.1-.4.1-.6.1-.3 0-.5-.1-.7-.3-.2.1-.2 0-.2-.4z"></path>
    <path d="m105.5 301.7-.6 4.8h-.8l.6-4.8zm.3-1.6c0 .1 0 .1-.1.2 0 .1-.1.1-.1.2-.1.1-.1.1-.2.1s-.1.1-.2.1-.1 0-.2-.1c-.1 0-.1-.1-.2-.1-.1-.1-.1-.1-.1-.2s-.1-.1-.1-.2 0-.1.1-.2c0-.1.1-.1.1-.2.1-.1.1-.1.2-.1s.1-.1.2-.1.1 0 .2.1c.1 0 .1.1.2.1s.1.1.1.2c.1.1.1.2.1.2z"></path>
    <path d="m108 306.6c-.3 0-.5-.1-.7-.1-.2-.1-.4-.2-.5-.4s-.3-.4-.3-.6c-.1-.3-.1-.5-.1-.8 0-.4.1-.8.2-1.2.1-.3.3-.7.5-.9.2-.3.5-.5.7-.6.3-.1.6-.2.9-.2s.5.1.7.1c.2.1.4.2.5.4s.3.4.3.6c.1.3.1.5.1.8 0 .4-.1.8-.2 1.2-.1.3-.3.7-.5.9-.2.3-.5.5-.8.6-.1 0-.5.2-.8.2zm0-.7c.2 0 .5-.1.6-.2.2-.1.3-.3.5-.5.1-.2.2-.5.3-.7.1-.3.1-.5.1-.9 0-.5-.1-.7-.3-1-.2-.2-.4-.3-.7-.3-.2 0-.5.1-.6.2-.2.1-.3.3-.5.5-.1.2-.2.5-.3.7s-.1.5-.1.9c0 .5.1.7.3 1 .2.1.4.3.7.3z"></path>
    <path d="m111 306.5.5-4.8h.4c.2 0 .3.1.3.3l-.1.9c.3-.4.5-.7.9-.9.3-.2.7-.3 1-.3s.6.1.8.3c.2.3.3.6.3 1.1v.2.2l-.3 3h-.8l.3-3c0-.1 0-.1 0-.2s0-.1 0-.1c0-.3-.1-.5-.1-.6-.1-.1-.3-.2-.5-.2-.1 0-.3.1-.5.1-.1.1-.3.2-.5.3-.1.1-.3.3-.4.5s-.2.5-.3.7l-.3 2.4h-.7z"></path>
    <path d="m118.3 305.5 0 0c0-.1 0-.1 0-.2s0-.1 0-.2 0-.2.1-.3l.3-2.4h-.5c-.1 0-.1 0-.1-.1 0 0-.1-.1-.1-.1s0 0 0-.1v-.1-.1c0-.1 0-.1 0-.1l.7-.1.3-1.5c0-.1.1-.1.1-.1.1 0 .1-.1.1-.1h.5l-.2 1.6h1.3l-.1.6h-1.3l-.3 2.4c0 .1 0 .2-.1.3v.2s0 .1 0 .1 0 0 0 .1.1.3.1.3c.1.1.2.1.3.1s.1 0 .2-.1c.1 0 .1-.1.1-.1.1 0 .1-.1.1-.1l.1-.1h.1s0 0 .1.1l.2.4c-.1.1-.3.3-.5.3-.2.1-.4.1-.6.1-.3 0-.5-.1-.7-.3-.2.1-.2 0-.2-.4z"></path>
    <path d="m122.8 306.6c-.3 0-.5-.1-.7-.1-.2-.1-.4-.2-.5-.4s-.3-.4-.3-.6c-.1-.3-.1-.5-.1-.8 0-.4.1-.8.2-1.2.1-.3.3-.7.5-.9.2-.3.5-.5.7-.6.3-.1.6-.2.9-.2s.5.1.7.1c.2.1.4.2.5.4s.3.4.3.6c.1.3.1.5.1.8 0 .4-.1.8-.2 1.2-.1.3-.3.7-.5.9-.2.3-.5.5-.8.6-.1 0-.5.2-.8.2zm.1-.7c.2 0 .5-.1.6-.2.2-.1.3-.3.5-.5.1-.2.2-.5.3-.7.1-.3.1-.5.1-.9 0-.5-.1-.7-.3-1-.2-.2-.4-.3-.7-.3-.2 0-.5.1-.6.2-.2.1-.3.3-.5.5s-.2.5-.3.7c-.1.3-.1.5-.1.9 0 .5.1.7.3 1 .1.1.3.3.7.3z"></path>
    <path d="m127.7 306.5.8-7h .8l-.4 3.4c.1-.2.3-.3.4-.5.1-.1.3-.3.4-.4s.3-.2.5-.3c.1-.1.3-.1.5-.1.4 0 .7.1.9.5.2.3.3.7.3 1.3 0 .3 0 .5-.1.7-.1.3-.1.5-.2.7-.1.3-.2.5-.3.7s-.3.4-.5.5-.3.3-.5.3c-.2.1-.4.1-.6.1-.3 0-.5-.1-.7-.1-.2-.1-.4-.3-.5-.5l-.1.3c0 .1-.1.1-.1.2-.1.1-.1.1-.2.1zm2.7-4.2c-.1 0-.3.1-.5.1-.1.1-.3.2-.5.4-.1.1-.3.3-.4.6-.1.2-.2.5-.3.7l-.1 1.2c.1.2.3.3.4.3.1.1.3.1.5.1.1 0 .3-.1.5-.1.1-.1.3-.1.4-.3.1-.1.2-.3.3-.4s.2-.3.3-.5.1-.3.1-.5.1-.4.1-.6c0-.4-.1-.7-.2-.9-.1 0-.3-.1-.6-.1z"></path>
    <path d="m136.5 302.7c0 .2-.1.4-.1.6-.1.2-.3.3-.5.5-.2.1-.5.3-.9.3-.4.1-.9.2-1.6.3v.1.1c0 .4.1.7.3.9s.5.3.8.3c.1 0 .3 0 .4-.1.1 0 .2-.1.3-.1.1-.1.2-.1.3-.1s.1-.1.2-.1c.1-.1.1-.1.1-.1 0-.1.1-.1.1-.1.1 0 .1 0 .1.1l.2.3c-.1.1-.3.3-.5.4-.1.1-.3.2-.5.3-.1.1-.3.1-.5.2s-.3.1-.5.1c-.3 0-.5-.1-.7-.1s-.4-.2-.5-.4c-.1-.1-.3-.4-.3-.6-.1-.3-.1-.5-.1-.8s0-.5.1-.7.1-.5.2-.7.2-.4.3-.6.3-.3.5-.5c.1-.1.4-.3.6-.3.2-.1.5-.1.7-.1.3 0 .5.1.6.1s.3.1.4.3l.3.3s.2.1.2.2zm-1.5-.5c-.2 0-.4.1-.5.1-.1.1-.3.2-.5.3-.1.1-.3.3-.3.5-.1.1-.1.4-.2.6.5-.1.9-.1 1.2-.2s.5-.1.7-.3c.1-.1.3-.2.3-.3.1-.1.1-.2.1-.3s0-.1-.1-.2c0-.1-.1-.1-.1-.1-.1-.1-.1-.1-.2-.1-.2 0-.2 0-.4 0z"></path>
    <path d="m137.4 305.5 0 0c0-.1 0-.1 0-.2s0-.1 0-.2 0-.2.1-.3l.3-2.4h-.5c-.1 0-.1 0-.1-.1 0 0-.1-.1-.1-.1s0 0 0-.1v-.1-.1c0-.1 0-.1 0-.1l.7-.1.3-1.5c0-.1.1-.1.1-.1.1 0 .1-.1.1-.1h.5l-.2 1.6h1.3l-.1.6h-1.3l-.3 2.4c0 .1 0 .2-.1.3v.2s0 .1 0 .1 0 0 0 .1.1.3.1.3c.1.1.2.1.3.1s.1 0 .2-.1c.1 0 .1-.1.1-.1.1 0 .1-.1.1-.1l.1-.1h.1s0 0 .1.1l.2.4c-.1.1-.3.3-.5.3-.2.1-.4.1-.6.1-.3 0-.5-.1-.7-.3-.2.1-.2 0-.2-.4z"></path>
    <path d="m140.7 305.5 0 0c0-.1 0-.1 0-.2s0-.1 0-.2 0-.2.1-.3l.3-2.4h-.5c-.1 0-.1 0-.1-.1 0 0-.1-.1-.1-.1s0 0 0-.1v-.1-.1c0-.1 0-.1 0-.1l.7-.1.3-1.5c0-.1.1-.1.1-.1.1 0 .1-.1.1-.1h.5l-.2 1.6h1.3l-.1.6h-1.3l-.3 2.4c0 .1 0 .2-.1.3v.2s0 .1 0 .1 0 0 0 .1.1.3.1.3.2.1.3.1.1 0 .2-.1c.1 0 .1-.1.1-.1.1 0 .1-.1.1-.1l.1-.1h.1s0 0 .1.1l.2.4c-.1.1-.3.3-.5.3-.2.1-.4.1-.6.1-.3 0-.5-.1-.7-.3-.2.1-.2 0-.2-.4z"></path>
    <path d="m147.4 302.7c0 .2-.1.4-.1.6-.1.2-.3.3-.5.5-.2.1-.5.3-.9.3-.4.1-.9.2-1.6.3v.1.1c0 .4.1.7.3.9s.5.3.8.3c.1 0 .3 0 .4-.1.1 0 .2-.1.3-.1.1-.1.2-.1.3-.1s.1-.1.2-.1c.1-.1.1-.1.1-.1 0-.1.1-.1.1-.1.1 0 .1 0 .1.1l.2.3c-.1.1-.3.3-.5.4-.1.1-.3.2-.5.3-.1.1-.3.1-.5.2s-.3.1-.5.1c-.3 0-.5-.1-.7-.1s-.4-.2-.5-.4c-.1-.1-.3-.4-.3-.6-.1-.3-.1-.5-.1-.8s0-.5.1-.7c.1-.3.1-.5.2-.7l.3-.6c.1-.2.3-.3.5-.5.1-.1.4-.3.6-.3.2-.1.5-.1.7-.1s.5.1.6.1.3.1.4.3l.3.3s.2.1.2.2zm-1.5-.5c-.2 0-.4.1-.5.1-.1.1-.3.2-.5.3-.1.1-.3.3-.3.5-.1.1-.1.4-.2.6.5-.1.9-.1 1.2-.2s.5-.1.7-.3.3-.2.3-.3c.1-.1.1-.2.1-.3s0-.1-.1-.2c0-.1-.1-.1-.1-.1-.1-.1-.1-.1-.2-.1s-.3 0-.4 0z"></path>
    <path d="m147.9 306.5.6-4.8h.4c.1 0 .1 0 .2.1s.1.1.1.2v.1.1.1l0 0-.1.9c.2-.5.4-.8.7-1s .5-.3.8-.3c.1 0 .3 0 .4.1l-.1.8c-.1-.1-.3-.1-.4-.1-.3 0-.6.1-.8.5-.3.3-.5.7-.6 1.4l-.3 2.2z"></path>
    <path d="m156.8 302.7c0 .2-.1.4-.1.6-.1.2-.3.3-.5.5-.2.1-.5.3-.9.3-.4.1-.9.2-1.6.3v.1.1c0 .4.1.7.3.9s.5.3.8.3c.1 0 .3 0 .4-.1.1 0 .2-.1.3-.1.1-.1.2-.1.3-.1.1-.1.1-.1.2-.1.1-.1.1-.1.1-.1 0-.1.1-.1.1-.1s.1 0 .1.1l.2.3c-.1.1-.3.3-.5.4-.1.1-.3.2-.5.3-.1.1-.3.1-.5.2s-.3.1-.5.1c-.3 0-.5-.1-.7-.1s-.4-.2-.5-.4c-.1-.1-.3-.4-.3-.6-.1-.3-.1-.5-.1-.8s0-.5.1-.7c.1-.3.1-.5.2-.7s.2-.4.3-.6.3-.3.5-.5c.1-.1.4-.3.6-.3.2-.1.5-.1.7-.1s.5.1.6.1c.1.1.3.1.4.3l.3.3c.1 0 .2.1.2.2zm-1.4-.5c-.2 0-.4.1-.5.1-.1.1-.3.2-.5.3-.1.1-.3.3-.3.5-.1.1-.1.4-.2.6.5-.1.9-.1 1.2-.2s.5-.1.7-.3.3-.2.3-.3c.1-.1.1-.2.1-.3s0-.1-.1-.2c0-.1-.1-.1-.1-.1-.1-.1-.1-.1-.2-.1s-.3 0-.4 0z"></path>
    <path d="m158.5 303.8-1.2-2.2h.7.1l.1.1.8 1.6c0-.1 0-.1.1-.1l.1-.1 1.1-1.4c.1-.1.1-.1.1-.1s.1 0 .1 0h .7l-1.7 2.2 1.3 2.6h-.7c-.1 0-.1 0-.1-.1s-.1-.1-.1-.1l-.9-1.9c0 .1-.1.1-.1.2l-1.3 1.8c0 .1-.1.1-.1.1-.1 0-.1.1-.1.1h-.7z"></path>
    <path d="m161.4 308.1.8-6.4h.4c.2 0 .3.1.3.3l-.1 1c .1-.2.3-.4.4-.5s.3-.3.5-.4c.1-.1.3-.2.5-.3.1-.1.3-.1.5-.1.4 0 .7.1.9.5.2.3.3.7.3 1.3 0 .3 0 .5-.1.7-.1.3-.1.5-.2.7-.1.3-.2.5-.3.7s-.3.4-.5.5-.3.3-.5.3-.4.1-.6.1c-.3 0-.5-.1-.7-.1s-.3-.2-.5-.4l-.3 2.1zm2.9-5.8c-.1 0-.3.1-.5.1s-.3.2-.5.4c-.1.2-.3.4-.4.6s-.2.5-.3.7l-.1 1.2c.1.2.3.3.4.3.1.1.3.1.5.1.1 0 .3-.1.5-.1.1-.1.3-.1.4-.3s.2-.3.3-.4.2-.3.3-.5.1-.3.1-.5c.1-.2.1-.4.1-.6 0-.4-.1-.7-.2-.9-.2 0-.4-.1-.6-.1z"></path>
    <path d="m166.6 306.5.9-7h .8l-.9 7z"></path>
    <path d="m172.3 306.5h-.4c-.1 0-.2 0-.2-.1-.1-.1-.1-.1-.1-.2l.1-.9c-.1.2-.2.4-.3.5s-.3.3-.4.4-.3.2-.5.3c-.1.1-.3.1-.5.1s-.3-.1-.5-.1c-.1-.1-.3-.2-.4-.3s-.2-.3-.3-.5-.1-.5-.1-.7c0-.3.1-.5.1-.8.1-.3.2-.5.3-.7s.3-.5.5-.7.4-.4.6-.5.5-.3.7-.3c.3-.1.5-.1.8-.1.2 0 .4 0 .6.1.2 0 .4.1.6.2zm-2.1-.7c.1 0 .3-.1.5-.1s.3-.2.4-.4c.1-.1.3-.3.3-.6.1-.2.2-.5.3-.7l.2-1.6c-.1-.1-.1-.1-.2-.1s-.1 0-.2 0c-.2 0-.4 0-.5.1-.2.1-.3.1-.5.3-.1.1-.3.3-.4.4s-.2.3-.3.5-.1.4-.2.6-.1.4-.1.6c0 .7.3 1 .7 1z"></path>
    <path d="m175 301.7-.6 4.8h-.8l.6-4.8zm.4-1.6c0 .1 0 .1-.1.2 0 .1-.1.1-.1.2-.1.1-.1.1-.2.1s-.1.1-.2.1-.1 0-.2-.1c-.1 0-.1-.1-.2-.1-.1-.1-.1-.1-.1-.2s-.1-.1-.1-.2 0-.1.1-.2c0-.1.1-.1.1-.2.1-.1.1-.1.2-.1s.1-.1.2-.1.1 0 .2.1c.1 0 .1.1.2.1.1.1.1.1.1.2.1.1.1.2.1.2z"></path>
    <path d="m175.8 306.5.5-4.8h.4c.2 0 .3.1.3.3l-.1.9c.3-.4.5-.7.9-.9.3-.2.7-.3 1-.3s.6.1.8.3c.2.3.3.6.3 1.1v.2.2l-.3 3h-.8l.3-3c0-.1 0-.1 0-.2s0-.1 0-.1c0-.3-.1-.5-.1-.6-.1-.1-.3-.2-.5-.2-.1 0-.3.1-.5.1s-.3.2-.5.3c-.1.1-.3.3-.4.5s-.2.5-.3.7l-.3 2.4h-.7z"></path>
    <path d="m183.8 307.9c-.1.1-.1.2-.3.2h-.5l1-1.9-1.2-4.5h.7c.1 0 .1 0 .1.1 0 0 .1.1.1.1l.7 3c0 .1 0 .1.1.2v.2c0-.1.1-.1.1-.2s.1-.1.1-.2l1.5-3c0-.1.1-.1.1-.1.1 0 .1-.1.1-.1h.7z"></path>
    <path d="m188.8 306.6c-.3 0-.5-.1-.7-.1-.2-.1-.4-.2-.5-.4s-.3-.4-.3-.6c-.1-.3-.1-.5-.1-.8 0-.4.1-.8.2-1.2.1-.3.3-.7.5-.9.2-.3.5-.5.7-.6.3-.1.6-.2.9-.2s.5.1.7.1c.2.1.4.2.5.4s.3.4.3.6c.1.3.1.5.1.8 0 .4-.1.8-.2 1.2-.1.3-.3.7-.5.9-.2.3-.5.5-.8.6-.2 0-.5.2-.8.2zm0-.7c.2 0 .5-.1.6-.2.2-.1.3-.3.5-.5.1-.2.2-.5.3-.7.1-.3.1-.5.1-.9 0-.5-.1-.7-.3-1-.2-.2-.4-.3-.7-.3-.2 0-.5.1-.6.2-.2.1-.3.3-.5.5s-.2.5-.3.7-.1.5-.1.9c0 .5.1.7.3 1 .1.1.4.3.7.3z"></path>
    <path d="m193.2 301.7-.3 3v .2s0 .1 0 .1c0 .3.1.5.1.6.1.1.3.2.5.2.1 0 .3-.1.5-.1.1-.1.3-.2.5-.3.1-.1.3-.3.4-.5s.2-.4.3-.7l.3-2.5h.8l-.6 4.8h-.4c-.1 0-.2 0-.2-.1-.1-.1-.1-.1-.1-.2 0 0 0 0 0-.1s0-.1 0-.2 0-.1 0-.2 0-.1 0-.1v-.4c-.3.4-.5.7-.9.9s-.6.3-.9.3-.6-.1-.8-.3c-.2-.3-.3-.6-.3-1 0-.1 0-.1 0-.2s0-.1 0-.2l.3-3z"></path>
    <path d="m196.8 306.5.6-4.8h.4c.1 0 .1 0 .2.1s.1.1.1.2v.1.1.1l0 0-.1.7c.2-.5.4-.8.7-1 .3-.3.5-.3.8-.3.1 0 .3 0 .4.1l-.1.8c-.1-.1-.3-.1-.4-.1-.3 0-.6.1-.8.5-.3.3-.5.7-.6 1.4l-.3 2.2z"></path>
    <path d="m201.9 306.5.6-4.8h.4c.1 0 .1 0 .2.1s.1.1.1.2v.1.1.1l0 0-.1.9c.2-.5.4-.8.7-1 .3-.3.5-.3.8-.3.1 0 .3 0 .4.1l-.1.8c-.1-.1-.3-.1-.4-.1-.3 0-.6.1-.8.5-.3.3-.5.7-.6 1.4l-.3 2.2z"></path>
    <path d="m208.9 302.7c0 .2-.1.4-.1.6-.1.2-.3.3-.5.5-.2.1-.5.3-.9.3-.4.1-.9.2-1.6.3v.1.1c0 .4.1.7.3.9s.5.3.8.3c.1 0 .3 0 .4-.1.1 0 .2-.1.3-.1.1-.1.2-.1.3-.1.1-.1.1-.1.2-.1s.1-.1.1-.1c.1 0 .1-.1.1-.1.1 0 .1 0 .1.1l.2.3c-.1.1-.3.3-.5.4-.1.1-.3.2-.5.3-.1.1-.3.1-.5.2-.1.1-.3.1-.5.1-.3 0-.5-.1-.7-.1s-.4-.2-.5-.4c-.1-.1-.3-.4-.3-.6-.1-.2-.1-.5-.1-.8s0-.5.1-.7c.1-.3.1-.5.2-.7s.2-.4.3-.6.3-.3.5-.5c.2-.1.4-.3.6-.3s.5-.1.7-.1c.3 0 .5.1.6.1.2.1.3.1.4.3l.3.3c.2-.1.2.1.2.2zm-1.5-.5c-.2 0-.4.1-.5.1-.1.1-.3.2-.5.3-.1.1-.3.3-.3.5-.1.2-.1.4-.2.6.5-.1.9-.1 1.2-.2s.5-.1.7-.3c.1-.1.3-.2.3-.3.1-.1.1-.2.1-.3s0-.1-.1-.2c0-.1-.1-.1-.1-.1-.1-.1-.1-.1-.2-.1s-.2 0-.4 0z"></path>
    <path d="m209.2 308.1.8-6.4h.4c.2 0 .3.1.3.3l-.1 1c .1-.2.3-.4.4-.5s.3-.3.5-.4c.1-.1.3-.2.5-.3s.3-.1.5-.1c.4 0 .7.1.9.5.2.3.3.7.3 1.3 0 .3 0 .5-.1.7s-.1.5-.2.7-.2.5-.3.7-.3.4-.5.5-.3.3-.5.3-.4.1-.6.1-.5-.1-.7-.1c-.2-.1-.3-.2-.5-.4l-.3 2.1zm3-5.8c-.1 0-.3.1-.5.1s-.3.2-.5.4c-.1.2-.3.4-.4.6s-.2.5-.3.7l-.1 1.2c.1.2.3.3.4.3.1.1.3.1.5.1.1 0 .3-.1.5-.1.1-.1.3-.1.4-.3.1-.1.2-.3.3-.4s.2-.3.3-.5.1-.3.1-.5c.1-.2.1-.4.1-.6 0-.4-.1-.7-.2-.9-.2 0-.4-.1-.6-.1z"></path>
    <path d="m216 306.6c-.3 0-.5-.1-.7-.1-.3-.1-.4-.2-.5-.4s-.3-.4-.3-.6c-.1-.3-.1-.5-.1-.8 0-.4.1-.8.2-1.2.1-.3.3-.7.5-.9.3-.3.5-.5.7-.6.3-.1.6-.2.9-.2s.5.1.7.1c.2.1.4.2.5.4s.3.4.3.6c.1.3.1.5.1.8 0 .4-.1.8-.2 1.2-.1.3-.3.7-.5.9-.2.3-.5.5-.8.6-.1 0-.4.2-.8.2zm.1-.7c.2 0 .5-.1.6-.2.2-.1.3-.3.5-.5.1-.2.2-.5.3-.7.1-.3.1-.5.1-.9 0-.5-.1-.7-.3-1-.2-.2-.4-.3-.7-.3-.2 0-.5.1-.6.2-.2.1-.3.3-.5.5-.1.2-.2.5-.3.7s-.1.5-.1.9c0 .5.1.7.3 1 .2.1.4.3.7.3z"></path>
    <path d="m219.1 306.5.6-4.8h.4c.1 0 .1 0 .2.1s.1.1.1.2v.1.1.1l0 0-.1.9c.2-.5.4-.8.7-1 .3-.3.5-.3.8-.3.1 0 .3 0 .4.1l-.1.8c-.1-.1-.3-.1-.4-.1-.3 0-.6.1-.8.5-.3.3-.5.7-.6 1.4l-.3 2.2z"></path>
    <path d="m222.8 305.5 0 0c0-.1 0-.1 0-.2s0-.1 0-.2 0-.2.1-.3l.3-2.4h-.5c-.1 0-.1 0-.1-.1 0 0-.1-.1-.1-.1s0 0 0-.1 0-.1 0-.1 0-.1 0-.1c0-.1 0-.1 0-.1l.7-.1.3-1.5c0-.1.1-.1.1-.1.1 0 .1-.1.1-.1h.5l-.1 1.7h1.3l-.1.6h-1.3l-.3 2.4c0 .1 0 .2-.1.3v.2.1s0 0 0 .1.1.3.1.3c.1.1.2.1.3.1s.1 0 .2-.1c.1 0 .1-.1.1-.1s.1-.1.1-.1c.1 0 .1-.1.1-.1h.1s0 0 .1.1l.2.4c-.1.1-.3.3-.5.3-.2.1-.4.1-.6.1-.3 0-.5-.1-.7-.3-.2.1-.2-.1-.3-.5z"></path>
    <path d="m225.5 305.9c0-.1 0-.1.1-.2 0-.1.1-.1.1-.2.1-.1.1-.1.2-.1s.1-.1.2-.1.1 0 .2.1c.1 0 .1.1.2.1.1.1.1.1.1.2.1.1.1.1.1.2s0 .1-.1.2c0 .1-.1.1-.1.2-.1.1-.1.1-.2.1s-.1.1-.2.1-.1 0-.2-.1c-.1 0-.1-.1-.2-.1-.1-.1-.1-.1-.1-.2 0 0-.1-.1-.1-.2z"></path>
  </g>
  <path d="m38.4 108.9h441.4" fill="none" stroke="#707a7c" stroke-miterlimit="10" stroke-width="2"></path>
  <path d="m38.4 189.6h270v32.5h-270z" fill="none" stroke="#707a7c" stroke-miterlimit="10" stroke-width="2"></path>
  <path d="m23 26.4h473v337.8h-473z" fill="none" stroke="#e5e5e5" stroke-miterlimit="10" stroke-width="1.39"></path>
  <path d="m38.4 364.2v-77.6h270.1v77.6" fill="none" stroke="#707a7c" stroke-miterlimit="10" stroke-width="2.6591"></path>
</svg>
