<?xml version="1.0" encoding="UTF-8"?>
<svg xmlns="http://www.w3.org/2000/svg" width="517" height="384" viewBox="0 0 517 384">
  <g fill="none" fill-rule="evenodd">
    <path fill="#FFF" fill-rule="nonzero" d="M492.6,0.739926636 L25.15,0.739926636 C18.617712,0.724067614 12.3466424,3.30373911 7.71636503,7.91151212 C3.08608764,12.5192851 0.475893621,18.7777119 0.46,25.31 L0.46,25.31 L0.46,358.85 C0.493099602,372.454399 11.5455886,383.457647 25.15,383.430052 L492.6,383.430052 C506.204411,383.457647 517.2569,372.454399 517.29,358.85 L517.29,25.32 C517.276753,18.7877137 514.6691,12.5282368 510.0407,7.91858975 C505.412299,3.30894265 499.142286,0.726725707 492.61,0.739926636 L492.6,0.739926636 Z"></path>
    <rect width="84" height="31" x="23" y="158" fill="#4DBDEB" fill-rule="nonzero"></rect>
    <g transform="translate(23.15 78.43)">
      <g transform="translate(5)">
        <path fill="#32363D" d="M5.80055342,-3.37507799e-14 C8.39725584,0.0129227605 10.6723852,1.74169491 11.3805534,4.24 C13.5565552,4.27037578 15.2959289,6.05899817 15.2655532,8.235 C15.2351775,10.4110018 13.4465553,12.1503755 11.2705534,12.12 C10.2692259,12.1247754 9.30502499,11.7412457 8.58055342,11.05 C6.77099634,12.0385115 4.57267544,11.9919818 2.80656597,10.9277877 C1.0404565,9.86359351 -0.0278721187,7.94175747 0.000553418487,5.88 C-0.0160930294,2.65687153 2.57749933,0.0275054874 5.80055342,-3.37507799e-14 L5.80055342,-3.37507799e-14 Z M8.01055342,10.4 C7.55847255,9.74820222 7.31760181,8.97322679 7.32055342,8.18 C7.34003779,6.29090845 8.67855278,4.67301495 10.5305534,4.3 C9.70013882,1.89187633 7.19208516,0.492993699 4.70685056,1.05179328 C2.22161595,1.61059286 0.553753571,3.94842109 0.834072613,6.48023255 C1.11439165,9.01204401 3.25327144,10.9283944 5.80055342,10.93 C6.56870971,10.93 7.32599525,10.7484885 8.01055342,10.4 L8.01055342,10.4 Z M9.87055342,4.93 C9.87055342,4.93 9.93055342,4.93 9.93055342,4.85 L9.93055342,4.85 L9.93055342,4.85 C9.5678973,4.99648067 9.23046277,5.19894139 8.93055342,5.45 L8.86055342,5.52 C8.86055342,5.52 8.86055342,5.52 8.86055342,5.58 C8.86055342,5.64 8.86055342,5.58 8.91055342,5.58 L8.91055342,5.58 C8.94229887,5.56544949 8.97880796,5.56544949 9.01055342,5.58 C9.04816078,5.59956583 9.09294605,5.59956583 9.13055342,5.58 C9.23356795,5.53308685 9.32301754,5.46083911 9.39055342,5.37 L9.45055342,5.31 L9.54055342,5.2 C9.62986409,5.08732295 9.74242231,4.99522985 9.87055342,4.93 L9.87055342,4.93 Z M14.8705534,8.36 C14.8356529,8.30400851 14.8087271,8.24342563 14.7905534,8.18 L14.7905534,8.1 C14.6822448,7.83696512 14.4495387,7.64554562 14.1705534,7.59 C14.1268975,7.56927266 14.0864771,7.54232574 14.0505534,7.51 L14.0505534,7.51 C13.9941479,7.45920646 13.9250316,7.4246483 13.8505534,7.41 C13.8469819,7.43654708 13.8469819,7.46345292 13.8505534,7.49 C13.8711163,7.54302356 13.8979755,7.59338446 13.9305534,7.64 C13.965327,7.6929495 14.0280655,7.72039758 14.0905534,7.71 C14.1374079,7.69700152 14.186115,7.72356903 14.2005534,7.77 L14.2005534,7.77 L14.2005534,7.77 C14.2805534,7.91 14.2805534,7.91 14.2005534,8 L14.2005534,8 L14.1405534,8 L13.8905534,8.16 L13.7705534,8.16 C13.6505534,8.16 13.6005534,8.16 13.5805534,8.03 L13.5805534,8.03 C13.5849585,7.9968122 13.5849585,7.9631878 13.5805534,7.93 L13.1605534,7.31 L13.0305534,7.12 C13.1205534,7.12 13.1205534,7.12 13.1005534,6.95 L13.1005534,6.95 L13.1005534,6.78 L13.1005534,6.78 L13.0105534,6.84 C13.0105534,6.84 12.9505534,6.84 12.9205534,6.84 L12.9205534,6.84 C12.8612319,6.77553207 12.8138294,6.70104242 12.7805534,6.62 C12.7805534,6.56 12.7805534,6.52 12.7805534,6.48 C12.9066395,6.40437802 13.0554964,6.37602433 13.2005534,6.4 L13.3405534,6.4 C13.3405534,6.4 13.3405534,6.4 13.4005534,6.4 C13.425568,6.36759968 13.425568,6.32240032 13.4005534,6.29 C13.3361428,6.24164548 13.2603868,6.21065438 13.1805534,6.2 C13.17212,6.17742869 13.17212,6.15257131 13.1805534,6.13 L13.1805534,6.13 C13.1115383,6.09440972 13.0295686,6.09440972 12.9605534,6.13 L12.8705534,6.18 L12.8005534,6.18 C12.7205534,6.18 12.6605534,6.28 12.6805534,6.38 C12.7039534,6.40922662 12.7039534,6.45077338 12.6805534,6.48 C12.5637066,6.56869256 12.4138054,6.60159769 12.2705534,6.57 C12.2205534,6.57 12.1605534,6.57 12.1505534,6.66 C12.1505534,6.42 11.9305534,6.34 11.7605534,6.25 L11.6605534,6.2 C11.6436878,6.26361352 11.6674945,6.33106572 11.7205534,6.37 L11.7705534,6.37 C11.8265063,6.41170495 11.8711855,6.46669475 11.9005534,6.53 L11.7805534,6.53 C11.7805534,6.53 11.7805534,6.53 11.7805534,6.53 C11.7805534,6.53 11.7805534,6.45 11.7105534,6.44 C11.6405534,6.43 11.6605534,6.44 11.6405534,6.38 C11.5374563,6.32488865 11.4136506,6.32488865 11.3105534,6.38 C11.1564628,6.45447369 11.0277602,6.57274097 10.9405534,6.72 C10.8805534,6.82 10.7805534,6.81 10.6805534,6.8 C10.5805534,6.79 10.4605534,6.8 10.4705534,6.56 L10.4705534,6.47 C10.4754064,6.44019626 10.4754064,6.40980374 10.4705534,6.38 C10.4705534,6.38 10.4705534,6.38 10.4705534,6.38 L10.5205534,6.38 L10.6905534,6.38 C10.7485761,6.37312227 10.8002076,6.33993057 10.8305534,6.29 C10.8305534,6.29 10.8905534,6.22 10.8305534,6.17 C10.8129934,6.14454701 10.80973,6.11186136 10.821911,6.08343897 C10.834092,6.05501658 10.8600116,6.0348379 10.8905534,6.03 C11.0705637,5.96155266 11.2341206,5.85592215 11.3705534,5.72 C11.4605534,5.64 11.5105534,5.65 11.6105534,5.72 L11.6105534,5.72 C11.7405534,5.82 11.7805534,5.82 11.9005534,5.72 C12.0205534,5.62 11.9705534,5.56 11.9005534,5.45 L11.9005534,5.45 L11.9005534,5.45 L11.9005534,5.45 C11.8704555,5.48760302 11.8436878,5.52775456 11.8205534,5.57 L11.8205534,5.57 C11.8205534,5.57 11.8205534,5.57 11.7705534,5.57 L11.7105534,5.57 C11.6649658,5.57487832 11.6211331,5.55096959 11.6005534,5.51 L11.6005534,5.51 C11.5405534,5.36 11.5405534,5.36 11.3805534,5.39 C11.2205534,5.42 11.3205534,5.39 11.3805534,5.33 C11.4073936,5.23481883 11.4841218,5.16192701 11.5805534,5.14 L11.7605534,5.07 L11.9505534,5.01 C12.0225174,4.9899578 12.0985895,4.9899578 12.1705534,5.01 C12.2997903,5.02992095 12.4313166,5.02992095 12.5605534,5.01 L12.7005534,5.01 C12.7948473,4.99859503 12.8850574,5.051901 12.9205534,5.14 C12.9685912,5.2237915 13.0718483,5.25821051 13.1605534,5.22 C13.2061055,5.17925696 13.2750013,5.17925696 13.3205534,5.22 C14.2114042,5.80653678 14.79433,6.75974877 14.9105534,7.82 C14.9207445,7.96648964 14.9207445,8.11351036 14.9105534,8.26 L14.9105534,8.4 L14.8705534,8.36 Z M9.87055342,8.01 L9.87055342,7.91 C9.86008985,7.85045619 9.86008985,7.78954381 9.87055342,7.73 L9.87055342,7.73 C9.89255962,7.61709061 9.95697055,7.51689582 10.0505534,7.45 C10.2093781,7.35752974 10.3352662,7.21765404 10.4105534,7.05 C10.4515614,6.95198276 10.5567614,6.89727875 10.6605534,6.92 C10.7552488,6.92169035 10.8486076,6.89748622 10.9305534,6.85 L10.9305534,6.85 C11.0243586,6.80022117 11.1367482,6.80022117 11.2305534,6.85 C11.2794676,6.86473629 11.3316392,6.86473629 11.3805534,6.85 C11.4405534,6.85 11.4805534,6.85 11.4905534,6.91 C11.5005534,6.97 11.4905534,6.91 11.4905534,6.97 C11.4905534,7.03 11.4905534,6.97 11.4905534,7.03 C11.4905534,7.09 11.5605534,7.17 11.6405534,7.19 C11.7904585,7.25509431 11.9606484,7.25509431 12.1105534,7.19 C12.1326486,7.17924996 12.1584583,7.17924996 12.1805534,7.19 C12.2607392,7.22565336 12.3445657,7.25247782 12.4305534,7.27 C12.7374901,7.3119688 12.983172,7.54556796 13.0405534,7.85 C13.0964451,8.05510769 13.1952961,8.24599238 13.3305534,8.41 L13.3305534,8.41 L13.4005534,8.51 C13.4131153,8.55722233 13.4465676,8.59611558 13.4913799,8.61559917 C13.5361921,8.63508277 13.5874512,8.63302054 13.6305534,8.61 C13.7205534,8.61 13.7405534,8.61 13.7005534,8.68 C13.6163447,8.85285978 13.501099,9.00878048 13.3605534,9.14 C13.2599733,9.24880361 13.1848287,9.37859881 13.1405534,9.52 C13.115932,9.58439336 13.115932,9.65560664 13.1405534,9.72 L13.1405534,9.72 C13.1771166,9.84010096 13.137633,9.97039687 13.0405534,10.05 L12.8905534,10.22 C12.804887,10.2942019 12.7665415,10.4092386 12.7905534,10.52 C12.804844,10.5447521 12.804844,10.5752479 12.7905534,10.6 C12.69753,10.6730446 12.613598,10.7569766 12.5405534,10.85 C12.4489586,10.9496524 12.3248911,11.0134586 12.1905534,11.03 C12.1343578,11.0403334 12.076749,11.0403334 12.0205534,11.03 L11.9105534,11.03 C11.9105534,11.03 11.8505534,11.03 11.8505534,11.03 C11.8638215,10.8820426 11.8361458,10.7332857 11.7705534,10.6 C11.7664622,10.5567632 11.7664622,10.5132368 11.7705534,10.47 C11.7527519,10.4389582 11.7289575,10.4117645 11.7005534,10.39 C11.6193786,10.3044068 11.5958998,10.1791861 11.6405534,10.07 L11.6405534,10.07 C11.7046518,9.95499492 11.7046518,9.81500508 11.6405534,9.7 C11.63212,9.67742869 11.63212,9.65257131 11.6405534,9.63 C11.6453637,9.52934503 11.5957162,9.43386897 11.5105534,9.38 C11.4746542,9.36433869 11.4512026,9.32916134 11.4505534,9.29 C11.4602574,9.23374878 11.4602574,9.17625122 11.4505534,9.12 C11.4405436,9.06713634 11.4405436,9.01286366 11.4505534,8.96 C11.4505534,8.9 11.4505534,8.88 11.3705534,8.9 L11.2505534,8.9 C11.1805534,8.9 11.1205534,8.9 11.1105534,8.83 C11.1005534,8.76 11.0505534,8.75 11.0005534,8.83 C10.8693594,8.89137515 10.7318863,8.93831717 10.5905534,8.97 C10.5199911,9.01326668 10.4311157,9.01326668 10.3605534,8.97 L10.2905534,8.91 C10.176433,8.82909731 10.075277,8.73131318 9.99055342,8.62 L9.99055342,8.62 C9.92055342,8.33 9.81055342,8.18 9.86055342,8.01 L9.87055342,8.01 Z M7.82055342,9.01 C7.80198935,8.99928203 7.77911748,8.99928203 7.76055342,9.01 L7.76055342,9.01 L7.76055342,9.01 C7.76055342,9.01 7.76055342,9.01 7.76055342,9.07 C7.91849648,9.69214741 8.24355137,10.2592644 8.70055342,10.71 C8.78504808,10.7887536 8.91605876,10.7887536 9.00055342,10.71 C9.00055342,10.71 9.00055342,10.71 9.00055342,10.63 C8.96072579,10.5444062 8.96072579,10.4455938 9.00055342,10.36 L9.00055342,10.27 C8.99491849,10.2335498 8.99491849,10.1964502 9.00055342,10.16 C9.03576399,10.108803 9.03576399,10.041197 9.00055342,9.99 C8.92192727,9.92720348 8.83427337,9.87663392 8.74055342,9.84 C8.55266433,9.79971738 8.40033665,9.66262247 8.34055342,9.48 C8.29865948,9.36538086 8.21705436,9.26958355 8.11055342,9.21 C8.05732041,9.17114625 8.00037685,9.13765004 7.94055342,9.11 C7.89563642,9.07877765 7.85225261,9.04540549 7.81055342,9.01 L7.82055342,9.01 Z M8.37055342,6.11 C8.35109337,6.15810653 8.35109337,6.21189347 8.37055342,6.26 C8.43055342,6.41 8.44055342,6.49 8.29055342,6.58 L8.29055342,6.58 C8.2068717,6.62183514 8.13214542,6.67957817 8.07055342,6.75 L8.07055342,6.75 L8.07055342,6.83 L8.12055342,6.83 C8.14605846,6.81886869 8.17504837,6.81886869 8.20055342,6.83 L7.80055342,7.5 C7.80055342,7.5 7.80055342,7.5 7.80055342,7.5 L7.80055342,7.5 C7.87254368,7.05310146 8.03227997,6.62487227 8.27055342,6.24 L8.34055342,6.14 L8.34055342,6.14 C8.34055342,6.14 8.37055342,6.09 8.36055342,6.11 L8.37055342,6.11 Z M13.7605534,9.71 C13.770111,9.76290514 13.770111,9.81709486 13.7605534,9.87 L13.7605534,9.87 C13.7580068,10.0981537 13.6556886,10.3137527 13.4805534,10.46 L13.4805534,10.46 C13.4680491,10.4383419 13.4680491,10.4116581 13.4805534,10.39 L13.4805534,10.39 C13.4659664,10.3513299 13.4659664,10.3086701 13.4805534,10.27 L13.4805534,10.27 C13.5176851,10.1869057 13.5445498,10.0995952 13.5605534,10.01 C13.5722972,9.96947845 13.6016882,9.93641355 13.6405534,9.92 C13.7254365,9.88909321 13.7892392,9.81778421 13.8105534,9.73 C13.8105534,9.73 13.8105534,9.73 13.8105534,9.73 L13.7605534,9.71 Z M10.5905534,5.63 L10.5905534,5.69 L10.5905534,5.78 C10.5905534,5.78 10.5905534,5.78 10.5905534,5.78 L10.6905534,5.78 C10.7689329,5.77006427 10.8440995,5.74273096 10.9105534,5.7 C10.9105534,5.7 10.9105534,5.7 10.9105534,5.63 L10.9105534,5.63 C10.8584571,5.57442745 10.8115923,5.51417273 10.7705534,5.45 C10.7705534,5.38 10.6905534,5.38 10.6305534,5.45 C10.5705534,5.52 10.6305534,5.45 10.6305534,5.52 L10.5905534,5.63 Z" transform="translate(.58)"></path>
        <g fill="#32363D" transform="translate(2.55 55.18)">
          <path d="M2.50066784,3.06 C2.50066784,1.37000867 3.8706765,2.13162821e-14 5.56066784,2.13162821e-14 C7.25065917,2.13162821e-14 8.62066784,1.37000867 8.62066784,3.06 C8.62066784,4.58 7.26066784,6.58 6.36066784,7.75 L5.88066784,8.35 L5.77066784,8.47 L5.68066784,8.57 L5.56066784,8.71 C5.56066784,8.71 2.50066784,5.39 2.50066784,3.06 Z M3.86063822,3.06 C3.85661788,3.74848135 4.26823193,4.37142553 4.90314703,4.63770694 C5.53806213,4.90398835 6.27089655,4.76102229 6.75916878,4.27562225 C7.24744101,3.7902222 7.39472805,3.05824399 7.13219706,2.42176897 C6.86966606,1.78529395 6.2491611,1.37001191 5.56066784,1.36997037 C5.11072184,1.36733755 4.67829025,1.54421455 4.35918767,1.86144006 C4.04008508,2.17866558 3.86063822,2.61004613 3.86063822,3.06 L3.86063822,3.06 Z"></path>
          <path d="M5.38066784,9.8 L5.38066784,9.24 L5.56066784,9.43 L5.74066784,9.23 L5.74066784,9.8 L7.74066784,9.8 L7.46066784,8.47 L6.41066784,8.47 C6.57066784,8.27 6.76066784,8.03 6.96066784,7.76 L9.06066784,7.76 C9.78066784,7.76 10.0606678,8.41 10.2106678,8.87 C10.2370103,8.94151157 10.2670508,9.01160607 10.3006678,9.08 L11.1206678,11.27 C11.1431799,11.9732867 10.5937917,12.562874 9.89066784,12.59 L1.23066784,12.59 C0.527544007,12.562874 -0.0218441833,11.9732867 0.00066783783,11.27 L0.820667838,9.08 C0.820667838,9.08 0.820667838,9.01 0.820667838,8.97 C0.990667838,8.5 1.25066784,7.76 2.02066784,7.76 L4.11066784,7.76 C4.31066784,8.03 4.50066784,8.27 4.66066784,8.47 L3.80066784,8.47 L3.52066784,9.8 L5.38066784,9.8 Z M7.86066784,8.47 L8.13066784,9.8 L9.80066784,9.8 L9.63066784,9.34 C9.59978722,9.27852466 9.57306069,9.21504914 9.55066784,9.15 L9.55066784,9.15 C9.55066784,9.09 9.50066784,9.03 9.48066784,8.98 C9.44165865,8.86675301 9.38785992,8.75915555 9.32066784,8.66 C9.28752386,8.60786805 9.2471174,8.56072717 9.20066784,8.52 C9.15782155,8.51081186 9.11351412,8.51081186 9.07066784,8.52 L7.86066784,8.47 Z M3.47066784,8.47 L3.19066784,9.8 L1.30066784,9.8 L1.48066784,9.32 L1.48066784,9.32 C1.48066784,9.27 1.48066784,9.23 1.48066784,9.19 C1.53908741,8.99798693 1.61962785,8.81341507 1.72066784,8.64 C1.75858093,8.59156574 1.80223358,8.54791309 1.85066784,8.51 C1.8962007,8.49545203 1.94513498,8.49545203 1.99066784,8.51 L3.47066784,8.47 Z M8.21066784,10.16 L9.93066784,10.16 L10.3906678,11.37 C10.3628855,11.6320127 10.1531883,11.837516 9.89066784,11.86 L8.57066784,11.86 L8.21066784,10.16 Z M7.84066784,10.16 L5.74066784,10.16 L5.74066784,11.86 L8.19066784,11.86 L7.84066784,10.16 Z M3.49066784,10.16 L5.38066784,10.16 L5.38066784,11.86 L3.13066784,11.86 L3.49066784,10.16 Z M3.12066784,10.16 L1.19066784,10.16 L0.730667838,11.39 C0.758450197,11.6520127 0.96814736,11.857516 1.23066784,11.88 L2.76066784,11.88 L3.12066784,10.16 Z"></path>
        </g>
        <g fill="#32363D" transform="translate(3.04 117.775)">
          <path d="M10.8101645,4.93586348 L10.8101645,10.2746818 C10.8101645,10.7899492 10.3954028,11.2092003 9.88016455,11.2146818 L2.10016455,11.2146818 C1.58492634,11.2092003 1.17013539,10.7899492 1.17016455,10.2746818 L1.17016455,9.45468184 L0.930164546,9.45468184 C0.414926339,9.44920028 0.00013538767,9.02994921 0.000164545761,8.51468184 L0.000164545761,0.704681843 C-0.00251724999,0.546478718 0.0584573557,0.393828045 0.169395823,0.281009265 C0.28033429,0.168190485 0.431938694,0.104681837 0.590164546,0.104681837 L9.08016455,0.104681837 C9.4115354,0.104681837 9.68016455,0.373310993 9.68016455,0.704681843 L9.68016455,1.94063567 L9.27717543,2.51468184 L1.81016455,2.51468184 L1.81016455,10.2646818 C1.80733458,10.3424277 1.83697832,10.417846 1.89198933,10.4728571 C1.94700035,10.5278681 2.02241871,10.5575118 2.10016455,10.5546818 L9.91016455,10.5546818 C10.0703271,10.5546818 10.2001645,10.4248444 10.2001645,10.2646818 L10.2001645,5.97468184 L10.8101645,4.93586348 Z M8.9630332,1.85468184 L1.81016455,1.85468184 C1.65193869,1.85465911 1.50033429,1.91819049 1.38939582,2.03100927 C1.27845736,2.14382805 1.21748275,2.29647872 1.22016455,2.45468184 L1.22016455,8.79468184 L0.970164546,8.79468184 C0.891487383,8.79468184 0.816167826,8.76280628 0.76148545,8.7062383 C0.706803073,8.64967033 0.677451526,8.57331223 0.680164546,8.49468184 L0.680164546,0.794681843 L8.9630332,0.794681843 L8.9630332,1.85468184 Z"></path>
          <polygon fill-rule="nonzero" points="7.98 4.795 2.81 4.795 2.81 5.545 7.53 5.545"></polygon>
          <polygon fill-rule="nonzero" points="7.87 5.555 8.32 4.805 9.32 4.805 9.32 5.555"></polygon>
          <polygon fill-rule="nonzero" points="7.28 5.985 2.81 5.985 2.81 6.725 6.81 6.725"></polygon>
          <polygon fill-rule="nonzero" points="7.17 6.725 7.62 5.985 9.34 5.985 9.34 6.725"></polygon>
          <polygon fill-rule="nonzero" points="6.57 7.155 2.81 7.155 2.81 7.895 6.04 7.895 6.04 7.895 6.14 7.895 6.74 7.895 6.28 7.635"></polygon>
          <polygon fill-rule="nonzero" points="7.33 7.895 6.69 7.525 6.91 7.155 9.21 7.155 8.79 7.895"></polygon>
          <path fill-rule="nonzero" d="M10.2901645,1.50468184 L10.9501645,0.174681843 C11.1173561,0.0290179882 11.3430022,-0.0301678719 11.5601645,0.0146818428 L12.5601645,0.574681843 C12.7075163,0.74495763 12.7667185,0.974365878 12.7201645,1.19468184 L11.9301645,2.42468184 L10.2901645,1.50468184 Z"></path>
          <polygon fill-rule="nonzero" points="8.43 8.535 6.69 7.535 9.86 2.265 11.45 3.175"></polygon>
          <polygon fill-rule="nonzero" points="6.47 9.925 6.37 8.345 7.86 9.105"></polygon>
        </g>
        <path fill="#32363D" d="M10.07,2.39101428 L10.07,1.09101428 C10.07,0.770689126 9.81032515,0.51101428 9.49,0.51101428 L0.58,0.51101428 C0.259674845,0.51101428 0,0.770689126 0,1.09101428 L0,7.00101428 C0,7.50523649 0.405807578,7.91553361 0.91,7.92101428 L1.41,7.92101428 L1.41,8.92101428 C1.41,9.42911625 1.82189803,9.84101428 2.33,9.84101428 L10.57,9.84101428 C11.078102,9.84101428 11.49,9.42911625 11.49,8.92101428 L11.49,2.92101428 C11.49,2.59903191 11.2319361,2.33647161 10.91,2.33101428 L10.07,2.39101428 Z M2.07,3.26101428 L2.07,7.32101428 L2.07,7.32101428 L2.07,8.00101428 L2.07,8.00101428 L2.07,9.00101428 C2.07,9.15565401 2.19536027,9.28101428 2.35,9.28101428 L10.59,9.28101428 C10.6650944,9.2838511 10.7379737,9.25526319 10.7911113,9.20212556 C10.8442489,9.14898794 10.8728368,9.07610867 10.87,9.00101428 L10.87,3.21101428 L10.4,3.64101428 L8.9,4.98101428 L8.82,5.05101428 C7.07,6.60101428 6.59,7.05101428 6.36,7.05101428 C6.13,7.05101428 5.63,6.61101428 3.95,5.05101428 L3.86,4.98101428 L2.39,3.63101428 L2.07,3.26101428 Z M9.45,2.39101428 L9.45,1.15101428 L0.619999948,1.15101428 L0.619999948,7.00101428 C0.619907026,7.15735152 0.743755708,7.28562337 0.9,7.29101428 L1.41,7.29101428 L1.41,3.00101428 C1.41,2.67516628 1.674152,2.41101428 2,2.41101428 L9.43,2.41101428 L9.45,2.39101428 Z M2.83,3.09101428 L2.77,3.04101428 L10.03,3.04101428 L9.98,3.09101428 L8.48,4.43101428 L8.4,4.50101428 C7.8,5.03101428 7.29,5.50101428 6.91,5.79101428 L6.41,6.21101428 L6.36,6.21101428 L6.36,6.21101428 L5.86,5.80101428 C5.49,5.48101428 5,5.04101428 4.42,4.51101428 L4.33,4.43101428 C3.8,4.00101428 3.3,3.55101428 2.81,3.09101428 L2.83,3.09101428 Z" transform="translate(2.55 87.569)"></path>
        <text fill="#32363D" font-family="Lato-Regular, Lato" font-size="9.5">
          <tspan x="19.85" y="154.57">User rights</tspan>
        </text>
        <text fill="#32363D" font-family="Lato-Regular, Lato" font-size="9.5">
          <tspan x="19.85" y="126.57">Publish</tspan>
        </text>
        <text fill="#32363D" font-family="Lato-Regular, Lato" font-size="9.5">
          <tspan x="19.85" y="66.57">Locations</tspan>
        </text>
        <text fill="#32363D" font-family="Lato-Regular, Lato" font-size="9.5">
          <tspan x="19.85" y="37.57">Accounts</tspan>
        </text>
        <text fill="#32363D" font-family="Lato-Regular, Lato" font-size="9.5">
          <tspan x="19.85" y="10.57">Dashboard</tspan>
        </text>
        <text fill="#32363D" font-family="Lato-Regular, Lato" font-size="9.5">
          <tspan x="19.85" y="180.57">Settings</tspan>
        </text>
        <text fill="#32363D" font-family="Lato-Regular, Lato" font-size="9.5">
          <tspan x="19.85" y="91.57">Customer </tspan>
          <tspan x="19.85" y="102.57">Feedback</tspan>
        </text>
        <g transform="translate(2.85 170.57)">
          <path fill="#32363D" fill-rule="nonzero" d="M11.7023975,4.88380465 L10.6315177,4.75516979 C10.5220777,4.34670613 10.3617578,3.96080157 10.1553578,3.60273589 L10.8211177,2.75652974 C10.9228777,2.62645494 10.9113577,2.42534299 10.7937577,2.30822767 L9.69023792,1.20427183 C9.57407795,1.08763649 9.37247799,1.07515699 9.24191802,1.17691292 L8.3942382,1.84360626 C8.03759828,1.63721451 7.65167836,1.47690092 7.24415845,1.36842526 L7.11599847,0.297588096 C7.09631848,0.133914643 6.94511851,0 6.77999855,0 L5.21903888,0 C5.05391892,0 4.90271895,0.133914643 4.88351895,0.297588096 L4.75487898,1.36842526 C4.34687907,1.4773809 3.96047915,1.63817447 3.60383923,1.84408624 L2.75663941,1.17835287 C2.62703944,1.07659694 2.42543948,1.08859646 2.3087995,1.20523179 L1.20479974,2.30966761 C1.08863977,2.42582297 1.07663977,2.6274149 1.17887975,2.75796968 L1.8441596,3.60465581 C1.63775965,3.96176153 1.47743968,4.34814607 1.36847971,4.75660974 L0.298079936,4.88476461 C0.134399971,4.90396384 0,5.05515779 0,5.22075117 L0,6.78164873 C0,6.94676213 0.133919971,7.09699612 0.298079936,7.11715531 L1.36895971,7.24579017 C1.47839968,7.65281389 1.63823965,8.03871845 1.8446396,8.39582417 L1.17935975,9.24347026 C1.07807977,9.37354506 1.08959977,9.57465701 1.20671974,9.69177233 L2.3087995,10.7962082 C2.42543948,10.9123635 2.62703944,10.925323 2.75663941,10.8235671 L3.60431923,10.1563937 C3.96143915,10.3627855 4.34735907,10.5235791 4.75535898,10.6320547 L4.88399895,11.7024119 C4.90367895,11.8665653 5.05439892,12 5.21951888,12 L6.78047855,12 C6.94607851,12 7.09679848,11.8665653 7.11599847,11.7024119 L7.24463845,10.6320547 C7.65311836,10.5226191 8.03903828,10.3623055 8.3956782,10.1563937 L9.24335802,10.8221271 C9.37343799,10.923883 9.57455795,10.9118835 9.69119792,10.7952482 L10.7947177,9.69081237 C10.9118377,9.57465701 10.9238377,9.37306508 10.8215977,9.24203032 L10.1553578,8.39534419 C10.3622378,8.03823847 10.5220777,7.65233391 10.6315177,7.24483021 L11.7019175,7.11619535 C11.8660775,7.09651614 12,6.94676213 12,6.78068877 L12,5.21979121 C12.0004774,5.05371785 11.8670375,4.90348386 11.7023975,4.88380465 Z"></path>
          <circle cx="6" cy="6" r="3" fill="#FFF"></circle>
        </g>
        <circle cx="8.85" cy="146.57" r="2.625" stroke="#32363D" stroke-width=".75"></circle>
        <rect width="7.25" height="6.25" x="5.225" y="149.945" stroke="#32363D" stroke-width=".75" rx="1"></rect>
      </g>
      <path fill="#32363D" fill-rule="nonzero" d="M12.0988512 6.23885123L12.0988512 6.29885123C12.1343257 6.62639193 11.9795614 6.94541278 11.7003511 7.12029264 11.4211408 7.29517249 11.0665617 7.29517249 10.7873514 7.12029264 10.5081411 6.94541278 10.3533767 6.62639193 10.3888512 6.29885123 10.3917217 6.11073287 10.454807 5.92848635 10.5688512 5.77885123L10.5688512 5.77885123 12.2588512 3.67885123 12.0988512 6.23885123zM8.08885123 6.29885123C8.08885123 6.52885123 7.94885123 6.71885123 7.77885123 6.71885123L7.30885123 6.71885123C7.12511549 6.6614781 7 6.49133629 7 6.29885123 7 6.10636617 7.12511549 5.93622436 7.30885123 5.87885123L7.77885123 5.87885123C7.94885123 5.87885123 8.08885123 6.06885123 8.08885123 6.29885123zM8.90885123 4.15885123C8.79167687 4.32265153 8.56501382 4.36265089 8.39885123 4.24885123L8.05885123 3.92885123C7.91651647 3.78473787 7.91651647 3.55296459 8.05885123 3.40885123 8.17969309 3.24375772 8.40955295 3.20397428 8.57885123 3.31885123L8.91885123 3.63885123C9.05845186 3.78568731 9.0539941 4.01749098 8.90885123 4.15885123zM14.0888512 4.24885123C13.9195529 4.36372818 13.6896931 4.32394474 13.5688512 4.15885123 13.4117704 4.02889419 13.3894112 3.79635834 13.5188512 3.63885123L13.8588512 3.31885123C14.0315032 3.22246949 14.2476299 3.25625481 14.3826307 3.4007294 14.5176316 3.54520399 14.5367035 3.76312247 14.4288512 3.92885123L14.0888512 4.24885123zM11.2488512 3.08885123C11.4521983 3.11275301 11.6379227 2.97124869 11.6688512 2.76885123L11.6688512 2.30885123C11.6114781 2.12511549 11.4413363 2 11.2488512 2 11.0563662 2 10.8862244 2.12511549 10.8288512 2.30885123L10.8288512 2.76885123C10.8597798 2.97124869 11.0455042 3.11275301 11.2488512 3.08885123z"></path>
      <path fill="#32363D" fill-rule="nonzero" d="M0.64005102,9.87925769 C0.471714286,9.84239684 0.27777551,9.72112599 0.17072449,9.58149323 C-0.0155204082,9.33634798 -0.00278571429,9.68166158 0.0023877551,4.72764466 L0.0100816327,0.274332472 L0.0687142857,0.187318926 C0.101877551,0.13990682 0.165683673,0.0819434657 0.209061224,0.0554968288 C0.285602041,0.0132918331 0.601846939,0.0106882781 5.31593878,0.00274058414 C8.08109184,-0.00246652572 10.4025204,0.00274058414 10.4789286,0.0106882781 C10.5911531,0.0264466369 10.6345306,0.0475491348 10.7135918,0.124011432 C10.8028673,0.216232088 10.8794082,0.416568789 11.9099898,3.26239136 C12.8742449,5.92130608 13.0119388,6.31663535 12.9992041,6.408856 C12.9838163,6.52478271 12.9251837,6.61960692 12.818,6.70141336 C12.7516735,6.7541696 12.7108163,6.75677316 11.7925918,6.76472085 L10.838551,6.77266855 L10.838551,7.28118393 L10.838551,7.78969932 L10.7620102,7.95043458 C10.6779082,8.12172109 10.5682041,8.2376478 10.3972143,8.32986845 L10.2900306,8.39043536 L7.34115306,8.39838306 L4.3897551,8.40372719 L4.37954082,8.84646856 C4.37184694,9.23645368 4.36428571,9.29976118 4.31573469,9.40513664 C4.22141837,9.6001292 4.11423469,9.71345235 3.9305102,9.80567301 L3.75965306,9.89268656 L2.25457143,9.89803069 C1.42827551,9.90036019 0.701336735,9.88980894 0.64005102,9.87925769 Z M3.59396939,8.62763292 C3.60670408,8.2085976 3.61187755,8.17173675 3.67555102,8.04525879 C3.75713265,7.88712708 3.91273469,7.73433952 4.07603061,7.65527367 L4.19342857,7.59991387 L7.12187755,7.59196617 L10.0478061,7.58675906 L10.0478061,7.178275 L10.0478061,6.76979093 L6.2725,6.76979093 C2.11966327,6.76979093 2.35684694,6.77773863 2.24210204,6.61165923 C2.21663265,6.57479837 1.88247959,5.68150497 1.49977551,4.63268342 C1.11959184,3.58413593 0.803346939,2.7197557 0.798173469,2.71453442 C0.793132653,2.70934148 0.787959184,4.14006342 0.787959184,5.89499648 L0.787959184,9.0887362 L2.18585714,9.08352909 L3.58123469,9.0755814 L3.59396939,8.62763292 Z M12.0374694,5.94775272 C12.0374694,5.94254561 11.6190816,4.79095216 11.108898,3.38379923 L10.1804592,0.827793438 L5.57355102,0.822586328 C3.04054082,0.822586328 0.966642857,0.822586328 0.966642857,0.825189883 C0.966642857,0.830396993 2.72164286,5.67109075 2.80070408,5.88184167 L2.82882653,5.95295983 L7.43321429,5.95295983 C9.96622449,5.95295983 12.0374694,5.95035628 12.0374694,5.94775272 Z" transform="matrix(1 0 0 -1 8 39)"></path>
    </g>
    <rect width="389" height="284.76" x="106.69" y="69.81" fill="#F0F0F0" fill-rule="nonzero"></rect>
    <rect width="179" height="231" x="114.12" y="116" fill="#FFF" fill-rule="nonzero"></rect>
    <g transform="translate(128.12 109)">
      <rect width="194" height="231" x="168" y="7" fill="#FFF" fill-rule="nonzero"></rect>
      <line x1="179.88" x2="224.33" y1="22.5" y2="22.67" stroke="#4DBDEB" stroke-linecap="round" stroke-width="2"></line>
      <line x1="201.88" x2="232.33" y1="114.5" y2="114.67" stroke="#4DBDEB" stroke-linecap="round" stroke-width="2"></line>
      <line x1="201.43" x2="281.765" y1="98.83" y2="99" stroke="#C9C9CC" stroke-linecap="round" stroke-width="2"></line>
      <line x1="201.43" x2="336.43" y1="84.83" y2="84.83" stroke="#C9C9CC" stroke-linecap="round" stroke-width="2"></line>
      <rect width="173" height="54" x="177.88" y="131" fill="#F0F0F0"></rect>
      <rect width="138" height="12" x="178.88" y="193" stroke="#F0F0F0" stroke-width="2"></rect>
      <rect width="33" height="14" x="317.88" y="192" fill="#F0F0F0"></rect>
      <line x1="201.43" x2="336.43" y1="161.83" y2="161.83" stroke="#C9C9CC" stroke-linecap="round" stroke-width="2"></line>
      <line x1="201.43" x2="317.88" y1="170.83" y2="171" stroke="#C9C9CC" stroke-linecap="round" stroke-width="2"></line>
      <line x1="201.43" x2="336.43" y1="91.83" y2="91.83" stroke="#C9C9CC" stroke-linecap="round" stroke-width="2"></line>
      <line x1="201.43" x2="336.43" y1="77.83" y2="77.83" stroke="#C9C9CC" stroke-linecap="round" stroke-width="2"></line>
      <line x1="201.43" x2="336.43" y1="154.83" y2="154.83" stroke="#C9C9CC" stroke-linecap="round" stroke-width="2"></line>
      <line x1="201.43" x2="223.88" y1="198.83" y2="199" stroke="#C9C9CC" stroke-linecap="round" stroke-width="2"></line>
      <line x1=".43" x2="41.88" y1=".83" y2="1" stroke="#C9C9CC" stroke-linecap="round" stroke-width="2"></line>
      <line x1="322.43" x2="344.88" y1="198.83" y2="199" stroke="#4DBDEB" stroke-linecap="round" stroke-width="2"></line>
      <line x1="51.88" x2="89.88" y1=".83" y2="1" stroke="#4DBDEB" stroke-linecap="round" stroke-width="2"></line>
      <line x1="201.43" x2="251.02" y1="46.83" y2="47" stroke="#555E66" stroke-linecap="round" stroke-width="2"></line>
      <line x1="201.43" x2="251.02" y1="142.83" y2="143" stroke="#555E66" stroke-linecap="round" stroke-width="2"></line>
      <g transform="translate(178.15 39.91)">
        <circle cx="6.84" cy="6.84" r="6.84" fill="#8772C1" fill-rule="nonzero"></circle>
        <text fill="#FFF" font-family="Lato-Regular, Lato" font-size="9.5">
          <tspan x="3.73" y="10.09">A</tspan>
        </text>
      </g>
      <polygon fill="#FFD262" points="203.38 67.75 200.735 69.141 201.24 66.195 199.1 64.109 202.057 63.68 203.38 61 204.703 63.68 207.66 64.109 205.52 66.195 206.025 69.141"></polygon>
      <polygon fill="#FFD262" points="212.38 67.75 209.735 69.141 210.24 66.195 208.1 64.109 211.057 63.68 212.38 61 213.703 63.68 216.66 64.109 214.52 66.195 215.025 69.141"></polygon>
      <polygon fill="#FFD262" points="221.38 67.75 218.735 69.141 219.24 66.195 217.1 64.109 220.057 63.68 221.38 61 222.703 63.68 225.66 64.109 223.52 66.195 224.025 69.141"></polygon>
      <polygon fill="#FFD262" points="230.38 67.75 227.735 69.141 228.24 66.195 226.1 64.109 229.057 63.68 230.38 61 231.703 63.68 234.66 64.109 232.52 66.195 233.025 69.141"></polygon>
      <polygon fill="#C9C9CC" points="239.38 67.75 236.735 69.141 237.24 66.195 235.1 64.109 238.057 63.68 239.38 61 240.703 63.68 243.66 64.109 241.52 66.195 242.025 69.141"></polygon>
    </g>
    <g transform="translate(116.55 118.33)">
      <rect width="173" height="51" x=".45" y="68.67" fill="#F0F0F0"></rect>
      <rect width="173" height="66" x=".45" y=".67" fill="#E4F4F9"></rect>
      <rect width="173" height="51" x=".45" y="121.67" fill="#F0F0F0"></rect>
      <rect width="173" height="51" x=".45" y="174.67" fill="#F0F0F0"></rect>
      <g transform="translate(12 78)">
        <line x2="148.45" y1="10.5" y2="10.67" stroke="#C9C9CC" stroke-linecap="round" stroke-width="2"></line>
        <line x2="79.45" y1="16.5" y2="16.67" stroke="#C9C9CC" stroke-linecap="round" stroke-width="2"></line>
        <line x2="66.45" y1=".5" y2=".67" stroke="#4DBDEB" stroke-linecap="round" stroke-width="2"></line>
        <polygon fill="#FFD262" points="4.95 30.42 2.305 31.811 2.81 28.865 .67 26.779 3.627 26.35 4.95 23.67 6.273 26.35 9.23 26.779 7.09 28.865 7.595 31.811"></polygon>
        <polygon fill="#FFD262" points="13.95 30.42 11.305 31.811 11.81 28.865 9.67 26.779 12.627 26.35 13.95 23.67 15.273 26.35 18.23 26.779 16.09 28.865 16.595 31.811"></polygon>
        <polygon fill="#FFD262" points="22.95 30.42 20.305 31.811 20.81 28.865 18.67 26.779 21.627 26.35 22.95 23.67 24.273 26.35 27.23 26.779 25.09 28.865 25.595 31.811"></polygon>
        <polygon fill="#C9C9CC" points="31.95 30.42 29.305 31.811 29.81 28.865 27.67 26.779 30.627 26.35 31.95 23.67 33.273 26.35 36.23 26.779 34.09 28.865 34.595 31.811"></polygon>
        <polygon fill="#C9C9CC" points="40.95 30.42 38.305 31.811 38.81 28.865 36.67 26.779 39.627 26.35 40.95 23.67 42.273 26.35 45.23 26.779 43.09 28.865 43.595 31.811"></polygon>
      </g>
      <g transform="translate(12 133)">
        <line x2="146.45" y1="10.5" y2="10.67" stroke="#C9C9CC" stroke-linecap="round" stroke-width="2"></line>
        <line x2="117.45" y1="16.5" y2="16.67" stroke="#C9C9CC" stroke-linecap="round" stroke-width="2"></line>
        <line x2="66.45" y1=".5" y2=".67" stroke="#4DBDEB" stroke-linecap="round" stroke-width="2"></line>
        <polygon fill="#FFD262" points="4.95 30.42 2.305 31.811 2.81 28.865 .67 26.779 3.627 26.35 4.95 23.67 6.273 26.35 9.23 26.779 7.09 28.865 7.595 31.811"></polygon>
        <polygon fill="#FFD262" points="13.95 30.42 11.305 31.811 11.81 28.865 9.67 26.779 12.627 26.35 13.95 23.67 15.273 26.35 18.23 26.779 16.09 28.865 16.595 31.811"></polygon>
        <polygon fill="#FFD262" points="22.95 30.42 20.305 31.811 20.81 28.865 18.67 26.779 21.627 26.35 22.95 23.67 24.273 26.35 27.23 26.779 25.09 28.865 25.595 31.811"></polygon>
        <polygon fill="#FFD262" points="31.95 30.42 29.305 31.811 29.81 28.865 27.67 26.779 30.627 26.35 31.95 23.67 33.273 26.35 36.23 26.779 34.09 28.865 34.595 31.811"></polygon>
        <polygon fill="#C9C9CC" points="40.95 30.42 38.305 31.811 38.81 28.865 36.67 26.779 39.627 26.35 40.95 23.67 42.273 26.35 45.23 26.779 43.09 28.865 43.595 31.811"></polygon>
      </g>
      <g transform="translate(12 185)">
        <line x2="149.45" y1="10.5" y2="10.67" stroke="#C9C9CC" stroke-linecap="round" stroke-width="2"></line>
        <line x2="106.45" y1="16.5" y2="16.67" stroke="#C9C9CC" stroke-linecap="round" stroke-width="2"></line>
        <line x2="66.45" y1=".5" y2=".67" stroke="#4DBDEB" stroke-linecap="round" stroke-width="2"></line>
        <polygon fill="#FFD262" points="4.95 30.42 2.305 31.811 2.81 28.865 .67 26.779 3.627 26.35 4.95 23.67 6.273 26.35 9.23 26.779 7.09 28.865 7.595 31.811"></polygon>
        <polygon fill="#FFD262" points="13.95 30.42 11.305 31.811 11.81 28.865 9.67 26.779 12.627 26.35 13.95 23.67 15.273 26.35 18.23 26.779 16.09 28.865 16.595 31.811"></polygon>
        <polygon fill="#C9C9CC" points="22.95 30.42 20.305 31.811 20.81 28.865 18.67 26.779 21.627 26.35 22.95 23.67 24.273 26.35 27.23 26.779 25.09 28.865 25.595 31.811"></polygon>
        <polygon fill="#C9C9CC" points="31.95 30.42 29.305 31.811 29.81 28.865 27.67 26.779 30.627 26.35 31.95 23.67 33.273 26.35 36.23 26.779 34.09 28.865 34.595 31.811"></polygon>
        <polygon fill="#C9C9CC" points="40.95 30.42 38.305 31.811 38.81 28.865 36.67 26.779 39.627 26.35 40.95 23.67 42.273 26.35 45.23 26.779 43.09 28.865 43.595 31.811"></polygon>
      </g>
      <g transform="translate(12 11)">
        <line x2="148" y1="25.5" y2="25.5" stroke="#C9C9CC" stroke-linecap="round" stroke-width="2"></line>
        <line x2="148" y1="18.5" y2="18.5" stroke="#C9C9CC" stroke-linecap="round" stroke-width="2"></line>
        <line x2="148" y1="11.5" y2="11.5" stroke="#C9C9CC" stroke-linecap="round" stroke-width="2"></line>
        <line x2="66.45" y1=".5" y2=".67" stroke="#4DBDEB" stroke-linecap="round" stroke-width="2"></line>
        <line x2="101" y1="32.41" y2="32.41" stroke="#C9C9CC" stroke-linecap="round" stroke-width="2"></line>
        <polygon fill="#FFD262" points="4.95 47.42 2.305 48.811 2.81 45.865 .67 43.779 3.627 43.35 4.95 40.67 6.273 43.35 9.23 43.779 7.09 45.865 7.595 48.811"></polygon>
        <polygon fill="#FFD262" points="13.95 47.42 11.305 48.811 11.81 45.865 9.67 43.779 12.627 43.35 13.95 40.67 15.273 43.35 18.23 43.779 16.09 45.865 16.595 48.811"></polygon>
        <polygon fill="#FFD262" points="22.95 47.42 20.305 48.811 20.81 45.865 18.67 43.779 21.627 43.35 22.95 40.67 24.273 43.35 27.23 43.779 25.09 45.865 25.595 48.811"></polygon>
        <polygon fill="#FFD262" points="31.95 47.42 29.305 48.811 29.81 45.865 27.67 43.779 30.627 43.35 31.95 40.67 33.273 43.35 36.23 43.779 34.09 45.865 34.595 48.811"></polygon>
        <polygon fill="#C9C9CC" points="40.95 47.42 38.305 48.811 38.81 45.865 36.67 43.779 39.627 43.35 40.95 40.67 42.273 43.35 45.23 43.779 43.09 45.865 43.595 48.811"></polygon>
      </g>
    </g>
    <g transform="translate(114 83)">
      <rect width="95" height="14" fill="#FFF"></rect>
      <rect width="39" height="14" x="182" fill="#FFF"></rect>
      <rect width="49" height="14" x="131" fill="#FFF"></rect>
      <rect width="38" height="14" x="223" fill="#FFF"></rect>
      <rect width="39" height="14" x="263" fill="#FFF"></rect>
      <rect width="41" height="14" x="335" fill="#4DBDEB"></rect>
      <rect width="18" height="14" x="95" fill="#4DBDEB"></rect>
      <line x1="14.55" x2="52" y1="6.83" y2="7" stroke="#C9C9CC" stroke-linecap="round" stroke-width="2"></line>
      <line x1="191" x2="208.57" y1="6.83" y2="7" stroke="#C9C9CC" stroke-linecap="round" stroke-width="2"></line>
      <line x1="142.55" x2="164.024" y1="6.83" y2="7" stroke="#C9C9CC" stroke-linecap="round" stroke-width="2"></line>
      <line x1="232" x2="248.593" y1="6.83" y2="7" stroke="#C9C9CC" stroke-linecap="round" stroke-width="2"></line>
      <line x1="272" x2="289.57" y1="6.83" y2="7" stroke="#C9C9CC" stroke-linecap="round" stroke-width="2"></line>
      <line x1="310" x2="329" y1="6.83" y2="7" stroke="#4DBDEB" stroke-linecap="round" stroke-width="2"></line>
      <line x1="342.55" x2="365" y1="6.83" y2="7" stroke="#FFF" stroke-linecap="round" stroke-width="2"></line>
      <g stroke="#FFF" transform="translate(99 2)">
        <circle cx="4" cy="4" r="3.5"></circle>
        <line x1="7" x2="9" y1="7" y2="9" stroke-linecap="square"></line>
      </g>
    </g>
    <g fill-rule="nonzero" transform="translate(23.15 26.81)">
      <path fill="#47B7E8" d="M39.34,12.8560537 L43.89,8.05605369 L34.56,8.05605369 C34.3820127,8.06596444 34.2399107,8.2080664 34.23,8.38605369 L34.23,9.38605369 C33.2167927,7.86019174 31.4910804,6.96146192 29.66,7.00605369 C27.269655,6.88894965 25.1315041,8.48208169 24.56,10.8060537 L24.56,8.05605369 L22.87,8.05605369 C22.489819,8.05650085 22.1271812,8.21606151 21.87,8.49605369 L18.71,12.0160537 L15.56,8.49605369 C15.3028188,8.21606151 14.940181,8.05650085 14.56,8.05605369 L12.95,8.05605369 L12.95,15.0560537 L14.86,15.0560537 C14.9501867,15.0534402 15.0356365,15.0150872 15.0975317,14.9494407 C15.1594269,14.8837943 15.1926915,14.7962381 15.19,14.7060537 L15.19,14.7060537 L15.19,11.4360537 L18.73,15.3760537 L22.26,11.4360537 L22.26,14.7260537 C22.2599227,14.9155145 22.4106165,15.0706405 22.6,15.0760537 L24.5,15.0760537 L24.5,12.2260537 C25.0762361,14.5498917 27.218948,16.1391046 29.61,16.0160537 C32.48,16.0160537 34.8,14.0160537 34.8,11.4960537 C34.7980003,11.078123 34.7305149,10.6630876 34.6,10.2660537 L38.73,10.2660537 L34.19,15.0760537 L43.56,15.0760537 C43.7395903,15.0612829 43.8805955,14.9160048 43.89,14.7360537 L43.89,14.7360537 L43.89,12.8560537 L39.34,12.8560537 Z M29.61,13.7460537 C28.4081354,13.58037 27.5489988,12.4989101 27.6594221,11.2907147 C27.7698454,10.0825193 28.810791,9.17471788 30.0227779,9.22964866 C31.2347647,9.28457943 32.1893228,10.2828229 32.19,11.4960537 C32.0938936,12.8273426 30.9419892,13.8319104 29.61,13.7460537 L29.61,13.7460537 Z"></path>
      <rect width="472" height="22.18" y="20.946" fill="#1076A6"></rect>
      <rect width="36" height="4" x="13.28" y="30.286" fill="#C9C9CC"></rect>
      <rect width="36" height="4" x="73.28" y="30.286" fill="#C9C9CC"></rect>
      <rect width="20" height="4" x="439.28" y="30.286" fill="#C9C9CC"></rect>
    </g>
    <rect width="473.47" height="329.68" x="22.14" y="25.92" stroke="#DFDFDF" stroke-width="2"></rect>
  </g>
</svg>
